<?xml version="1.0" standalone="no"?>
<!DOCTYPE svg PUBLIC "-//W3C//DTD SVG 20010904//EN"
 "http://www.w3.org/TR/2001/REC-SVG-20010904/DTD/svg10.dtd">
<svg version="1.0" xmlns="http://www.w3.org/2000/svg"
 width="594.000000pt" height="593.000000pt" viewBox="0 0 594.000000 593.000000"
 preserveAspectRatio="xMidYMid meet">

<g transform="translate(0.000000,593.000000) scale(0.100000,-0.100000)"
fill="#00dcf8" stroke="none">
<path d="M2787 5859 c-484 -30 -952 -181 -1362 -437 -209 -131 -334 -231 -520
-417 -248 -247 -401 -460 -554 -770 -187 -378 -284 -757 -304 -1185 -6 -114
10 -401 28 -525 116 -795 544 -1502 1185 -1959 593 -423 1297 -614 1996 -540
381 40 697 131 1024 295 597 300 1047 759 1334 1359 323 678 374 1439 146
2154 -143 445 -382 835 -719 1174 -191 191 -365 326 -601 464 -480 282 -1083
423 -1653 387z m553 -399 c476 -70 921 -271 1285 -581 597 -509 918 -1239 892
-2029 -11 -308 -59 -550 -167 -827 -141 -361 -333 -649 -616 -923 -511 -495
-1222 -752 -1939 -701 -399 28 -758 139 -1115 344 -431 248 -819 679 -1028
1142 -214 471 -279 1008 -186 1520 143 785 670 1478 1386 1823 285 137 610
227 913 251 148 12 422 3 575 -19z"/>
<path d="M2581 5199 c-13 -5 -75 -11 -138 -14 -63 -2 -120 -8 -126 -13 -7 -5
-29 -12 -51 -15 -21 -3 -60 -17 -86 -31 -25 -13 -64 -28 -86 -32 -60 -10 -61
-11 -96 -139 -27 -98 -61 -192 -79 -218 -11 -16 -23 -44 -26 -64 -4 -23 -20
-50 -47 -77 -36 -37 -38 -41 -19 -44 19 -3 20 -6 10 -35 -13 -41 -27 -78 -38
-99 -5 -9 -12 -35 -15 -58 -4 -22 -11 -43 -15 -46 -5 -3 -9 -33 -10 -67 0 -34
-4 -86 -8 -114 -4 -29 -4 -53 0 -53 11 0 11 -15 9 -176 -1 -157 5 -189 70
-354 21 -52 43 -129 50 -170 11 -67 35 -139 61 -180 5 -8 35 -67 66 -130 54
-112 77 -149 155 -255 21 -27 38 -54 38 -59 0 -11 47 -55 115 -106 41 -32 60
-39 104 -42 50 -3 55 -5 58 -28 1 -14 7 -45 12 -70 6 -25 10 -68 11 -96 0 -58
21 -117 55 -154 21 -24 42 -112 48 -209 2 -33 0 -35 -48 -47 -27 -8 -69 -14
-93 -14 -48 0 -64 -19 -43 -52 7 -11 17 -64 22 -117 5 -53 14 -111 20 -129 6
-18 12 -147 14 -290 2 -147 8 -274 14 -297 6 -22 16 -94 21 -160 18 -221 18
-222 57 -246 31 -19 44 -21 136 -15 124 7 267 27 287 41 8 6 58 10 110 11 92
0 228 21 280 42 14 6 62 20 107 32 70 19 90 30 135 72 29 27 64 55 78 61 13 7
30 23 36 36 7 13 18 27 25 32 7 4 14 16 15 25 2 10 10 23 18 29 8 6 22 43 31
81 15 65 14 78 -4 204 -19 127 -41 223 -62 262 -4 9 -13 46 -19 83 -11 68 -32
135 -80 250 -28 69 -44 95 -66 110 -35 23 -45 48 -54 148 -9 85 -30 214 -65
396 -17 85 -13 95 46 113 22 6 39 15 39 19 0 4 21 15 48 25 57 21 112 60 112
79 0 8 27 42 60 77 33 35 81 95 107 133 25 39 52 74 60 78 18 11 63 83 63 100
0 8 18 33 40 57 22 24 43 55 47 70 4 14 17 46 30 71 13 26 23 56 23 67 0 11
11 34 25 50 13 16 32 51 41 78 9 27 24 58 33 69 22 27 38 62 47 105 3 19 10
40 14 45 5 6 16 30 25 55 23 61 33 334 15 394 -34 110 -44 135 -71 182 -16 29
-36 57 -45 65 -8 7 -22 26 -31 43 -22 42 -100 131 -126 144 -12 6 -48 22 -79
36 -31 14 -66 38 -77 52 -12 15 -21 23 -21 18 -1 -5 -11 3 -23 17 -25 29 -145
99 -170 99 -9 0 -40 11 -69 24 -382 174 -450 197 -634 216 -60 7 -113 16 -119
21 -12 12 -273 10 -304 -2z m114 -31 c-23 -13 -45 -34 -45 -42 0 -14 31 -4 42
13 6 10 17 17 23 14 7 -2 19 3 28 11 17 18 116 23 132 7 6 -5 53 -14 105 -20
112 -13 135 -16 175 -26 44 -10 280 -102 350 -135 33 -16 94 -43 135 -60 169
-71 193 -85 228 -128 19 -23 37 -40 40 -38 2 3 16 -4 30 -14 13 -11 33 -20 42
-20 10 0 23 -6 29 -14 6 -7 24 -16 40 -19 28 -6 57 -40 169 -197 40 -54 67
-113 93 -194 6 -22 5 -32 -6 -40 -12 -9 -11 -13 3 -26 14 -13 15 -12 9 3 -4
11 -3 16 3 12 17 -10 7 -304 -10 -335 -8 -14 -13 -29 -12 -34 2 -4 -4 -18 -12
-31 -8 -12 -18 -40 -22 -61 -4 -21 -19 -57 -34 -79 -15 -22 -35 -61 -44 -87
-8 -26 -25 -57 -36 -68 -11 -11 -22 -32 -26 -47 -3 -16 -16 -50 -29 -78 -12
-27 -26 -61 -30 -75 -4 -14 -27 -45 -51 -70 -30 -30 -42 -51 -38 -62 3 -10 1
-18 -5 -18 -6 0 -11 -7 -11 -16 0 -8 -4 -12 -10 -9 -6 3 -7 -1 -4 -10 5 -11 0
-18 -13 -21 -11 -3 -36 -33 -56 -67 -20 -34 -65 -93 -101 -132 -36 -38 -72
-84 -81 -101 -13 -28 -66 -64 -93 -64 -5 0 -25 -11 -44 -23 -19 -13 -48 -27
-64 -31 -16 -4 -39 -17 -51 -28 -15 -14 -31 -19 -47 -16 -16 3 -26 1 -26 -7 0
-6 -13 -24 -30 -40 -22 -21 -27 -32 -19 -41 7 -9 6 -19 -3 -33 -19 -31 -42
-22 -48 20 -5 33 -36 82 -82 131 -19 20 -88 25 -88 7 0 -6 -7 -4 -15 4 -8 9
-20 17 -27 20 -9 3 -7 9 6 19 12 10 17 21 13 32 -6 14 -9 15 -21 4 -12 -11
-12 -14 3 -20 13 -5 13 -7 1 -9 -23 -3 -110 -4 -110 -2 0 10 37 43 47 43 7 0
13 7 13 16 0 20 57 104 76 111 8 3 14 12 14 20 0 8 8 27 19 41 10 15 26 49 35
75 9 26 24 57 35 68 16 17 41 79 48 119 1 8 4 22 6 30 2 8 7 30 11 48 4 17 12
32 17 32 5 0 2 -16 -6 -36 -12 -30 -12 -34 -1 -25 8 7 17 28 21 47 4 25 10 34
21 30 8 -3 14 -1 14 4 0 6 -9 10 -20 10 -13 0 -20 7 -20 20 0 11 4 20 10 20 5
0 7 7 4 15 -4 8 -1 15 5 15 6 0 11 9 11 20 0 11 3 20 8 20 4 0 20 12 37 27 19
18 27 22 22 10 -7 -19 -6 -20 17 -11 17 7 22 34 6 34 -5 0 -10 8 -10 18 0 10
7 19 15 19 12 0 12 -3 2 -16 -10 -12 -9 -13 2 -7 8 5 17 3 23 -5 7 -10 8 -8 3
8 -4 15 0 30 14 44 11 12 18 27 14 32 -3 6 -1 7 5 3 13 -8 27 36 19 56 -2 7
-1 23 4 35 6 16 13 21 26 16 10 -3 15 -3 11 2 -4 4 6 32 23 63 16 30 29 60 29
66 0 6 9 18 20 26 11 8 20 22 20 32 0 10 4 18 9 18 5 0 16 16 25 35 10 20 22
33 27 29 5 -3 9 -2 8 3 -3 12 23 63 32 63 5 0 6 7 3 15 -4 8 -1 15 5 15 6 0
11 -4 11 -10 0 -5 5 -10 11 -10 5 0 8 4 4 9 -3 5 -1 12 3 15 5 3 9 19 10 36 1
37 10 53 24 44 7 -5 9 -2 6 8 -4 8 2 28 12 43 10 15 16 34 13 42 -3 7 0 20 7
28 7 8 9 15 5 15 -5 0 -1 8 8 18 15 17 17 21 17 43 0 5 4 8 8 5 11 -7 5 -115
-7 -130 -6 -7 -7 -17 -3 -21 4 -5 0 -6 -9 -2 -13 4 -18 -2 -22 -26 -2 -18 -3
-33 -2 -35 5 -6 55 45 55 57 0 6 9 20 20 31 11 11 20 29 20 40 0 11 5 20 10
20 6 0 10 9 10 21 0 11 4 18 8 15 5 -3 20 20 35 50 15 29 22 54 17 54 -6 0
-10 -5 -10 -10 0 -6 -5 -16 -10 -23 -41 -48 -50 -62 -50 -72 0 -17 -28 -27
-33 -12 -2 7 7 22 22 34 14 11 22 25 18 29 -4 5 -12 2 -16 -5 -5 -8 -11 -9
-15 -3 -3 5 1 12 9 16 8 3 15 12 15 21 0 8 4 15 10 15 5 0 6 9 2 19 -6 18 -30
26 -25 9 5 -13 -4 -9 -21 8 -14 14 -16 11 -22 -25 -4 -22 -12 -45 -19 -51 -9
-8 -12 2 -11 45 0 30 5 55 9 55 5 0 15 7 23 15 14 13 14 15 -1 15 -13 0 -14 4
-5 21 9 15 15 18 25 9 10 -8 15 -8 21 2 4 7 4 10 -1 6 -10 -10 -38 20 -32 35
2 7 -2 18 -9 25 -12 11 -14 9 -14 -12 0 -19 -4 -24 -16 -19 -13 5 -15 -1 -11
-28 2 -22 -2 -42 -14 -57 -9 -12 -16 -33 -15 -47 2 -13 -3 -26 -10 -29 -8 -3
-14 -12 -14 -20 0 -26 -23 -66 -37 -66 -7 0 -13 11 -13 25 0 14 4 25 9 25 5 0
8 11 7 25 0 14 -5 23 -11 21 -5 -2 -9 -8 -8 -14 2 -6 -4 -27 -12 -46 -8 -19
-15 -54 -15 -76 0 -22 -4 -40 -8 -40 -5 0 -7 -13 -4 -30 3 -20 0 -30 -8 -30
-8 0 -11 -10 -7 -29 4 -19 1 -33 -8 -41 -8 -7 -15 -26 -15 -43 0 -18 -9 -38
-23 -51 -30 -28 -38 -51 -24 -65 8 -8 8 -11 0 -11 -6 0 -9 -10 -7 -22 2 -13 1
-17 -2 -10 -4 10 -12 4 -25 -17 -10 -17 -23 -31 -29 -31 -6 0 -6 -7 2 -19 10
-16 9 -23 -5 -39 -9 -10 -17 -25 -17 -34 0 -8 -9 -23 -20 -33 -24 -21 -27 -14
-4 9 10 11 11 16 3 16 -12 0 -59 -49 -59 -62 0 -5 -5 -8 -10 -8 -6 0 -8 11 -4
26 5 19 4 25 -5 20 -6 -4 -11 -22 -11 -39 0 -24 -3 -28 -10 -17 -9 14 -11 13
-14 -9 0 -5 -11 -21 -23 -35 -13 -15 -23 -30 -23 -34 0 -5 -11 -15 -25 -22
-24 -13 -34 -30 -17 -30 4 0 8 -16 9 -36 1 -23 -2 -34 -10 -31 -7 3 -11 10 -9
16 1 7 -2 10 -8 6 -7 -4 -9 3 -5 22 l7 28 -14 -24 c-12 -23 -11 -27 12 -50 14
-14 30 -25 35 -23 6 1 2 -4 -7 -11 -10 -8 -18 -21 -18 -30 0 -20 -22 -35 -28
-19 -6 20 -21 13 -37 -18 -16 -30 -13 -50 6 -50 6 0 7 5 3 12 -5 7 -3 8 5 3
22 -13 -4 -28 -28 -16 -17 9 -21 9 -21 -2 0 -7 -11 -20 -25 -27 -25 -13 -39
-40 -44 -82 0 -6 -4 -9 -7 -5 -15 15 -30 -19 -24 -54 4 -20 3 -44 -2 -53 -12
-22 -1 -56 17 -50 7 3 16 1 20 -5 3 -6 2 -11 -3 -11 -5 0 -12 -9 -15 -20 -3
-11 -16 -24 -29 -29 -20 -9 -21 -10 -3 -11 16 0 17 -2 6 -9 -8 -5 -20 -7 -28
-4 -7 3 -13 1 -13 -5 0 -5 7 -12 15 -16 8 -3 15 -1 15 4 0 6 4 10 8 10 5 0 9
-7 9 -15 0 -8 -4 -15 -8 -15 -4 0 -10 -11 -13 -25 -4 -14 -11 -23 -16 -20 -5
3 -14 -4 -20 -16 -7 -11 -14 -18 -17 -15 -3 3 -2 11 4 18 5 7 14 25 20 39 9
21 8 26 -4 26 -8 0 -17 -13 -20 -29 -3 -15 -10 -28 -15 -28 -5 0 -7 -4 -3 -9
3 -6 -13 -29 -35 -53 -22 -24 -40 -49 -40 -55 0 -7 -4 -13 -10 -13 -5 0 -16
-16 -24 -35 -8 -19 -18 -35 -21 -35 -3 0 -1 10 6 22 10 18 9 20 -6 15 -9 -4
-21 -7 -26 -7 -4 0 -5 -7 -2 -17 5 -12 3 -14 -7 -8 -8 5 -11 4 -7 -2 3 -5 -1
-22 -9 -38 -8 -16 -13 -33 -11 -39 5 -14 -36 -46 -57 -46 -11 0 -16 -9 -16
-28 0 -20 -7 -33 -25 -42 -20 -11 -22 -16 -13 -33 10 -20 11 -20 24 4 7 13 13
18 14 11 0 -27 -21 -52 -46 -52 -17 0 -23 4 -18 12 4 7 3 10 -1 5 -5 -4 -7
-32 -6 -62 2 -39 -1 -55 -10 -53 -6 2 -14 -3 -16 -10 -3 -8 1 -10 11 -6 19 7
21 -7 4 -25 -11 -11 -10 -13 2 -7 12 6 11 4 -1 -6 -10 -8 -13 -20 -10 -31 6
-17 8 -16 19 8 7 15 15 25 18 22 3 -3 2 -12 -2 -19 -12 -18 -12 -30 -1 -52 8
-16 6 -18 -8 -13 -11 5 -15 3 -13 -5 3 -7 18 -16 34 -19 l29 -7 -28 -1 c-41
-2 -94 24 -102 49 -5 15 -10 19 -15 11 -14 -24 -43 77 -38 135 3 30 1 54 -3
54 -5 0 -7 16 -5 35 1 19 -2 36 -7 38 -5 1 -9 26 -9 54 0 45 -2 50 -19 46 -11
-3 -22 -9 -25 -14 -3 -5 -23 -9 -46 -9 -58 0 -150 71 -208 160 -8 13 -37 52
-63 88 -27 36 -75 120 -108 188 -33 68 -64 126 -69 129 -6 3 -10 15 -10 25 0
11 -9 35 -20 55 -11 19 -23 53 -26 74 -5 33 -3 39 14 43 12 3 22 2 24 -3 2 -6
12 -2 23 8 11 10 39 27 63 37 27 12 38 22 31 27 -7 4 -32 -6 -58 -21 -25 -16
-47 -27 -50 -25 -8 9 19 31 54 45 19 7 35 19 35 25 0 6 5 16 11 22 9 9 17 6
31 -13 11 -13 24 -22 29 -18 5 3 9 2 8 -3 -1 -4 -1 -16 0 -26 1 -15 4 -15 21
-5 11 7 22 20 25 28 3 9 18 30 34 48 17 17 28 32 26 32 -3 0 34 38 81 84 50
49 81 87 75 91 -6 3 -10 23 -10 43 2 30 3 32 6 10 2 -16 9 -28 14 -28 21 0 59
33 59 52 0 14 5 18 16 14 11 -4 19 4 30 30 8 19 19 32 24 29 5 -3 8 3 7 14 -1
16 -5 18 -19 10 -12 -6 -26 -6 -40 1 -21 10 -22 10 -5 -3 12 -10 14 -17 7 -22
-5 -3 -8 -10 -6 -14 7 -11 -7 -28 -31 -35 -16 -5 -23 -3 -23 6 0 9 -3 9 -8 2
-4 -6 -18 -13 -30 -17 -22 -5 -22 -4 -9 11 8 9 12 23 10 30 -5 14 -34 17 -30
3 1 -5 -7 -17 -18 -25 l-20 -16 20 7 c17 5 17 3 -4 -15 -13 -12 -30 -22 -37
-22 -7 0 -19 -9 -27 -21 -9 -12 -18 -16 -21 -10 -8 13 11 44 35 60 16 9 19 8
19 -5 0 -8 4 -13 9 -10 5 3 7 15 4 26 -4 14 0 20 11 20 9 0 16 8 16 18 0 14
-2 15 -10 2 -5 -8 -12 -12 -15 -9 -8 9 6 40 15 34 5 -3 12 4 15 16 4 12 12 18
21 15 8 -3 14 -1 14 4 0 6 -5 10 -11 10 -6 0 -17 6 -24 14 -12 12 -12 15 0 20
20 7 46 -4 38 -17 -4 -6 -1 -7 6 -2 10 6 12 -4 10 -39 -2 -25 0 -45 5 -45 5 0
13 -5 18 -13 6 -9 8 -5 6 12 -2 14 4 31 12 38 13 12 13 13 0 7 -8 -4 -3 3 13
15 18 14 27 31 27 50 0 15 7 33 16 41 9 7 14 22 11 36 -2 13 0 23 4 23 5 0 9
-4 9 -10 0 -5 8 -10 18 -9 9 0 12 3 5 5 -7 3 -9 12 -6 20 3 7 9 11 14 8 5 -3
9 -1 9 3 0 5 7 18 15 29 14 18 14 18 10 -5 -4 -22 -3 -23 11 -10 8 9 16 25 17
37 1 12 5 22 9 22 4 0 8 9 8 20 0 14 7 20 21 20 11 0 17 5 14 10 -4 6 -10 8
-15 5 -4 -3 -10 2 -14 10 -3 8 -11 15 -18 15 -15 0 -48 -35 -48 -49 0 -5 -7
-12 -15 -15 -9 -3 -15 -11 -14 -18 2 -22 -12 -56 -27 -62 -9 -3 -14 2 -14 14
0 11 -4 20 -9 20 -14 0 -21 -40 -11 -64 5 -13 4 -29 -1 -37 -6 -10 -9 -6 -9
14 0 17 -4 26 -11 22 -5 -4 -8 -12 -6 -18 2 -7 -9 -20 -25 -29 -31 -20 -38
-41 -11 -36 23 4 29 -28 7 -36 -12 -5 -15 -2 -10 9 3 9 2 14 -3 10 -13 -7 -42
5 -35 16 3 5 1 9 -3 9 -5 0 -9 9 -9 19 0 11 4 18 7 15 4 -2 10 0 14 6 3 5 0
10 -7 10 -10 0 -10 2 1 9 7 5 15 27 16 50 2 23 8 47 13 54 5 7 9 36 9 65 0 46
-2 52 -21 52 -13 0 -16 -3 -10 -8 10 -6 20 -48 14 -62 -1 -3 -3 -16 -6 -30 -2
-14 -12 -31 -21 -37 -15 -12 -15 -13 3 -14 17 -1 17 -2 1 -6 -12 -3 -16 -11
-12 -23 3 -10 0 -22 -6 -26 -8 -5 -9 -3 -4 6 6 9 4 11 -6 5 -35 -20 -41 -28
-27 -37 9 -6 10 -10 2 -15 -6 -5 -11 -23 -10 -41 1 -20 -4 -32 -12 -32 -7 0
-10 -5 -7 -10 4 -6 10 -8 15 -5 5 3 12 0 16 -6 5 -8 0 -10 -18 -6 -23 6 -58
-19 -58 -42 0 -5 -6 -11 -12 -14 -8 -2 -9 -8 -4 -13 5 -5 11 -4 13 4 3 6 11
12 19 12 9 0 12 5 8 12 -4 7 -3 8 4 4 7 -4 12 -17 12 -29 0 -18 -2 -19 -10 -7
-6 9 -10 10 -10 3 0 -6 -10 -13 -22 -15 -17 -2 -22 -9 -20 -25 2 -16 -2 -21
-15 -18 -26 4 -36 -5 -23 -20 8 -10 6 -15 -9 -20 -12 -3 -21 -10 -21 -14 0 -4
-20 -30 -45 -57 -25 -27 -45 -53 -45 -58 0 -5 -3 -7 -6 -3 -3 3 -19 -8 -34
-25 -24 -26 -29 -28 -32 -12 -3 17 -4 17 -20 0 -10 -10 -18 -14 -18 -10 0 3
-7 1 -15 -6 -8 -7 -15 -17 -15 -23 0 -6 7 -2 15 9 10 13 14 14 15 5 0 -11 3
-11 15 -1 13 11 14 10 9 -4 -4 -10 -13 -15 -20 -12 -9 3 -14 -1 -14 -11 0 -10
-12 -28 -27 -41 -26 -22 -28 -22 -40 -6 -17 23 -16 34 2 34 8 0 15 5 15 11 0
6 -9 9 -19 6 -15 -3 -22 2 -29 22 -6 14 -13 34 -17 44 -6 13 -2 17 18 17 14 0
37 4 51 10 37 14 32 -5 -4 -20 -16 -7 -30 -16 -30 -21 0 -12 8 -11 38 5 15 8
35 17 44 20 9 3 22 15 29 28 12 22 11 23 -8 6 -25 -22 -37 -23 -29 -2 4 12 2
15 -9 10 -8 -3 -15 -1 -15 4 0 6 -9 1 -20 -10 -21 -21 -50 -27 -50 -11 0 8 13
16 35 20 6 2 14 9 18 17 5 8 12 12 17 9 5 -3 15 3 21 14 7 10 18 17 25 14 7
-2 20 9 30 26 10 16 21 28 26 25 4 -3 8 1 9 8 0 16 59 64 59 48 0 -6 -15 -26
-33 -43 -34 -32 -65 -97 -46 -97 5 0 9 7 9 15 0 8 3 15 8 16 4 0 18 3 32 5 27
5 52 24 31 24 -7 0 -10 4 -7 9 4 5 2 11 -4 13 -5 1 18 31 51 65 34 35 65 60
70 57 5 -3 9 0 9 5 0 6 7 11 15 11 13 0 14 4 5 20 -6 11 -16 19 -22 17 -6 -1
-13 5 -16 13 -4 12 -2 12 18 -1 22 -14 25 -13 54 15 17 17 30 37 28 45 -2 8 1
24 7 35 5 12 15 40 21 64 6 23 15 42 20 42 5 0 6 7 3 17 -4 9 -2 14 3 10 6 -3
16 -1 24 4 12 8 11 9 -4 7 -10 -2 -21 3 -24 11 -3 8 0 11 7 7 7 -5 9 -1 5 8
-3 9 -15 16 -25 16 -11 0 -16 -5 -13 -13 5 -13 -88 -107 -105 -107 -14 0 -21
-28 -8 -33 8 -3 6 -10 -6 -25 -11 -12 -14 -22 -8 -26 11 -7 44 35 39 50 -3 12
25 54 35 54 5 0 18 11 29 25 37 48 35 24 -6 -55 -22 -44 -47 -80 -54 -80 -8 0
-12 -5 -10 -11 2 -6 -11 -26 -29 -45 -32 -34 -62 -45 -64 -21 0 9 -2 9 -5 0
-7 -16 15 -55 27 -48 5 4 7 11 4 16 -4 5 -1 9 4 9 16 0 14 -11 -11 -50 -15
-25 -22 -31 -26 -20 -3 8 -10 21 -16 29 -8 11 -8 13 2 7 17 -10 16 23 -2 43
-11 13 -12 22 -2 51 7 19 17 34 23 33 6 -1 11 12 11 30 0 18 1 37 3 42 1 6 3
15 3 22 2 21 47 74 57 68 5 -4 8 -2 7 4 -2 5 45 60 105 120 59 61 104 111 101
111 -4 0 5 9 20 21 14 11 47 50 73 86 26 36 49 61 51 54 2 -6 8 -9 13 -5 5 3
9 -7 9 -21 0 -15 -4 -24 -10 -20 -5 3 -10 -1 -10 -9 0 -9 6 -13 14 -10 10 4
14 -2 12 -25 -2 -28 0 -30 23 -24 32 8 55 29 41 38 -5 3 -8 16 -6 28 3 12 5
25 5 28 1 4 12 14 25 22 22 15 24 15 19 -2 -2 -10 2 -25 11 -33 8 -9 12 -18 9
-22 -4 -3 -1 -6 5 -6 13 0 16 13 5 23 -10 11 -10 57 0 57 5 0 4 7 -3 15 -18
22 -39 18 -50 -7 -8 -22 -9 -22 -9 4 -1 15 -6 30 -12 34 -6 3 -10 -1 -9 -12 4
-39 -1 -54 -17 -54 -15 0 -16 -2 -3 -10 10 -7 11 -10 2 -10 -7 0 -15 7 -18 15
-4 8 -12 15 -20 15 -25 0 -15 17 39 68 129 125 184 149 175 78 -4 -39 16 -66
30 -39 11 21 5 46 -9 38 -7 -5 -5 24 5 65 0 3 -3 5 -9 5 -5 0 -9 -5 -7 -12 2
-7 -2 -13 -8 -13 -18 0 -11 20 23 62 64 81 209 208 236 208 12 0 12 3 3 12 -9
9 -18 9 -39 -1 -49 -22 -133 -84 -133 -98 0 -7 -7 -13 -15 -13 -14 0 -20 -12
-16 -33 1 -5 -3 -5 -9 -2 -11 7 -46 -26 -79 -74 -8 -11 -18 -18 -22 -15 -4 2
-18 -10 -30 -28 -33 -47 -45 -58 -64 -58 -9 0 -13 -4 -10 -10 3 -5 3 -15 -1
-21 -5 -8 -9 -8 -14 1 -6 9 -10 6 -15 -9 -6 -19 -16 -25 -37 -22 -4 0 -4 -7
-1 -16 5 -13 2 -15 -12 -9 -11 4 -16 4 -12 0 3 -4 -4 -16 -17 -28 -13 -12 -27
-31 -31 -44 -3 -12 -15 -27 -26 -32 -10 -6 -19 -15 -19 -21 0 -6 -9 -24 -21
-40 -11 -16 -17 -29 -12 -29 4 -1 -6 -7 -23 -14 -18 -8 -37 -27 -45 -44 -7
-17 -17 -28 -22 -25 -9 5 -57 -43 -57 -58 0 -5 -4 -9 -8 -9 -14 0 -52 -36 -52
-49 0 -6 -6 -11 -14 -11 -7 0 -19 -7 -26 -15 -8 -9 -21 -13 -34 -10 -16 5 -18
4 -6 -4 12 -8 10 -14 -12 -34 -14 -13 -29 -34 -33 -46 -3 -12 -11 -19 -16 -16
-5 4 -9 0 -9 -8 0 -7 -18 -33 -40 -57 -22 -24 -40 -49 -40 -55 0 -7 -7 -18
-15 -25 -9 -7 -13 -20 -10 -28 5 -13 3 -13 -12 -1 -15 12 -16 12 -11 -2 5 -13
2 -16 -13 -12 -10 3 -19 0 -19 -6 0 -6 -20 -24 -46 -40 -25 -16 -41 -32 -35
-35 5 -4 12 -2 16 4 3 5 13 10 22 10 13 0 12 -5 -7 -25 -13 -14 -32 -25 -42
-25 -23 0 -24 -18 -1 -27 10 -4 23 2 34 16 10 12 23 20 28 16 9 -5 35 29 36
47 0 3 4 10 9 15 5 5 6 3 2 -4 -4 -7 -2 -14 3 -14 21 -3 26 -4 39 -12 7 -5 12
-3 12 6 0 8 7 20 15 27 12 10 15 10 15 0 0 -29 16 6 19 43 1 4 10 7 20 7 11 0
21 5 23 10 2 6 9 0 17 -12 7 -13 10 -20 6 -16 -5 4 -14 3 -21 -3 -8 -7 -14 -7
-19 1 -3 6 -11 8 -16 4 -15 -9 0 -24 24 -25 12 0 17 -3 10 -5 -7 -3 -10 -11
-7 -18 3 -7 -3 -19 -12 -27 -15 -13 -16 -12 -9 10 l8 25 -25 -27 c-14 -15 -32
-27 -39 -27 -11 0 -11 -2 1 -10 12 -8 11 -10 -5 -10 -12 0 -45 -16 -75 -35
-30 -19 -61 -35 -67 -35 -7 0 -13 -7 -13 -17 0 -15 2 -15 19 1 11 10 25 15 30
11 6 -3 18 1 27 9 15 16 34 21 34 10 0 -14 -22 -44 -33 -44 -7 0 -23 -9 -37
-20 -37 -29 -57 -25 -65 13 -13 64 -16 143 -7 217 6 48 6 82 0 94 -18 33 -11
217 9 249 3 6 1 7 -5 3 -18 -11 -14 5 5 26 11 12 16 32 14 54 -2 27 1 34 16
34 15 0 16 -2 3 -10 -8 -5 -13 -10 -10 -11 3 0 15 -2 28 -5 12 -2 22 1 22 6 0
6 7 10 15 10 8 0 15 6 15 13 0 7 11 21 25 31 20 15 23 22 14 38 -8 15 -8 19 0
13 7 -4 21 5 33 20 15 19 24 23 32 15 8 -8 14 2 21 37 7 30 16 47 24 45 7 -1
10 2 7 7 -3 5 4 11 15 14 12 3 18 10 14 16 -3 6 1 11 9 11 11 0 16 10 16 31 0
22 4 30 13 26 9 -3 13 3 13 17 -1 17 5 21 27 20 15 -1 27 2 27 7 0 14 52 69
60 64 4 -3 11 7 14 21 5 18 12 24 22 20 8 -3 12 -1 9 4 -3 5 6 12 21 16 26 7
43 18 108 77 17 15 39 30 48 33 10 3 15 10 12 16 -4 7 -2 8 5 4 7 -5 20 2 31
17 10 13 42 39 69 58 28 19 51 37 51 42 0 4 -9 16 -21 28 -16 16 -23 18 -35 8
-8 -6 -17 -9 -21 -6 -3 3 -19 -1 -35 -9 -23 -12 -28 -12 -22 -2 6 10 4 10 -9
-1 -14 -11 -20 -11 -33 0 -13 11 -19 8 -40 -16 -13 -15 -24 -32 -24 -37 0 -4
-5 -8 -11 -8 -6 0 -19 -10 -30 -22 -27 -33 -25 1 2 36 12 15 18 30 14 34 -7 8
-45 -39 -39 -49 2 -4 -2 -9 -10 -12 -11 -5 -13 3 -9 36 2 23 9 47 15 52 8 7 8
6 3 -5 -8 -13 -6 -13 8 -1 11 9 35 12 77 8 34 -2 57 -1 54 4 -3 5 16 9 43 9
59 0 90 4 99 13 4 4 26 7 48 7 36 -1 39 -2 21 -12z m-89 -53 c-15 -14 -33 -25
-41 -25 -8 0 -19 -8 -24 -17 -6 -10 -11 -13 -11 -6 0 14 70 72 89 73 8 0 3
-10 -13 -25z m-296 -9 c0 -32 -14 -40 -42 -26 -19 9 -21 9 -7 -2 12 -11 13
-17 3 -37 -10 -19 -13 -21 -21 -7 -6 11 -9 4 -9 -24 -1 -22 2 -40 7 -40 5 0 9
-7 9 -15 0 -9 7 -29 15 -45 15 -28 14 -29 -32 -74 -26 -25 -51 -46 -56 -46 -4
0 -5 -5 -1 -11 4 -7 1 -10 -7 -7 -16 5 -18 31 -7 66 4 12 3 22 -2 22 -5 0 -12
-16 -15 -35 -3 -19 -7 -51 -10 -70 -3 -19 -12 -38 -19 -42 -13 -8 -30 -43 -28
-55 1 -5 -4 -8 -12 -8 -8 0 -21 -8 -28 -17 -22 -30 -43 -26 -44 7 -1 16 2 27
6 25 11 -7 20 19 34 103 7 40 9 75 5 78 -8 5 -13 -12 -12 -43 1 -9 -4 -10 -18
-2 -11 5 -19 7 -19 3 0 -4 -2 -5 -5 -2 -3 3 -2 13 2 23 6 18 7 18 14 -1 5 -12
8 0 9 36 0 31 9 73 20 98 10 23 16 42 13 42 -3 0 0 7 7 15 7 8 9 15 6 15 -20
0 25 29 55 35 19 4 45 14 59 23 41 27 73 40 103 41 22 1 27 -3 27 -23z m150
-75 c0 -5 9 -7 20 -4 12 3 20 0 20 -6 0 -7 -4 -9 -10 -6 -5 3 -10 1 -10 -5 0
-10 -48 -35 -62 -32 -4 1 -5 -5 -2 -13 4 -8 2 -15 -3 -15 -6 0 -15 -10 -22
-22 -6 -13 -9 -15 -7 -5 7 24 -13 21 -57 -9 l-39 -26 4 23 c3 25 77 82 121 92
15 4 27 14 27 22 0 8 5 15 10 15 6 0 10 -4 10 -9z m-90 -121 c0 -5 -4 -10 -10
-10 -5 0 -10 5 -10 10 0 6 5 10 10 10 6 0 10 -4 10 -10z m-355 -141 c0 -8 4
-20 8 -26 11 -18 -1 -33 -20 -26 -11 4 -14 3 -9 -5 4 -7 1 -12 -7 -12 -10 0
-13 -7 -10 -18 2 -11 -3 -24 -14 -32 -13 -10 -15 -11 -6 -1 13 15 6 44 -9 35
-5 -3 -4 3 4 15 7 12 18 21 25 21 7 0 13 7 13 15 0 8 -4 15 -9 15 -5 0 -7 9
-4 19 5 22 38 22 38 0z m-84 -126 c-8 -15 -10 -15 -11 -2 0 17 10 32 18 25 2
-3 -1 -13 -7 -23z m59 -73 c-6 -11 -15 -20 -20 -20 -6 0 -2 9 7 20 10 11 19
20 21 20 1 0 -2 -9 -8 -20z m639 -19 c9 -6 10 -11 2 -15 -6 -4 -11 -2 -11 4 0
6 -4 8 -10 5 -5 -3 -10 -1 -10 4 0 13 10 14 29 2z m1281 -61 c0 -10 -6 -20
-14 -23 -9 -4 -13 0 -11 11 2 9 4 23 4 30 1 20 21 3 21 -18z m-2050 -70 c-6
-11 -12 -20 -14 -20 -2 0 -2 9 1 20 3 11 9 20 15 20 5 0 4 -9 -2 -20z m1930
-45 c-6 -7 -12 -32 -13 -54 -2 -32 -6 -40 -24 -44 -19 -4 -23 0 -23 23 0 14 8
35 18 46 9 11 18 26 20 34 5 19 26 32 30 19 2 -5 -1 -16 -8 -24z m-1660 -309
c0 -3 -4 -8 -10 -11 -5 -3 -10 -1 -10 4 0 6 5 11 10 11 6 0 10 -2 10 -4z m310
-40 c0 -2 -7 -7 -16 -10 -8 -3 -12 -2 -9 4 6 10 25 14 25 6z m-74 -241 c0 -14
-9 -28 -19 -31 -9 -3 -15 -9 -13 -13 3 -4 -1 -8 -8 -8 -10 0 -10 6 -2 24 6 12
14 23 18 23 4 0 5 7 2 15 -4 9 0 15 9 15 10 0 14 -9 13 -25z m1 -57 c-3 -8 -6
-5 -6 6 -1 11 2 17 5 13 3 -3 4 -12 1 -19z m1063 18 c0 -3 -4 -8 -10 -11 -5
-3 -10 -1 -10 4 0 6 5 11 10 11 6 0 10 -2 10 -4z m-1236 -38 c-3 -7 -16 -21
-30 -32 l-26 -18 16 31 c15 29 51 46 40 19z m157 -3 c-1 -15 -24 -12 -29 3 -3
9 2 13 12 10 10 -1 17 -7 17 -13z m-71 -5 c0 -5 -7 -10 -16 -10 -13 0 -14 -3
-4 -15 6 -8 10 -20 7 -27 -3 -7 -6 -4 -7 7 -1 18 -2 18 -16 -5 -10 -17 -13
-18 -8 -5 3 11 7 27 7 35 0 23 37 43 37 20z m1089 -26 c-12 -13 -29 -24 -37
-24 -9 0 -4 11 14 29 15 17 32 27 37 24 5 -3 -2 -16 -14 -29z m-1169 -73 c0
-12 -20 -25 -27 -18 -7 7 6 27 18 27 5 0 9 -4 9 -9z m-100 -31 c-10 -19 -15
-22 -42 -24 -13 -1 -78 -66 -78 -78 0 -4 -9 -10 -21 -13 -11 -4 -18 -13 -15
-20 4 -12 -13 -25 -34 -25 -4 0 -10 16 -12 36 -4 32 -1 37 26 49 17 7 46 24
64 38 19 14 43 24 54 22 11 -2 29 5 41 15 26 25 30 25 17 0z m54 -25 c-11 -8
-14 -15 -6 -15 6 0 12 -5 12 -11 0 -5 -4 -7 -10 -4 -5 3 -10 2 -10 -4 0 -10
-25 -9 -35 1 -7 7 43 48 58 48 6 0 2 -7 -9 -15z m11 -55 c3 -5 1 -10 -4 -10
-6 0 -11 5 -11 10 0 6 2 10 4 10 3 0 8 -4 11 -10z m1016 -148 c-6 -2 -9 -7 -6
-12 3 -4 -2 -10 -10 -13 -12 -5 -11 0 3 30 13 27 18 32 21 17 2 -10 -2 -20 -8
-22z m22 -69 c-5 -11 -8 -12 -13 -2 -5 7 -6 19 -3 26 5 11 8 12 13 2 5 -7 6
-19 3 -26z m-41 -55 c-7 -7 -12 -22 -12 -34 0 -23 -16 -41 -27 -30 -4 4 -1 12
5 18 7 7 12 19 12 28 0 18 21 43 29 35 2 -3 -1 -11 -7 -17z m-134 -489 c-3
-20 -5 -21 -18 -8 -8 8 -27 14 -42 14 -16 0 -27 5 -25 10 1 6 19 10 39 9 23 0
35 4 31 10 -4 7 -1 6 6 0 7 -7 11 -22 9 -35z m43 -6 c12 -16 12 -17 -2 -6 -9
7 -19 10 -22 6 -4 -3 -7 -1 -7 5 0 17 16 15 31 -5z m105 -7 c20 -20 18 -26 -8
-26 -26 1 -61 24 -51 33 11 12 44 8 59 -7z m-296 -10 c0 -2 -7 -9 -15 -16 -13
-11 -14 -10 -9 4 5 14 24 23 24 12z m36 -21 c-3 -9 -11 -13 -16 -10 -8 5 -7
11 1 21 14 18 24 11 15 -11z m217 -17 c14 -1 25 -7 24 -13 -1 -5 4 -9 11 -7 8
1 11 -2 7 -7 -3 -6 3 -16 15 -23 24 -15 26 -25 5 -30 -12 -2 -8 -12 17 -42 29
-35 30 -40 15 -51 -21 -15 -22 -29 -2 -21 8 3 15 4 15 3 0 -1 7 -20 15 -42 8
-22 14 -31 15 -20 0 18 1 18 16 -3 8 -12 16 -36 16 -53 1 -16 5 -32 9 -35 5
-3 8 14 6 38 -1 24 3 49 10 56 19 20 27 83 14 105 -7 10 -11 20 -9 21 55 35
58 37 58 21 0 -9 9 -28 20 -43 14 -19 23 -56 30 -127 6 -55 17 -130 25 -166
18 -79 19 -121 5 -135 -10 -10 -218 -8 -229 2 -2 2 2 10 9 19 7 8 10 22 6 30
-3 8 -2 15 3 15 10 0 40 71 48 109 2 14 6 28 8 32 3 4 -3 10 -12 13 -10 4 -14
4 -11 0 4 -3 0 -20 -8 -36 -8 -15 -14 -34 -13 -41 4 -20 -24 -68 -36 -63 -18
6 -45 -31 -39 -51 4 -13 3 -14 -3 -5 -12 16 -43 5 -43 -16 0 -8 -3 -12 -6 -9
-4 4 -19 -1 -34 -10 -26 -15 -31 -15 -71 1 -34 14 -40 14 -30 3 9 -12 9 -16 0
-19 -7 -2 -10 -11 -6 -20 8 -21 47 -12 48 11 0 10 2 11 6 4 2 -7 12 -13 20
-13 12 0 14 -8 10 -37 -5 -28 -4 -34 4 -20 6 10 22 17 42 17 24 0 28 3 17 10
-12 8 -10 10 10 11 14 1 28 1 33 0 4 0 7 6 7 15 0 13 3 14 13 5 8 -6 17 -8 20
-4 4 3 7 1 7 -6 0 -15 25 -42 33 -35 2 3 21 -5 41 -17 20 -12 39 -19 42 -16 3
3 -20 19 -50 37 -31 17 -58 36 -61 41 -4 5 -11 7 -16 4 -5 -4 -9 1 -9 11 0 12
3 14 13 6 7 -6 66 -13 132 -15 66 -3 125 -6 130 -7 6 -2 18 0 27 4 19 9 67
-21 68 -41 0 -7 4 -13 9 -13 11 0 32 -56 24 -64 -4 -3 -1 -6 5 -6 7 0 12 -16
12 -37 0 -28 3 -34 10 -23 8 12 10 12 10 -5 0 -21 20 -82 32 -101 4 -6 10 -33
13 -60 3 -27 11 -65 19 -84 25 -66 37 -108 46 -171 5 -35 13 -83 18 -106 5
-24 8 -54 7 -68 -2 -14 1 -27 6 -31 5 -3 9 -12 9 -20 0 -9 -5 -12 -11 -8 -8 5
-10 -2 -6 -22 3 -16 -1 -41 -9 -56 -8 -15 -14 -30 -14 -33 1 -21 -3 -25 -25
-25 -14 0 -25 -5 -25 -11 0 -6 7 -9 15 -5 12 4 13 2 6 -13 -6 -10 -18 -24 -27
-32 -14 -11 -18 -11 -22 -1 -3 10 -7 9 -16 -4 -16 -21 -50 -16 -36 6 9 13 11
13 20 0 8 -13 10 -13 10 1 0 9 7 20 16 23 9 4 14 9 10 13 -3 3 1 15 11 25 14
16 14 18 0 18 -12 0 -15 8 -12 31 3 18 7 34 10 37 2 3 1 10 -4 16 -12 16 -20
56 -11 56 4 0 7 18 6 40 -1 22 2 40 6 40 7 0 10 -24 11 -88 0 -12 4 -22 9 -22
6 0 8 7 5 15 -4 8 -2 17 4 21 7 4 6 10 0 18 -6 7 -13 42 -15 77 -8 105 -18
136 -37 109 -5 -8 -7 -36 -4 -61 4 -37 2 -46 -11 -46 -9 0 -13 6 -9 16 8 19 8
20 6 44 0 10 -5 15 -11 12 -5 -3 -10 -2 -10 3 0 6 7 12 15 16 8 3 15 12 15 21
0 9 9 15 21 15 19 0 20 2 8 17 -10 11 -10 14 -1 9 6 -4 12 -2 12 3 0 6 -4 11
-10 11 -5 0 -10 12 -10 26 0 17 -4 23 -12 18 -10 -5 -10 -4 -2 5 13 14 7 51
-8 51 -6 0 -8 15 -6 34 2 19 0 32 -4 29 -5 -2 -6 6 -3 19 4 16 -1 30 -15 46
-12 12 -23 39 -25 60 -1 20 -4 39 -5 42 -1 3 -2 8 -1 12 0 5 -5 7 -12 5 -7 -1
-11 7 -9 22 2 14 0 21 -6 17 -6 -3 -16 10 -23 29 -7 19 -17 35 -22 35 -5 0 -7
7 -3 15 3 9 -3 19 -14 25 -11 6 -20 7 -20 3 0 -4 -9 3 -19 17 -17 22 -19 22
-18 5 1 -11 9 -23 18 -27 21 -8 51 -66 38 -74 -5 -3 -12 2 -15 11 -4 8 -16 20
-27 26 -17 10 -19 9 -14 -5 4 -9 3 -16 -2 -16 -11 0 -47 40 -43 49 2 3 -5 7
-15 8 -15 2 -15 1 2 -6 11 -5 16 -10 11 -10 -5 -1 -2 -8 5 -18 13 -15 12 -15
-8 -4 -13 6 -23 8 -23 4 0 -4 -5 -1 -10 7 -7 11 -9 5 -7 -20 2 -32 0 -35 -23
-32 l-25 3 26 -23 c14 -13 30 -32 34 -43 7 -18 9 -18 12 -3 4 14 8 16 24 8 16
-9 19 -7 19 15 0 28 -3 30 -32 14 -18 -10 -20 -9 -15 5 4 10 3 15 -2 12 -5 -3
-8 5 -7 19 1 21 5 23 26 18 14 -4 31 -12 38 -20 20 -19 32 -16 32 9 0 19 4 16
27 -17 14 -22 30 -42 33 -45 4 -3 10 -26 14 -52 4 -27 12 -48 18 -48 5 0 8 7
4 15 -3 8 -1 15 4 15 14 0 12 -17 -5 -44 -14 -21 -14 -24 0 -30 9 -3 14 -9 12
-13 -3 -5 1 -42 8 -83 8 -41 11 -78 9 -82 -3 -5 0 -8 6 -8 7 0 9 -8 5 -20 -4
-12 -3 -26 2 -33 12 -18 10 -50 -5 -55 -7 -2 -12 5 -12 17 0 12 -4 21 -10 21
-5 0 -7 6 -4 14 3 8 1 17 -5 21 -14 8 -14 -14 0 -54 7 -20 18 -31 30 -31 13 0
19 -7 20 -22 4 -86 3 -120 -3 -125 -5 -2 -5 -22 -2 -44 4 -24 3 -39 -4 -39
-12 0 -24 28 -17 40 3 5 1 28 -4 52 -8 36 -8 40 3 25 13 -17 14 -16 19 2 3 14
-1 20 -20 24 -23 4 -24 3 -19 -37 5 -34 4 -38 -6 -21 -15 25 -48 61 -48 52 0
-4 12 -30 26 -57 14 -28 24 -59 21 -70 -3 -10 1 -21 8 -24 16 -6 25 -65 12
-73 -6 -3 -16 2 -24 12 -7 11 -13 16 -13 13 0 -4 -3 -14 -6 -22 -5 -12 -2 -15
10 -10 14 5 16 2 10 -21 -5 -20 -4 -26 5 -21 7 4 20 5 29 1 15 -6 15 -8 -3
-15 -16 -7 -17 -9 -3 -9 12 -1 18 -12 20 -38 3 -35 4 -36 21 -19 16 17 17 16
17 -4 0 -15 -5 -20 -14 -17 -15 6 -39 -15 -31 -26 3 -4 2 -5 -2 -2 -3 3 -12 0
-20 -6 -9 -9 -13 -8 -13 0 0 6 -8 11 -17 11 -15 -1 -15 -4 5 -20 l23 -19 -44
-25 c-24 -14 -50 -26 -57 -26 -8 0 -50 -11 -94 -24 -119 -35 -166 -42 -166
-22 0 9 5 16 12 16 6 0 8 3 5 6 -4 4 -13 2 -21 -5 -11 -9 -14 -9 -12 1 0 7 -3
13 -9 13 -5 0 -10 -12 -9 -27 1 -26 -14 -41 -17 -18 -1 6 -3 15 -4 20 -1 6 -3
12 -4 15 0 3 -9 1 -19 -4 -14 -8 -19 -6 -19 5 0 7 6 14 14 14 21 0 27 3 41 17
18 18 29 16 41 -4 10 -17 10 -17 11 -1 0 21 47 35 63 19 6 -6 7 -11 2 -11 -5
0 0 -7 13 -15 16 -12 27 -13 41 -5 11 5 27 10 36 10 18 0 50 28 42 36 -3 3
-23 -4 -46 -15 -45 -23 -51 -25 -51 -13 0 5 10 14 23 21 l22 11 -22 -6 c-13
-3 -23 -1 -23 4 0 6 12 9 26 7 35 -3 96 14 89 25 -3 5 -1 11 5 15 5 3 10 -1
10 -10 0 -9 5 -13 10 -10 17 11 11 35 -10 35 -10 0 -24 8 -30 18 -11 16 -11
15 -5 -2 3 -11 0 -23 -7 -28 -18 -11 -40 -10 -33 2 3 6 1 10 -4 10 -6 0 -11 9
-11 20 0 11 -7 20 -15 20 -8 0 -15 -7 -15 -16 0 -25 -35 -12 -38 15 -3 15 0
21 8 16 6 -4 18 -1 26 6 12 10 12 14 2 20 -18 12 -30 11 -23 -1 3 -6 1 -10 -4
-10 -6 0 -11 10 -11 23 -1 20 -2 20 -11 4 -5 -9 -7 -22 -4 -27 3 -6 -1 -10 -9
-10 -13 0 -11 -5 6 -22 13 -13 17 -23 10 -26 -6 -2 -9 -11 -6 -20 5 -15 4 -15
-6 1 -6 9 -8 22 -5 27 3 6 -1 7 -10 4 -10 -4 -13 -13 -10 -25 5 -14 1 -19 -13
-19 -10 0 -25 -11 -32 -25 -14 -27 -37 -34 -37 -11 0 8 6 12 12 9 7 -2 15 2
18 10 4 11 -4 14 -34 12 -21 -1 -39 2 -39 6 0 5 4 9 9 9 5 0 17 3 27 7 13 5
15 3 9 -8 -6 -11 -5 -12 5 -2 18 17 23 48 6 34 -9 -7 -16 -7 -24 1 -9 9 -12 9
-12 0 0 -7 -9 -12 -21 -12 -15 0 -19 -4 -14 -19 5 -16 1 -19 -19 -17 -14 2
-25 0 -24 -3 3 -25 -4 -51 -13 -51 -5 0 -7 6 -4 13 4 6 0 4 -8 -5 -15 -19 -32
-25 -22 -8 3 6 1 10 -5 10 -6 0 -8 5 -5 10 4 6 10 8 14 6 4 -3 13 -1 20 3 9 6
4 9 -13 9 -14 0 -26 -4 -26 -9 0 -5 -15 -7 -33 -5 -37 5 -67 -7 -48 -18 6 -4
11 -2 11 4 0 6 5 8 10 5 8 -5 8 -11 0 -20 -8 -9 -8 -15 0 -20 7 -4 5 -11 -5
-21 -17 -18 -19 -30 -5 -39 6 -3 13 1 16 10 6 13 9 14 16 3 5 -8 6 -3 2 15 -4
17 -2 27 5 27 6 0 11 5 11 11 0 5 -4 7 -10 4 -5 -3 -10 3 -10 13 0 15 5 19 20
15 11 -3 20 -12 20 -20 0 -11 7 -13 27 -8 23 5 25 4 13 -10 -7 -8 -10 -18 -6
-22 3 -3 6 0 6 7 0 9 5 7 15 -6 14 -18 15 -18 12 5 -2 29 51 65 74 50 11 -7 9
-10 -8 -15 -13 -4 -23 -10 -23 -15 0 -5 -7 -9 -17 -9 -15 0 -15 -1 0 -18 10
-10 14 -21 11 -24 -3 -3 2 -5 12 -4 9 0 19 -5 22 -13 4 -11 -6 -13 -49 -9 -29
3 -55 11 -57 17 -2 6 -8 11 -13 11 -6 0 -7 -4 -4 -10 3 -6 -4 -10 -18 -10 -14
0 -30 -6 -36 -14 -6 -7 -42 -16 -84 -20 -102 -10 -112 -11 -124 -19 -8 -5 -11
1 -10 19 2 22 -2 27 -24 28 -28 2 -30 -18 -3 -28 16 -6 19 -26 3 -26 -5 0 -7
5 -4 10 6 9 -8 14 -27 11 -5 0 -8 4 -8 10 0 5 -5 7 -10 4 -6 -3 -13 1 -16 9
-4 11 -11 13 -30 6 -14 -6 -24 -6 -24 0 0 4 8 11 18 13 13 4 11 5 -5 6 -13 0
-23 -3 -23 -9 0 -5 -7 -10 -16 -10 -8 0 -12 -4 -9 -10 3 -5 0 -10 -8 -10 -16
0 -22 37 -37 210 -5 58 -15 155 -24 215 -11 81 -14 152 -9 270 5 129 3 175
-10 235 -10 41 -21 117 -26 168 -6 52 -15 100 -22 108 -9 12 -5 14 28 14 22 0
62 7 89 15 27 8 66 15 86 15 20 0 49 4 63 10 41 16 170 25 161 12 -3 -6 -2
-13 4 -17 5 -3 10 -1 10 6 0 8 7 5 20 -6 15 -14 23 -15 33 -6 8 6 17 8 20 4 4
-3 7 -1 7 5 0 6 -10 18 -22 27 -20 13 -23 13 -28 0 -3 -9 -10 -11 -18 -6 -20
12 21 44 47 36 12 -3 21 -11 21 -16 0 -5 5 -9 10 -9 6 0 10 9 10 20 0 15 -7
20 -25 20 -39 0 -102 47 -125 94 -26 54 -25 56 6 56 21 0 25 4 20 17 -4 10 -4
14 0 10 4 -4 16 0 26 9 14 14 20 14 33 4 13 -10 15 -9 15 10 0 13 3 20 6 17 4
-3 15 -2 25 4 14 7 19 6 19 -3 0 -9 3 -9 10 2 6 9 10 10 10 3 0 -6 3 -19 7
-29 5 -13 3 -15 -7 -9 -8 5 -11 4 -6 -3 4 -6 14 -8 23 -5 12 5 14 3 9 -8 -4
-8 -1 -6 7 4 13 16 14 31 4 80 -1 5 4 12 12 15 10 3 13 -1 9 -16 -4 -16 0 -22
21 -28 45 -13 84 -10 107 9 12 9 27 17 33 17 15 0 14 30 -1 31 -10 0 -10 2 0
6 15 6 16 40 1 45 -6 2 -11 16 -11 31 0 16 -9 33 -20 42 -11 7 -17 18 -13 24
3 6 -1 14 -9 17 -9 3 -16 14 -17 23 0 12 -2 13 -6 2 -3 -8 2 -20 13 -28 13
-10 14 -13 3 -13 -18 0 -42 37 -33 52 4 7 3 8 -5 4 -7 -5 -9 -16 -5 -28 4 -13
2 -18 -5 -14 -6 4 -24 0 -41 -9 -27 -14 -30 -14 -30 0 0 27 -19 16 -28 -17
-10 -39 4 -85 33 -111 20 -18 20 -18 -1 -12 -16 4 -23 0 -27 -16 -3 -11 -10
-18 -16 -15 -5 4 -12 2 -16 -4 -3 -5 -15 -10 -25 -10 -10 0 -21 -6 -23 -12 -3
-8 -6 -6 -6 5 -1 9 -5 17 -11 17 -5 0 -10 6 -10 13 0 7 -14 18 -31 24 l-32 12
6 -48 c6 -48 -4 -71 -29 -71 -12 0 -27 35 -25 58 1 6 -2 12 -7 12 -17 0 1 53
19 57 11 3 15 11 12 21 -4 9 -2 13 4 9 5 -3 10 0 10 8 0 8 -6 15 -14 15 -7 0
-13 8 -13 18 0 13 2 14 9 3 5 -8 11 -9 15 -3 3 6 2 13 -3 17 -14 8 -2 35 15
35 8 0 14 -6 14 -12 0 -15 69 62 70 77 0 6 14 26 30 45 16 19 30 38 30 41 0 4
7 10 16 13 14 5 15 4 5 -8 -8 -10 -9 -16 -1 -21 5 -3 10 -15 10 -26 0 -19 11
-25 23 -13 3 3 -3 15 -13 27 -11 11 -18 22 -16 24 8 8 56 -10 50 -18 -3 -5 0
-9 5 -9 6 0 11 6 11 13 0 8 4 7 10 -3 5 -8 10 -11 10 -6 0 6 13 -2 28 -17 16
-15 31 -24 35 -21 12 12 -69 70 -90 66 -8 -2 -10 3 -7 13 5 11 10 13 19 5 6
-5 24 -11 38 -12z m71 -1 c11 -8 17 -19 15 -26 -3 -9 -11 -7 -27 7 -35 30 -25
46 12 19z m-266 -15 c-2 -10 -11 -16 -21 -14 -10 2 -17 -3 -17 -12 0 -9 -11
-23 -25 -32 -14 -9 -25 -22 -25 -29 0 -7 -7 -18 -15 -25 -8 -7 -15 -21 -15
-31 0 -11 -3 -19 -7 -19 -11 0 -32 -49 -29 -63 1 -7 1 -9 -1 -4 -3 4 -8 5 -13
2 -4 -3 -6 4 -3 15 3 11 0 20 -6 20 -6 0 -11 10 -10 23 0 21 1 21 10 -3 8 -20
12 -22 19 -10 5 8 10 23 10 33 0 10 5 15 10 12 6 -3 11 -1 11 4 3 26 4 30 12
37 4 4 7 16 7 26 0 10 4 18 9 18 8 0 24 37 22 52 0 4 6 5 14 2 8 -4 15 -2 15
3 0 5 12 10 26 11 19 1 25 -2 22 -16z m492 -17 c8 5 36 -122 28 -130 -9 -9
-49 85 -42 96 4 7 3 9 -3 6 -6 -4 -16 0 -23 8 -10 12 -10 18 1 31 11 14 13 14
21 -1 5 -8 13 -13 18 -10z m-622 -35 c5 -13 3 -13 -12 -1 -15 12 -16 12 -9 -5
6 -16 5 -17 -9 -4 -9 8 -14 19 -11 23 8 13 36 4 41 -13z m109 -15 c0 -8 -4
-12 -9 -9 -5 4 -8 -2 -6 -12 2 -13 -4 -19 -19 -20 -12 -1 -20 3 -17 8 3 4 10
6 15 3 5 -4 9 0 9 7 0 8 5 19 12 26 15 15 15 15 15 -3z m324 -4 c-9 -6 -10
-11 -2 -15 13 -8 15 -36 2 -36 -14 0 -21 43 -9 57 6 8 13 11 17 8 3 -3 -1 -10
-8 -14z m-475 -48 c-18 -33 -21 -26 -6 13 6 15 13 24 16 21 3 -3 -1 -18 -10
-34z m374 -75 c0 -11 -49 23 -50 35 0 4 11 0 25 -9 14 -9 25 -20 25 -26z m197
7 c-4 -8 -11 -15 -17 -15 -6 0 -6 7 2 20 14 22 24 19 15 -5z m-612 -33 c-5
-14 -7 -14 -15 -2 -5 9 -4 20 3 28 14 17 22 0 12 -26z m25 -22 c0 -5 -5 -10
-11 -10 -5 0 -7 5 -4 10 3 6 8 10 11 10 2 0 4 -4 4 -10z m739 -52 c5 -29 12
-80 15 -113 l6 -60 -14 50 c-14 51 -29 175 -22 175 3 0 9 -24 15 -52z m-722
-44 c-3 -4 0 -16 8 -28 21 -30 19 -43 -10 -48 -21 -4 -25 -1 -25 18 0 13 -4
24 -9 24 -5 0 -11 7 -14 14 -4 10 -1 13 7 10 8 -3 17 -1 21 5 3 6 11 11 17 11
6 0 8 -3 5 -6z m-138 -138 c-1 -22 -3 -32 -6 -21 -2 11 -8 32 -13 47 -7 21 -6
26 6 21 9 -3 14 -19 13 -47z m197 -13 c16 -30 39 -61 52 -69 33 -21 18 -33
-54 -44 -32 -4 -76 -11 -96 -15 -35 -7 -37 -5 -43 21 -4 16 -11 39 -16 52 -5
13 -9 40 -9 62 0 38 1 39 38 43 96 9 98 8 128 -50z m413 -50 c-8 -10 -23 -20
-34 -21 -11 -2 -21 -8 -23 -13 -2 -5 -8 -9 -14 -9 -5 0 7 18 28 39 38 38 70
41 43 4z m-578 -75 c6 -12 6 -18 -1 -18 -14 0 -30 45 -29 78 1 25 2 24 11 -8
5 -19 14 -43 19 -52z m967 -354 c-3 -32 -23 -25 -23 8 -1 17 4 24 12 21 7 -3
12 -16 11 -29z m16 -83 c3 -5 -2 -15 -12 -22 -15 -13 -16 -12 -4 3 11 14 10
17 -5 21 -16 4 -16 5 -1 6 9 0 19 -3 22 -8z m7 -103 c-7 -20 -9 -17 -9 16 0
29 2 36 9 24 5 -10 5 -26 0 -40z m49 -101 c0 -5 -4 -5 -10 -2 -5 3 -10 14 -10
23 0 15 2 15 10 2 5 -8 10 -19 10 -23z m-32 -194 c-2 -16 -8 -27 -15 -26 -9 2
-10 -4 -3 -22 15 -39 -7 -74 -26 -43 -14 23 -10 63 8 76 10 7 18 20 18 28 0 8
5 14 11 14 6 0 9 -12 7 -27z m-66 -125 c-7 -7 -12 -8 -12 -2 0 14 12 26 19 19
2 -3 -1 -11 -7 -17z m45 6 c-3 -3 -12 -4 -19 -1 -8 3 -5 6 6 6 11 1 17 -2 13
-5z m11 -32 c2 -7 -3 -12 -12 -12 -9 0 -16 7 -16 16 0 17 22 14 28 -4z m-311
-118 c-3 -3 -12 -4 -19 -1 -8 3 -5 6 6 6 11 1 17 -2 13 -5z m-57 -28 c0 -8
-31 -36 -41 -36 -5 0 -9 9 -9 20 0 15 7 20 25 20 14 0 25 -2 25 -4z m-170 -10
c0 -11 -19 -15 -25 -6 -3 5 1 10 9 10 9 0 16 -2 16 -4z m-432 -164 c32 -18 28
-22 -30 -22 -28 0 -48 3 -45 7 4 3 2 11 -3 18 -13 16 47 13 78 -3z"/>
<path d="M3220 5035 c0 -18 -12 -19 -28 -3 -9 9 -12 7 -12 -8 0 -12 3 -24 7
-27 3 -4 7 -23 9 -42 2 -29 -2 -35 -17 -35 -10 0 -19 -4 -19 -10 0 -5 5 -10
11 -10 6 0 9 -7 6 -15 -4 -8 -1 -17 4 -21 6 -4 1 -16 -13 -32 -13 -15 -16 -22
-8 -16 8 5 30 11 47 13 28 2 32 0 26 -16 -4 -10 -9 -20 -13 -23 -14 -12 -40
-61 -40 -75 0 -9 -5 -13 -11 -10 -6 4 -13 -2 -16 -14 -4 -15 -12 -20 -29 -18
-30 4 -33 7 -36 44 -1 18 -6 29 -10 27 -4 -3 -8 0 -8 7 0 7 -3 9 -6 6 -4 -4
-3 -12 3 -19 5 -7 9 -24 8 -38 0 -17 7 -28 22 -36 l24 -10 -27 -29 c-15 -16
-33 -30 -41 -31 -20 -3 -21 -4 -25 -49 -2 -29 1 -39 10 -37 8 1 11 -2 7 -8 -3
-6 -11 -8 -16 -5 -5 4 -9 -1 -9 -10 0 -9 -4 -14 -8 -11 -5 3 -8 -8 -7 -24 1
-22 -1 -27 -10 -20 -15 12 -25 3 -18 -16 3 -9 -1 -14 -12 -14 -15 0 -17 6 -11
38 13 74 15 93 7 88 -4 -3 -5 8 -3 25 2 16 9 29 14 29 6 0 5 7 -2 15 -10 12
-10 19 -2 27 15 15 15 45 0 54 -7 5 -9 2 -5 -8 3 -10 -1 -18 -12 -21 -11 -3
-17 -14 -16 -33 0 -16 -4 -32 -10 -36 -6 -5 -5 -8 3 -8 7 0 10 -5 6 -11 -4 -7
-8 -26 -10 -43 -1 -17 0 -25 3 -18 2 6 8 10 13 7 11 -7 1 -45 -12 -45 -5 0 -6
5 -3 10 3 6 2 10 -4 10 -5 0 -9 -9 -8 -19 0 -11 5 -17 9 -15 4 3 8 -2 8 -10 0
-9 -4 -16 -10 -16 -5 0 -10 -9 -10 -20 0 -10 -8 -24 -17 -29 -10 -6 -12 -11
-5 -11 6 0 12 -5 12 -11 0 -5 -4 -8 -9 -5 -12 8 -22 -20 -15 -39 4 -8 2 -15
-4 -15 -6 0 -24 -13 -40 -30 -16 -16 -33 -26 -37 -22 -5 4 -6 0 -2 -9 3 -9 -3
-23 -15 -34 -20 -17 -21 -17 -13 11 4 16 8 34 9 39 1 6 6 16 10 24 6 10 5 12
-2 7 -7 -4 -12 -2 -12 3 0 6 6 11 14 11 19 0 23 7 31 53 6 32 5 36 -9 31 -12
-5 -16 0 -16 17 0 19 2 21 10 9 8 -12 10 -8 11 15 1 17 3 36 3 43 1 8 9 18 18
23 11 6 16 21 14 49 -1 39 3 44 34 41 13 -2 13 -1 0 8 -8 5 -18 7 -22 5 -9 -6
-11 14 -8 59 1 15 -3 27 -8 27 -11 0 -21 -27 -29 -80 -6 -44 -22 -62 -19 -23
1 19 -3 30 -11 30 -8 0 -13 -12 -13 -31 1 -17 0 -40 -2 -51 -2 -13 2 -19 12
-17 12 2 12 0 -2 -11 -14 -11 -22 -44 -27 -109 -1 -5 -8 -8 -17 -8 -14 0 -15
-2 -3 -17 12 -15 12 -16 -3 -11 -9 4 -19 1 -22 -7 -3 -9 0 -12 10 -8 10 4 14
-2 14 -21 0 -14 -4 -26 -10 -26 -5 0 -7 7 -3 16 4 12 2 15 -8 12 -8 -3 -14
-12 -14 -22 0 -9 -5 -20 -12 -24 -8 -5 -8 -16 2 -45 12 -34 11 -40 -10 -71
-29 -43 -28 -83 3 -89 12 -2 22 0 22 4 0 5 9 28 20 52 11 23 19 52 18 65 -3
33 -15 27 -16 -9 -1 -34 -13 -51 -37 -55 -22 -3 -18 13 5 19 17 4 20 12 17 47
-2 22 0 43 5 46 4 3 8 0 8 -5 0 -6 4 -11 9 -11 5 0 7 8 5 18 -3 9 2 26 10 37
9 11 16 15 16 8 0 -6 -4 -15 -10 -18 -5 -3 -10 -11 -10 -16 0 -6 3 -8 8 -6 4
3 7 -18 7 -46 0 -29 5 -53 10 -54 6 -2 10 1 10 6 0 17 134 168 146 164 4 -1
10 9 13 23 4 15 11 22 18 18 8 -5 9 2 4 22 -5 20 -4 25 3 14 8 -12 13 -12 31
5 35 31 46 4 14 -36 l-26 -34 29 31 c18 19 32 47 36 70 5 31 23 56 84 122 43
45 81 82 85 82 3 0 5 -12 3 -27 -4 -38 2 -45 25 -26 18 15 18 17 2 29 -9 8
-12 14 -7 14 6 0 3 5 -5 10 -13 9 -13 12 3 24 9 7 17 17 17 21 0 4 32 39 70
78 39 39 70 72 70 74 0 2 -11 -4 -25 -13 -24 -16 -25 -16 -18 2 4 11 15 25 25
33 11 7 24 24 29 38 5 14 23 30 39 36 22 8 30 18 30 35 0 21 -4 23 -42 20 -24
-2 -43 -8 -43 -15 0 -19 -12 -25 -52 -25 -53 1 -76 -7 -69 -24 3 -9 1 -12 -4
-9 -6 3 -10 2 -10 -2 0 -5 -9 -14 -20 -20 -16 -11 -18 -10 -14 2 4 9 1 15 -7
15 -10 0 -10 3 -2 11 6 6 9 17 7 24 -3 7 4 30 15 51 25 46 26 60 6 68 -9 3
-15 0 -15 -9z m10 -316 c0 -6 -4 -7 -10 -4 -5 3 -10 -1 -10 -9 0 -9 -4 -16
-10 -16 -14 0 -12 38 3 43 15 5 27 -1 27 -14z m-46 -54 c5 15 9 17 15 6 11
-17 -17 -51 -40 -51 -15 0 -16 4 -6 30 9 24 13 27 18 13 5 -15 6 -15 13 2z
m-217 -31 c-3 -3 -12 -4 -19 -1 -8 3 -5 6 6 6 11 1 17 -2 13 -5z m138 -24 c3
-5 1 -10 -4 -10 -6 0 -11 5 -11 10 0 6 2 10 4 10 3 0 8 -4 11 -10z m-295 -84
c0 -11 -19 -15 -25 -6 -3 5 1 10 9 10 9 0 16 -2 16 -4z m-20 -204 c0 -4 -10
-13 -22 -21 -23 -14 -23 -14 -4 8 20 22 26 25 26 13z"/>
<path d="M3116 5025 c-9 -26 -7 -32 5 -12 6 10 9 21 6 23 -2 3 -7 -2 -11 -11z"/>
<path d="M3289 5018 c-7 -24 -7 -58 1 -63 6 -4 10 8 10 29 0 20 -2 36 -5 36
-3 0 -5 -1 -6 -2z"/>
<path d="M3149 4988 c-1 -16 -3 -18 -6 -7 -5 20 -43 14 -43 -7 0 -24 4 -29 24
-26 28 4 56 31 49 48 -8 22 -23 17 -24 -8z"/>
<path d="M3343 5003 c4 -6 0 -16 -8 -23 -18 -15 -20 -33 -3 -28 17 6 29 46 16
54 -6 4 -8 3 -5 -3z"/>
<path d="M2990 4976 c0 -2 8 -10 18 -17 15 -13 16 -12 3 4 -13 16 -21 21 -21
13z"/>
<path d="M3099 4894 c-5 -14 -9 -35 -9 -47 0 -20 0 -20 16 -1 8 10 13 13 9 7
-4 -8 1 -13 12 -13 16 1 16 3 -4 19 -15 12 -18 22 -12 32 8 12 10 12 19 -1 6
-10 10 -11 10 -2 0 6 1 15 3 19 1 3 -6 7 -16 9 -11 1 -22 -7 -28 -22z"/>
<path d="M3527 4900 c-3 -11 -2 -22 2 -24 4 -3 8 6 9 20 2 29 -4 31 -11 4z"/>
<path d="M2954 4879 c-3 -6 -1 -16 5 -22 8 -8 11 -5 11 11 0 24 -5 28 -16 11z"/>
<path d="M2909 4866 c10 -11 7 -17 -10 -30 -13 -8 -19 -19 -15 -23 8 -8 46 32
46 47 0 4 -7 11 -16 14 -14 5 -15 4 -5 -8z"/>
<path d="M2350 4849 c0 -5 5 -7 10 -4 6 3 10 8 10 11 0 2 -4 4 -10 4 -5 0 -10
-5 -10 -11z"/>
<path d="M3528 4812 c-2 -22 0 -39 3 -36 11 6 17 52 9 65 -4 6 -9 -6 -12 -29z"/>
<path d="M2987 4833 c-10 -9 -9 -23 1 -23 5 0 9 7 9 15 0 17 -1 18 -10 8z"/>
<path d="M3162 4790 c-7 -11 -8 -20 -3 -20 9 0 24 30 18 36 -1 2 -8 -6 -15
-16z"/>
<path d="M3704 4751 c3 -5 15 -7 26 -4 28 7 25 13 -6 13 -14 0 -23 -4 -20 -9z"/>
<path d="M2967 4743 c-10 -3 -16 -11 -14 -18 3 -7 0 -18 -6 -24 -6 -6 -7 -14
-3 -18 4 -5 13 0 20 10 7 9 18 17 24 17 6 0 10 9 9 20 -1 11 -4 19 -7 19 -3
-1 -13 -3 -23 -6z"/>
<path d="M3340 4739 c0 -5 5 -7 10 -4 6 3 10 8 10 11 0 2 -4 4 -10 4 -5 0 -10
-5 -10 -11z"/>
<path d="M3030 4733 c0 -15 29 -49 30 -35 0 7 -7 20 -15 28 -8 9 -15 11 -15 7z"/>
<path d="M2680 4676 c0 -8 4 -17 8 -20 4 -2 8 4 8 15 0 10 -4 19 -8 19 -4 0
-8 -6 -8 -14z"/>
<path d="M3641 4677 c-8 -10 -7 -14 2 -14 8 0 14 6 14 14 0 7 -1 13 -2 13 -2
0 -8 -6 -14 -13z"/>
<path d="M3786 4675 c-11 -8 -16 -15 -12 -15 4 0 0 -7 -8 -16 -18 -17 -22 -49
-6 -39 6 4 8 11 5 16 -4 5 -2 9 4 9 5 0 12 9 16 19 3 11 12 18 19 15 7 -3 13
2 13 11 0 19 -6 19 -31 0z"/>
<path d="M3510 4665 c0 -8 0 -18 1 -21 0 -4 -5 -10 -11 -14 -8 -5 -7 -9 4 -13
9 -4 15 -3 15 1 -1 4 -1 9 1 12 8 22 8 50 0 50 -6 0 -10 -7 -10 -15z"/>
<path d="M3955 4670 c3 -5 -3 -10 -15 -10 -15 0 -19 -4 -13 -12 4 -7 8 -26 8
-43 0 -16 5 -30 10 -30 6 0 15 -3 20 -7 6 -4 17 -2 25 3 12 8 12 12 3 16 -7 2
-13 15 -13 28 0 13 6 26 13 28 7 3 5 6 -5 6 -10 1 -18 8 -18 16 0 8 -5 15 -11
15 -5 0 -7 -4 -4 -10z"/>
<path d="M3040 4641 c-14 -27 -13 -30 9 -28 16 1 18 4 8 16 -9 12 -9 13 1 7 7
-4 12 -1 12 8 0 22 -17 20 -30 -3z"/>
<path d="M4002 4626 c-8 -18 -7 -22 8 -22 10 0 16 4 14 8 -3 4 0 8 5 8 16 0
13 17 -3 23 -8 3 -18 -4 -24 -17z"/>
<path d="M3713 4554 c-12 -24 -20 -44 -19 -44 15 0 66 24 66 31 0 4 -8 5 -17
2 -17 -7 -17 -6 -1 19 13 20 14 27 5 31 -8 3 -22 -13 -34 -39z"/>
<path d="M3335 4569 c-4 -5 -8 -20 -10 -32 -1 -12 -6 -31 -9 -42 -4 -11 0 -7
9 8 9 16 14 31 11 35 -3 3 1 14 11 24 9 10 11 18 5 18 -6 0 -14 -5 -17 -11z"/>
<path d="M3460 4564 c0 -8 5 -12 10 -9 6 4 8 11 5 16 -9 14 -15 11 -15 -7z"/>
<path d="M3184 4549 c-3 -6 2 -18 12 -27 17 -16 17 -16 5 0 -7 9 -10 22 -6 28
3 5 4 10 1 10 -3 0 -8 -5 -12 -11z"/>
<path d="M2679 4546 c-5 -22 -4 -33 4 -43 6 -9 6 -13 -2 -13 -6 0 -11 -5 -11
-11 0 -6 6 -9 13 -7 14 5 20 65 6 74 -5 3 -10 3 -10 0z"/>
<path d="M2869 4523 c-1 -7 -3 -17 -4 -23 -1 -5 -3 -17 -4 -26 -1 -10 -7 -14
-16 -10 -11 4 -15 -1 -15 -17 0 -12 -3 -33 -7 -46 -4 -17 -2 -22 7 -19 8 2 15
16 17 31 2 16 12 43 22 61 12 21 16 38 10 47 -6 10 -9 11 -10 2z"/>
<path d="M3130 4495 c-19 -19 -28 -35 -21 -35 7 0 9 -5 5 -12 -6 -10 -4 -10 8
0 9 7 19 24 22 38 4 14 11 22 16 19 6 -3 10 1 10 9 0 22 -1 21 -40 -19z"/>
<path d="M2520 4499 c0 -5 5 -7 10 -4 6 3 10 8 10 11 0 2 -4 4 -10 4 -5 0 -10
-5 -10 -11z"/>
<path d="M3265 4500 c-3 -5 -2 -10 4 -10 5 0 13 5 16 10 3 6 2 10 -4 10 -5 0
-13 -4 -16 -10z"/>
<path d="M3450 4501 c0 -6 4 -13 10 -16 6 -3 7 1 4 9 -7 18 -14 21 -14 7z"/>
<path d="M2712 4474 c4 -20 -40 -27 -61 -10 -12 9 -13 8 -6 -3 6 -11 2 -13
-23 -8 -17 4 -34 2 -37 -3 -4 -6 1 -7 11 -3 11 4 15 3 10 -5 -3 -6 -2 -13 4
-17 5 -3 10 -2 10 3 0 5 7 9 15 9 8 0 15 -6 15 -14 0 -7 -4 -13 -10 -13 -5 0
-10 -10 -10 -22 0 -16 -3 -19 -11 -11 -9 9 -15 8 -25 -2 -17 -17 -18 -29 -2
-19 7 5 8 3 2 -7 -13 -21 -14 -39 -1 -39 8 0 7 -4 -2 -9 -7 -5 -11 -13 -7 -19
8 -13 48 -3 43 12 -2 6 3 17 10 25 12 11 12 15 1 22 -10 6 -9 11 7 23 11 8 17
18 13 22 -4 4 -3 13 3 21 6 7 8 13 4 13 -4 0 -2 7 5 15 7 8 17 15 22 15 6 0 6
-6 -1 -14 -7 -8 -13 -30 -14 -49 -1 -19 -8 -41 -14 -48 -16 -19 -28 -89 -15
-89 9 0 27 46 24 62 -1 4 6 4 16 1 9 -3 14 -3 10 1 -3 4 0 24 9 43 12 30 12
35 0 30 -7 -3 -14 1 -14 9 0 7 3 11 7 9 4 -2 12 13 19 34 14 47 14 51 1 51 -6
0 -10 -7 -8 -16z"/>
<path d="M3670 4479 c0 -5 5 -7 10 -4 6 3 10 8 10 11 0 2 -4 4 -10 4 -5 0 -10
-5 -10 -11z"/>
<path d="M1980 4464 c0 -9 -5 -12 -12 -8 -6 4 -8 3 -5 -4 9 -14 -3 -43 -14
-36 -5 3 -9 -4 -9 -14 0 -11 -9 -22 -20 -25 -12 -3 -20 -14 -20 -26 0 -12 -4
-21 -10 -21 -5 0 -10 -4 -10 -9 0 -5 9 -7 20 -4 11 3 17 9 15 14 -3 4 2 17 12
28 42 44 83 103 83 116 0 3 -7 5 -15 5 -8 0 -15 -7 -15 -16z"/>
<path d="M2470 4438 c-21 -26 -28 -39 -17 -35 9 3 17 2 17 -3 0 -6 -4 -10 -9
-10 -10 0 -9 -26 2 -36 4 -4 7 0 7 10 0 10 5 14 11 11 7 -5 8 4 4 28 -6 28 -3
39 14 56 12 12 17 21 13 21 -5 0 -24 -19 -42 -42z"/>
<path d="M2534 4458 c-10 -30 -11 -68 -4 -73 4 -2 7 1 7 8 0 7 4 29 8 50 8 40
1 50 -11 15z"/>
<path d="M3153 4461 c1 -12 6 -20 12 -18 14 5 13 29 -2 34 -7 3 -11 -4 -10
-16z"/>
<path d="M3230 4462 c-8 -9 -15 -19 -15 -23 0 -3 -14 -23 -31 -43 -24 -28 -33
-33 -38 -21 -3 8 -1 15 3 15 11 0 8 26 -3 37 -4 4 -7 4 -5 -2 1 -5 -7 -32 -19
-58 -12 -27 -22 -53 -22 -57 0 -5 -9 -18 -21 -29 -12 -11 -18 -24 -14 -30 3
-6 2 -11 -4 -11 -5 0 -12 6 -14 13 -3 6 -4 -3 -4 -20 1 -18 3 -33 3 -33 1 0
14 19 30 43 16 23 37 51 47 61 9 11 17 26 17 33 0 8 3 12 8 10 4 -3 16 7 27
20 11 14 28 34 38 45 10 11 16 22 13 25 -3 3 5 14 17 24 12 10 18 18 12 18 -5
0 -17 -7 -25 -17z"/>
<path d="M3658 4453 c7 -3 16 -2 19 1 4 3 -2 6 -13 5 -11 0 -14 -3 -6 -6z"/>
<path d="M4210 4423 c0 -5 7 -18 15 -29 13 -18 14 -18 8 4 -5 22 -23 41 -23
25z"/>
<path d="M3615 4410 c-3 -6 1 -7 9 -4 18 7 21 14 7 14 -6 0 -13 -4 -16 -10z"/>
<path d="M3392 4399 c3 -8 -1 -21 -8 -30 -12 -13 -12 -16 1 -16 8 0 13 3 10 5
-3 3 2 10 10 16 12 9 12 13 -2 25 -14 12 -15 12 -11 0z"/>
<path d="M2225 4380 c3 -5 8 -10 11 -10 2 0 4 5 4 10 0 6 -5 10 -11 10 -5 0
-7 -4 -4 -10z"/>
<path d="M2427 4332 c-25 -27 -21 -36 5 -12 12 11 19 22 16 25 -2 3 -12 -3
-21 -13z"/>
<path d="M2527 4343 c-10 -9 -9 -23 1 -23 5 0 9 7 9 15 0 17 -1 18 -10 8z"/>
<path d="M3567 4330 c-21 -24 -21 -30 -3 -30 7 0 16 11 18 25 6 30 7 30 -15 5z"/>
<path d="M3364 4315 c-4 -8 -11 -12 -17 -8 -6 3 -7 1 -3 -5 10 -16 14 -15 26
8 6 11 8 20 5 20 -3 0 -8 -7 -11 -15z"/>
<path d="M3492 4303 c-6 -16 -14 -45 -18 -66 -3 -20 -10 -40 -15 -43 -5 -3 -9
-14 -9 -25 0 -10 -5 -19 -10 -19 -6 0 -8 -12 -6 -26 4 -19 1 -24 -9 -20 -8 3
-17 1 -20 -4 -4 -6 1 -10 9 -10 21 0 20 -24 0 -41 -13 -10 -17 -10 -25 2 -5 8
-7 20 -4 27 3 7 0 10 -5 7 -6 -3 -10 -15 -10 -26 0 -14 -4 -18 -12 -13 -10 6
-10 5 -2 -7 14 -17 10 -92 -5 -97 -6 -2 -11 -10 -11 -17 0 -8 -18 -29 -40 -46
-41 -33 -70 -45 -70 -28 0 5 4 9 9 9 5 0 14 13 21 30 7 18 17 27 24 23 6 -4 6
0 -2 9 -10 13 -10 17 3 22 8 3 15 11 15 18 0 8 9 20 19 28 11 7 18 17 15 21
-9 15 -54 -14 -74 -48 -10 -18 -24 -33 -30 -33 -5 0 -10 -4 -10 -9 0 -6 -16
-27 -35 -48 -19 -21 -35 -44 -35 -50 0 -7 -6 -13 -14 -13 -8 0 -17 -7 -20 -16
-5 -12 -2 -15 11 -10 15 5 15 4 -1 -7 -27 -17 -66 -56 -67 -67 -1 -6 -2 -16
-3 -22 0 -7 -8 -14 -16 -14 -8 -1 -20 -2 -26 -3 -7 0 -15 -12 -18 -25 -3 -13
-14 -26 -24 -28 -9 -3 -18 -14 -19 -25 -1 -19 -61 -87 -86 -96 -9 -4 -9 -6 1
-6 6 -1 12 -5 12 -11 0 -5 -7 -7 -16 -3 -12 4 -15 2 -12 -8 3 -8 11 -13 17
-11 7 1 10 -2 6 -8 -5 -8 -11 -7 -21 1 -8 6 -14 8 -14 4 0 -4 -6 -2 -14 4 -11
9 -15 8 -20 -5 -3 -9 -3 -21 1 -27 3 -7 3 -9 -2 -5 -5 5 -15 -2 -23 -13 -12
-17 -12 -23 -2 -29 22 -13 2 -32 -21 -19 -19 10 -20 9 -9 -11 6 -11 16 -18 23
-14 7 3 1 -3 -12 -14 -17 -14 -20 -21 -10 -24 9 -3 8 -6 -5 -11 -10 -4 -15 -3
-11 3 3 6 -1 10 -9 10 -9 0 -16 4 -16 10 0 5 7 7 15 4 8 -4 15 -1 15 6 0 21
-35 5 -38 -18 -2 -12 -12 -27 -23 -32 -10 -6 -19 -19 -19 -30 0 -10 -4 -20 -9
-22 -5 -1 -2 -9 6 -17 12 -11 14 -10 11 4 -2 10 4 19 12 20 8 2 23 6 33 10 11
5 17 3 17 -5 0 -9 6 -8 19 4 16 15 19 15 24 1 4 -9 1 -15 -9 -15 -11 0 -14 -6
-10 -16 3 -8 2 -12 -4 -9 -6 3 -10 -3 -10 -14 0 -11 -4 -22 -9 -25 -5 -4 -7 4
-4 16 4 19 3 20 -6 8 -6 -8 -11 -23 -11 -32 0 -10 -7 -18 -15 -18 -8 0 -15 -5
-15 -11 0 -5 6 -7 13 -3 9 6 9 5 0 -7 -7 -8 -8 -20 -4 -28 6 -9 10 -6 15 11 4
12 9 18 12 12 3 -6 34 18 70 53 36 34 70 63 75 63 13 0 11 -27 -4 -42 -7 -7
-18 -24 -25 -38 -6 -14 -18 -33 -24 -43 -11 -15 -10 -20 5 -32 12 -8 14 -15 8
-20 -18 -10 -12 -25 6 -18 15 6 15 2 -3 -28 -38 -63 -69 -108 -74 -109 -3 0
-6 20 -6 45 0 29 4 41 10 35 6 -6 16 -4 28 7 21 19 23 43 6 62 -9 10 -9 12 -1
7 6 -3 15 -1 18 5 5 7 1 10 -9 7 -10 -1 -25 -16 -34 -33 -9 -16 -23 -35 -31
-41 -8 -6 -11 -16 -8 -21 4 -6 -1 -10 -11 -9 -12 1 -16 -5 -14 -19 2 -12 0
-16 -5 -9 -14 20 -51 -2 -58 -35 -4 -17 -13 -31 -20 -31 -7 0 -22 -15 -34 -32
-31 -50 -104 -106 -100 -76 4 33 0 41 -17 28 -8 -8 -19 -21 -25 -31 -8 -15 -5
-20 14 -24 17 -5 37 2 68 24 39 26 45 28 51 13 5 -12 7 -9 7 11 1 17 6 27 16
27 8 0 15 7 15 15 0 8 7 15 16 15 8 0 13 4 10 9 -4 5 3 7 14 4 11 -3 30 4 46
16 15 12 22 21 15 21 -6 0 -11 6 -11 14 0 18 16 30 17 13 0 -7 4 -19 7 -28 8
-20 -40 -63 -61 -55 -7 3 -13 1 -13 -4 0 -5 -7 -7 -15 -4 -8 4 -15 2 -16 -2 0
-5 -3 -21 -5 -36 -6 -35 11 -30 64 19 20 19 48 45 61 56 l23 22 -12 -25 c-15
-29 -58 -88 -80 -110 -8 -8 -22 -24 -30 -34 -15 -19 -14 -19 17 -3 46 24 83
64 76 82 -3 9 2 24 11 34 10 11 30 43 45 73 15 29 37 57 49 63 12 5 22 12 22
16 0 3 9 16 20 29 11 13 20 29 20 37 0 7 5 13 10 13 6 0 10 5 10 10 0 18 -20
11 -45 -16 -16 -18 -25 -22 -26 -13 -3 27 3 43 19 56 10 7 13 13 9 13 -9 0 47
50 57 50 3 0 6 -9 6 -21 0 -11 -4 -18 -8 -15 -4 2 -13 -4 -20 -15 -7 -11 -8
-19 -2 -19 5 0 13 -1 17 -1 11 -2 79 122 114 208 7 17 17 29 21 27 4 -3 10 7
14 21 3 14 11 25 17 25 6 0 7 3 4 7 -4 3 -2 12 4 20 9 10 8 13 -2 13 -8 0 -3
6 11 13 14 8 24 19 23 25 -4 18 15 14 27 -5 10 -15 11 -15 7 -2 -3 9 2 27 10
39 11 15 12 24 5 29 -14 8 -12 70 1 78 7 4 8 -1 4 -13 -6 -17 -6 -17 5 -3 7 9
19 15 26 13 7 -1 8 0 2 3 -14 6 -13 30 2 39 7 5 8 2 3 -7 -7 -12 -5 -12 6 -1
12 11 12 14 0 21 -7 5 -10 14 -7 20 4 6 12 9 17 6 5 -3 6 2 2 11 -4 10 -2 15
3 11 11 -6 40 27 33 36 -4 5 45 53 107 105 15 13 29 34 30 48 2 23 1 22 -24
-9 -29 -34 -43 -47 -54 -47 -10 0 3 33 16 42 6 4 12 12 12 18 1 5 2 13 3 18 0
4 17 25 36 47 19 22 35 44 35 49 0 13 52 71 64 71 6 0 12 13 13 28 l2 29 -24
-26 c-27 -30 -35 -32 -35 -11 0 9 6 12 15 9 17 -7 20 9 6 35 -7 13 -6 18 4 18
8 0 12 -4 10 -8 -3 -4 6 -2 19 4 28 13 52 50 58 87 1 14 7 28 11 31 10 7 -52
31 -62 24 -4 -2 -5 9 -3 26 5 37 -12 38 -26 2z m48 -62 c0 -4 -8 -15 -17 -24
-17 -14 -18 -14 -19 7 -1 15 4 22 17 23 11 1 19 -2 19 -6z m-159 -234 c-10 -9
-11 -8 -5 6 3 10 9 15 12 12 3 -3 0 -11 -7 -18z m-191 -168 c0 -5 -4 -7 -10
-4 -5 3 -10 -2 -10 -11 0 -10 -3 -15 -6 -11 -9 9 3 37 16 37 5 0 10 -5 10 -11z
m42 -65 c-15 -19 -31 -34 -35 -34 -11 0 3 44 15 49 5 1 14 9 21 16 26 28 25 2
-1 -31z m-106 -50 c-5 -19 -10 -24 -17 -17 -8 8 -7 18 1 33 15 28 24 19 16
-16z m64 -26 c0 -19 -2 -20 -10 -8 -8 13 -10 13 -10 -1 0 -9 -7 -20 -17 -23
-15 -6 -14 -8 2 -20 13 -9 16 -19 11 -32 -8 -18 -8 -18 -16 1 -6 14 -9 16 -10
5 -2 -8 -2 -18 -1 -22 1 -10 -13 -10 -22 -1 -4 3 -2 12 5 20 6 7 11 28 12 46
1 23 8 35 26 44 32 16 30 17 30 -9z m-78 -34 c-2 -10 -5 -32 -5 -49 -2 -31
-26 -53 -62 -55 -11 -1 -14 -4 -7 -7 9 -3 6 -13 -9 -35 -12 -16 -24 -26 -28
-21 -3 5 -17 6 -31 2 -24 -7 -24 -7 -2 -8 28 -1 29 -30 1 -55 -13 -11 -19 -25
-16 -37 3 -10 1 -17 -4 -13 -5 3 -10 -7 -10 -23 -2 -23 -2 -24 -6 -5 -2 12 -9
22 -14 22 -5 0 -8 -10 -5 -22 2 -13 0 -32 -5 -43 -7 -18 -8 -18 -8 -2 -1 10
-5 16 -11 12 -12 -8 -2 -32 16 -39 18 -7 57 11 50 23 -3 4 6 13 19 19 25 12
31 23 18 36 -11 10 -12 65 -2 71 5 4 9 -1 9 -9 0 -10 6 -13 15 -10 20 8 19
-16 -1 -31 -14 -10 -14 -15 -4 -32 11 -17 10 -26 -8 -59 -26 -50 -36 -76 -33
-89 2 -5 0 -7 -4 -4 -3 4 -30 -19 -60 -49 -30 -31 -58 -53 -61 -49 -10 10 29
86 40 79 5 -3 7 2 3 11 -3 10 -3 17 2 17 7 0 31 43 31 55 0 2 -9 9 -21 15 -17
9 -23 8 -35 -7 -13 -17 -13 -17 -14 4 0 12 -5 25 -12 29 -7 4 -8 3 -4 -4 4 -7
2 -12 -3 -12 -6 0 -11 -11 -11 -25 0 -14 -4 -25 -10 -25 -5 0 -10 7 -10 16 0
11 -6 14 -20 9 -15 -5 -18 -3 -14 9 7 19 34 29 34 13 1 -7 7 3 15 21 8 17 19
32 25 32 6 0 9 4 6 8 -3 5 3 18 13 29 10 10 24 29 30 41 7 13 17 22 24 20 14
-3 57 23 57 35 0 4 -10 3 -22 -4 -18 -10 -20 -9 -15 6 4 9 7 21 7 26 0 5 6 9
14 9 7 0 22 16 32 36 11 20 23 44 29 55 5 10 19 19 30 21 11 2 27 17 35 35 16
34 37 39 32 7z m-72 -14 c0 -5 -7 -7 -15 -4 -8 4 -15 8 -15 10 0 2 7 4 15 4 8
0 15 -4 15 -10z m100 -79 c0 -14 -18 -23 -31 -15 -8 4 -7 9 2 15 18 11 29 11
29 0z m-62 -47 c1 -15 -3 -24 -9 -22 -6 2 -10 7 -10 11 1 4 1 14 1 22 0 26 16
16 18 -11z m28 -11 c0 -10 -15 -32 -33 -50 -17 -17 -26 -34 -20 -36 8 -2 8 -5
0 -10 -7 -4 -15 5 -22 23 -10 29 1 43 13 18 4 -7 4 -3 2 10 -2 12 0 22 5 22 5
0 9 -5 9 -11 0 -14 24 11 33 34 8 22 15 22 13 0z m-278 -118 c-13 -13 -24 -22
-26 -21 -5 6 10 36 19 36 4 0 5 8 2 18 -6 15 -5 15 10 3 16 -12 15 -15 -5 -36z
m-108 -122 c0 -14 -19 -38 -25 -32 -8 8 5 39 16 39 5 0 9 -3 9 -7z m169 -43
c-16 -10 -32 -3 -23 11 3 5 10 7 15 4 5 -4 9 0 10 7 0 10 2 10 6 -1 3 -7 -1
-17 -8 -21z m-59 -10 c0 -5 -2 -10 -4 -10 -3 0 -8 5 -11 10 -3 6 -1 10 4 10 6
0 11 -4 11 -10z m10 -140 c0 -5 -5 -10 -11 -10 -5 0 -7 5 -4 10 3 6 8 10 11
10 2 0 4 -4 4 -10z"/>
<path d="M3000 3559 c0 -5 5 -7 10 -4 6 3 10 8 10 11 0 2 -4 4 -10 4 -5 0 -10
-5 -10 -11z"/>
<path d="M2050 4310 c-9 -6 -10 -10 -3 -10 6 0 15 5 18 10 8 12 4 12 -15 0z"/>
<path d="M2466 4293 c-6 -14 -5 -15 5 -6 7 7 10 15 7 18 -3 3 -9 -2 -12 -12z"/>
<path d="M2944 4295 c-10 -8 -14 -14 -9 -14 6 0 19 6 29 14 11 8 15 15 10 15
-6 0 -19 -7 -30 -15z"/>
<path d="M3308 4295 c15 -30 15 -37 0 -46 -10 -7 -10 -9 2 -9 13 0 13 -1 0
-10 -8 -5 -11 -12 -8 -16 4 -3 16 9 27 27 15 25 17 35 8 38 -6 2 -18 11 -25
20 -11 14 -12 13 -4 -4z"/>
<path d="M3234 4238 c2 -7 -4 -21 -12 -31 -13 -15 -13 -17 -1 -12 8 3 20 15
27 26 8 12 9 18 4 15 -6 -3 -13 -1 -15 4 -3 6 -4 5 -3 -2z"/>
<path d="M2910 4226 c0 -8 -6 -16 -12 -19 -7 -3 -4 -5 8 -4 15 1 20 6 16 19
-5 22 -12 24 -12 4z"/>
<path d="M3584 4229 c-3 -5 0 -9 7 -9 11 0 9 -27 -6 -64 -6 -14 -5 -18 6 -14
8 3 14 9 15 14 0 5 3 16 6 24 16 42 16 48 -3 53 -10 3 -22 1 -25 -4z"/>
<path d="M4219 4232 c-1 -4 -2 -13 -3 -20 0 -7 -6 -16 -12 -20 -17 -10 -89
-170 -103 -224 -6 -25 -16 -59 -23 -75 -6 -15 -12 -32 -13 -38 0 -5 -6 -9 -13
-8 -11 3 -5 -27 8 -37 4 -3 4 -14 -1 -25 -5 -14 -8 -16 -8 -4 -1 19 -31 21
-31 2 0 -7 -4 -13 -10 -13 -5 0 -10 -6 -10 -14 0 -7 -7 -19 -15 -26 -9 -7 -13
-20 -10 -29 3 -10 -7 -30 -25 -49 -30 -34 -38 -48 -20 -37 6 3 10 -1 10 -9 0
-10 -6 -13 -15 -10 -22 9 -57 -37 -42 -54 9 -11 7 -13 -9 -10 -13 2 -20 -3
-22 -19 -2 -12 -19 -39 -38 -60 -19 -20 -32 -43 -30 -50 3 -6 0 -14 -7 -17 -9
-3 -9 -5 1 -5 19 -1 14 -21 -5 -22 -19 0 -86 -95 -80 -112 3 -11 17 2 82 78
22 26 52 60 68 77 15 17 27 35 27 41 0 5 7 7 14 4 10 -4 13 -1 9 9 -3 7 -1 14
5 14 6 0 21 17 33 38 13 20 27 39 31 40 5 2 6 7 3 12 -3 5 1 14 8 22 7 7 31
44 52 82 21 38 41 64 43 58 2 -7 -4 -19 -13 -28 -12 -12 -13 -19 -4 -30 9 -10
2 -30 -31 -89 -47 -88 -47 -87 -162 -215 -48 -54 -85 -100 -83 -104 3 -3 2 -4
-1 -1 -4 2 -13 -3 -22 -11 -11 -11 -17 -12 -22 -4 -10 17 -40 -16 -40 -44 0
-12 -5 -27 -12 -34 -9 -9 -9 -15 -1 -23 8 -8 15 -5 24 12 14 26 39 54 39 43 0
-4 12 5 27 20 18 18 29 23 34 15 5 -8 11 -5 18 10 7 11 9 21 6 21 -4 0 0 7 9
15 22 22 39 20 26 -4 -5 -11 -10 -23 -10 -28 1 -4 7 3 14 17 8 14 12 28 9 33
-7 11 17 38 28 31 5 -3 9 2 9 10 0 9 16 30 35 47 19 18 37 41 41 52 5 16 8 17
15 6 6 -10 9 -6 9 13 0 15 5 30 12 34 7 5 8 3 3 -7 -7 -12 -6 -12 7 -1 9 7 15
22 13 33 -2 11 0 17 4 14 5 -3 12 2 15 11 4 9 2 13 -5 8 -17 -10 0 35 27 76
13 19 24 44 24 55 0 31 23 58 52 59 14 1 32 9 41 17 17 17 50 89 40 89 -3 0 0
7 7 15 12 14 7 20 -15 15 -5 -1 3 12 19 29 17 18 26 36 23 45 -4 9 -3 16 2 16
5 0 11 14 13 30 3 17 1 30 -4 30 -4 0 -8 5 -8 10 0 6 6 9 12 8 15 -4 21 63 8
95 -8 21 -9 20 -11 -8 -2 -33 -4 -40 -14 -72 -4 -13 -11 -23 -16 -23 -5 0 -6
-7 -3 -15 5 -11 2 -13 -10 -9 -9 3 -16 1 -16 -5 0 -6 6 -10 13 -8 16 3 10 -38
-14 -85 -10 -20 -19 -44 -19 -53 0 -8 -5 -15 -11 -15 -6 0 -8 -9 -4 -20 4 -11
2 -20 -4 -20 -6 0 -11 -7 -11 -15 0 -8 -7 -15 -16 -15 -8 0 -13 -4 -10 -8 3
-5 -1 -9 -9 -9 -19 0 -19 11 0 27 12 10 13 16 3 28 -9 11 -10 14 -1 9 19 -12
37 31 22 49 -10 12 -10 15 1 12 8 -2 17 13 24 38 8 29 15 40 26 37 11 -3 12
-2 3 4 -13 9 -15 83 -4 83 4 0 7 9 8 20 1 11 -3 20 -9 20 -6 0 -8 9 -5 20 3
11 1 20 -4 20 -5 0 -9 -9 -9 -19 0 -11 -5 -23 -11 -26 -6 -4 -8 -14 -5 -22 3
-8 1 -11 -4 -8 -6 3 -10 -1 -10 -9 0 -9 -4 -16 -10 -16 -5 0 -10 9 -10 20 0
11 5 20 10 20 6 0 10 9 10 20 0 21 36 100 46 100 3 0 2 -4 -1 -10 -4 -6 1 -7
11 -3 12 4 14 8 5 11 -9 3 -8 9 3 27 13 20 13 24 1 29 -8 3 -16 2 -16 -2z
m-79 -227 c0 -8 -4 -15 -10 -15 -5 0 -7 7 -4 15 4 8 8 15 10 15 2 0 4 -7 4
-15z m-2 -41 c-1 -5 -9 -9 -16 -10 -10 -2 -11 1 -1 12 12 14 24 13 17 -2z m45
-39 c-7 -21 -13 -19 -13 6 0 11 4 18 10 14 5 -3 7 -12 3 -20z m-76 -37 c-3 -8
-6 -5 -6 6 -1 11 2 17 5 13 3 -3 4 -12 1 -19z m-22 -57 c-3 -6 -11 -8 -17 -5
-6 4 -5 9 3 15 16 10 23 4 14 -10z m-46 -98 c-6 -11 -20 -25 -30 -31 -16 -10
-15 -7 4 28 12 24 25 36 30 31 5 -5 4 -17 -4 -28z m-49 -87 c0 -8 -9 -16 -21
-19 -19 -5 -20 -4 -5 12 9 10 13 21 9 26 -5 4 -2 5 5 1 6 -4 12 -13 12 -20z"/>
<path d="M4302 4207 c-7 -8 -7 -18 -2 -27 10 -16 10 -16 14 18 3 26 2 26 -12
9z"/>
<path d="M2505 4176 c6 -47 11 -54 17 -28 3 10 -1 30 -9 43 -13 23 -13 22 -8
-15z"/>
<path d="M2665 4201 c-3 -5 -1 -12 5 -16 5 -3 10 1 10 9 0 18 -6 21 -15 7z"/>
<path d="M3130 4195 c-7 -9 -8 -15 -2 -15 5 0 12 7 16 15 3 8 4 15 2 15 -2 0
-9 -7 -16 -15z"/>
<path d="M3803 4198 c-6 -7 -9 -25 -7 -39 3 -17 -3 -32 -16 -44 -24 -22 -26
-35 -4 -35 8 0 13 4 10 8 -3 5 9 23 25 42 17 18 23 30 15 27 -8 -3 -18 -2 -21
3 -4 6 -2 10 4 10 6 0 8 7 5 15 -4 8 -1 15 4 15 6 0 13 -8 15 -17 4 -14 5 -12
6 5 1 24 -20 30 -36 10z"/>
<path d="M2854 4189 c-3 -6 1 -18 10 -27 16 -16 17 -16 10 1 -4 12 -1 17 12
17 16 0 17 2 4 10 -20 13 -27 12 -36 -1z"/>
<path d="M3280 4190 c-8 -5 -12 -12 -9 -15 4 -3 12 1 19 10 14 17 11 19 -10 5z"/>
<path d="M3171 4176 c-9 -11 -8 -15 6 -20 10 -4 14 -4 10 0 -4 4 -2 13 4 21 7
8 8 13 1 13 -5 0 -15 -6 -21 -14z"/>
<path d="M4270 4181 c0 -5 5 -13 10 -16 6 -3 10 -2 10 4 0 5 -4 13 -10 16 -5
3 -10 2 -10 -4z"/>
<path d="M2190 4167 c0 -8 6 -14 14 -14 8 0 12 6 9 14 -3 7 -9 13 -14 13 -5 0
-9 -6 -9 -13z"/>
<path d="M2820 4165 c0 -8 2 -15 4 -15 2 0 6 7 10 15 3 8 1 15 -4 15 -6 0 -10
-7 -10 -15z"/>
<path d="M2987 4140 c-4 -15 -10 -20 -19 -15 -10 6 -10 5 -2 -4 8 -8 18 -9 37
-2 15 6 27 13 27 16 0 4 -4 4 -9 0 -6 -3 -14 2 -19 11 -8 14 -10 13 -15 -6z"/>
<path d="M3065 4116 c-15 -25 -32 -46 -38 -46 -6 0 -7 -3 -4 -7 8 -7 47 26 47
40 0 6 7 19 17 29 9 10 14 21 10 24 -3 3 -17 -15 -32 -40z"/>
<path d="M3141 4127 c-13 -21 -12 -21 5 -5 10 10 16 20 13 22 -3 3 -11 -5 -18
-17z"/>
<path d="M3212 4121 c-8 -4 -14 -12 -15 -17 -1 -5 -6 -8 -10 -6 -5 1 -6 -2 -2
-8 8 -14 8 -14 33 15 22 25 19 32 -6 16z"/>
<path d="M3565 4108 c-4 -13 -7 -26 -6 -30 0 -3 -6 -12 -14 -18 -8 -7 -15 -21
-15 -31 0 -25 -16 -33 -25 -12 -7 19 -18 -2 -68 -128 -21 -51 -5 -75 24 -37
12 16 26 25 34 21 8 -3 15 0 15 6 0 11 -15 15 -35 11 -5 -1 -7 2 -3 6 4 4 3
13 -2 19 -7 9 -6 16 5 25 10 9 15 9 15 1 0 -6 -5 -11 -11 -11 -8 0 -7 -6 2
-16 12 -15 14 -13 21 15 5 17 20 42 34 56 14 14 23 29 19 34 -3 5 -1 12 5 16
6 4 8 10 5 15 -3 4 2 10 10 14 9 3 15 18 15 36 0 35 -15 40 -25 8z"/>
<path d="M3075 4074 c-25 -22 -33 -35 -22 -32 10 1 18 6 17 11 0 4 12 19 27
32 16 13 26 25 23 25 -3 0 -23 -16 -45 -36z"/>
<path d="M2852 4065 c-7 -8 -9 -15 -4 -15 5 0 15 7 22 15 16 19 -1 19 -18 0z"/>
<path d="M3160 4070 c-12 -7 -10 -9 7 -7 12 0 19 5 17 9 -6 10 -6 10 -24 -2z"/>
<path d="M3767 4055 c-9 -8 -17 -11 -20 -7 -2 4 -2 1 -1 -5 2 -7 -4 -13 -14
-14 -14 0 -14 -2 3 -8 12 -5 21 -4 24 3 2 6 10 19 19 29 18 21 9 23 -11 2z"/>
<path d="M2632 4035 c4 -18 0 -26 -13 -30 -11 -4 -19 -11 -19 -17 0 -6 6 -6
15 2 8 7 15 9 15 4 1 -13 30 28 30 42 0 6 -7 15 -16 18 -13 5 -15 1 -12 -19z"/>
<path d="M2796 4043 c2 -3 -6 -13 -18 -23 -15 -11 -18 -19 -10 -24 7 -4 12 -1
12 9 0 9 4 14 9 10 13 -8 26 15 14 25 -6 4 -9 5 -7 3z"/>
<path d="M3130 4030 c-8 -11 -21 -18 -28 -15 -9 3 -12 0 -9 -9 4 -9 -3 -16
-19 -20 -13 -4 -24 -11 -24 -16 0 -5 -7 -7 -15 -4 -11 5 -13 2 -9 -9 5 -13 9
-14 25 -4 10 6 19 15 19 19 0 5 6 8 13 8 15 0 73 57 66 65 -3 2 -11 -5 -19
-15z"/>
<path d="M2163 4018 c-29 -61 -21 -81 10 -26 10 17 14 35 9 40 -5 5 -13 -2
-19 -14z"/>
<path d="M2605 4030 c-3 -5 -1 -10 4 -10 6 0 11 5 11 10 0 6 -2 10 -4 10 -3 0
-8 -4 -11 -10z"/>
<path d="M2557 3971 c-23 -23 -25 -30 -12 -34 8 -4 15 -2 15 3 0 6 5 10 11 10
5 0 7 -6 3 -12 -4 -7 1 -5 11 4 14 13 16 22 9 37 -9 19 -10 19 -37 -8z"/>
<path d="M3741 3984 c0 -11 3 -14 6 -6 3 7 2 16 -1 19 -3 4 -6 -2 -5 -13z"/>
<path d="M3802 3984 c-7 -8 -8 -14 -3 -14 10 0 25 19 20 25 -2 1 -10 -3 -17
-11z"/>
<path d="M2737 3970 c-19 -22 -22 -35 -7 -25 10 6 34 45 28 45 -2 0 -11 -9
-21 -20z"/>
<path d="M3705 3980 c-3 -5 -1 -10 4 -10 6 0 11 5 11 10 0 6 -2 10 -4 10 -3 0
-8 -4 -11 -10z"/>
<path d="M3686 3944 c-10 -25 -7 -41 8 -41 8 0 11 8 8 20 -4 15 -2 18 9 12 12
-8 12 -6 0 8 -17 21 -17 21 -25 1z"/>
<path d="M2700 3915 c-7 -8 -16 -12 -21 -9 -5 3 -9 -4 -9 -15 0 -12 -5 -21
-11 -21 -6 0 -9 -7 -6 -14 4 -10 1 -13 -7 -10 -8 3 -17 1 -20 -5 -4 -5 3 -9
15 -8 12 1 24 9 27 19 2 10 8 18 13 18 5 0 9 5 9 12 0 6 7 20 17 30 9 10 14
18 11 18 -3 0 -11 -7 -18 -15z"/>
<path d="M3600 3869 c0 -5 5 -7 10 -4 6 3 10 8 10 11 0 2 -4 4 -10 4 -5 0 -10
-5 -10 -11z"/>
<path d="M1951 3854 c0 -11 3 -14 6 -6 3 7 2 16 -1 19 -3 4 -6 -2 -5 -13z"/>
<path d="M3652 3862 c-6 -5 -11 -20 -10 -35 2 -23 4 -25 16 -13 17 17 12 59
-6 48z"/>
<path d="M3560 3819 c0 -5 5 -7 10 -4 6 3 10 8 10 11 0 2 -4 4 -10 4 -5 0 -10
-5 -10 -11z"/>
<path d="M2592 3799 c-9 -14 -9 -20 1 -25 6 -4 8 -3 4 1 -4 5 2 14 14 20 16 9
18 13 7 17 -8 4 -20 -2 -26 -13z"/>
<path d="M2520 3789 c0 -5 5 -7 10 -4 6 3 10 8 10 11 0 2 -4 4 -10 4 -5 0 -10
-5 -10 -11z"/>
<path d="M3600 3756 c0 -14 5 -26 11 -26 5 0 8 4 5 9 -4 5 -1 11 5 13 7 2 5 9
-5 17 -14 12 -16 10 -16 -13z"/>
<path d="M3573 3743 c4 -6 1 -15 -6 -21 -13 -11 -15 -68 -2 -80 5 -4 5 -1 1 6
-5 7 -1 12 11 13 10 0 13 3 6 6 -16 6 -17 45 -2 60 8 8 7 13 -2 18 -7 5 -10 4
-6 -2z"/>
<path d="M2415 3730 c-3 -5 -2 -10 4 -10 5 0 13 5 16 10 3 6 2 10 -4 10 -5 0
-13 -4 -16 -10z"/>
<path d="M1981 3713 c-1 -6 -9 -13 -18 -15 -11 -2 -14 -6 -8 -10 16 -10 38 7
32 23 -3 9 -6 9 -6 2z"/>
<path d="M2050 3710 c-8 -5 -11 -12 -7 -16 4 -4 13 -2 19 4 15 15 7 24 -12 12z"/>
<path d="M3510 3638 c-13 -18 -17 -27 -8 -20 11 9 18 10 23 2 3 -5 12 -10 18
-10 7 0 4 5 -7 11 -14 9 -15 13 -6 19 7 4 11 13 9 19 -3 7 -15 -3 -29 -21z"/>
<path d="M2006 3641 c-4 -5 -2 -12 3 -15 5 -4 12 -2 15 3 4 5 2 12 -3 15 -5 4
-12 2 -15 -3z"/>
<path d="M3491 3568 c0 -10 -6 -17 -12 -15 -18 3 -21 -20 -4 -27 9 -3 14 -2
10 3 -3 5 0 11 6 13 6 2 9 13 6 23 -4 17 -5 17 -6 3z"/>
<path d="M2319 3543 c-13 -16 -12 -17 4 -4 16 13 21 21 13 21 -2 0 -10 -8 -17
-17z"/>
<path d="M3205 3547 c-24 -14 -31 -37 -12 -37 8 0 19 11 25 25 6 14 11 25 9
25 -1 -1 -11 -6 -22 -13z"/>
<path d="M2269 3513 c-13 -16 -12 -17 4 -4 16 13 21 21 13 21 -2 0 -10 -8 -17
-17z"/>
<path d="M3255 3520 c-3 -6 1 -7 9 -4 18 7 21 14 7 14 -6 0 -13 -4 -16 -10z"/>
<path d="M3354 3515 c3 -8 -1 -18 -9 -22 -10 -6 -11 -13 -5 -23 8 -12 11 -11
16 8 4 12 13 22 20 22 8 0 14 7 14 15 0 9 -9 15 -21 15 -15 0 -19 -5 -15 -15z"/>
<path d="M3440 3508 c0 -4 4 -8 9 -8 6 0 12 4 15 8 3 5 -1 9 -9 9 -8 0 -15 -4
-15 -9z"/>
<path d="M3437 3469 c4 -15 8 -17 14 -8 8 14 3 29 -11 29 -4 0 -6 -9 -3 -21z"/>
<path d="M3310 3449 c0 -5 5 -7 10 -4 6 3 10 8 10 11 0 2 -4 4 -10 4 -5 0 -10
-5 -10 -11z"/>
<path d="M3397 3360 c-3 -11 -1 -20 4 -20 5 0 9 2 9 4 0 2 3 11 6 20 3 9 2 16
-4 16 -5 0 -12 -9 -15 -20z"/>
<path d="M3967 3366 c-4 -10 -1 -13 9 -9 7 3 14 9 14 14 0 14 -17 10 -23 -5z"/>
<path d="M3355 3340 c-3 -6 1 -7 9 -4 18 7 21 14 7 14 -6 0 -13 -4 -16 -10z"/>
<path d="M3327 3297 c-3 -8 1 -14 9 -14 8 0 14 6 14 14 0 7 -4 13 -9 13 -5 0
-11 -6 -14 -13z"/>
<path d="M3050 3270 c-8 -5 -11 -12 -7 -16 4 -4 13 -2 19 4 15 15 7 24 -12 12z"/>
<path d="M3936 3263 c-6 -14 -5 -15 5 -6 7 7 10 15 7 18 -3 3 -9 -2 -12 -12z"/>
<path d="M3306 3262 c-3 -5 1 -9 9 -9 8 0 12 4 9 9 -3 4 -7 8 -9 8 -2 0 -6 -4
-9 -8z"/>
<path d="M3870 3232 c0 -6 -7 -9 -15 -6 -8 4 -15 1 -15 -6 0 -6 5 -8 10 -5 6
3 10 0 10 -7 0 -8 5 -6 11 5 6 10 8 21 5 24 -3 4 -6 1 -6 -5z"/>
<path d="M3904 3222 c3 -3 -2 -10 -11 -17 -9 -7 -12 -15 -6 -18 5 -3 21 5 36
17 l27 24 -25 0 c-14 0 -23 -3 -21 -6z"/>
<path d="M2610 3199 c-13 -8 -13 -10 0 -19 27 -18 39 -9 22 17 -5 8 -12 9 -22
2z"/>
<path d="M3761 3188 c-14 -23 -14 -23 8 -4 22 20 25 26 13 26 -4 0 -13 -10
-21 -22z"/>
<path d="M3833 3185 c0 -8 4 -12 9 -9 5 3 6 10 3 15 -9 13 -12 11 -12 -6z"/>
<path d="M2575 3164 c-8 -9 -15 -21 -15 -27 0 -7 -5 -6 -11 3 -8 12 -10 9 -6
-13 3 -18 0 -30 -9 -34 -8 -3 -12 -9 -9 -13 7 -12 46 1 42 13 -2 6 9 23 25 37
15 15 28 30 28 33 0 14 -31 14 -45 1z"/>
<path d="M3660 3165 c-7 -9 -11 -17 -9 -20 3 -2 10 5 17 15 14 24 10 26 -8 5z"/>
<path d="M3875 3172 c-8 -8 5 -22 21 -22 8 0 14 6 14 13 0 13 -25 19 -35 9z"/>
<path d="M2630 3144 c0 -8 5 -12 10 -9 6 3 10 10 10 16 0 5 -4 9 -10 9 -5 0
-10 -7 -10 -16z"/>
<path d="M3732 3153 c-7 -2 -17 -14 -23 -25 -10 -19 -10 -19 15 -3 14 10 26
21 26 26 0 5 -1 9 -2 8 -2 0 -9 -3 -16 -6z"/>
<path d="M3856 3138 c3 -4 0 -8 -5 -8 -6 0 -11 -9 -11 -21 0 -12 -8 -23 -20
-26 -23 -6 -27 -23 -6 -23 27 0 45 12 39 26 -3 8 0 14 7 14 6 0 8 5 5 10 -3 6
-1 10 4 10 6 0 11 6 11 13 0 8 -7 14 -15 14 -8 0 -12 -4 -9 -9z"/>
<path d="M2605 3120 c4 -6 1 -17 -5 -25 -7 -8 -8 -15 -4 -15 12 0 34 36 27 44
-11 10 -25 7 -18 -4z"/>
<path d="M3266 3114 c-5 -14 -4 -15 9 -4 17 14 19 20 6 20 -5 0 -12 -7 -15
-16z"/>
<path d="M3630 3120 c0 -5 5 -10 11 -10 5 0 7 5 4 10 -3 6 -8 10 -11 10 -2 0
-4 -4 -4 -10z"/>
<path d="M2480 3087 c0 -7 -9 -20 -20 -30 -11 -9 -20 -25 -19 -34 0 -11 3 -13
6 -5 2 6 9 10 14 6 5 -3 9 0 9 7 0 8 3 9 14 0 10 -9 16 -8 25 3 10 11 8 16 -8
21 -13 4 -18 12 -14 21 5 13 7 13 14 2 7 -10 9 -9 9 5 0 9 -7 17 -15 17 -8 0
-15 -6 -15 -13z"/>
<path d="M3617 3086 c-16 -40 -7 -49 19 -21 14 15 22 30 19 33 -3 4 -10 0 -14
-7 -7 -11 -9 -11 -13 0 -3 9 -6 8 -11 -5z"/>
<path d="M2653 3082 c-8 -5 -9 -13 -3 -22 6 -8 10 -13 11 -10 0 3 2 13 4 23 4
19 4 19 -12 9z"/>
<path d="M2674 3049 c-3 -6 -15 -9 -25 -6 -11 3 -19 1 -19 -4 0 -15 47 -10 54
6 6 17 0 20 -10 4z"/>
<path d="M2545 3040 c-3 -5 -2 -10 4 -10 5 0 13 5 16 10 3 6 2 10 -4 10 -5 0
-13 -4 -16 -10z"/>
<path d="M3733 3035 c-3 -9 -3 -18 -1 -21 3 -3 8 4 11 16 6 23 -1 27 -10 5z"/>
<path d="M2705 3029 c-4 -6 -5 -12 -2 -15 2 -3 7 2 10 11 7 17 1 20 -8 4z"/>
<path d="M3806 3023 c-6 -14 -5 -15 5 -6 7 7 10 15 7 18 -3 3 -9 -2 -12 -12z"/>
<path d="M3763 3010 c-3 -11 -9 -20 -14 -20 -5 0 -9 -7 -9 -15 0 -8 -7 -15
-15 -15 -8 0 -15 -4 -15 -9 0 -15 41 0 48 18 3 9 12 22 19 29 16 16 17 32 2
32 -6 0 -13 -9 -16 -20z"/>
<path d="M2420 3008 c0 -10 -4 -18 -10 -18 -5 0 -10 -4 -10 -10 0 -12 10 -13
29 -1 10 7 11 13 2 27 -9 17 -10 17 -11 2z"/>
<path d="M2602 3000 c-12 -12 -22 -26 -22 -32 0 -7 -5 -6 -15 2 -8 7 -15 8
-15 2 0 -11 -63 -82 -74 -82 -4 0 2 13 13 29 25 35 26 48 6 48 -9 0 -14 -6
-11 -14 3 -7 1 -13 -4 -13 -6 0 -10 7 -10 15 0 8 -4 15 -9 15 -14 0 -31 -26
-23 -36 4 -5 -2 -2 -13 7 -39 31 -49 34 -43 11 6 -22 -17 -40 -26 -19 -2 7 -5
0 -5 -15 -1 -15 4 -30 10 -34 6 -3 7 -9 2 -13 -5 -3 -26 -27 -47 -54 -47 -58
-25 -54 24 5 19 23 52 57 72 76 21 19 35 38 33 43 -3 4 -1 10 5 14 5 3 10 0
10 -9 0 -8 6 -16 12 -18 8 -3 -4 -21 -30 -47 -23 -23 -40 -46 -37 -52 4 -5 2
-9 -2 -9 -5 0 -9 -9 -9 -19 0 -11 4 -17 8 -15 4 3 8 10 8 16 0 13 68 78 81 78
5 0 9 5 9 10 0 6 10 10 23 9 12 0 17 -3 10 -5 -6 -3 -9 -16 -7 -31 4 -23 3
-25 -11 -13 -9 7 -15 9 -14 4 4 -16 -13 -44 -23 -38 -5 3 -4 -3 4 -15 12 -20
14 -20 26 -4 7 10 22 29 33 41 11 13 21 32 22 42 0 10 6 16 13 13 6 -2 14 7
16 21 4 18 1 26 -8 26 -8 0 -14 -4 -14 -10 0 -5 -6 -10 -12 -10 -7 1 -3 9 10
19 12 11 22 24 22 31 0 7 8 9 19 5 15 -5 19 -1 17 20 0 14 -1 25 -2 25 0 0
-10 -9 -22 -20z"/>
<path d="M2529 2993 c-13 -16 -12 -17 4 -4 9 7 17 15 17 17 0 8 -8 3 -21 -13z"/>
<path d="M3548 2983 c-10 -2 -18 -8 -18 -13 0 -4 9 -6 20 -3 11 3 20 9 20 14
0 5 -1 8 -2 8 -2 -1 -11 -3 -20 -6z"/>
<path d="M3672 2965 c-16 -19 -3 -19 22 0 14 11 16 15 5 15 -8 -1 -20 -7 -27
-15z"/>
<path d="M3156 2958 c3 -4 9 -8 15 -8 5 0 9 4 9 8 0 5 -7 9 -15 9 -8 0 -12 -4
-9 -9z"/>
<path d="M3605 2960 c4 -6 11 -8 16 -5 14 9 11 15 -7 15 -8 0 -12 -5 -9 -10z"/>
<path d="M3558 2933 c-6 -7 -8 -16 -5 -20 4 -3 9 2 13 11 3 9 10 14 14 11 5
-3 11 -2 14 3 9 14 -23 10 -36 -5z"/>
<path d="M3616 2929 c5 -9 31 -6 40 4 4 4 -4 6 -19 5 -14 -1 -24 -5 -21 -9z"/>
<path d="M3646 2904 c-26 -20 -45 -38 -43 -40 8 -8 97 50 97 63 0 18 -1 17
-54 -23z"/>
<path d="M3120 2912 c0 -10 -6 -24 -12 -31 -11 -10 -9 -12 7 -9 13 2 20 12 22
31 1 15 -2 27 -8 27 -5 0 -9 -8 -9 -18z"/>
<path d="M3493 2916 c3 -7 0 -19 -6 -25 -8 -8 -8 -11 0 -11 6 0 14 6 16 13 3
6 6 2 6 -11 1 -13 -3 -21 -7 -18 -5 3 -9 -1 -9 -9 0 -10 5 -11 18 -5 9 6 19 7
22 2 2 -4 2 0 -1 8 -3 8 -5 23 -6 32 0 9 -4 14 -8 12 -4 -3 -8 2 -8 10 0 9 -5
16 -11 16 -6 0 -9 -6 -6 -14z"/>
<path d="M2832 2873 c-35 -39 -38 -54 -5 -26 17 16 49 64 41 62 -2 0 -18 -16
-36 -36z"/>
<path d="M3595 2900 c3 -5 8 -10 11 -10 2 0 4 5 4 10 0 6 -5 10 -11 10 -5 0
-7 -4 -4 -10z"/>
<path d="M3077 2863 c-4 -3 -7 -11 -7 -17 0 -6 5 -5 12 2 6 6 9 14 7 17 -3 3
-9 2 -12 -2z"/>
<path d="M3551 2841 c-21 -18 -29 -31 -22 -35 6 -4 11 -2 11 3 0 6 7 11 15 11
9 0 18 7 21 15 4 8 10 12 15 9 5 -3 6 2 3 10 -8 20 -3 21 -43 -13z"/>
<path d="M3452 2840 c-6 -11 -12 -23 -12 -27 0 -5 5 -1 10 7 8 13 10 13 10 1
0 -11 3 -12 11 -4 7 7 8 17 2 27 -7 14 -10 13 -21 -4z"/>
<path d="M2835 2820 c-3 -5 -1 -10 4 -10 6 0 11 5 11 10 0 6 -2 10 -4 10 -3 0
-8 -4 -11 -10z"/>
<path d="M2745 2790 c-3 -5 -2 -10 4 -10 5 0 13 5 16 10 3 6 2 10 -4 10 -5 0
-13 -4 -16 -10z"/>
<path d="M3457 2773 c-20 -14 -35 -28 -32 -31 5 -5 85 45 85 53 0 10 -16 3
-53 -22z"/>
<path d="M3364 2714 c-18 -14 -18 -15 4 -4 12 6 22 13 22 15 0 8 -5 6 -26 -11z"/>
<path d="M2400 2690 c-19 -16 -30 -30 -24 -30 5 0 23 14 39 30 36 38 30 38
-15 0z"/>
<path d="M2530 2689 c0 -5 5 -7 10 -4 6 3 10 8 10 11 0 2 -4 4 -10 4 -5 0 -10
-5 -10 -11z"/>
<path d="M2440 2686 c0 -2 7 -7 16 -10 8 -3 12 -2 9 4 -6 10 -25 14 -25 6z"/>
<path d="M2591 2354 c0 -11 3 -14 6 -6 3 7 2 16 -1 19 -3 4 -6 -2 -5 -13z"/>
<path d="M2092 4995 c0 -16 2 -22 5 -12 2 9 2 23 0 30 -3 6 -5 -1 -5 -18z"/>
<path d="M2147 4963 c-10 -10 -8 -25 2 -19 5 4 8 -9 7 -29 -2 -19 1 -32 5 -29
11 7 11 55 1 72 -5 7 -11 9 -15 5z"/>
<path d="M2087 4953 c-3 -4 1 -17 9 -28 10 -13 14 -15 14 -4 0 20 -16 43 -23
32z"/>
<path d="M2048 4920 c-6 -40 -6 -41 8 -32 5 4 7 21 4 37 l-6 30 -6 -35z"/>
<path d="M2092 4835 c3 -14 1 -28 -3 -31 -5 -3 -9 -10 -9 -16 0 -5 9 0 19 13
11 13 16 25 11 27 -5 2 -6 10 -3 18 3 8 0 14 -7 14 -8 0 -11 -9 -8 -25z"/>
<path d="M2077 4763 c-4 -3 -7 -11 -7 -17 0 -6 5 -5 12 2 6 6 9 14 7 17 -3 3
-9 2 -12 -2z"/>
<path d="M2111 4734 c0 -11 3 -14 6 -6 3 7 2 16 -1 19 -3 4 -6 -2 -5 -13z"/>
<path d="M2845 2490 c-3 -5 -1 -10 4 -10 6 0 11 5 11 10 0 6 -2 10 -4 10 -3 0
-8 -4 -11 -10z"/>
<path d="M2964 2411 c21 -23 26 -26 26 -11 0 5 -10 15 -22 21 -23 12 -23 12
-4 -10z"/>
<path d="M3261 2374 c0 -11 3 -14 6 -6 3 7 2 16 -1 19 -3 4 -6 -2 -5 -13z"/>
<path d="M3252 2325 c0 -16 2 -22 5 -12 2 9 2 23 0 30 -3 6 -5 -1 -5 -18z"/>
<path d="M3249 2289 c0 -2 -3 -17 -5 -34 -3 -16 -9 -34 -15 -39 -11 -12 -12
-26 0 -26 10 0 35 90 26 98 -3 3 -5 3 -6 1z"/>
<path d="M3097 2226 c-3 -8 0 -22 7 -31 11 -15 12 -14 11 8 0 31 -10 43 -18
23z"/>
<path d="M3067 2223 c-12 -12 -7 -30 8 -30 10 0 12 4 5 12 -5 7 -7 15 -3 18 3
4 4 7 1 7 -2 0 -8 -3 -11 -7z"/>
<path d="M2901 2193 c10 -11 10 -16 1 -22 -7 -4 -4 -11 11 -20 20 -13 21 -13
8 2 -17 21 -9 21 27 3 46 -24 126 -35 141 -19 17 19 3 36 -25 30 -16 -3 -31 4
-45 19 -13 13 -27 24 -32 24 -5 0 1 -9 14 -20 29 -24 23 -25 -27 -4 -22 9 -49
18 -62 20 -19 2 -21 0 -11 -13z"/>
<path d="M2955 2120 c3 -5 8 -10 11 -10 2 0 4 5 4 10 0 6 -5 10 -11 10 -5 0
-7 -4 -4 -10z"/>
<path d="M3370 2030 c-11 -21 -8 -23 27 -14 13 4 20 10 17 16 -3 5 -12 4 -20
-3 -12 -10 -13 -9 -8 5 9 23 -3 20 -16 -4z"/>
<path d="M3310 2030 c0 -5 7 -10 15 -10 8 0 15 5 15 10 0 6 -7 10 -15 10 -8 0
-15 -4 -15 -10z"/>
<path d="M3430 2020 c0 -5 5 -10 11 -10 5 0 7 5 4 10 -3 6 -8 10 -11 10 -2 0
-4 -4 -4 -10z"/>
<path d="M3520 2020 c0 -5 5 -10 11 -10 5 0 7 5 4 10 -3 6 -8 10 -11 10 -2 0
-4 -4 -4 -10z"/>
<path d="M3043 2010 c-13 -5 -23 -15 -23 -21 0 -8 -4 -8 -15 1 -10 9 -15 9
-15 1 0 -6 -11 -11 -25 -11 -28 0 -33 -15 -9 -24 10 -4 22 1 30 11 8 11 13 13
14 6 0 -7 -9 -22 -20 -33 -16 -16 -20 -17 -20 -5 0 8 -3 15 -7 16 -5 0 -18 2
-30 3 -12 1 -20 -1 -17 -6 3 -4 11 -8 18 -8 14 0 40 -49 31 -58 -7 -8 -55 -9
-55 -2 0 4 -14 17 -32 30 -33 24 -93 36 -81 16 4 -6 -3 -3 -14 7 -27 24 -33
21 -20 -8 7 -14 15 -25 20 -25 4 0 7 -7 7 -16 0 -8 5 -12 10 -9 6 3 14 -4 18
-16 6 -15 11 -19 16 -11 4 7 13 9 19 5 9 -5 9 -3 0 8 -11 14 -13 19 -13 39 0
6 -5 10 -11 10 -5 0 -7 -4 -4 -10 3 -5 2 -10 -4 -10 -18 0 -23 20 -6 26 17 7
55 -22 52 -40 -1 -6 4 -10 11 -8 25 5 11 -16 -15 -23 -15 -3 -22 -9 -17 -13 6
-4 14 -16 18 -27 5 -11 10 -15 13 -9 2 7 14 10 26 7 15 -2 12 1 -8 10 -27 12
-28 14 -10 22 29 12 45 14 42 6 -3 -10 47 -67 70 -79 28 -15 36 -48 12 -48
-10 0 -15 4 -12 9 6 10 -16 37 -31 37 -6 0 -2 -7 8 -15 11 -8 15 -15 10 -15
-17 0 -33 22 -27 39 4 13 2 13 -7 -1 -13 -22 -32 -24 -24 -3 4 8 2 15 -3 15
-5 0 -9 -11 -9 -24 0 -14 2 -24 6 -24 3 0 14 0 25 -1 15 -1 17 -3 7 -10 -10
-6 -8 -10 10 -15 15 -4 19 -9 11 -14 -13 -8 -5 -26 13 -29 7 -1 10 6 7 20 -3
13 -1 18 4 11 4 -6 31 -24 58 -39 l50 -29 -30 30 c-16 16 -33 28 -37 27 -4 -2
-10 2 -14 9 -4 7 -4 10 1 6 4 -4 14 -3 21 3 9 7 19 1 38 -24 14 -19 26 -41 26
-50 0 -10 3 -17 8 -17 7 0 47 -37 86 -82 16 -18 26 -23 29 -15 4 9 6 9 6 0 1
-6 -4 -15 -10 -18 -6 -4 0 -15 15 -28 28 -26 39 -64 16 -59 -11 3 -9 -3 6 -20
20 -22 34 -49 40 -76 4 -21 14 -27 14 -9 0 9 5 19 12 23 7 4 8 3 4 -4 -11 -18
0 -14 15 5 10 11 10 14 2 9 -7 -4 -13 -2 -13 3 0 6 5 11 12 11 9 0 9 3 1 11
-6 6 -9 19 -5 28 5 13 3 14 -10 3 -13 -10 -17 -10 -22 4 -8 21 -8 26 2 20 4
-2 8 4 8 15 0 18 -2 18 -12 5 -16 -23 -27 -20 -19 5 5 14 3 19 -3 15 -6 -3
-18 4 -26 16 -20 28 -21 49 -1 22 8 -10 15 -14 15 -8 0 11 -32 44 -43 44 -7 0
-56 48 -57 55 0 3 -2 4 -5 3 -3 -2 -15 12 -26 30 -12 17 -25 32 -29 32 -4 0
-10 7 -14 15 -4 12 -2 13 13 6 10 -6 24 -17 31 -26 8 -10 25 -21 38 -26 13 -5
21 -12 19 -16 -3 -5 1 -14 9 -21 10 -9 14 -9 14 -1 0 8 4 8 15 -1 15 -12 21
-3 16 24 -1 5 5 6 14 3 21 -9 19 -2 -10 29 -14 15 -25 22 -25 16 0 -6 8 -15
18 -21 16 -9 16 -10 -3 -17 -11 -4 -24 -9 -28 -11 -4 -3 -5 7 -1 21 5 20 2 26
-11 26 -11 0 -15 5 -11 15 7 18 -5 19 -24 3 -13 -11 -13 -11 -2 2 17 20 16 54
-2 47 -8 -3 -17 1 -20 9 -3 9 -1 12 4 9 10 -6 13 5 11 35 0 10 1 11 5 3 8 -19
34 -16 35 5 0 14 2 14 9 -3 8 -18 9 -18 10 5 2 25 2 25 10 -3 5 -16 6 -36 3
-44 -4 -11 -2 -14 5 -9 7 4 12 14 12 22 0 15 16 20 22 7 2 -5 21 -16 43 -27
l40 -18 -19 21 c-11 12 -28 21 -39 21 -11 0 -17 3 -14 6 3 4 0 16 -8 28 -20
27 -20 59 -1 34 7 -10 20 -18 29 -18 10 0 19 -11 23 -26 4 -16 9 -22 14 -14 7
12 12 8 49 -35 7 -9 15 -14 18 -11 7 7 -39 86 -50 86 -6 0 -6 5 0 13 6 8 2 20
-14 36 -13 13 -23 19 -23 13 0 -6 5 -14 10 -17 15 -9 12 -22 -5 -22 -9 0 -15
10 -15 24 0 20 -2 22 -14 11 -8 -7 -12 -16 -9 -20 2 -4 -3 -5 -12 -2 -9 4 -14
9 -11 11 7 7 -18 32 -27 26 -4 -2 -7 -1 -6 4 4 21 -2 44 -10 39 -5 -3 -8 2 -7
11 0 10 -7 19 -18 21 -11 2 -16 0 -12 -6 3 -6 2 -13 -3 -16 -12 -8 -42 4 -36
14 9 15 -27 34 -77 39 -4 1 -5 10 -3 21 2 11 3 20 2 19 -1 0 -12 -4 -24 -9z
m-15 -65 c-3 -3 -9 2 -12 12 -6 14 -5 15 5 6 7 -7 10 -15 7 -18z m38 -15 c-1
-34 -17 -24 -21 14 -2 16 1 23 9 20 7 -3 13 -18 12 -34z m55 3 c12 -15 12 -16
-3 -10 -12 4 -18 2 -18 -8 0 -7 -6 -17 -12 -21 -7 -4 -10 -4 -6 1 4 4 3 16 -2
26 -8 13 -6 19 8 22 9 3 18 5 18 6 1 0 8 -7 15 -16z m-89 -53 c32 -32 54 -40
44 -15 -3 9 0 15 8 15 8 0 17 -6 19 -12 3 -7 6 -1 6 13 1 16 7 26 16 26 11 0
12 -4 5 -11 -5 -5 -10 -23 -10 -39 0 -24 3 -27 14 -18 11 9 15 8 20 -4 4 -11
2 -14 -7 -9 -8 5 -7 2 2 -9 7 -9 11 -17 8 -17 -3 0 -12 -3 -21 -6 -10 -4 -16
-1 -16 7 0 8 -8 23 -16 34 -15 20 -15 20 -34 -2 -22 -28 -30 -29 -31 -5 0 10
-3 12 -6 5 -2 -7 -9 -13 -14 -13 -6 0 -7 5 -4 10 3 6 -2 10 -13 10 -27 0 -34
11 -19 28 9 13 9 14 0 8 -15 -8 -16 -5 -7 18 9 23 22 20 56 -14z m186 -6 c-4
-3 3 -15 15 -27 26 -26 5 -37 -24 -11 -23 21 -25 44 -2 44 9 0 14 -3 11 -6z
m-115 -68 c3 3 3 -4 0 -16 -5 -19 -7 -20 -15 -7 -5 9 -14 15 -21 13 -6 -1 -9
-1 -4 1 4 3 7 12 7 21 1 16 2 16 14 0 7 -10 16 -15 19 -12z m-110 -20 c4 -10
1 -13 -9 -9 -15 6 -19 23 -5 23 5 0 11 -7 14 -14z m82 -36 c4 -6 10 -8 15 -5
5 3 14 -3 19 -14 15 -26 14 -31 -5 -31 -8 0 -12 4 -9 10 3 6 -1 7 -9 4 -9 -3
-16 -1 -16 6 0 6 -4 9 -9 6 -5 -3 -11 0 -14 8 -9 23 15 37 28 16z m85 -54 c0
-2 -9 -6 -20 -9 -11 -3 -18 -1 -14 4 5 9 34 13 34 5z m140 -306 c0 -5 -4 -10
-10 -10 -5 0 -10 5 -10 10 0 6 5 10 10 10 6 0 10 -4 10 -10z m18 -38 c6 -18
-15 -14 -22 4 -4 10 -1 14 6 12 6 -2 14 -10 16 -16z"/>
<path d="M3256 1955 c37 -37 37 -61 0 -51 -20 5 -19 4 3 -15 l25 -20 12 42
c12 39 11 43 -9 60 -12 10 -32 18 -44 19 -21 0 -19 -3 13 -35z"/>
<path d="M2673 1955 c-7 -8 -26 -12 -43 -10 -20 3 -30 0 -30 -9 0 -9 12 -12
38 -11 49 3 49 3 55 20 8 20 -5 26 -20 10z"/>
<path d="M2855 1960 c3 -5 8 -10 11 -10 2 0 4 5 4 10 0 6 -5 10 -11 10 -5 0
-7 -4 -4 -10z"/>
<path d="M3327 1943 c3 -7 9 -10 14 -7 14 8 11 21 -5 21 -8 0 -12 -6 -9 -14z"/>
<path d="M2515 1920 c-3 -5 -1 -10 4 -10 6 0 11 5 11 10 0 6 -2 10 -4 10 -3 0
-8 -4 -11 -10z"/>
<path d="M3405 1830 c-3 -11 0 -29 8 -40 13 -18 16 -19 27 -5 10 12 9 20 -4
40 -20 30 -23 31 -31 5z"/>
<path d="M2814 1779 c0 -10 2 -16 4 -14 2 2 16 -7 30 -20 25 -23 42 -25 42 -4
0 6 -5 7 -10 4 -6 -3 -13 0 -16 9 -3 8 -16 21 -28 29 -20 13 -22 13 -22 -4z"/>
<path d="M3636 1787 c3 -10 9 -15 12 -12 3 3 0 11 -7 18 -10 9 -11 8 -5 -6z"/>
<path d="M2710 1779 c0 -5 5 -7 10 -4 6 3 10 8 10 11 0 2 -4 4 -10 4 -5 0 -10
-5 -10 -11z"/>
<path d="M2752 1731 c13 -17 28 -30 35 -30 6 -1 -1 13 -15 29 -34 39 -51 39
-20 1z"/>
<path d="M3496 1745 c-3 -8 -1 -15 5 -15 5 0 14 -12 20 -26 8 -23 11 -25 22
-12 7 9 19 18 27 22 10 4 9 5 -5 5 -37 -2 -45 1 -45 15 0 21 -17 29 -24 11z"/>
<path d="M3651 1744 c0 -11 3 -14 6 -6 3 7 2 16 -1 19 -3 4 -6 -2 -5 -13z"/>
<path d="M3468 1707 c-3 -14 0 -24 7 -24 7 0 10 10 7 24 -2 13 -6 23 -7 23 -1
0 -5 -10 -7 -23z"/>
<path d="M3285 1710 c-4 -6 -10 -8 -14 -6 -4 3 -8 -1 -8 -9 0 -8 6 -15 13 -15
8 0 16 -11 20 -25 3 -14 12 -25 20 -25 8 0 14 -4 14 -10 0 -5 7 -10 15 -10 8
0 15 -5 15 -12 0 -6 3 -8 7 -4 4 4 -7 20 -25 35 -17 16 -32 36 -32 45 0 9 -5
16 -11 16 -6 0 -9 7 -5 15 6 17 0 20 -9 5z"/>
<path d="M3190 1702 c0 -4 9 -13 20 -19 16 -11 18 -10 14 1 -6 15 -34 30 -34
18z"/>
<path d="M3407 1678 c6 -22 5 -22 -14 -5 -19 16 -33 14 -33 -6 0 -5 7 -7 15
-4 8 4 17 2 20 -4 4 -5 10 -7 15 -4 10 6 25 -33 16 -42 -3 -3 -1 -14 4 -24 11
-19 -4 -37 -15 -19 -3 5 -14 10 -23 10 -14 0 -13 -2 3 -14 11 -8 16 -20 12
-29 -3 -9 -2 -19 4 -22 5 -4 8 -3 7 2 -1 4 4 19 11 32 l13 24 20 -24 19 -24
-7 25 c-3 14 -12 32 -19 40 -11 13 -28 66 -29 94 -1 5 -6 11 -13 13 -7 3 -9
-4 -6 -19z"/>
<path d="M2545 1670 c-4 -12 0 -26 9 -36 9 -8 16 -11 16 -5 0 5 -4 12 -9 15
-5 3 -7 15 -4 26 7 26 -4 26 -12 0z"/>
<path d="M2761 1660 c6 -16 15 -30 19 -30 5 0 2 14 -6 30 -9 17 -17 30 -19 30
-2 0 1 -13 6 -30z"/>
<path d="M2841 1658 c15 -14 23 -31 21 -43 -2 -11 -1 -17 4 -12 8 8 55 -19 67
-40 4 -7 14 -13 21 -13 16 0 18 47 3 57 -6 4 -8 -4 -5 -20 3 -15 1 -24 -3 -21
-5 3 -9 11 -9 18 0 8 -14 19 -30 26 -17 7 -28 15 -26 17 6 6 -48 53 -59 53 -5
0 3 -10 16 -22z"/>
<path d="M3530 1662 c0 -5 7 -22 15 -39 8 -16 16 -42 17 -57 3 -30 10 -33 28
-11 10 12 10 15 -3 15 -9 0 -19 17 -26 44 -10 40 -31 72 -31 48z"/>
<path d="M3460 1643 c1 -5 10 -19 21 -32 14 -18 22 -21 29 -13 6 7 7 10 4 7
-8 -5 -34 20 -34 34 0 6 -4 11 -10 11 -5 0 -10 -3 -10 -7z"/>
<path d="M2793 1622 c-17 -11 1 -36 21 -29 9 4 16 11 16 17 0 6 -4 9 -9 6 -5
-4 -11 -2 -13 4 -1 5 -8 6 -15 2z"/>
<path d="M2690 1609 c0 -8 10 -20 23 -28 l22 -14 -20 24 c-11 13 -21 26 -22
28 -2 2 -3 -2 -3 -10z"/>
<path d="M3290 1616 c0 -2 7 -9 15 -16 9 -7 15 -8 15 -2 0 5 -7 12 -15 16 -8
3 -15 4 -15 2z"/>
<path d="M2554 1599 c-3 -6 -1 -16 4 -21 8 -8 11 -5 9 11 -1 24 -3 25 -13 10z"/>
<path d="M2746 1560 c3 -19 10 -39 16 -45 11 -12 0 42 -14 65 -6 10 -7 3 -2
-20z"/>
<path d="M2820 1580 c0 -6 -6 -8 -12 -5 -7 4 -6 1 3 -7 16 -14 31 -44 33 -65
1 -7 6 -13 11 -13 9 0 10 7 6 41 0 5 -5 7 -11 4 -6 -3 -10 5 -10 19 0 14 -4
28 -10 31 -5 3 -10 1 -10 -5z"/>
<path d="M3126 1561 c10 -19 25 -36 32 -37 7 -1 8 0 2 3 -5 2 -7 10 -4 15 4 7
2 8 -4 4 -7 -4 -12 -1 -12 7 0 8 -8 21 -17 28 -14 12 -14 9 3 -20z"/>
<path d="M3260 1582 c0 -11 20 -38 20 -28 0 5 11 -3 25 -18 14 -15 25 -36 25
-47 0 -12 5 -19 13 -16 19 7 67 -22 67 -40 0 -12 7 -14 30 -9 31 6 41 -7 15
-21 -9 -5 -11 -13 -6 -22 5 -7 14 -10 20 -7 6 4 9 11 6 16 -6 10 29 5 48 -7 6
-4 19 -8 27 -10 8 -1 16 -7 18 -12 2 -6 15 -11 28 -11 20 0 24 5 24 30 0 22
-4 28 -15 24 -8 -4 -15 -14 -15 -23 0 -14 -2 -14 -10 -1 -5 8 -15 16 -22 16
-7 1 -18 2 -25 3 -6 1 -9 11 -6 24 4 18 3 19 -6 7 -9 -12 -11 -11 -8 7 2 12 7
26 12 30 4 5 5 3 2 -3 -4 -7 0 -15 9 -18 21 -8 24 -8 24 5 0 5 -4 8 -9 5 -5
-3 -14 8 -20 24 -7 22 -18 32 -40 36 -34 7 -41 7 -40 -2 0 -4 -5 -11 -13 -15
-10 -7 -10 -9 0 -9 6 0 12 -7 12 -15 0 -8 -4 -15 -10 -15 -5 0 -10 5 -10 10 0
6 -7 10 -16 10 -8 0 -12 4 -9 10 3 5 0 7 -9 4 -9 -3 -19 3 -27 18 -11 21 -11
22 5 9 14 -12 16 -12 10 3 -3 9 -10 16 -16 16 -5 0 -7 4 -3 9 3 5 1 12 -5 16
-5 3 -10 1 -10 -4 0 -6 -5 -11 -11 -11 -5 0 -7 5 -4 10 3 6 -1 10 -10 10 -10
0 -14 -5 -10 -12 4 -7 1 -6 -7 3 -15 17 -48 32 -48 21z m220 -100 c0 -12 -3
-13 -12 -4 -6 6 -13 19 -14 27 -2 13 1 14 12 4 8 -6 14 -19 14 -27z m24 -23
c-4 -13 -7 -27 -6 -31 4 -17 -18 -7 -29 13 -7 14 -7 19 0 15 6 -4 13 4 17 19
4 17 10 23 16 17 6 -6 7 -20 2 -33z m-64 -13 c0 -3 -4 -8 -10 -11 -5 -3 -10
-1 -10 4 0 6 5 11 10 11 6 0 10 -2 10 -4z"/>
<path d="M3507 1584 c-9 -9 4 -34 18 -34 8 0 11 8 8 20 -5 20 -15 25 -26 14z"/>
<path d="M3029 1578 c0 -2 -2 -11 -4 -21 -3 -15 -1 -16 11 -6 7 6 11 15 8 20
-5 9 -13 12 -15 7z"/>
<path d="M2610 1536 c0 -9 5 -16 10 -16 6 0 10 4 10 9 0 6 -4 13 -10 16 -5 3
-10 -1 -10 -9z"/>
<path d="M3050 1541 c0 -5 14 -21 30 -34 29 -25 42 -45 19 -31 -11 6 -10 -36
2 -46 3 -3 18 -22 34 -43 19 -26 31 -35 38 -28 8 8 2 20 -17 40 -15 16 -27 31
-26 33 1 1 -2 11 -6 21 -3 10 -4 20 -2 22 8 8 65 -50 61 -62 -2 -6 1 -15 8
-19 8 -5 9 -3 4 6 -5 9 -2 10 14 5 15 -5 21 -2 21 9 0 9 -7 16 -15 16 -9 0
-18 7 -21 15 -4 8 -12 15 -19 15 -8 0 -11 10 -8 28 3 25 3 26 -6 5 -6 -13 -13
-23 -16 -23 -4 0 -3 5 0 10 3 6 0 10 -8 10 -8 0 -20 7 -27 15 -7 8 -16 12 -21
9 -5 -3 -9 1 -9 9 0 8 -7 17 -15 21 -8 3 -15 1 -15 -3z"/>
<path d="M2721 1524 c0 -11 3 -14 6 -6 3 7 2 16 -1 19 -3 4 -6 -2 -5 -13z"/>
<path d="M2994 1521 c0 -11 4 -18 8 -15 4 2 16 -6 27 -18 12 -12 21 -17 21
-10 0 9 -45 62 -53 62 -2 0 -3 -9 -3 -19z"/>
<path d="M2565 1500 c-3 -5 -1 -10 4 -10 6 0 11 5 11 10 0 6 -2 10 -4 10 -3 0
-8 -4 -11 -10z"/>
<path d="M2624 1503 c3 -6 -2 -16 -11 -22 -15 -9 -16 -10 -2 -11 9 0 21 -12
28 -26 6 -15 14 -24 17 -21 3 3 -2 19 -10 36 -9 17 -16 33 -15 37 0 3 -3 9 -7
12 -4 4 -4 2 0 -5z"/>
<path d="M2765 1491 c-3 -5 -2 -12 3 -15 5 -3 9 1 9 9 0 17 -3 19 -12 6z"/>
<path d="M2576 1464 c-8 -20 0 -32 14 -18 5 5 5 15 1 22 -6 11 -10 10 -15 -4z"/>
<path d="M3060 1469 c0 -5 5 -7 10 -4 6 3 10 8 10 11 0 2 -4 4 -10 4 -5 0 -10
-5 -10 -11z"/>
<path d="M2870 1431 c0 -5 5 -13 10 -16 6 -3 10 -2 10 4 0 5 -4 13 -10 16 -5
3 -10 2 -10 -4z"/>
<path d="M3545 1410 c-3 -6 1 -7 9 -4 18 7 21 14 7 14 -6 0 -13 -4 -16 -10z"/>
<path d="M2658 1405 c-3 -3 1 -24 8 -46 8 -22 15 -62 15 -89 1 -26 5 -54 10
-61 7 -11 9 -11 9 -1 0 7 5 10 10 7 6 -3 10 -1 10 5 0 7 -6 10 -13 7 -10 -4
-13 11 -12 68 1 53 -3 79 -15 94 -8 12 -18 19 -22 16z"/>
<path d="M2570 1389 c0 -5 5 -7 10 -4 6 3 10 8 10 11 0 2 -4 4 -10 4 -5 0 -10
-5 -10 -11z"/>
<path d="M2585 1368 c-10 -26 -2 -43 12 -26 7 8 8 19 3 28 -8 12 -10 12 -15
-2z"/>
<path d="M2907 1359 c7 -7 15 -10 18 -7 3 3 -2 9 -12 12 -14 6 -15 5 -6 -5z"/>
<path d="M3186 1349 c-18 -17 -18 -18 0 -13 11 2 24 1 29 -3 19 -15 35 -52 29
-68 -3 -8 -1 -15 5 -15 6 0 11 -6 11 -14 0 -8 4 -18 10 -21 7 -4 7 3 0 20 -15
39 -12 44 15 32 14 -7 25 -17 25 -23 0 -12 46 -54 59 -54 5 0 13 -9 16 -20 3
-11 11 -20 16 -20 16 0 10 25 -10 40 -11 7 -18 17 -15 22 3 4 -5 8 -17 8 -16
0 -20 5 -16 20 3 11 2 18 -3 15 -4 -3 -13 2 -20 10 -7 8 -16 12 -21 9 -5 -3
-9 0 -9 5 0 6 -7 11 -15 11 -8 0 -15 3 -15 8 0 4 -12 21 -28 38 -26 29 -28 29
-46 13z"/>
<path d="M3365 1360 c3 -5 8 -10 11 -10 2 0 4 5 4 10 0 6 -5 10 -11 10 -5 0
-7 -4 -4 -10z"/>
<path d="M3470 1355 c0 -8 5 -15 11 -15 5 0 7 -5 3 -12 -4 -6 -3 -8 4 -5 12 8
4 47 -9 47 -5 0 -9 -7 -9 -15z"/>
<path d="M2925 1315 c4 -16 13 -34 20 -40 6 -5 10 -16 8 -22 -3 -7 3 -13 12
-13 13 0 14 4 5 20 -6 11 -14 20 -18 20 -4 0 -8 10 -9 21 -1 12 -7 27 -13 33
-8 8 -10 3 -5 -19z"/>
<path d="M2598 1319 c-13 -7 -15 -16 -9 -32 4 -12 7 -36 6 -54 0 -17 3 -29 7
-27 4 3 8 2 9 -3 2 -24 8 -46 15 -51 4 -4 3 7 -1 23 -4 17 -8 46 -9 65 -1 19
-5 41 -10 48 -4 7 -2 19 4 27 14 17 12 18 -12 4z"/>
<path d="M3351 1316 c-8 -10 -9 -16 -1 -21 13 -8 30 3 30 21 0 18 -14 18 -29
0z"/>
<path d="M3490 1305 c-7 -8 -10 -21 -7 -29 3 -7 0 -19 -6 -25 -8 -8 -6 -11 8
-11 10 0 26 -7 35 -15 15 -13 17 -13 17 0 0 8 -9 17 -19 21 -15 4 -17 12 -12
40 7 37 3 42 -16 19z"/>
<path d="M2626 1295 c4 -8 8 -15 10 -15 2 0 4 7 4 15 0 8 -4 15 -10 15 -5 0
-7 -7 -4 -15z"/>
<path d="M3449 1293 c-13 -16 -12 -17 4 -4 16 13 21 21 13 21 -2 0 -10 -8 -17
-17z"/>
<path d="M3377 1293 c-2 -5 -3 -19 -3 -33 1 -18 7 -26 24 -28 12 -2 22 -10 22
-18 0 -8 7 -14 15 -14 8 0 21 -12 28 -26 9 -17 17 -23 21 -16 7 12 5 15 -39
65 -14 15 -25 36 -25 46 0 11 -7 22 -16 25 -20 8 -22 8 -27 -1z m26 -34 c-7
-27 -23 -24 -21 5 1 14 7 22 14 19 6 -2 10 -13 7 -24z"/>
<path d="M2647 1226 c3 -14 9 -26 13 -26 11 0 6 28 -7 41 -7 7 -9 3 -6 -15z"/>
<path d="M3060 1236 c0 -2 7 -9 15 -16 13 -11 14 -10 9 4 -5 14 -24 23 -24 12z"/>
<path d="M3493 1204 c0 -29 8 -36 27 -23 10 5 11 9 3 9 -7 0 -10 6 -7 14 3 7
-1 16 -9 19 -10 4 -14 -2 -14 -19z"/>
<path d="M3555 1210 c3 -5 8 -10 11 -10 2 0 4 5 4 10 0 6 -5 10 -11 10 -5 0
-7 -4 -4 -10z"/>
<path d="M2716 1192 c-3 -6 -2 -13 3 -16 5 -4 8 -18 5 -31 -2 -14 0 -25 6 -25
5 0 10 12 10 28 0 32 -15 59 -24 44z"/>
<path d="M3250 1184 c0 -13 3 -14 13 -5 8 6 18 7 22 3 5 -4 5 -1 1 6 -10 18
-36 15 -36 -4z"/>
<path d="M2657 1181 c8 -10 9 -20 3 -32 -7 -12 -6 -20 0 -24 6 -4 10 -3 9 2
-4 23 2 32 19 26 9 -3 15 -4 12 -2 -29 25 -53 41 -43 30z"/>
<path d="M3222 1143 c25 -27 29 -28 22 -8 -4 8 -11 15 -18 15 -6 0 -4 5 4 10
12 7 10 9 -7 7 l-23 -1 22 -23z"/>
<path d="M3420 1152 c0 -5 12 -17 26 -27 21 -13 28 -14 42 -3 9 7 14 8 10 4
-4 -5 0 -15 10 -22 23 -18 32 -17 32 1 0 8 -5 15 -11 15 -6 0 -9 6 -6 14 8 21
-25 30 -39 11 -7 -9 -14 -12 -15 -7 -5 13 -49 25 -49 14z"/>
<path d="M3090 1140 c-8 -5 -12 -12 -9 -15 4 -3 12 1 19 10 14 17 11 19 -10 5z"/>
<path d="M3280 1144 c0 -3 9 -17 20 -31 11 -14 20 -21 20 -15 0 6 -5 14 -11
17 -6 4 -8 13 -5 21 3 8 -1 14 -9 14 -8 0 -15 -3 -15 -6z"/>
<path d="M3131 1124 c0 -11 3 -14 6 -6 3 7 2 16 -1 19 -3 4 -6 -2 -5 -13z"/>
<path d="M3100 1116 c0 -2 7 -9 15 -16 13 -11 14 -10 9 4 -5 14 -24 23 -24 12z"/>
<path d="M2640 1098 c0 -9 5 -20 10 -23 13 -8 13 5 0 25 -8 13 -10 13 -10 -2z"/>
<path d="M3017 1095 c-16 -11 -16 -13 -2 -19 9 -3 14 -2 10 3 -3 5 1 11 7 14
7 2 11 7 8 10 -3 3 -13 0 -23 -8z"/>
<path d="M3730 1099 c0 -5 5 -7 10 -4 6 3 10 8 10 11 0 2 -4 4 -10 4 -5 0 -10
-5 -10 -11z"/>
<path d="M2691 1084 c0 -11 3 -14 6 -6 3 7 2 16 -1 19 -3 4 -6 -2 -5 -13z"/>
<path d="M2734 1077 c0 -13 5 -24 12 -24 14 0 12 23 -2 37 -7 7 -10 2 -10 -13z"/>
<path d="M3080 1090 c-9 -6 -10 -10 -3 -10 6 0 15 5 18 10 8 12 4 12 -15 0z"/>
<path d="M3155 1090 c-3 -5 -1 -10 4 -10 6 0 11 5 11 10 0 6 -2 10 -4 10 -3 0
-8 -4 -11 -10z"/>
<path d="M3251 1074 c0 -11 3 -14 6 -6 3 7 2 16 -1 19 -3 4 -6 -2 -5 -13z"/>
<path d="M3275 1081 c-3 -5 -1 -12 5 -16 5 -3 10 1 10 9 0 18 -6 21 -15 7z"/>
<path d="M3507 1069 c3 -10 0 -19 -6 -19 -6 0 -11 5 -11 12 0 6 -7 3 -16 -8
-8 -10 -13 -13 -9 -6 3 6 2 12 -4 12 -5 0 -12 -6 -14 -12 -4 -10 -6 -10 -6 0
-1 6 -8 12 -17 12 -14 0 -14 -3 -4 -15 10 -12 10 -19 2 -27 -9 -9 -12 -8 -12
3 0 8 -9 15 -20 15 -12 0 -20 -7 -20 -17 0 -10 -6 -20 -12 -23 -7 -4 2 -4 21
-1 20 3 41 0 50 -7 14 -11 14 -11 4 3 -7 9 -10 18 -7 22 10 9 34 -4 34 -19 0
-8 5 -14 10 -14 7 0 7 6 1 19 -8 15 -5 21 17 31 30 15 36 17 57 19 8 0 15 6
15 12 0 6 -7 9 -15 5 -8 -3 -15 -1 -15 3 0 5 -6 11 -14 14 -10 4 -12 0 -9 -14z"/>
<path d="M3085 1060 c-3 -5 -1 -10 4 -10 6 0 11 5 11 10 0 6 -2 10 -4 10 -3 0
-8 -4 -11 -10z"/>
<path d="M3115 1060 c3 -5 8 -10 11 -10 2 0 4 5 4 10 0 6 -5 10 -11 10 -5 0
-7 -4 -4 -10z"/>
<path d="M2692 1035 c0 -16 2 -22 5 -12 2 9 2 23 0 30 -3 6 -5 -1 -5 -18z"/>
<path d="M3113 1034 c9 -3 17 -10 17 -15 0 -6 -5 -7 -11 -3 -8 4 -9 -1 -4 -17
10 -34 21 -43 29 -24 3 10 2 14 -5 10 -6 -4 -9 4 -7 21 2 22 -1 29 -17 31 -15
1 -16 1 -2 -3z"/>
<path d="M2745 1010 c6 -29 11 -34 18 -16 3 8 0 20 -8 26 -12 10 -13 8 -10
-10z"/>
<path d="M3170 1021 c0 -5 5 -13 10 -16 6 -3 10 -2 10 4 0 5 -4 13 -10 16 -5
3 -10 2 -10 -4z"/>
<path d="M2890 995 c-19 -23 -8 -25 14 -4 11 11 15 19 9 19 -6 0 -16 -7 -23
-15z"/>
<path d="M2700 991 c0 -6 4 -13 10 -16 6 -3 7 1 4 9 -7 18 -14 21 -14 7z"/>
<path d="M2860 986 c0 -8 -6 -17 -12 -19 -8 -3 -6 -6 5 -6 11 -1 17 6 17 19 0
11 -2 20 -5 20 -3 0 -5 -6 -5 -14z"/>
<path d="M3573 980 c-13 -5 -23 -12 -23 -15 0 -11 54 2 58 13 4 14 -4 14 -35
2z"/>
<path d="M2683 955 c-10 -11 -10 -14 0 -18 9 -3 8 -16 -5 -54 -22 -62 -22 -73
-3 -47 15 19 16 19 14 -1 -2 -32 1 -49 7 -42 7 7 11 167 4 172 -3 1 -10 -3
-17 -10z"/>
<path d="M2805 960 c3 -5 8 -10 11 -10 2 0 4 5 4 10 0 6 -5 10 -11 10 -5 0 -7
-4 -4 -10z"/>
<path d="M3050 960 c0 -5 5 -10 10 -10 6 0 10 5 10 10 0 6 -4 10 -10 10 -5 0
-10 -4 -10 -10z"/>
<path d="M3510 950 c-12 -8 -12 -10 5 -10 17 0 17 -2 5 -10 -13 -8 -13 -10 2
-10 11 0 16 7 15 20 -1 22 -5 24 -27 10z"/>
<path d="M2731 945 c-1 -6 5 -17 12 -24 8 -10 8 -12 0 -7 -6 3 -14 2 -18 -4
-3 -5 0 -10 7 -10 8 0 14 -11 15 -27 1 -48 3 -54 13 -48 5 3 6 13 3 22 -5 13
-2 15 13 10 18 -7 18 -6 2 7 -11 8 -18 27 -18 45 0 18 -4 30 -9 27 -5 -4 -12
0 -14 6 -3 7 -6 8 -6 3z"/>
<path d="M2776 925 c-3 -8 -1 -15 4 -15 6 0 10 7 10 15 0 8 -2 15 -4 15 -2 0
-6 -7 -10 -15z"/>
<path d="M2940 920 c0 -5 5 -10 11 -10 5 0 7 5 4 10 -3 6 -8 10 -11 10 -2 0
-4 -4 -4 -10z"/>
<path d="M2601 894 c0 -11 3 -14 6 -6 3 7 2 16 -1 19 -3 4 -6 -2 -5 -13z"/>
<path d="M3514 903 c12 -12 58 -15 51 -3 -3 5 -18 10 -32 10 -15 0 -23 -3 -19
-7z"/>
<path d="M2859 887 c7 -7 14 -8 21 -1 6 6 2 10 -12 11 -16 2 -18 -1 -9 -10z"/>
<path d="M3447 873 c3 -7 9 -13 14 -13 5 0 9 6 9 13 0 8 -6 14 -14 14 -8 0
-12 -6 -9 -14z"/>
<path d="M2803 846 c2 -19 33 -31 42 -16 3 5 -3 7 -12 6 -10 -2 -21 4 -25 13
-6 13 -7 12 -5 -3z"/>
<path d="M2898 832 c4 -19 2 -23 -9 -17 -12 7 -12 6 -1 -7 10 -12 10 -17 1
-20 -15 -5 17 -38 37 -38 16 0 19 16 5 24 -5 3 -7 21 -6 40 3 26 0 35 -14 39
-14 3 -17 -1 -13 -21z"/>
<path d="M2816 798 c3 -4 9 -8 15 -8 5 0 9 4 9 8 0 5 -7 9 -15 9 -8 0 -12 -4
-9 -9z"/>
<path d="M2853 775 c-8 -22 5 -31 20 -15 10 10 9 11 -2 5 -11 -6 -13 -4 -8 8
3 10 4 17 1 17 -2 0 -7 -7 -11 -15z"/>
<path d="M2822 758 c-7 -7 -12 -16 -12 -21 0 -5 7 -1 16 8 9 9 14 18 12 20 -2
3 -10 -1 -16 -7z"/>
<path d="M2750 648 c0 -9 5 -20 10 -23 13 -8 13 5 0 25 -8 13 -10 13 -10 -2z"/>
</g>
</svg>
