<?xml version="1.0" standalone="no"?>
<!DOCTYPE svg PUBLIC "-//W3C//DTD SVG 20010904//EN"
 "http://www.w3.org/TR/2001/REC-SVG-20010904/DTD/svg10.dtd">
<svg version="1.0" xmlns="http://www.w3.org/2000/svg"
 width="593.000000pt" height="593.000000pt" viewBox="0 0 593.000000 593.000000"
 preserveAspectRatio="xMidYMid meet">

<g transform="translate(0.000000,593.000000) scale(0.100000,-0.100000)"
fill="#00dcf8" stroke="none">
<path d="M2700 5849 c-572 -54 -1143 -291 -1580 -657 -315 -263 -542 -544
-726 -897 -174 -334 -276 -666 -320 -1045 -22 -195 -15 -544 16 -744 78 -511
293 -1001 614 -1401 96 -120 298 -325 416 -421 640 -527 1468 -757 2290 -638
757 111 1455 525 1914 1138 300 401 501 907 568 1431 18 146 15 519 -6 680
-91 686 -390 1281 -883 1755 -220 212 -441 368 -723 510 -293 148 -680 258
-1025 290 -126 11 -429 11 -555 -1z m425 -339 c-3 -6 4 -10 17 -11 32 0 97 -7
133 -13 17 -3 53 -7 82 -8 29 -1 50 -5 47 -10 -3 -4 1 -8 8 -9 7 0 22 -3 33
-5 11 -3 34 -6 50 -8 17 -2 41 -8 56 -14 17 -7 31 -7 44 0 14 9 17 8 13 -3 -4
-10 1 -15 13 -15 11 0 19 5 19 11 0 6 3 5 8 -2 8 -13 79 -41 134 -52 21 -5 45
-14 55 -22 15 -12 16 -12 10 3 -5 15 -4 16 13 6 10 -7 17 -16 14 -20 -3 -4 3
-5 12 -1 11 4 15 3 11 -4 -5 -7 0 -9 13 -6 11 3 20 0 20 -5 0 -6 17 -16 39
-22 21 -5 44 -17 51 -25 9 -11 17 -12 32 -4 11 6 18 7 15 2 -3 -5 4 -15 16
-23 20 -12 21 -12 8 3 -9 11 -9 17 -2 17 6 0 16 -9 23 -20 7 -11 19 -20 26
-20 7 0 10 -5 6 -12 -4 -6 -3 -8 3 -5 6 4 22 -2 35 -13 15 -11 29 -15 34 -10
5 5 17 3 28 -6 11 -8 15 -14 10 -14 -6 0 -14 3 -20 8 -5 4 -1 0 8 -10 11 -9
27 -14 40 -11 19 4 20 3 8 -6 -13 -9 -13 -11 3 -11 10 0 20 -7 23 -15 5 -13 9
-13 22 -3 10 9 13 9 9 1 -4 -7 10 -23 37 -41 30 -20 46 -27 50 -19 2 7 5 4 5
-7 1 -12 6 -16 17 -12 8 3 12 2 9 -4 -3 -6 0 -10 8 -10 8 0 18 -7 21 -16 3 -8
10 -12 16 -9 5 3 10 0 10 -8 0 -8 8 -21 17 -28 14 -12 16 -12 8 0 -4 8 8 1 28
-15 20 -16 37 -33 37 -37 0 -5 5 -5 12 -1 7 4 8 3 4 -4 -7 -11 26 -35 38 -27
3 3 4 2 2 -1 -7 -10 69 -83 98 -93 14 -6 26 -14 25 -18 -3 -18 2 -33 10 -33 5
0 27 -17 48 -37 21 -20 31 -33 23 -29 -8 4 -1 -4 15 -18 17 -14 30 -31 30 -38
0 -7 8 -12 17 -12 11 1 14 -4 11 -14 -5 -11 -3 -13 7 -7 9 5 11 4 6 -4 -10
-16 13 -43 31 -37 8 3 11 1 8 -5 -10 -15 16 -41 33 -34 12 4 13 3 2 -10 -10
-12 -9 -16 4 -21 9 -3 13 -10 10 -15 -3 -5 0 -8 7 -7 6 2 16 -12 21 -29 5 -18
17 -37 27 -43 11 -5 25 -26 31 -45 6 -19 16 -33 21 -30 4 3 11 -6 15 -21 5
-20 9 -23 16 -12 6 9 7 5 3 -11 -4 -13 -3 -26 2 -30 14 -10 48 -65 45 -75 -2
-5 4 -6 13 -3 8 4 15 2 15 -2 0 -5 -5 -11 -11 -13 -7 -2 0 -17 16 -36 15 -18
25 -36 22 -39 -4 -3 4 -20 16 -37 12 -17 21 -33 20 -36 -5 -11 10 -50 23 -61
8 -6 11 -15 8 -20 -3 -5 0 -9 5 -9 6 0 11 -6 11 -14 0 -8 7 -22 16 -30 12 -12
12 -16 2 -16 -8 0 -9 -3 -3 -8 18 -13 47 -72 35 -72 -6 0 -3 -12 7 -27 17 -26
17 -27 0 -14 -16 13 -16 11 -2 -25 9 -22 20 -48 26 -59 6 -12 11 -29 13 -39 1
-10 9 -22 17 -27 11 -7 11 -9 -3 -9 -11 0 -15 -5 -12 -15 4 -8 10 -13 14 -10
4 3 6 -11 3 -30 -3 -21 0 -35 6 -35 6 0 11 -5 11 -11 0 -5 -6 -7 -12 -3 -10 5
-10 4 -1 -6 6 -7 9 -19 6 -26 -3 -8 0 -14 5 -14 6 0 9 -9 7 -20 -2 -11 1 -22
6 -25 5 -4 8 -9 5 -13 -2 -4 2 -40 9 -80 7 -40 10 -82 8 -93 -3 -11 3 -29 13
-41 11 -12 14 -19 8 -15 -7 4 -11 -23 -11 -84 0 -58 4 -89 11 -89 6 0 4 -5 -4
-11 -12 -9 -13 -12 -1 -16 11 -4 11 -7 0 -13 -10 -7 -10 -14 -1 -34 6 -14 8
-26 4 -26 -4 0 -8 -19 -9 -43 -2 -49 -19 -189 -28 -232 -4 -16 -7 -49 -7 -72
-1 -23 -4 -40 -9 -38 -4 3 -6 -11 -5 -30 2 -19 -1 -35 -5 -35 -5 0 -9 -12 -9
-26 0 -14 -5 -34 -10 -45 -9 -15 -7 -19 7 -20 14 0 13 -2 -4 -9 -13 -5 -23
-12 -23 -15 0 -4 5 -3 10 0 6 3 10 1 10 -4 0 -6 -4 -11 -10 -11 -5 0 -9 -3 -8
-8 1 -4 -2 -16 -8 -27 -5 -11 -9 -29 -9 -40 1 -11 -10 -40 -23 -64 -13 -24
-19 -40 -13 -37 18 11 13 -5 -6 -21 -10 -8 -12 -12 -5 -8 6 3 12 1 12 -4 0 -6
-4 -11 -10 -11 -5 0 -10 -9 -10 -19 0 -11 -6 -26 -13 -33 -8 -7 -13 -21 -11
-31 1 -9 -4 -24 -13 -32 -8 -8 -12 -15 -8 -15 3 0 -2 -11 -11 -25 -9 -14 -12
-25 -6 -25 6 0 0 -12 -13 -26 -13 -14 -24 -29 -23 -33 4 -12 -14 -51 -22 -51
-5 0 -6 -7 -3 -17 4 -10 2 -14 -4 -10 -6 4 -17 -8 -24 -26 -7 -17 -19 -38 -27
-46 -7 -7 -11 -20 -8 -28 3 -8 1 -11 -4 -8 -14 9 -12 -8 3 -25 10 -12 9 -12
-6 0 -16 12 -19 11 -24 -8 -3 -12 -10 -19 -15 -16 -6 4 -5 -3 1 -14 10 -18 9
-20 -10 -17 -12 3 -19 1 -15 -2 3 -4 -4 -17 -16 -30 -12 -13 -17 -23 -12 -23
5 0 3 -4 -5 -9 -13 -8 -13 -12 0 -27 13 -16 12 -16 -8 -6 -17 10 -22 9 -29 -6
-4 -9 -6 -20 -6 -24 1 -5 -4 -8 -12 -8 -10 0 -13 -8 -10 -25 2 -14 0 -34 -6
-43 -8 -13 -9 -11 -4 12 5 21 4 27 -5 22 -6 -4 -11 -13 -11 -21 0 -8 -5 -17
-12 -21 -7 -5 -8 -3 -3 6 5 8 4 11 -3 6 -6 -4 -8 -14 -5 -23 4 -9 2 -14 -3
-10 -5 3 -15 -7 -22 -22 -7 -15 -23 -34 -37 -41 -19 -10 -22 -16 -14 -26 8
-10 6 -12 -9 -9 -11 2 -25 -5 -33 -18 -16 -23 -63 -69 -109 -107 -16 -13 -30
-30 -30 -36 0 -7 -5 -16 -12 -20 -7 -5 -8 -3 -3 7 5 8 -7 1 -27 -16 -27 -24
-33 -33 -24 -44 8 -11 8 -13 -2 -7 -14 9 -65 -24 -104 -68 -15 -16 -30 -27
-34 -23 -9 9 -36 -12 -29 -23 3 -4 -3 -14 -12 -21 -14 -12 -16 -12 -9 1 4 8 0
6 -8 -4 -9 -11 -16 -16 -16 -12 0 5 -7 3 -15 -4 -8 -7 -15 -9 -15 -6 0 4 -7 1
-15 -8 -18 -17 -20 -30 -3 -20 7 4 8 3 4 -5 -6 -9 -11 -9 -23 1 -14 11 -15 10
-8 -12 7 -24 6 -24 -8 -6 -14 19 -15 19 -26 -2 -7 -13 -16 -20 -22 -17 -5 4
-9 1 -9 -6 0 -7 -3 -9 -6 -6 -4 4 -19 -2 -34 -13 -15 -11 -31 -16 -35 -12 -5
4 -5 -2 -1 -12 5 -16 4 -17 -9 -6 -12 10 -15 10 -15 -4 0 -10 -5 -14 -10 -11
-6 3 -22 -3 -36 -14 -15 -12 -34 -21 -43 -21 -14 0 -14 -2 -1 -11 12 -8 11 -9
-6 -4 -14 3 -28 -1 -38 -11 -9 -9 -23 -13 -32 -10 -8 3 -13 2 -10 -2 2 -4 -7
-12 -20 -19 -13 -6 -22 -7 -19 -3 3 5 -12 0 -32 -10 -21 -10 -41 -16 -45 -13
-5 2 -8 0 -8 -6 0 -6 -7 -8 -15 -4 -10 3 -15 1 -13 -7 2 -7 -3 -15 -11 -18
-10 -3 -11 0 -5 9 6 11 5 12 -8 2 -8 -7 -19 -9 -23 -5 -5 4 -6 2 -2 -3 3 -6
-6 -15 -19 -22 -13 -6 -22 -7 -18 -2 3 5 1 9 -5 9 -5 0 -13 -5 -16 -10 -4 -6
-10 -8 -15 -5 -5 3 -11 1 -15 -5 -3 -5 -17 -10 -31 -10 -13 0 -24 -6 -25 -12
0 -10 -2 -10 -6 -1 -3 10 -12 9 -39 -2 -19 -8 -34 -12 -34 -10 0 2 -23 -3 -51
-11 -28 -9 -65 -16 -83 -16 -17 0 -35 -4 -41 -7 -5 -4 -17 -7 -25 -6 -8 1 -22
-2 -31 -6 -9 -5 -35 -9 -57 -10 -23 -2 -42 -7 -42 -12 0 -4 -9 -5 -20 -2 -12
4 -27 2 -35 -5 -9 -7 -15 -8 -20 0 -3 5 -11 10 -16 10 -6 0 -8 -3 -6 -7 6 -9
-354 -6 -428 3 -27 3 -62 7 -77 8 -14 0 -24 4 -21 9 2 4 -10 8 -26 8 -45 2
-64 5 -81 12 -8 4 -32 5 -52 4 -20 -2 -35 0 -32 5 3 4 -6 9 -20 9 -14 1 -29 2
-33 3 -37 8 -84 17 -89 16 -4 -1 -10 3 -14 10 -4 6 -19 12 -33 14 -15 1 -30 5
-33 9 -3 3 -13 3 -22 0 -10 -5 -13 -2 -8 6 5 8 3 11 -5 10 -13 -2 -59 14 -82
28 -6 3 -7 1 -3 -5 4 -7 3 -12 -3 -12 -5 0 -13 5 -16 10 -10 16 -76 41 -88 33
-6 -3 -7 -1 -3 5 4 7 1 13 -6 14 -7 0 -17 2 -23 3 -5 2 -18 3 -28 4 -11 1 -15
6 -11 13 5 7 2 9 -9 5 -9 -3 -18 0 -21 9 -3 9 -10 13 -16 9 -5 -3 -24 2 -42
12 -18 9 -35 18 -38 18 -22 6 -39 19 -34 26 7 12 -36 28 -55 21 -10 -4 -12 -1
-6 8 6 10 4 12 -7 7 -11 -4 -18 1 -21 15 -3 11 -10 17 -15 14 -6 -3 -23 1 -38
9 -16 8 -24 15 -19 15 6 0 -3 9 -19 19 -17 11 -33 18 -38 15 -4 -3 -8 0 -8 6
0 6 -4 9 -8 6 -4 -2 -14 -1 -22 5 -11 6 -12 9 -2 9 7 0 10 5 7 10 -5 8 -11 7
-21 -1 -12 -10 -13 -9 -7 7 6 17 5 17 -10 5 -15 -12 -17 -12 -11 3 4 10 1 16
-9 16 -9 0 -19 5 -23 12 -5 7 -3 8 6 3 9 -5 11 -4 6 3 -4 7 -14 12 -22 12 -8
0 -14 4 -14 10 0 12 -120 94 -121 83 -1 -4 -1 -12 0 -16 1 -5 -3 -6 -9 -2 -7
4 -7 12 0 26 8 14 7 19 -3 19 -18 0 -49 34 -40 44 4 4 0 4 -10 0 -13 -5 -16
-2 -10 12 4 12 3 15 -5 10 -7 -4 -20 -2 -29 4 -16 10 -16 11 2 5 15 -4 12 2
-13 25 -19 18 -37 28 -45 24 -6 -4 -9 -4 -5 1 11 11 -31 67 -44 59 -7 -4 -8
-2 -4 4 4 7 2 12 -4 12 -6 0 -8 5 -5 10 3 6 -1 10 -10 10 -9 0 -14 4 -10 9 3
6 -4 15 -15 21 -11 6 -18 15 -15 21 4 5 -1 9 -10 9 -9 0 -14 4 -11 9 8 12 -19
33 -29 23 -5 -4 -5 -1 -1 6 4 6 0 19 -8 28 -9 8 -16 12 -16 7 0 -4 -5 0 -11 9
-5 10 -16 18 -24 18 -21 0 -28 19 -13 37 11 14 11 16 -1 8 -11 -6 -13 -4 -7
11 4 10 4 15 0 11 -7 -7 -28 22 -40 55 -3 10 -10 15 -15 12 -18 -11 -30 7 -17
24 11 13 11 14 -1 8 -9 -6 -12 -5 -9 5 5 13 -34 75 -56 91 -7 5 -7 8 -1 8 6 0
6 3 -1 8 -16 11 -65 103 -51 96 7 -3 4 1 -7 10 -10 8 -15 19 -11 25 3 6 0 9
-7 6 -9 -3 -14 4 -15 22 0 15 -6 29 -12 31 -6 2 -9 7 -6 12 5 8 -13 59 -25 70
-14 14 -30 52 -25 60 4 6 1 10 -4 10 -6 0 -11 -5 -11 -12 0 -6 -3 -9 -6 -6 -3
4 0 16 6 28 10 18 9 21 -1 15 -9 -6 -10 -3 -5 10 4 11 2 22 -5 26 -13 7 -17
21 -21 72 -1 15 -8 27 -15 27 -7 0 -13 5 -13 11 0 5 5 7 12 3 6 -4 4 3 -4 15
-9 12 -13 32 -10 43 4 15 2 19 -7 13 -10 -5 -11 -2 -6 14 3 11 3 26 -2 33 -7
12 -11 25 -17 58 -1 8 -5 26 -9 40 -3 14 -8 38 -12 53 -3 15 -10 25 -15 22 -6
-3 -10 3 -10 14 0 10 6 22 13 24 9 4 8 8 -3 16 -13 9 -13 11 -1 11 11 0 10 4
-5 16 -10 8 -14 13 -8 10 8 -4 11 4 9 22 -5 54 -17 102 -27 102 -5 0 -7 4 -3
9 9 15 14 91 6 91 -4 0 -8 16 -9 35 -1 20 -4 40 -7 45 -3 6 1 7 9 4 11 -4 16
0 16 10 0 9 -3 16 -7 16 -5 0 -8 13 -9 30 -1 16 3 27 7 24 5 -3 5 6 -1 20 -5
14 -6 26 -2 26 4 0 8 28 9 63 2 112 6 157 14 157 4 0 4 13 -1 30 -5 18 -5 32
1 36 6 3 8 13 5 21 -3 8 -1 11 4 8 6 -3 10 -2 10 4 0 5 -6 12 -12 14 -9 4 -10
8 -2 14 14 11 27 46 14 38 -13 -8 -13 -3 4 31 8 16 17 41 20 56 2 15 8 33 12
39 5 8 3 9 -6 4 -7 -5 -11 -4 -9 1 27 52 49 124 39 124 -5 0 -2 14 7 31 8 16
12 33 9 36 -3 3 1 11 9 17 8 6 16 28 18 48 2 21 11 46 19 55 8 10 16 27 17 38
0 11 1 34 2 50 1 17 4 22 6 13 3 -10 9 -18 15 -18 6 0 8 3 5 7 -4 3 -3 11 2
17 6 6 11 24 13 38 2 15 8 31 13 35 4 5 5 2 0 -6 -6 -10 -4 -12 4 -7 9 6 9 11
0 22 -10 12 -9 17 0 27 10 9 11 8 6 -8 -3 -11 3 -2 15 20 11 22 25 44 30 49
14 14 12 28 -3 21 -6 -4 -1 2 13 14 14 11 25 26 26 33 3 33 5 39 12 34 4 -2
18 18 31 45 13 27 27 49 31 49 5 0 6 10 2 22 -4 15 -2 19 7 14 8 -5 14 0 18
13 3 11 10 18 16 14 6 -4 8 0 4 10 -3 9 -1 19 5 23 7 5 8 2 4 -7 -4 -8 0 -5 8
6 9 11 14 25 12 32 -3 7 -2 12 2 12 22 -4 31 3 25 18 -4 10 -2 14 4 10 5 -4
19 11 29 32 10 22 22 37 25 35 11 -6 51 44 44 55 -3 6 -1 11 5 11 14 0 40 25
40 39 0 6 5 10 11 9 6 -2 14 3 17 11 3 10 0 11 -9 5 -12 -7 -12 -5 0 9 7 9 17
14 22 11 5 -3 9 2 9 11 0 8 8 18 17 22 28 9 73 55 66 66 -3 6 -2 7 4 4 11 -7
84 68 75 77 -2 3 5 4 17 1 13 -2 21 1 21 11 0 8 3 13 8 12 10 -3 52 25 52 35
0 4 -4 5 -10 2 -16 -10 -11 1 7 16 11 10 14 10 9 2 -4 -7 -4 -13 -1 -13 12 0
70 53 68 61 -2 5 4 6 12 3 9 -4 15 0 15 10 0 9 6 15 13 14 6 -2 11 2 10 9 -2
7 4 10 12 7 9 -4 15 0 15 10 0 9 5 16 11 16 5 0 7 -6 4 -12 -4 -7 2 -3 13 9
11 12 22 20 24 17 3 -2 11 2 17 10 9 11 9 16 0 22 -7 4 -9 3 -5 -4 3 -6 2 -13
-4 -17 -5 -3 -10 0 -10 8 0 21 11 27 30 15 18 -11 21 -10 64 29 8 7 17 9 21 5
5 -4 5 3 2 15 -3 13 0 26 5 30 6 3 8 1 5 -4 -4 -6 0 -16 8 -23 13 -11 14 -10
10 1 -4 10 3 14 22 16 15 0 32 8 38 17 7 9 15 13 18 10 3 -4 13 1 22 10 9 9
23 16 32 16 13 0 13 2 2 17 -13 15 -12 15 8 2 20 -12 24 -11 38 6 9 11 14 14
10 8 -9 -19 6 -16 22 5 8 9 11 11 7 3 -4 -8 9 -2 29 13 20 15 41 25 47 21 5
-3 10 -1 10 5 0 7 6 10 13 7 11 -4 34 3 102 29 11 4 23 8 28 9 4 2 9 4 12 5 6
3 4 2 68 20 28 7 44 16 37 20 -7 4 11 7 38 7 53 0 76 8 67 24 -4 5 4 5 19 -1
14 -5 26 -6 26 -1 0 4 6 8 13 8 6 0 38 6 70 12 32 7 61 10 64 8 3 -3 17 -1 31
4 14 5 42 11 61 13 20 2 45 7 56 11 17 6 18 5 5 -5 -13 -10 -12 -11 5 -5 51
18 271 26 317 12 21 -7 32 -5 44 7 17 18 28 21 19 6z m-890 -110 c-3 -5 -14
-10 -23 -10 -15 0 -15 2 -2 10 20 13 33 13 25 0z m2140 -279 c3 -5 2 -12 -3
-15 -5 -3 -9 1 -9 9 0 17 3 19 12 6z m35 -31 c8 -5 11 -10 5 -10 -5 0 -17 5
-25 10 -8 5 -10 10 -5 10 6 0 17 -5 25 -10z m-3320 -384 c0 -3 -4 -8 -10 -11
-5 -3 -10 -1 -10 4 0 6 5 11 10 11 6 0 10 -2 10 -4z m3934 -174 c3 -5 -1 -9
-9 -9 -8 0 -12 4 -9 9 3 4 7 8 9 8 2 0 6 -4 9 -8z m90 -130 c3 -5 -1 -9 -9 -9
-8 0 -12 4 -9 9 3 4 7 8 9 8 2 0 6 -4 9 -8z m206 -346 c0 -3 -4 -8 -10 -11 -5
-3 -10 -1 -10 4 0 6 5 11 10 11 6 0 10 -2 10 -4z m-4535 -2436 c3 -6 -1 -7 -9
-4 -18 7 -21 14 -7 14 6 0 13 -4 16 -10z m4295 -184 c0 -3 -4 -8 -10 -11 -5
-3 -10 -1 -10 4 0 6 5 11 10 11 6 0 10 -2 10 -4z m-295 -336 c-3 -5 -12 -10
-18 -10 -7 0 -6 4 3 10 19 12 23 12 15 0z m-3190 -320 c8 -13 -5 -13 -25 0
-13 8 -13 10 2 10 9 0 20 -4 23 -10z m2025 -344 c0 -2 -7 -7 -16 -10 -8 -3
-12 -2 -9 4 6 10 25 14 25 6z"/>
<path d="M2591 5199 c-13 -5 -75 -11 -138 -14 -63 -2 -120 -8 -126 -13 -7 -5
-29 -12 -51 -15 -21 -3 -60 -17 -87 -31 -26 -14 -66 -29 -89 -32 -55 -9 -70
-34 -96 -164 -3 -14 -9 -34 -14 -45 -4 -11 -18 -48 -31 -82 -13 -35 -28 -59
-34 -56 -5 4 -7 3 -3 -2 4 -4 1 -20 -7 -36 -8 -15 -15 -37 -15 -48 0 -11 -19
-39 -42 -63 -38 -39 -40 -43 -21 -46 19 -3 20 -6 10 -35 -13 -41 -27 -78 -38
-99 -5 -9 -12 -35 -15 -58 -4 -22 -11 -43 -15 -46 -5 -3 -9 -33 -10 -67 0 -34
-4 -86 -8 -114 -4 -29 -4 -53 0 -53 11 0 11 -15 9 -176 -1 -157 5 -189 70
-354 21 -52 43 -129 50 -170 11 -67 35 -139 61 -180 5 -8 35 -67 66 -130 54
-112 77 -149 155 -255 21 -27 38 -54 38 -59 0 -11 47 -54 115 -107 42 -31 59
-38 103 -40 28 -1 53 -5 53 -8 1 -3 3 -15 5 -26 2 -11 8 -40 13 -65 6 -25 10
-68 11 -96 0 -58 21 -117 55 -154 21 -24 42 -112 48 -209 2 -33 0 -35 -48 -47
-27 -8 -69 -14 -93 -14 -48 0 -64 -19 -43 -52 7 -11 17 -64 22 -117 5 -53 15
-111 21 -130 6 -21 12 -136 13 -285 1 -160 6 -269 14 -301 7 -27 17 -102 22
-165 16 -213 17 -217 56 -241 31 -19 44 -21 136 -15 137 8 271 28 290 44 12
10 34 11 96 4 57 -6 87 -5 103 4 13 6 50 15 83 19 33 4 75 13 95 20 19 7 72
23 117 35 70 19 90 30 135 72 29 27 64 55 78 61 14 7 31 25 38 40 7 15 17 27
23 27 5 0 9 7 9 15 0 8 9 24 20 35 11 11 27 50 35 87 14 64 14 78 -4 203 -19
127 -41 223 -62 262 -4 9 -13 46 -19 83 -11 68 -32 135 -80 250 -28 69 -44 95
-66 110 -35 23 -45 48 -54 148 -9 85 -30 214 -65 396 -8 40 -12 77 -9 82 6 10
165 89 178 89 17 0 76 51 76 66 0 7 10 24 23 36 53 53 122 137 154 188 20 30
42 59 50 63 17 11 63 82 63 100 0 8 18 33 40 57 22 24 43 55 47 70 4 14 17 46
30 71 13 26 23 56 23 67 0 11 11 34 25 50 13 16 32 51 41 78 9 27 24 58 33 69
22 27 38 62 47 105 3 19 10 40 14 45 5 6 16 30 25 55 23 61 33 334 15 394 -34
110 -44 135 -71 182 -16 29 -36 57 -45 65 -8 7 -22 26 -31 43 -22 42 -100 131
-126 144 -12 6 -48 22 -79 36 -31 14 -65 36 -75 49 -10 13 -26 26 -35 30 -10
3 -18 11 -18 16 0 12 -142 91 -164 91 -8 0 -39 11 -68 24 -382 174 -450 197
-634 216 -60 7 -113 16 -119 21 -12 12 -273 10 -304 -2z m114 -31 c-23 -13
-45 -34 -45 -42 0 -14 31 -4 42 13 6 10 17 17 23 14 7 -2 19 3 28 11 17 18
116 23 132 7 6 -5 53 -14 105 -20 164 -18 145 -13 385 -101 71 -26 209 -92
213 -103 2 -4 8 -5 12 -2 5 3 32 -6 59 -20 28 -14 55 -25 61 -25 31 0 126 -59
157 -97 19 -24 39 -41 43 -38 5 3 11 1 15 -5 6 -10 94 -53 132 -64 35 -11 195
-230 225 -309 38 -100 39 -109 20 -123 -16 -12 -16 -12 3 -11 19 2 20 -4 20
-153 0 -116 -4 -161 -15 -180 -8 -14 -13 -29 -12 -34 2 -4 -4 -18 -12 -31 -8
-12 -18 -40 -22 -61 -4 -21 -19 -57 -34 -79 -15 -22 -35 -61 -44 -87 -8 -26
-25 -57 -36 -68 -11 -11 -22 -32 -26 -47 -3 -16 -17 -52 -30 -80 -13 -29 -26
-64 -30 -79 -4 -15 -15 -29 -25 -31 -10 -3 -17 -9 -14 -13 2 -4 -9 -20 -25
-35 -20 -19 -28 -35 -24 -47 3 -10 1 -18 -5 -18 -6 0 -11 -7 -11 -16 0 -8 -4
-12 -10 -9 -6 3 -7 -1 -4 -10 5 -11 0 -18 -13 -21 -11 -3 -36 -33 -56 -67 -20
-34 -65 -93 -101 -132 -36 -38 -71 -81 -78 -95 -17 -33 -47 -58 -80 -65 -15
-4 -43 -17 -62 -30 -18 -12 -47 -26 -64 -30 -16 -3 -38 -15 -48 -26 -9 -10
-28 -19 -40 -19 -31 0 -97 -70 -83 -87 13 -15 -11 -54 -31 -51 -9 2 -17 18
-20 39 -5 33 -35 81 -85 133 -14 15 -30 20 -52 18 -18 -2 -33 -8 -33 -13 0 -6
-7 -4 -15 4 -8 9 -20 17 -27 20 -9 3 -7 9 6 19 12 10 17 21 13 32 -6 14 -9 15
-21 4 -12 -11 -12 -14 3 -19 13 -5 12 -7 -6 -13 -15 -5 -23 -16 -25 -39 -3
-28 -5 -30 -17 -16 -9 9 -26 13 -42 11 -14 -2 -29 1 -33 6 -8 14 30 25 59 18
20 -5 23 -3 18 10 -4 11 -15 15 -33 12 -27 -4 -28 -4 -13 19 8 13 22 23 29 23
8 0 14 8 14 18 0 9 17 39 38 66 53 71 98 145 107 176 8 31 20 57 35 72 15 17
40 79 47 118 1 8 4 24 7 35 2 11 5 26 5 33 1 6 6 12 11 12 7 0 6 -8 -1 -22
-11 -21 -11 -22 4 -10 15 13 20 55 5 46 -4 -3 -8 0 -8 5 0 6 7 11 15 11 8 0
15 5 15 11 0 6 7 9 15 5 8 -3 15 -1 15 4 0 6 -9 10 -20 10 -13 0 -20 7 -20 20
0 11 4 20 10 20 5 0 7 7 4 15 -4 8 -1 15 5 15 6 0 11 9 11 19 0 10 7 21 15 25
9 3 12 12 9 23 -4 13 -3 15 4 5 7 -11 13 -10 27 5 17 17 18 17 12 1 -7 -20 -6
-21 17 -12 17 7 22 34 6 34 -5 0 -10 8 -10 18 0 10 7 19 15 19 12 0 12 -3 2
-16 -10 -12 -9 -13 2 -7 8 5 17 3 23 -5 6 -10 7 -7 3 10 -4 13 -3 26 2 30 19
13 52 64 47 72 -3 5 0 9 6 9 7 0 8 6 1 19 -12 22 -5 32 17 24 15 -4 15 -3 0
10 -20 16 -14 28 10 20 10 -4 14 -3 10 2 -4 4 6 32 23 63 16 30 29 60 29 66 0
6 9 18 20 26 11 8 20 22 20 32 0 10 4 18 9 18 5 0 16 16 25 35 10 20 22 33 27
29 5 -3 8 0 7 8 -2 7 2 12 9 11 7 -2 10 3 7 11 -3 7 1 20 9 27 7 8 12 20 9 27
-2 6 1 12 7 12 6 0 11 -4 11 -10 0 -5 5 -10 11 -10 5 0 8 4 4 9 -3 5 0 13 6
16 5 4 8 13 5 21 -3 8 -2 14 3 14 4 0 7 10 7 23 -1 12 4 21 12 20 6 -2 12 2
12 7 0 6 -5 10 -10 10 -6 0 -2 10 10 22 20 22 24 32 21 56 -1 8 3 20 10 28 6
8 8 14 4 14 -5 0 -1 8 8 18 15 17 17 21 17 43 0 5 4 8 8 5 10 -6 6 -111 -5
-128 -4 -7 -8 -16 -9 -20 -1 -5 -2 -11 -3 -15 -1 -5 -6 -1 -11 7 -8 12 -10 10
-10 -10 0 -14 -9 -43 -19 -64 -11 -22 -17 -46 -14 -53 3 -8 -1 -21 -9 -31 -27
-31 -30 -42 -13 -42 9 0 14 4 11 8 -3 5 9 24 25 42 24 26 30 40 26 63 -3 23 2
36 19 52 13 12 24 27 24 34 0 6 9 20 20 31 11 11 20 29 20 40 0 11 5 20 10 20
6 0 10 9 10 21 0 11 4 18 8 15 5 -3 20 20 35 50 15 29 22 54 17 54 -6 0 -10
-7 -10 -15 0 -8 -4 -15 -10 -15 -5 0 -10 -6 -10 -14 0 -21 -21 -31 -32 -15 -7
11 -11 11 -15 1 -2 -6 -9 -9 -15 -6 -5 3 0 13 11 21 12 8 19 19 16 24 -4 5 -2
9 4 9 6 0 7 8 3 19 -7 19 -30 26 -24 8 1 -5 -2 -6 -8 -2 -6 4 -8 -4 -4 -22 4
-22 0 -31 -18 -42 -21 -13 -22 -13 -10 2 8 9 12 32 10 54 l-4 38 -8 -42 c-5
-24 -14 -47 -21 -53 -9 -8 -12 2 -11 45 1 45 4 55 18 55 14 0 16 4 8 25 -10
27 1 41 25 31 8 -3 17 0 21 6 4 7 3 8 -4 4 -7 -4 -12 -1 -12 9 0 10 -5 13 -12
9 -7 -5 -9 -1 -6 12 3 11 -1 25 -9 32 -11 11 -13 8 -13 -12 0 -19 -4 -24 -16
-19 -13 5 -15 -1 -11 -28 2 -20 -1 -41 -10 -50 -7 -9 -16 -27 -18 -40 -3 -13
-9 -33 -14 -44 -5 -11 -14 -35 -21 -52 -15 -39 -40 -44 -40 -8 0 14 4 25 9 25
5 0 8 11 7 25 0 14 -3 25 -6 25 -10 0 -40 -116 -46 -177 -3 -35 -11 -63 -16
-63 -6 0 -7 -11 -4 -26 5 -18 2 -32 -10 -45 -10 -12 -15 -29 -12 -49 3 -20 0
-30 -9 -30 -7 0 -13 -3 -13 -8 0 -4 -11 -19 -24 -34 -14 -14 -22 -29 -18 -32
3 -4 8 -19 9 -34 3 -21 1 -24 -7 -12 -7 11 -10 11 -10 2 0 -7 -11 -24 -25 -37
-13 -14 -20 -25 -15 -25 6 0 10 -9 10 -20 0 -11 -4 -20 -10 -20 -5 0 -12 -11
-16 -25 -3 -14 -13 -25 -21 -25 -15 0 -63 -48 -63 -62 0 -5 -5 -8 -10 -8 -6 0
-8 11 -4 26 5 19 4 25 -5 20 -6 -4 -11 -13 -11 -20 0 -8 -7 -19 -15 -26 -8 -7
-13 -16 -10 -20 2 -4 -7 -18 -20 -30 -14 -13 -25 -32 -25 -43 0 -18 2 -17 19
4 11 13 23 21 27 16 9 -9 -35 -57 -52 -57 -8 0 -11 6 -7 16 5 14 3 14 -16 3
-21 -14 -28 -29 -13 -29 9 0 9 -66 0 -76 -4 -4 -3 -13 3 -21 9 -9 8 -13 0 -13
-6 0 -11 -9 -11 -19 0 -25 -20 -38 -30 -21 -4 7 -13 9 -19 6 -15 -10 -14 -29
2 -20 7 4 9 3 4 -2 -5 -5 -14 -9 -20 -9 -17 0 -15 -37 2 -43 9 -3 11 0 6 8 -6
9 -4 11 4 5 9 -5 10 -10 2 -18 -9 -9 -17 -8 -31 1 -17 10 -20 10 -20 -3 0 -9
-11 -21 -25 -27 -25 -11 -39 -37 -44 -80 0 -6 -4 -9 -7 -5 -15 15 -30 -19 -24
-54 4 -20 3 -44 -2 -52 -4 -8 -4 -25 0 -38 l9 -22 21 21 c12 12 22 30 22 41 0
10 7 24 15 31 9 8 15 9 15 2 0 -6 -4 -14 -10 -17 -5 -3 -10 -17 -10 -31 0 -14
-7 -27 -15 -30 -8 -4 -12 -10 -9 -15 3 -5 1 -9 -4 -9 -5 0 -14 -12 -20 -26 -7
-14 -16 -23 -21 -19 -5 3 -12 1 -16 -5 -3 -5 -1 -10 5 -10 6 0 8 -4 5 -10 -3
-5 -2 -10 4 -10 15 0 -13 -61 -33 -72 -18 -10 -21 3 -7 31 8 13 6 18 -5 18 -9
0 -18 -13 -21 -29 -3 -15 -10 -28 -15 -28 -5 0 -6 -4 -3 -10 3 -5 -6 -21 -20
-34 -15 -14 -24 -30 -20 -36 3 -6 3 -10 -2 -9 -21 4 -33 -2 -33 -16 0 -8 -12
-31 -26 -52 -31 -46 -41 -56 -25 -25 12 23 8 26 -24 12 -11 -5 -14 -9 -7 -9 7
-1 10 -6 7 -11 -4 -6 -11 -7 -17 -4 -6 4 -8 3 -5 -3 3 -5 -1 -22 -9 -38 -8
-16 -13 -33 -11 -39 5 -14 -36 -46 -57 -46 -11 0 -16 -9 -16 -28 0 -20 -7 -33
-25 -42 -20 -11 -22 -16 -13 -33 10 -20 11 -20 24 4 9 15 13 19 14 8 0 -28
-25 -52 -51 -47 -24 4 -24 4 -22 -74 1 -43 -3 -80 -8 -83 -5 -4 -9 -16 -9 -28
1 -20 2 -19 16 6 9 16 18 26 21 24 3 -3 1 -12 -3 -19 -12 -18 -12 -30 -1 -52
8 -16 6 -18 -8 -13 -11 5 -15 3 -13 -5 3 -7 18 -16 34 -19 l29 -7 -28 -1 c-33
-1 -97 24 -97 38 0 6 -6 11 -14 11 -23 0 -49 86 -44 146 3 30 1 54 -3 54 -5 0
-7 16 -5 35 1 19 -1 35 -5 35 -11 0 -17 63 -8 88 8 21 7 23 -13 17 -13 -4 -27
-11 -33 -16 -5 -5 -27 -9 -48 -9 -57 0 -150 72 -207 160 -8 13 -37 52 -63 88
-27 36 -75 120 -108 186 -33 67 -63 128 -68 136 -24 42 -51 114 -57 149 -5 33
-3 39 15 44 12 3 21 0 22 -6 0 -8 2 -8 6 1 2 6 11 12 19 12 8 0 14 5 14 10 0
6 3 9 8 8 13 -3 81 35 86 49 3 7 1 13 -4 13 -6 0 -10 -5 -10 -12 0 -6 -3 -9
-6 -5 -3 3 -27 -7 -52 -23 -26 -16 -48 -27 -51 -25 -8 9 19 31 54 45 19 7 35
19 35 25 0 6 5 16 11 22 9 9 17 6 31 -13 11 -13 24 -21 30 -18 6 4 9 3 6 -2
-3 -5 -3 -17 1 -26 8 -22 25 -8 69 54 32 46 137 156 183 190 18 14 21 20 11
30 -10 10 -15 10 -22 -2 -9 -13 -10 -13 -10 0 0 9 4 20 9 25 5 6 11 21 14 35
4 24 4 24 6 -2 1 -32 12 -35 46 -12 18 11 25 25 25 46 0 27 -2 29 -16 17 -13
-10 -17 -10 -25 2 -6 10 -9 10 -9 2 0 -7 -10 -13 -21 -13 -18 0 -19 2 -9 15 9
11 9 15 1 15 -7 0 -9 5 -6 10 3 6 -1 10 -9 10 -9 0 -15 -4 -13 -9 1 -5 -7 -17
-18 -25 l-20 -16 20 7 c18 6 19 5 5 -9 -9 -8 -30 -23 -48 -32 -18 -9 -32 -21
-32 -27 0 -6 -4 -7 -10 -4 -15 9 -12 19 9 42 11 12 18 23 15 25 -2 3 3 5 11 5
8 0 15 -7 15 -14 0 -8 4 -12 9 -9 5 3 7 15 4 26 -4 14 0 20 11 20 9 0 16 7 16
16 0 13 -3 14 -14 5 -11 -9 -15 -8 -20 4 -3 9 -2 13 4 10 6 -3 10 -1 10 5 0 6
3 9 8 7 4 -2 18 8 31 21 15 16 18 23 7 19 -10 -4 -16 -1 -16 8 0 8 -6 15 -12
15 -8 0 -6 5 4 10 20 12 51 2 41 -13 -4 -6 -1 -7 6 -2 10 6 12 -4 10 -41 -3
-35 -1 -48 9 -47 6 2 12 -1 12 -7 0 -5 7 -7 15 -4 13 5 13 8 -1 21 -13 14 -13
17 3 30 11 9 12 12 3 8 -8 -4 -3 3 13 15 18 14 27 31 27 50 0 15 7 33 16 41 9
7 14 22 11 36 -2 13 0 23 4 23 5 0 9 -4 9 -10 0 -5 6 -10 14 -10 10 0 12 7 8
22 -3 14 -2 19 6 14 7 -4 12 -3 12 1 0 5 7 18 15 29 13 18 14 18 9 -6 l-6 -25
22 24 c11 13 19 29 17 35 -6 14 18 37 29 28 5 -4 2 1 -5 11 -12 15 -11 17 8
17 13 0 19 4 16 10 -4 6 -10 8 -15 5 -4 -3 -10 2 -14 10 -3 8 -11 15 -18 15
-15 0 -48 -35 -48 -49 0 -5 -7 -12 -15 -15 -9 -3 -15 -11 -14 -18 3 -19 -19
-68 -31 -68 -5 0 -10 7 -10 15 0 8 4 15 9 15 16 0 19 26 5 51 -14 24 -14 24
-10 -8 3 -23 0 -33 -9 -33 -17 0 -26 -37 -15 -64 5 -13 4 -29 -1 -37 -6 -10
-9 -6 -9 14 0 17 -4 26 -11 22 -5 -4 -8 -12 -6 -18 2 -7 -9 -20 -25 -29 -29
-18 -39 -44 -13 -34 22 8 30 -20 11 -39 -14 -14 -16 -14 -16 -1 0 8 -9 18 -21
21 -16 5 -18 9 -8 21 6 8 9 17 5 21 -3 3 -6 1 -6 -5 0 -7 -4 -12 -8 -12 -4 0
-8 9 -8 19 0 11 4 18 7 15 4 -2 10 0 14 6 3 5 0 10 -7 10 -10 0 -10 2 1 9 7 5
15 28 17 52 3 23 8 47 13 53 11 15 10 116 -1 116 -5 0 -8 -16 -7 -34 2 -19 0
-38 -4 -42 -4 -4 -7 -18 -7 -31 0 -13 -8 -27 -17 -30 -15 -6 -15 -7 3 -14 17
-7 18 -8 1 -8 -13 -1 -17 -6 -12 -20 3 -11 0 -23 -6 -27 -8 -5 -9 -3 -3 7 6
11 2 10 -16 -2 -13 -9 -26 -22 -28 -30 -2 -9 1 -8 11 3 8 10 17 15 20 11 4 -3
-3 -14 -15 -24 -11 -11 -17 -19 -13 -19 5 0 4 -5 -3 -12 -7 -7 -8 -17 -1 -30
8 -14 6 -18 -6 -18 -9 0 -13 -5 -10 -10 4 -6 10 -8 15 -5 5 3 12 0 16 -6 5 -8
0 -10 -18 -6 -23 6 -58 -19 -58 -42 0 -5 -6 -11 -12 -14 -8 -2 -9 -8 -4 -13 5
-5 11 -4 13 4 6 15 43 16 43 1 0 -5 -4 -7 -10 -4 -5 3 -10 2 -10 -4 0 -5 -10
-11 -22 -13 -17 -2 -22 -9 -20 -26 2 -12 0 -22 -5 -21 -4 1 -16 1 -27 0 -16
-1 -17 -3 -5 -18 8 -9 9 -14 4 -11 -6 4 -22 -8 -35 -25 -14 -18 -37 -44 -51
-59 -15 -15 -25 -28 -24 -30 2 -2 -3 -9 -11 -16 -8 -7 -14 -10 -14 -7 0 3 -21
-15 -46 -39 -25 -25 -50 -43 -55 -40 -5 3 -9 -3 -9 -13 0 -9 -12 -28 -27 -41
-26 -22 -28 -22 -40 -6 -17 23 -16 34 2 34 8 0 15 5 15 11 0 6 -9 9 -19 6 -15
-3 -22 2 -29 22 -6 14 -13 34 -17 44 -6 13 -2 17 18 17 14 0 37 4 51 10 37 14
32 -5 -4 -20 -25 -10 -42 -30 -26 -30 11 0 106 52 107 58 0 4 2 21 4 37 2 17
2 24 -1 18 -3 -7 -13 -13 -22 -13 -16 -1 -16 -2 0 -14 13 -10 15 -15 6 -24
-17 -17 -31 -15 -24 4 4 12 2 15 -9 10 -8 -3 -15 -1 -15 4 0 6 -9 1 -20 -10
-21 -21 -50 -27 -50 -11 0 8 13 16 35 20 6 2 14 9 18 17 5 8 12 12 17 9 5 -3
15 4 23 15 8 12 18 20 23 18 5 -2 10 0 12 5 4 14 37 44 45 40 4 -2 7 2 8 9 0
7 13 23 29 35 25 21 29 21 34 6 4 -10 4 -15 1 -11 -10 10 -71 -55 -83 -89 -6
-20 -7 -33 -1 -33 5 0 9 7 9 15 0 8 3 15 8 16 4 0 18 3 32 5 27 5 52 24 31 24
-7 0 -10 4 -7 9 4 5 2 11 -4 13 -5 1 18 31 51 65 34 35 65 60 70 57 5 -3 9 0
9 5 0 6 7 11 15 11 13 0 14 4 4 23 -6 12 -9 19 -5 15 4 -3 22 8 39 25 23 23
31 38 28 59 -1 15 2 28 7 28 6 0 13 18 17 40 4 22 12 46 19 53 6 6 11 24 9 40
-1 15 2 25 7 22 6 -3 7 0 5 7 -6 15 -46 22 -42 8 4 -15 -36 -68 -60 -79 -13
-6 -23 -15 -23 -21 0 -5 -6 -10 -14 -10 -18 0 -29 -27 -13 -33 8 -3 6 -10 -6
-25 -11 -12 -14 -22 -8 -26 11 -7 44 35 39 50 -3 13 25 54 37 54 6 0 16 9 22
20 7 10 23 24 35 31 l23 12 -21 -24 c-12 -13 -25 -35 -29 -49 -10 -33 -45 -92
-65 -107 -8 -7 -12 -13 -9 -13 4 0 -8 -16 -27 -35 -33 -35 -64 -46 -64 -22 0
8 -3 7 -10 -3 -6 -10 -12 -11 -19 -5 -11 12 10 81 25 78 5 -1 11 13 13 30 1
18 4 42 5 55 3 30 44 84 58 76 6 -4 8 -3 5 3 -3 5 12 27 33 48 22 22 40 45 40
53 0 7 3 11 8 8 4 -2 36 24 70 60 34 35 59 64 56 64 -4 0 5 9 20 21 14 11 47
50 73 86 26 36 49 61 51 54 2 -6 8 -9 13 -5 5 3 9 -6 9 -20 0 -14 -4 -26 -10
-26 -5 0 -10 -5 -10 -11 0 -5 4 -8 9 -4 12 7 25 -31 16 -45 -10 -16 47 0 64
18 13 13 12 17 -8 33 -13 10 -27 16 -32 13 -5 -3 -9 0 -9 5 0 6 10 10 23 8 14
-1 22 3 22 13 0 8 -9 15 -20 15 -11 1 -28 6 -39 11 -25 15 -12 33 76 109 39
33 77 66 84 73 25 24 49 10 49 -28 0 -44 15 -65 32 -43 13 17 6 46 -9 37 -6
-4 -8 1 -5 12 3 11 8 29 12 41 3 12 1 24 -4 28 -24 14 141 184 221 227 24 13
28 19 15 23 -18 7 -42 -3 -114 -53 -29 -19 -53 -41 -53 -49 0 -7 -4 -13 -10
-13 -10 0 -86 -75 -109 -108 -8 -12 -18 -19 -21 -17 -4 2 -23 -16 -44 -40 -20
-25 -43 -45 -51 -45 -9 0 -12 -6 -8 -17 5 -12 2 -15 -10 -10 -11 4 -17 1 -17
-8 0 -16 -34 -38 -44 -27 -4 3 -4 -1 0 -11 7 -19 -5 -23 -24 -7 -9 7 -9 7 -2
-2 11 -13 14 -36 4 -25 -10 10 -45 -29 -47 -51 0 -12 -3 -19 -5 -17 -5 5 -42
-28 -42 -38 0 -5 -10 -23 -22 -40 -12 -17 -17 -27 -10 -23 7 4 12 5 12 2 0 -3
-15 -12 -34 -20 -20 -8 -39 -26 -47 -44 -7 -17 -17 -28 -22 -25 -7 4 -57 -41
-57 -53 0 -3 -7 -12 -15 -20 -8 -9 -15 -13 -15 -9 0 3 -13 -7 -28 -22 -15 -15
-47 -44 -70 -63 -23 -19 -47 -47 -53 -62 -6 -15 -15 -25 -20 -22 -5 3 -9 -1
-9 -9 0 -7 -18 -33 -40 -57 -22 -24 -40 -49 -40 -55 0 -7 -7 -18 -15 -25 -20
-17 -19 -31 3 -24 14 5 15 4 2 -5 -11 -8 -18 -6 -29 7 -12 15 -13 15 -8 -6 4
-19 2 -22 -10 -18 -9 4 -21 -1 -29 -12 -7 -11 -29 -27 -49 -36 -19 -10 -33
-22 -29 -27 4 -7 10 -7 17 0 6 6 18 11 26 11 10 0 8 -7 -9 -25 -13 -14 -32
-25 -42 -25 -23 0 -24 -18 -1 -27 10 -4 23 2 34 16 10 12 23 20 28 16 9 -5 35
29 36 47 0 3 4 10 9 15 5 5 6 3 2 -4 -4 -7 -2 -14 3 -14 21 -3 26 -4 39 -12 7
-5 12 -3 12 6 0 8 7 20 15 27 12 10 15 9 15 -5 0 -28 11 -11 13 21 2 20 9 30
22 33 11 2 22 7 25 12 3 4 11 -1 19 -12 7 -12 8 -18 2 -15 -5 4 -13 2 -16 -4
-5 -8 -11 -7 -21 1 -8 6 -17 9 -20 6 -10 -10 6 -27 27 -27 10 0 19 -5 19 -11
0 -5 -4 -7 -10 -4 -6 3 -7 -1 -4 -9 3 -9 2 -16 -2 -17 -30 -2 -49 -9 -52 -18
-2 -6 -11 -11 -20 -11 -13 0 -14 -2 -4 -9 10 -6 6 -10 -15 -14 -15 -3 -48 -19
-73 -36 -25 -17 -51 -31 -57 -31 -7 0 -13 -7 -13 -17 0 -14 2 -14 20 2 11 10
23 15 26 12 4 -3 16 0 28 8 26 19 36 19 36 1 0 -14 -93 -76 -115 -76 -25 0
-40 136 -27 252 5 47 4 84 -1 94 -13 23 -11 192 2 227 7 18 7 26 1 22 -18 -11
-11 11 10 30 14 12 17 25 13 45 -3 20 2 37 18 59 12 17 25 29 27 26 3 -3 -3
-14 -13 -25 -10 -11 -15 -20 -10 -20 4 0 2 -6 -4 -14 -9 -11 -6 -13 14 -13 14
0 25 3 25 8 0 5 7 9 15 9 8 0 15 5 15 10 0 6 9 21 21 33 11 12 18 29 16 39 -3
9 0 15 7 12 6 -2 20 9 31 26 17 26 21 27 29 12 8 -14 12 -7 21 33 7 33 16 49
25 47 10 -2 11 0 2 11 -9 11 -7 13 11 13 13 -1 21 4 19 12 -1 6 5 12 13 12 10
0 15 10 15 31 0 22 4 30 13 26 9 -3 13 3 13 17 -1 16 5 21 24 21 26 -1 53 31
43 49 -4 5 -1 6 4 3 6 -4 16 0 23 8 7 8 16 13 20 10 5 -3 13 10 19 28 9 23 14
28 20 19 7 -11 9 -11 14 2 4 9 13 16 22 16 14 0 35 15 94 69 14 12 39 30 56
38 16 9 37 26 47 38 9 12 40 37 67 56 28 19 51 37 51 42 0 4 -9 16 -21 28 -16
16 -23 18 -35 8 -8 -6 -17 -9 -21 -6 -3 3 -19 -1 -35 -9 -23 -12 -28 -12 -22
-2 6 10 4 10 -9 -1 -14 -11 -20 -11 -33 0 -13 11 -19 8 -40 -16 -13 -15 -24
-32 -24 -37 0 -4 -7 -8 -15 -8 -8 0 -15 -6 -15 -14 0 -7 -7 -19 -15 -26 -24
-20 -19 16 6 52 12 16 18 32 14 36 -9 9 -45 -40 -38 -52 3 -5 0 -6 -8 -4 -17
6 -13 69 4 81 7 4 42 6 79 4 37 -2 65 0 62 5 -3 5 16 8 43 8 59 0 90 4 99 13
4 4 26 7 48 7 36 -1 39 -2 21 -12z m-89 -53 c-15 -14 -35 -25 -44 -25 -12 0
-9 7 13 25 40 32 66 33 31 0z m-296 -7 c0 -30 -15 -54 -24 -39 -4 6 -13 11
-19 11 -8 0 -9 -3 -1 -8 7 -5 7 -14 -2 -30 -7 -15 -14 -20 -18 -13 -4 6 -4 17
0 24 4 6 3 8 -1 4 -15 -13 -15 -88 0 -94 10 -3 11 -11 4 -29 -5 -16 -5 -23 1
-19 5 3 14 -3 19 -14 9 -17 4 -27 -36 -65 -26 -25 -51 -46 -56 -46 -4 0 -6 -4
-2 -9 3 -5 1 -12 -5 -16 -5 -3 -11 0 -11 7 -1 7 -2 20 -3 28 -1 8 2 25 6 38 4
13 3 22 -2 22 -6 0 -10 -3 -11 -7 -7 -88 -22 -143 -38 -143 -8 0 -24 -36 -22
-51 0 -4 -11 -10 -24 -13 -14 -4 -25 -12 -25 -19 0 -7 -12 -14 -27 -15 -19 -1
-24 1 -14 7 8 5 11 16 6 30 -4 14 -3 21 6 19 12 -3 22 22 32 84 5 32 3 38 -16
45 -12 4 -25 6 -29 5 -10 -2 -10 2 -1 24 6 16 7 16 14 -2 5 -12 8 0 9 36 0 31
9 73 20 98 10 23 19 43 19 45 -1 1 5 14 11 29 9 19 23 28 49 33 20 3 47 14 61
23 32 22 79 39 108 41 17 1 22 -4 22 -21z m190 -89 c0 -6 -4 -7 -10 -4 -5 3
-10 2 -10 -4 0 -14 -55 -42 -65 -33 -5 4 -5 1 -1 -5 4 -7 -3 -23 -15 -35 -12
-13 -19 -17 -15 -10 18 30 -52 -1 -82 -37 -12 -14 -13 -12 -10 13 3 34 77 94
116 95 12 1 25 7 28 14 6 16 64 21 64 6z m-125 -109 c3 -5 -1 -10 -9 -10 -9 0
-16 5 -16 10 0 6 4 10 9 10 6 0 13 -4 16 -10z m430 -99 c3 -5 1 -12 -5 -16 -5
-3 -10 1 -10 9 0 18 6 21 15 7z m-790 -41 c0 -8 4 -21 9 -28 9 -15 1 -27 -17
-27 -7 -1 -11 -7 -9 -14 1 -7 -2 -10 -8 -6 -5 3 -10 -3 -10 -13 0 -11 -6 -25
-14 -31 -11 -9 -12 -6 -8 15 3 16 1 25 -5 21 -5 -3 -10 0 -10 8 0 8 3 13 6 13
3 -1 14 2 24 6 18 8 24 36 8 36 -5 0 -7 9 -4 20 6 24 38 23 38 0z m-78 -120
c-4 -27 -17 -38 -17 -13 0 18 8 33 17 33 1 0 2 -9 0 -20z m53 -80 c-6 -11 -15
-20 -20 -20 -6 0 -2 9 7 20 10 11 19 20 21 20 1 0 -2 -9 -8 -20z m1952 -148
c-7 -2 -12 -10 -12 -17 0 -18 -27 -27 -34 -10 -5 15 34 46 49 37 5 -3 4 -7 -3
-10z m-151 -39 c-9 -18 -18 -58 -20 -90 -1 -21 -41 -16 -41 5 0 20 38 94 53
104 17 10 20 2 8 -19z m39 -202 c0 -23 -16 -36 -25 -21 -3 5 -2 10 4 10 6 0 8
7 5 15 -4 8 -1 15 5 15 6 0 11 -9 11 -19z m-1700 -115 c0 -3 -4 -8 -10 -11 -5
-3 -10 -1 -10 4 0 6 5 11 10 11 6 0 10 -2 10 -4z m310 -40 c0 -2 -7 -7 -16
-10 -8 -3 -12 -2 -9 4 6 10 25 14 25 6z m-230 -67 c0 -6 -4 -7 -10 -4 -5 3
-10 11 -10 16 0 6 5 7 10 4 6 -3 10 -11 10 -16z m-59 -44 c5 4 7 11 4 16 -4 5
-1 9 4 9 16 0 14 -11 -11 -50 -15 -25 -22 -31 -26 -20 -3 8 -10 21 -16 29 -8
11 -8 13 2 7 8 -5 12 0 12 16 1 21 2 21 11 5 6 -9 15 -15 20 -12z m1359 -79
c0 -2 -7 -9 -15 -16 -13 -11 -14 -10 -9 4 5 14 24 23 24 12z m-1144 -51 c0
-14 -9 -28 -19 -31 -9 -3 -15 -9 -13 -13 3 -4 -1 -8 -9 -8 -10 0 -12 4 -5 12
5 7 7 15 3 18 -3 4 1 9 10 13 9 3 13 12 10 20 -3 8 1 14 10 14 10 0 14 -9 13
-25z m-136 11 c0 -3 -4 -8 -10 -11 -5 -3 -10 -1 -10 4 0 6 5 11 10 11 6 0 10
-2 10 -4z m1200 -56 c0 -5 -4 -10 -10 -10 -5 0 -10 5 -10 10 0 6 5 10 10 10 6
0 10 -4 10 -10z m-1251 -49 c-39 -35 -48 -33 -24 3 10 14 26 26 38 26 17 0 15
-4 -14 -29z m172 14 c-1 -15 -24 -12 -29 3 -3 9 2 13 12 10 10 -1 17 -7 17
-13z m-71 -7 c0 -4 -7 -8 -16 -8 -13 0 -14 -3 -4 -15 6 -8 10 -20 7 -27 -3 -7
-6 -4 -7 7 -1 18 -2 18 -16 -5 -10 -17 -13 -18 -9 -5 4 11 8 29 10 40 3 23 1
22 20 22 8 0 15 -4 15 -9z m-80 -97 c0 -12 -20 -25 -27 -18 -7 7 6 27 18 27 5
0 9 -4 9 -9z m-96 -26 c-15 -23 -34 -33 -34 -19 0 7 40 44 47 44 2 0 -4 -11
-13 -25z m-52 -26 c2 -2 1 -3 -1 -2 -4 2 -50 -47 -68 -74 -9 -13 -22 -23 -31
-23 -8 0 -12 -3 -9 -7 9 -8 -12 -33 -28 -33 -7 0 -15 16 -17 36 -4 32 -1 37
26 49 17 7 46 24 64 38 30 22 56 29 64 16z m98 -4 c-9 -11 -9 -15 -1 -15 8 0
8 -4 -1 -14 -13 -13 -32 -15 -43 -4 -3 3 6 15 21 27 31 25 42 27 24 6z m15
-55 c3 -5 1 -10 -4 -10 -6 0 -11 5 -11 10 0 6 2 10 4 10 3 0 8 -4 11 -10z
m1005 -162 l-22 -23 19 39 c11 24 19 33 21 23 2 -9 -6 -27 -18 -39z m33 -54
c-4 -12 -8 -13 -14 -3 -9 15 -2 32 11 24 5 -3 6 -13 3 -21z m-173 -318 c0 -3
-4 -8 -10 -11 -5 -3 -10 -1 -10 4 0 6 5 11 10 11 6 0 10 -2 10 -4z m41 -233
c12 -16 12 -17 -2 -6 -9 7 -19 10 -22 6 -4 -3 -7 -1 -7 5 0 17 16 15 31 -5z
m105 -7 c20 -20 18 -26 -8 -26 -26 1 -61 24 -51 33 11 12 44 8 59 -7z m-286 1
c0 -2 -9 -12 -20 -22 -24 -21 -27 -14 -4 9 15 15 24 20 24 13z m26 -32 c-3 -9
-11 -13 -16 -10 -8 5 -7 11 1 21 14 18 24 11 15 -11z m204 -15 c14 0 90 -63
90 -74 0 -12 -16 -5 -44 19 -17 14 -36 23 -43 21 -7 -3 -12 0 -10 7 1 6 -8 13
-20 15 -15 2 -20 8 -16 18 4 11 9 12 16 5 6 -6 18 -11 27 -11z m-94 1 c-4 -5
7 -12 24 -16 17 -4 28 -11 24 -16 -3 -5 -1 -9 5 -9 5 0 12 6 14 13 3 7 6 4 6
-7 1 -11 6 -16 15 -13 8 3 22 -3 32 -14 9 -10 19 -17 22 -15 2 3 20 -16 39
-41 l34 -45 -20 -20 c-22 -20 -46 -16 -37 7 3 8 -2 11 -14 8 -10 -3 -21 1 -26
8 -5 9 -2 11 9 6 11 -4 14 -2 10 9 -3 9 -10 11 -17 6 -26 -19 -90 -35 -94 -23
-9 27 -30 1 -38 -48 -3 -16 13 -46 41 -80 l20 -23 -21 6 c-17 5 -23 2 -27 -15
-3 -11 -10 -18 -16 -15 -5 4 -12 2 -16 -4 -3 -5 -15 -10 -25 -10 -10 0 -21 -6
-23 -12 -3 -8 -6 -6 -6 5 -1 9 -5 17 -11 17 -5 0 -10 7 -10 15 0 8 -6 15 -14
15 -8 0 -22 8 -31 17 -16 16 -17 13 -13 -45 5 -59 -1 -72 -31 -72 -11 0 -32
50 -26 61 4 5 2 9 -4 9 -7 0 -6 10 0 30 6 17 15 30 20 30 5 0 9 8 9 18 0 14 2
14 9 3 7 -10 9 -7 8 12 -2 28 -12 35 -20 15 -3 -7 -6 -3 -6 9 -1 17 3 21 17
16 13 -5 14 -3 5 7 -15 16 -6 40 16 40 14 0 14 2 1 11 -13 9 -13 10 0 6 8 -2
14 -13 12 -23 -2 -16 1 -15 18 6 43 52 49 59 60 80 17 32 66 90 76 90 3 0 3
-4 0 -9z m178 -4 c11 -8 17 -19 15 -26 -3 -9 -11 -7 -27 7 -35 30 -25 46 12
19z m-266 -15 c-2 -10 -11 -16 -21 -14 -10 2 -17 -3 -17 -12 0 -9 -11 -23 -25
-32 -14 -9 -25 -25 -25 -35 0 -12 -7 -19 -19 -19 -19 0 -19 2 2 43 28 54 56
82 85 85 18 1 23 -3 20 -16z m492 -17 c8 5 36 -122 28 -130 -9 -9 -49 85 -42
96 4 7 3 9 -3 6 -6 -4 -16 0 -23 8 -10 12 -10 18 1 31 11 14 13 14 21 -1 5 -8
13 -13 18 -10z m-622 -35 c5 -13 3 -13 -12 -1 -15 12 -16 12 -9 -5 6 -16 5
-17 -9 -4 -9 8 -14 19 -11 23 8 13 36 4 41 -13z m108 -22 c5 -7 3 -8 -5 -4 -8
6 -11 2 -9 -10 2 -13 -4 -19 -19 -20 -12 -1 -20 3 -17 8 3 4 9 6 14 3 4 -3 10
4 13 15 6 23 13 25 23 8z m334 -34 c0 -8 -4 -14 -10 -14 -5 0 -10 4 -10 9 0 5
-3 18 -7 28 -6 16 -5 16 10 4 9 -7 17 -20 17 -27z m162 -24 c11 -16 21 -63 28
-125 6 -55 17 -130 25 -166 18 -82 19 -124 3 -136 -8 -5 -60 -8 -121 -5 -86 3
-107 7 -103 18 3 7 1 16 -5 19 -5 4 -9 3 -8 -2 4 -21 -3 -29 -23 -30 -13 -1
-24 -7 -26 -13 -2 -5 -9 -10 -15 -10 -7 1 -1 10 12 21 16 13 21 23 14 30 -12
12 -43 1 -43 -15 0 -13 -28 -17 -45 -7 -6 3 -3 -1 6 -10 16 -15 15 -16 -14
-17 -17 0 -39 4 -50 9 -14 8 -22 6 -38 -12 -10 -12 -19 -17 -19 -11 0 7 -12
12 -28 12 -16 0 -43 13 -64 30 -20 17 -39 26 -42 21 -3 -5 6 -16 20 -26 35
-22 21 -34 -52 -45 -32 -4 -76 -11 -96 -15 -35 -7 -37 -5 -43 21 -4 16 -11 39
-16 52 -5 13 -9 41 -9 62 0 39 1 40 35 40 30 0 35 4 43 33 6 24 5 33 -5 35
-18 5 -16 12 5 28 20 16 36 18 27 4 -3 -6 1 -17 9 -26 22 -21 20 -44 -3 -44
-25 0 -38 -20 -14 -21 10 -1 23 -1 28 0 6 0 21 -20 34 -44 28 -53 38 -54 16
-2 -19 47 -19 47 11 47 21 0 25 4 20 17 -4 10 -4 14 0 10 4 -4 16 0 26 9 14
14 20 14 33 4 13 -10 15 -9 15 8 0 14 6 19 18 18 9 -2 20 2 24 8 5 7 8 6 8 -4
0 -13 1 -13 11 0 9 12 10 11 6 -7 -3 -13 -1 -23 5 -23 5 0 7 -4 3 -9 -3 -5 0
-13 6 -17 8 -5 9 -3 4 6 -6 10 -4 12 8 7 10 -3 17 -3 18 1 0 4 2 17 5 30 2 13
0 21 -5 18 -5 -3 -7 3 -4 14 7 26 26 38 21 14 -4 -21 42 -47 67 -37 9 3 23 -1
32 -8 12 -10 15 -10 9 -1 -4 7 -1 12 8 12 9 0 16 4 16 9 0 5 9 13 20 16 22 7
28 35 8 36 -10 0 -10 2 0 6 15 6 16 43 0 43 -6 0 -9 3 -5 6 3 3 1 18 -4 32 -6
17 -6 29 0 35 14 14 20 7 36 -40 8 -22 14 -30 15 -18 0 19 0 19 14 -1 16 -23
30 -108 17 -99 -8 4 -23 -40 -26 -75 -1 -8 -9 -30 -18 -47 -14 -27 -15 -33 -3
-33 26 0 60 105 61 190 0 30 5 61 12 68 20 21 27 83 13 106 -8 12 -9 21 -3 23
6 2 19 10 29 18 17 12 20 11 24 -3 3 -9 13 -28 22 -42z m-646 8 c-19 -26 -20
-20 -5 19 6 15 13 22 16 16 2 -7 -3 -23 -11 -35z m47 -37 c-14 -11 -33 -50
-29 -63 1 -7 1 -10 -1 -5 -3 4 -8 5 -13 2 -4 -3 -6 4 -3 15 3 11 0 20 -6 20
-6 0 -11 10 -10 23 0 21 1 21 10 -3 8 -20 12 -22 19 -10 5 8 10 23 10 33 0 10
5 15 10 12 6 -3 11 0 11 7 1 7 3 5 6 -6 3 -10 1 -21 -4 -25z m327 -33 c0 -11
-49 23 -50 35 0 4 11 0 25 -9 14 -9 25 -20 25 -26z m196 6 c-4 -9 -9 -15 -11
-12 -3 3 -3 13 1 22 4 9 9 15 11 12 3 -3 3 -13 -1 -22z m-611 -32 c-5 -14 -7
-14 -15 -2 -5 9 -4 20 3 28 14 17 22 0 12 -26z m30 -22 c3 -5 -1 -10 -10 -10
-9 0 -13 5 -10 10 3 6 8 10 10 10 2 0 7 -4 10 -10z m734 -52 c5 -29 12 -80 15
-113 l6 -60 -14 50 c-14 51 -29 175 -22 175 3 0 9 -24 15 -52z m-860 -182 c-1
-22 -3 -32 -6 -21 -2 11 -8 32 -13 47 -7 21 -6 26 6 21 9 -3 14 -19 13 -47z
m32 -138 c6 -12 6 -18 -1 -18 -14 0 -30 45 -29 78 1 25 2 24 11 -8 5 -19 14
-43 19 -52z m704 19 c66 -3 128 -8 138 -12 10 -4 17 -3 17 4 0 6 6 11 13 11
13 -1 57 -34 57 -45 0 -3 7 -13 15 -21 8 -9 15 -26 15 -40 0 -13 5 -24 10 -24
6 0 10 -17 10 -37 0 -28 3 -34 10 -23 8 12 10 12 10 -5 0 -21 20 -82 33 -102
4 -6 10 -35 13 -64 3 -30 12 -66 20 -81 8 -15 14 -38 14 -52 0 -14 4 -27 9
-31 5 -3 13 -31 17 -63 3 -31 9 -66 11 -77 16 -67 20 -98 18 -120 -2 -14 1
-27 6 -31 5 -3 9 -12 9 -20 0 -9 -5 -12 -11 -8 -8 5 -10 -2 -6 -22 3 -16 0
-38 -5 -48 -6 -11 -11 -29 -12 -41 -1 -14 -9 -21 -28 -23 -16 -2 -28 -8 -28
-14 0 -5 7 -7 15 -4 14 5 13 1 -2 -24 -22 -38 -45 -40 -42 -2 2 15 10 35 18
45 12 15 12 17 -2 17 -12 0 -15 8 -12 31 3 18 7 34 10 37 2 3 1 10 -4 16 -12
16 -20 56 -11 56 4 0 7 18 6 40 -1 22 2 40 6 40 4 0 9 -15 9 -32 1 -18 2 -40
3 -48 0 -8 -3 -18 -9 -22 -6 -4 -2 -8 9 -8 12 0 16 5 13 15 -4 8 -2 17 4 21 7
4 7 10 0 18 -6 7 -13 50 -16 96 -2 46 -9 88 -15 94 -19 19 -31 -15 -25 -69 2
-27 2 -44 -1 -36 -5 11 -8 11 -16 0 -7 -10 -8 -8 -3 6 11 28 8 57 -5 65 -8 5
-7 9 4 13 9 4 16 13 16 22 0 8 6 15 14 15 7 0 16 9 19 20 3 11 1 20 -4 20 -5
0 -9 12 -9 26 0 17 -4 23 -12 18 -10 -5 -10 -4 -2 5 13 14 7 51 -8 51 -6 0 -8
15 -6 34 2 19 0 32 -4 29 -5 -2 -6 6 -3 19 4 16 -1 30 -16 46 -12 14 -21 37
-22 58 -1 19 -5 34 -10 34 -5 0 -6 7 -3 16 3 8 2 12 -4 9 -10 -6 -13 5 -11 40
2 15 0 17 -7 6 -8 -10 -13 -5 -23 23 -7 20 -17 36 -22 36 -5 0 -6 7 -3 15 3
10 -1 18 -12 21 -9 3 -25 10 -34 15 -11 5 -19 5 -23 -1 -3 -6 0 -10 8 -10 19
0 34 -19 43 -55 l7 -30 -26 28 c-28 29 -42 35 -34 13 3 -8 3 -17 0 -20 -7 -7
-38 34 -38 49 0 5 -9 11 -20 12 l-20 3 20 -9 c11 -5 16 -10 11 -10 -5 -1 -2
-8 5 -18 13 -15 12 -15 -8 -4 -13 6 -23 8 -23 4 0 -4 -5 -1 -10 7 -8 11 -9 8
-6 -14 3 -16 8 -31 12 -35 4 -3 4 2 1 12 -6 15 -2 16 21 10 15 -3 33 -12 40
-20 18 -17 36 -17 29 2 -13 32 11 21 33 -16 14 -21 28 -39 33 -39 5 0 7 -8 6
-17 -3 -29 13 -83 22 -77 5 3 7 10 4 15 -4 5 -1 9 4 9 16 0 13 -17 -5 -45 -10
-16 -12 -25 -5 -26 6 -1 15 -2 21 -3 18 -2 55 -39 43 -43 -7 -3 -9 -12 -6 -21
6 -15 5 -15 -10 -4 -9 8 -15 24 -14 35 2 18 -4 22 -33 24 -50 2 -50 2 -50 17
0 8 -5 18 -12 22 -7 4 -8 3 -4 -4 4 -7 1 -12 -6 -13 -11 0 -11 -2 0 -6 7 -3
18 -17 23 -32 9 -23 11 -24 20 -8 12 20 35 22 42 3 3 -7 9 -35 12 -62 9 -62
13 -68 33 -52 10 7 6 -1 -8 -16 -14 -16 -19 -26 -11 -21 11 6 13 2 7 -19 -4
-15 -3 -32 1 -39 12 -20 12 -57 0 -57 -9 0 -8 -3 1 -8 7 -5 13 -29 13 -58 0
-114 -4 -174 -12 -174 -11 0 -10 -6 -15 65 -2 36 0 55 5 47 6 -10 10 -9 14 8
4 17 2 20 -15 14 -14 -4 -18 -2 -14 5 4 6 2 11 -4 11 -8 0 -10 -13 -6 -40 3
-24 1 -40 -5 -40 -6 0 -8 4 -5 9 3 4 -6 21 -19 37 -14 16 -25 25 -25 20 0 -11
43 -90 52 -94 4 -2 3 -14 -2 -27 -6 -17 -5 -25 4 -28 16 -7 26 -66 13 -74 -6
-3 -16 2 -24 12 -7 11 -13 16 -13 13 0 -4 -3 -14 -6 -22 -5 -12 -2 -15 10 -10
23 9 20 -9 -4 -24 -17 -11 -23 -10 -36 3 -13 12 -19 13 -30 4 -8 -6 -14 -18
-14 -25 0 -8 -5 -14 -11 -14 -5 0 -7 5 -4 10 3 6 1 10 -4 10 -6 0 -11 -5 -11
-11 0 -8 -5 -7 -16 2 -14 11 -16 10 -14 -6 3 -31 0 -41 -8 -28 -9 15 -37 21
-41 8 -1 -5 -8 -16 -14 -24 -10 -12 -7 -13 22 -8 22 5 40 3 50 -5 14 -11 14
-11 4 3 -7 9 -10 18 -7 22 10 9 34 -4 34 -19 0 -8 5 -14 10 -14 13 0 13 13 -2
28 -8 8 -4 14 18 23 16 7 37 13 47 14 11 1 23 8 28 16 5 8 9 10 9 4 0 -13 53
-14 61 -2 4 5 12 6 18 3 22 -14 10 -26 -26 -27 -21 -1 -30 -3 -20 -6 9 -2 17
-9 17 -14 0 -5 5 -9 11 -9 5 0 7 5 4 10 -3 6 1 10 9 10 9 0 16 -6 17 -12 0 -7
5 -4 10 7 l9 20 -3 -20 c-1 -11 -9 -21 -17 -21 -8 -1 -21 -2 -29 -3 -9 -1 -12
-10 -9 -26 3 -14 1 -28 -4 -31 -4 -3 -6 -9 -3 -14 3 -5 1 -11 -4 -14 -5 -4
-12 -2 -16 4 -8 13 -45 13 -45 0 0 -5 -10 -10 -22 -11 -23 0 -23 0 1 -10 13
-5 33 -7 45 -4 19 6 18 4 -4 -14 -30 -25 -48 -31 -170 -65 -139 -38 -170 -42
-170 -22 0 9 5 16 12 16 6 0 8 3 5 6 -4 4 -14 1 -22 -6 -9 -7 -15 -9 -14 -4 4
21 -2 35 -11 29 -6 -4 -9 -20 -6 -36 2 -16 0 -29 -5 -29 -5 0 -10 5 -10 10 -1
6 -3 15 -4 20 -1 6 -3 13 -4 17 0 4 -6 2 -13 -5 -16 -16 -25 -15 -25 3 0 13
17 20 40 16 5 -1 6 3 3 8 -11 17 38 21 52 4 11 -15 12 -15 12 -1 0 19 49 33
63 19 6 -6 7 -11 2 -11 -5 0 0 -7 13 -15 16 -12 27 -13 41 -5 11 5 28 10 38
10 10 0 25 9 33 20 13 18 16 18 31 4 16 -15 17 -14 12 4 -6 23 -12 23 -77 -6
-55 -25 -56 -25 -56 -14 0 5 10 14 23 21 l22 11 -22 -6 c-18 -4 -23 -1 -22 13
0 10 3 13 5 7 5 -11 56 -11 93 1 12 3 19 10 16 15 -3 5 -1 11 5 15 5 3 10 -2
10 -11 0 -13 3 -15 11 -7 13 13 4 33 -16 33 -8 0 -19 8 -25 18 -11 16 -11 15
-5 -2 3 -11 0 -23 -7 -28 -18 -11 -40 -10 -33 2 3 6 1 10 -4 10 -6 0 -11 9
-11 20 0 25 -30 27 -31 3 -1 -10 -1 -21 -1 -25 1 -3 -6 -9 -14 -12 -12 -4 -15
-2 -11 9 4 8 2 17 -3 20 -15 9 -12 35 4 35 7 0 19 7 26 15 7 8 10 15 7 15 -3
0 -13 3 -21 6 -12 5 -15 2 -10 -10 3 -9 1 -16 -5 -16 -6 0 -11 12 -11 28 0 20
-3 23 -9 13 -5 -8 -7 -20 -4 -28 3 -8 -2 -13 -13 -13 -16 0 -15 -2 4 -20 26
-25 27 -30 6 -30 -8 0 -13 4 -10 8 2 4 -4 8 -14 8 -14 0 -16 -4 -9 -17 13 -25
11 -29 -9 -29 -10 0 -25 -11 -32 -25 -14 -27 -37 -34 -37 -11 0 8 6 12 12 9 7
-2 15 2 18 10 4 11 -3 14 -32 12 -22 -1 -38 3 -38 9 0 6 11 12 24 12 14 1 21
-2 16 -10 -3 -7 -1 -6 7 1 16 15 22 43 9 43 -5 0 -9 -5 -9 -11 0 -8 -5 -8 -15
1 -10 9 -15 9 -15 1 0 -6 -9 -11 -21 -11 -15 0 -19 -4 -14 -19 5 -16 1 -19
-19 -17 -14 2 -25 0 -24 -3 3 -25 -4 -51 -13 -51 -5 0 -7 6 -3 13 4 7 2 7 -7
-2 -11 -11 -11 -14 -1 -18 10 -4 10 -8 1 -19 -6 -7 -9 -19 -6 -26 3 -8 6 -5 6
6 1 20 1 20 16 0 14 -18 15 -18 12 6 -1 18 5 28 26 38 15 7 35 11 45 9 14 -4
13 -6 -5 -12 -13 -4 -23 -12 -23 -17 0 -7 -5 -6 -13 1 -10 8 -14 7 -14 -4 0
-8 6 -15 13 -15 7 0 11 -8 9 -19 -2 -12 2 -18 12 -17 9 0 18 -5 20 -11 6 -16
-73 -18 -82 -3 -4 6 -11 8 -16 5 -5 -4 -9 -1 -9 4 0 6 -5 11 -11 11 -5 0 -7
-4 -4 -10 3 -6 -4 -10 -16 -10 -12 0 -30 -6 -38 -14 -10 -9 -45 -16 -92 -18
-43 -2 -75 -7 -72 -11 3 -5 -3 -7 -13 -6 -11 2 -25 0 -31 -4 -7 -5 -13 -4 -13
2 0 5 5 13 11 17 16 10 -7 29 -36 29 l-25 1 20 -21 c23 -24 25 -35 8 -35 -6 0
-8 3 -5 7 10 9 -31 35 -43 28 -6 -3 -13 1 -16 9 -4 11 -11 13 -30 6 -14 -6
-24 -6 -24 0 0 4 8 11 18 13 13 4 11 5 -5 6 -13 0 -23 -3 -23 -9 0 -5 -7 -10
-16 -10 -8 0 -12 -4 -9 -10 3 -5 0 -10 -8 -10 -16 0 -22 37 -37 210 -5 58 -15
155 -24 215 -11 81 -14 152 -9 270 5 129 3 175 -10 235 -10 41 -21 117 -26
168 -6 52 -15 100 -22 108 -9 12 -5 14 28 14 22 0 62 7 89 14 27 8 79 16 115
18 37 2 65 6 63 9 -4 8 57 19 104 19 18 0 31 -4 27 -9 -3 -5 -1 -12 5 -16 5
-3 10 -1 10 6 0 8 7 5 20 -6 15 -14 23 -15 33 -6 8 6 17 8 20 4 4 -3 7 2 7 12
0 10 -3 16 -6 12 -4 -3 -13 1 -22 10 -14 14 -16 14 -22 -3 -5 -13 -9 -14 -14
-5 -12 19 14 42 38 35 12 -4 23 -10 26 -13 6 -8 80 -8 75 -1 -2 3 0 12 6 20 6
10 9 11 9 3 0 -7 6 -13 14 -13 16 0 28 -37 15 -46 -5 -3 -9 -11 -9 -17 0 -7 5
-4 11 6 6 10 22 17 39 17 24 0 30 4 31 23 0 12 3 16 6 10 7 -19 33 -16 33 3 0
13 3 14 14 5 12 -10 13 -8 8 11 -4 19 -3 21 9 11 8 -7 64 -13 134 -16z m288
-550 c2 -20 0 -34 -4 -31 -4 2 -7 17 -7 33 1 15 -3 34 -7 42 -6 10 -5 11 4 3
6 -6 13 -27 14 -47z m47 -110 c0 -5 -4 -5 -10 -2 -5 3 -10 14 -10 23 0 15 2
15 10 2 5 -8 10 -19 10 -23z m-32 -203 c-2 -11 -9 -18 -16 -17 -8 2 -9 -4 -2
-22 15 -39 -7 -74 -27 -42 -16 25 -11 66 8 72 11 4 19 16 19 28 0 15 3 18 11
10 6 -6 9 -19 7 -29z m-66 -116 c-7 -7 -12 -8 -12 -2 0 14 12 26 19 19 2 -3
-1 -11 -7 -17z m45 6 c-3 -3 -12 -4 -19 -1 -8 3 -5 6 6 6 11 1 17 -2 13 -5z
m-141 -31 c-10 -10 -19 5 -10 18 6 11 8 11 12 0 2 -7 1 -15 -2 -18z m151 -83
c2 -20 -8 -26 -20 -13 -4 3 -2 12 4 20 15 17 14 17 16 -7z m-367 -64 c0 -8
-31 -36 -41 -36 -5 0 -9 9 -9 20 0 15 7 20 25 20 14 0 25 -2 25 -4z m-170 -10
c0 -11 -19 -15 -25 -6 -3 5 1 10 9 10 9 0 16 -2 16 -4z m47 -2 c-3 -3 -12 -4
-19 -1 -8 3 -5 6 6 6 11 1 17 -2 13 -5z m-522 -164 c3 0 3 5 -1 12 -5 8 -2 9
12 3 10 -4 26 -8 35 -9 9 0 16 -6 16 -13 0 -9 -15 -13 -43 -13 -34 0 -46 5
-54 21 -10 19 -10 20 9 10 11 -6 22 -11 26 -11z"/>
<path d="M3230 5034 c0 -12 -4 -12 -20 -4 -17 9 -20 8 -20 -8 0 -10 3 -22 7
-25 3 -4 7 -23 9 -42 2 -29 -2 -35 -17 -35 -10 0 -19 -4 -19 -10 0 -5 5 -10
11 -10 6 0 9 -7 6 -15 -4 -8 -1 -17 4 -21 6 -4 1 -16 -13 -32 -13 -14 -16 -21
-8 -16 8 5 29 9 47 10 26 2 31 -1 25 -14 -3 -10 -12 -23 -19 -30 -7 -8 -11
-17 -8 -22 3 -4 -2 -10 -10 -14 -8 -3 -15 -15 -15 -26 0 -13 -4 -18 -11 -15
-6 4 -13 -2 -16 -14 -4 -15 -12 -20 -29 -18 -30 4 -33 7 -36 44 -1 18 -6 29
-10 27 -4 -3 -8 0 -8 7 0 7 -3 10 -6 6 -3 -3 -2 -12 2 -19 11 -18 13 -59 2
-52 -4 3 -8 10 -8 15 0 6 -7 17 -15 25 -18 18 -19 13 -4 -20 7 -14 27 -31 46
-39 32 -12 33 -15 20 -29 -12 -12 -13 -18 -4 -27 9 -10 9 -12 -3 -10 -8 2 -27
0 -42 -4 -22 -6 -28 -14 -29 -37 -1 -17 -2 -36 -3 -42 -1 -7 5 -12 12 -10 8 1
11 -2 7 -8 -3 -6 -10 -8 -15 -5 -5 3 -12 0 -16 -7 -11 -18 -9 -63 3 -61 17 3
7 -56 -13 -80 -10 -13 -7 -11 7 3 15 16 29 44 32 68 6 33 22 56 87 123 43 46
82 80 86 76 4 -4 4 -7 -1 -7 -4 0 -2 -7 5 -15 9 -10 9 -15 1 -15 -6 0 -11 -7
-11 -15 0 -20 10 -19 26 2 9 13 9 22 2 30 -6 7 -7 13 -2 13 5 0 2 5 -6 10 -13
9 -13 12 3 24 9 7 17 17 17 21 0 12 113 125 120 120 5 -3 11 2 14 11 9 25 8
26 -18 9 -23 -16 -24 -15 -19 4 3 12 9 21 14 21 5 0 20 18 34 40 14 22 36 42
50 46 18 4 25 13 25 31 0 22 -3 24 -42 21 -24 -2 -43 -8 -43 -15 0 -20 -13
-26 -60 -25 -29 1 -49 -4 -57 -14 -37 -43 -39 -44 -53 -31 -7 6 -10 17 -7 22
4 6 5 18 3 28 -1 10 4 26 12 35 24 27 31 68 13 75 -10 4 -16 1 -16 -9z m10
-316 c0 -6 -3 -8 -7 -5 -3 4 -12 -1 -19 -11 -12 -16 -13 -15 -14 5 0 12 6 23
13 26 15 5 27 -1 27 -15z m-43 -51 c14 17 14 17 9 0 -3 -10 -6 -22 -6 -26 0
-4 -12 -13 -26 -20 -24 -10 -26 -10 -19 6 4 10 10 27 13 38 6 18 7 18 10 2 4
-18 4 -18 19 0z"/>
<path d="M3117 4996 c-15 -45 -14 -56 8 -56 22 0 64 40 58 55 -8 23 -23 18
-24 -7 -1 -18 -2 -19 -6 -5 -2 9 -9 14 -15 11 -7 -5 -9 2 -4 20 10 42 -1 30
-17 -18z"/>
<path d="M3299 5018 c-7 -24 -7 -58 1 -63 6 -4 10 8 10 29 0 20 -2 36 -5 36
-3 0 -5 -1 -6 -2z"/>
<path d="M3347 4982 c-21 -23 -22 -33 -3 -26 8 3 16 14 19 25 6 24 4 24 -16 1z"/>
<path d="M3114 4909 c-3 -5 1 -9 10 -9 8 0 17 -6 19 -12 4 -10 6 -10 6 0 1 6
2 15 4 19 3 10 -32 12 -39 2z"/>
<path d="M3536 4894 c-8 -20 -8 -24 2 -24 4 0 8 9 9 20 2 24 -3 26 -11 4z"/>
<path d="M2966 4882 c-2 -4 -1 -14 5 -22 7 -12 9 -10 9 8 0 23 -5 28 -14 14z"/>
<path d="M3107 4883 c-4 -3 -7 -18 -6 -32 0 -14 3 -21 5 -15 3 7 15 10 27 7
l22 -5 -22 20 c-12 11 -19 22 -16 26 4 3 4 6 1 6 -2 0 -8 -3 -11 -7z"/>
<path d="M2919 4866 c10 -11 7 -17 -10 -30 -13 -8 -20 -19 -16 -22 7 -7 47 33
47 46 0 5 -7 11 -16 14 -14 5 -15 4 -5 -8z"/>
<path d="M2995 4869 c-4 -6 -5 -12 -2 -15 2 -3 7 2 10 11 7 17 1 20 -8 4z"/>
<path d="M2997 4833 c-10 -9 -9 -23 1 -23 5 0 9 7 9 15 0 17 -1 18 -10 8z"/>
<path d="M3537 4815 c-4 -8 -2 -17 3 -20 6 -4 10 3 10 14 0 25 -6 27 -13 6z"/>
<path d="M3172 4790 c-7 -11 -8 -20 -3 -20 9 0 24 30 18 36 -1 2 -8 -6 -15
-16z"/>
<path d="M3716 4749 c4 -7 44 0 44 7 0 2 -11 3 -24 2 -14 -1 -23 -5 -20 -9z"/>
<path d="M2977 4743 c-10 -3 -16 -11 -14 -18 3 -7 1 -17 -5 -23 -8 -8 -6 -15
5 -26 9 -9 19 -16 23 -16 5 0 3 5 -3 11 -14 14 -6 39 12 39 8 0 13 9 12 20 -1
11 -4 19 -7 19 -3 -1 -13 -3 -23 -6z"/>
<path d="M3527 4680 c-3 -11 -2 -20 3 -20 4 0 10 9 13 20 3 11 2 20 -3 20 -4
0 -10 -9 -13 -20z"/>
<path d="M2690 4676 c0 -8 4 -17 9 -20 5 -4 7 3 4 14 -6 23 -13 26 -13 6z"/>
<path d="M3796 4675 c-11 -8 -16 -15 -12 -15 4 0 0 -7 -8 -16 -18 -17 -22 -49
-6 -39 6 4 8 11 5 16 -4 5 -2 9 4 9 5 0 13 9 16 20 4 11 10 18 15 15 4 -3 10
2 14 10 7 19 -3 19 -28 0z"/>
<path d="M3646 4672 c-3 -5 1 -9 9 -9 8 0 12 4 9 9 -3 4 -7 8 -9 8 -2 0 -6 -4
-9 -8z"/>
<path d="M3960 4670 c0 -5 -7 -10 -16 -10 -10 0 -12 -4 -7 -12 4 -7 8 -26 8
-43 0 -16 5 -30 10 -30 6 0 15 -3 20 -7 6 -4 17 -2 25 3 12 8 12 12 3 16 -7 2
-13 15 -13 28 0 13 6 26 13 28 7 3 5 6 -5 6 -10 1 -18 8 -18 16 0 8 -4 15 -10
15 -5 0 -10 -4 -10 -10z"/>
<path d="M2836 4648 c-4 -13 -10 -39 -13 -58 -6 -44 -22 -62 -19 -23 1 19 -3
30 -11 30 -8 0 -13 -12 -13 -31 1 -17 0 -40 -2 -51 -2 -13 2 -19 12 -17 11 2
11 -1 -2 -11 -10 -8 -18 -27 -18 -43 0 -46 -11 -74 -29 -75 -10 0 -11 -2 -3
-6 6 -2 12 -9 12 -15 0 -6 -6 -8 -14 -5 -8 3 -17 0 -20 -8 -3 -9 0 -12 10 -8
16 6 20 -32 4 -42 -6 -3 -7 1 -4 10 5 11 2 14 -10 9 -9 -3 -14 -10 -11 -14 3
-5 -1 -15 -9 -22 -11 -12 -12 -21 -1 -50 10 -29 9 -41 -2 -63 -13 -25 -13 -26
4 -23 20 4 27 50 12 79 -5 11 -3 16 7 16 7 0 14 -4 14 -9 0 -4 4 -8 10 -8 5 0
7 6 4 14 -6 15 14 61 23 53 3 -3 1 -12 -3 -19 -5 -7 -9 -28 -9 -46 0 -28 2
-30 13 -15 11 15 16 39 10 46 -2 1 7 16 19 32 12 17 24 47 28 68 6 32 5 36 -9
31 -12 -5 -16 0 -16 17 0 20 2 21 11 9 9 -12 10 -11 6 7 -3 13 -1 26 5 29 5 3
7 12 4 20 -3 7 3 18 13 23 13 7 17 21 17 50 -1 37 1 41 24 41 19 0 22 2 10 9
-8 6 -18 7 -22 5 -4 -3 -8 15 -8 40 0 49 -13 61 -24 24z m-16 -122 c0 -11 -19
-15 -25 -6 -3 5 1 10 9 10 9 0 16 -2 16 -4z m-20 -204 c0 -4 -9 -13 -20 -20
-24 -15 -26 -9 -4 12 17 18 24 20 24 8z"/>
<path d="M3050 4641 c-14 -27 -13 -30 9 -28 16 1 18 4 8 16 -9 12 -9 13 1 7 7
-4 12 -1 12 8 0 22 -17 20 -30 -3z"/>
<path d="M2490 4639 c0 -5 5 -7 10 -4 6 3 10 8 10 11 0 2 -4 4 -10 4 -5 0 -10
-5 -10 -11z"/>
<path d="M2653 4618 c2 -34 5 -35 50 -15 31 14 34 25 11 34 -11 4 -22 -1 -30
-12 -13 -18 -14 -18 -14 3 0 12 -4 22 -9 22 -5 0 -9 -15 -8 -32z"/>
<path d="M2947 4643 c-3 -5 -4 -19 -3 -33 1 -14 -3 -28 -9 -32 -6 -5 -5 -8 3
-8 7 0 11 -4 8 -8 -3 -5 -7 -24 -10 -43 -3 -19 -3 -28 0 -21 3 6 9 10 14 7 11
-7 1 -45 -12 -45 -5 0 -6 5 -3 10 3 6 1 10 -5 10 -13 0 -9 -31 5 -43 6 -6 6
-10 -2 -14 -7 -2 -13 -13 -13 -23 0 -11 -8 -24 -17 -29 -12 -7 -13 -11 -5 -11
10 0 9 -4 -3 -16 -9 -9 -13 -24 -10 -35 4 -10 2 -19 -4 -19 -5 0 -23 -13 -39
-30 -16 -16 -33 -26 -37 -22 -4 4 -5 0 -3 -10 3 -18 -40 -61 -53 -52 -5 3 -7
10 -4 15 4 5 2 9 -3 9 -5 0 -9 -14 -10 -31 -1 -39 -17 -59 -44 -54 -29 6 -41
-4 -27 -21 10 -12 8 -17 -6 -28 -12 -8 -16 -21 -13 -34 3 -12 1 -23 -5 -25 -8
-2 -7 -6 1 -11 7 -4 16 3 24 19 10 22 9 28 -3 36 -10 8 -6 9 18 7 28 -4 32 -1
44 34 15 46 25 54 45 37 8 -7 14 -8 12 -2 -5 15 140 180 153 176 4 -1 10 9 13
23 4 15 11 22 18 18 8 -5 9 2 4 22 -5 21 -4 25 3 14 9 -13 13 -12 32 7 19 18
20 24 10 37 -16 19 -33 12 -24 -9 3 -10 -1 -15 -12 -15 -13 0 -15 6 -9 38 4
20 7 61 6 90 -1 28 3 52 8 52 11 0 -8 39 -25 53 -6 5 0 7 13 4 12 -3 22 -1 22
4 0 11 -37 12 -43 2z"/>
<path d="M3514 4634 c1 -8 4 -15 7 -16 2 -2 3 -1 2 1 -2 2 2 9 7 16 7 8 5 12
-4 12 -8 0 -13 -6 -12 -13z"/>
<path d="M4012 4626 c-8 -18 -7 -22 8 -22 10 0 16 4 14 8 -3 4 0 8 5 8 16 0
13 17 -3 23 -8 3 -18 -4 -24 -17z"/>
<path d="M2700 4586 c0 -8 7 -21 15 -29 8 -8 11 -17 8 -21 -4 -3 -1 -6 5 -6
14 0 16 16 3 24 -5 3 -7 15 -4 26 4 14 0 20 -11 20 -9 0 -16 -6 -16 -14z"/>
<path d="M3723 4554 c-12 -24 -20 -44 -19 -44 15 0 66 24 66 31 0 4 -8 5 -17
2 -17 -7 -17 -6 -1 19 13 20 14 27 5 31 -8 3 -22 -13 -34 -39z"/>
<path d="M3344 4568 c-4 -13 -8 -30 -9 -38 -2 -8 -6 -24 -9 -35 -4 -11 0 -8 9
8 9 15 13 32 10 37 -4 6 0 13 8 16 7 2 14 11 14 19 0 23 -15 18 -23 -7z"/>
<path d="M3470 4560 c0 -5 5 -10 10 -10 6 0 10 5 10 10 0 6 -4 10 -10 10 -5 0
-10 -4 -10 -10z"/>
<path d="M3195 4549 c-4 -6 -5 -12 -2 -15 2 -3 7 2 10 11 7 17 1 20 -8 4z"/>
<path d="M2689 4546 c-5 -22 -4 -33 4 -43 6 -9 6 -13 -2 -13 -6 0 -11 -5 -11
-11 0 -6 6 -9 13 -7 14 5 20 65 6 74 -5 3 -10 3 -10 0z"/>
<path d="M3170 4532 c0 -5 -15 -23 -32 -42 -18 -18 -28 -31 -21 -27 6 4 14 1
16 -5 4 -8 8 -4 12 9 9 27 25 21 20 -7 -4 -23 10 -27 18 -6 3 8 -1 20 -9 26
-15 13 -20 35 -6 26 4 -2 9 4 9 15 1 10 0 19 -3 19 -2 0 -4 -4 -4 -8z"/>
<path d="M2879 4525 c-1 -19 -8 -47 -14 -63 -5 -14 -7 -14 -16 -2 -8 11 -9 7
-6 -17 2 -18 0 -33 -5 -33 -4 0 -8 -7 -8 -15 0 -29 27 -16 28 13 0 16 9 45 20
64 13 23 17 40 11 49 -5 8 -9 10 -10 4z"/>
<path d="M2530 4499 c0 -5 5 -7 10 -4 6 3 10 8 10 11 0 2 -4 4 -10 4 -5 0 -10
-5 -10 -11z"/>
<path d="M3267 4490 c-9 -11 -13 -20 -9 -20 4 0 15 9 25 20 9 11 13 20 9 20
-4 0 -15 -9 -25 -20z"/>
<path d="M2722 4473 c2 -13 -3 -17 -17 -16 -11 1 -14 0 -7 -3 9 -4 10 -10 3
-18 -6 -7 -12 -29 -15 -50 -3 -20 -10 -44 -16 -51 -16 -19 -25 -85 -12 -85 9
0 27 47 24 62 -1 4 6 4 16 1 9 -3 14 -3 10 2 -4 4 -1 23 7 42 12 28 12 34 2
30 -8 -3 -14 1 -14 9 0 7 3 11 7 9 4 -2 12 13 19 34 14 47 14 51 1 51 -6 0
-10 -8 -8 -17z"/>
<path d="M3430 4480 c0 -5 5 -10 11 -10 5 0 7 5 4 10 -3 6 -8 10 -11 10 -2 0
-4 -4 -4 -10z"/>
<path d="M3680 4479 c0 -5 5 -7 10 -4 6 3 10 8 10 11 0 2 -4 4 -10 4 -5 0 -10
-5 -10 -11z"/>
<path d="M1984 4468 c-12 -18 -14 -58 -4 -58 6 0 12 11 16 25 3 14 10 25 15
25 5 0 9 5 9 10 0 14 -27 12 -36 -2z"/>
<path d="M2547 4466 c-4 -10 -7 -30 -6 -44 1 -25 1 -25 10 6 11 37 7 67 -4 38z"/>
<path d="M2655 4460 c6 -10 1 -12 -23 -7 -17 4 -34 2 -37 -3 -4 -6 1 -7 11 -3
12 4 15 3 10 -6 -5 -8 0 -10 18 -7 18 3 26 0 26 -10 0 -8 -4 -14 -10 -14 -5 0
-10 -10 -10 -21 0 -19 -2 -20 -17 -8 -11 10 -14 10 -9 2 4 -8 1 -13 -8 -13 -9
0 -16 -5 -16 -11 0 -5 5 -7 12 -3 7 5 8 3 2 -7 -12 -20 -14 -68 -3 -75 13 -7
41 15 33 27 -3 5 -1 9 4 9 6 0 13 7 16 16 4 12 2 15 -9 10 -20 -7 -19 0 5 22
25 23 33 103 11 110 -9 3 -11 0 -6 -8z"/>
<path d="M2470 4427 c-19 -24 -21 -29 -7 -24 9 3 17 2 17 -3 0 -6 -4 -10 -9
-10 -10 0 -9 -26 2 -36 4 -4 7 0 7 10 0 10 5 14 11 10 8 -4 9 3 4 25 -4 20 -2
37 5 46 7 8 9 15 4 14 -5 0 -20 -14 -34 -32z"/>
<path d="M3668 4453 c7 -3 16 -2 19 1 4 3 -2 6 -13 5 -11 0 -14 -3 -6 -6z"/>
<path d="M3215 4439 c-5 -8 -4 -10 3 -5 19 12 14 -2 -10 -26 -13 -13 -26 -22
-30 -20 -5 1 -8 -5 -8 -13 0 -24 13 -18 44 21 19 24 25 39 18 46 -6 6 -12 6
-17 -3z"/>
<path d="M3151 4423 c1 -4 -7 -30 -19 -56 -12 -27 -22 -52 -22 -56 0 -5 -12
-21 -27 -36 -20 -20 -23 -26 -10 -22 11 4 16 3 12 -3 -3 -6 -12 -10 -18 -10
-7 0 -13 -9 -13 -20 0 -11 1 -20 2 -20 1 0 15 20 32 45 16 24 33 41 37 37 5
-4 5 -2 2 4 -4 7 0 17 8 24 11 9 12 16 5 26 -9 10 -7 11 9 7 13 -3 21 -1 21 6
0 7 -4 10 -9 7 -5 -4 -6 9 -1 29 5 20 4 38 -1 41 -5 3 -9 2 -8 -3z"/>
<path d="M3421 4423 c4 -21 -2 -34 -13 -27 -6 4 -8 3 -4 -4 3 -6 -4 -18 -16
-27 l-23 -16 25 4 c27 4 58 61 40 72 -6 4 -10 3 -9 -2z"/>
<path d="M4220 4424 c0 -6 7 -19 16 -30 14 -18 14 -18 3 6 -14 31 -19 36 -19
24z"/>
<path d="M1950 4407 c0 -9 -9 -21 -20 -27 -11 -6 -20 -20 -20 -30 0 -11 -5
-20 -10 -20 -6 0 -5 -6 2 -14 15 -16 29 -1 21 21 -3 7 -1 13 5 13 18 0 45 51
33 63 -8 8 -11 6 -11 -6z"/>
<path d="M2585 4410 c-3 -5 -1 -10 4 -10 6 0 11 5 11 10 0 6 -2 10 -4 10 -3 0
-8 -4 -11 -10z"/>
<path d="M3625 4411 c-3 -5 0 -13 6 -17 7 -4 9 -3 5 4 -3 5 0 13 6 15 9 4 10
6 1 6 -6 1 -14 -3 -18 -8z"/>
<path d="M2235 4380 c3 -5 8 -10 11 -10 2 0 4 5 4 10 0 6 -5 10 -11 10 -5 0
-7 -4 -4 -10z"/>
<path d="M2437 4332 c-25 -27 -21 -36 5 -12 12 11 19 22 16 25 -2 3 -12 -3
-21 -13z"/>
<path d="M2537 4343 c-10 -9 -9 -23 1 -23 5 0 9 7 9 15 0 17 -1 18 -10 8z"/>
<path d="M3577 4330 c-21 -24 -21 -27 -3 -27 8 0 16 11 19 24 5 28 6 28 -16 3z"/>
<path d="M3373 4333 c4 -3 1 -13 -6 -22 -11 -14 -10 -14 5 -2 16 12 16 31 1
31 -4 0 -3 -3 0 -7z"/>
<path d="M3500 4298 c-6 -18 -14 -46 -17 -63 -2 -16 -9 -34 -14 -39 -5 -6 -9
-18 -9 -28 0 -10 -5 -18 -10 -18 -6 0 -10 -6 -9 -12 3 -26 -2 -37 -18 -41 -17
-4 -17 -5 0 -6 20 -1 23 -21 5 -39 -20 -20 -36 -14 -34 13 2 13 -1 22 -5 19
-5 -3 -9 -11 -9 -19 0 -7 -6 -16 -12 -18 -8 -4 -4 -8 10 -12 24 -8 28 -20 10
-31 -7 -5 -8 -2 -3 7 5 8 4 11 -1 6 -5 -5 -9 -23 -10 -40 -1 -17 -7 -33 -13
-35 -6 -2 -11 -9 -11 -16 0 -17 -74 -83 -94 -83 -9 0 -16 4 -16 9 0 4 4 8 9 8
5 0 14 13 21 30 7 18 17 27 24 23 6 -4 6 0 -2 9 -10 13 -10 17 3 22 8 3 15 11
15 18 0 8 9 20 19 28 30 21 14 32 -20 14 -16 -8 -34 -26 -40 -40 -5 -14 -18
-28 -29 -31 -11 -3 -17 -9 -14 -14 3 -5 -7 -20 -22 -34 -22 -20 -24 -27 -14
-39 10 -13 8 -15 -9 -11 -15 3 -21 -1 -21 -15 0 -12 -5 -17 -14 -14 -7 3 -16
-2 -19 -10 -4 -9 -1 -16 6 -16 8 0 7 -4 -3 -9 -8 -6 -17 -8 -20 -6 -7 4 -56
-76 -52 -85 2 -5 -3 -6 -35 -9 -7 0 -13 -8 -13 -17 0 -8 -4 -12 -10 -9 -5 3
-7 0 -4 -8 3 -9 -3 -17 -18 -21 -19 -5 -20 -8 -8 -16 10 -6 11 -10 3 -10 -7 0
-13 -5 -13 -11 0 -13 -25 -39 -39 -39 -5 0 -13 -9 -16 -20 -3 -11 -12 -20 -20
-20 -15 0 -28 -27 -19 -41 3 -5 10 -6 16 -3 7 4 8 2 4 -5 -6 -9 -11 -9 -22 0
-8 6 -14 8 -14 4 0 -4 -6 -2 -14 4 -11 9 -15 8 -20 -5 -3 -9 -3 -21 1 -27 3
-7 3 -9 -2 -5 -13 12 -35 -25 -23 -39 16 -19 0 -35 -22 -23 -16 8 -18 8 -14
-5 4 -8 10 -15 15 -15 5 0 9 -5 9 -10 0 -6 -15 -9 -32 -8 -28 3 -34 -1 -36
-20 -2 -12 -12 -27 -23 -32 -10 -6 -19 -19 -19 -30 0 -10 -4 -20 -9 -22 -5 -1
-2 -9 6 -17 12 -11 14 -10 11 4 -2 10 4 19 12 20 8 2 23 6 33 10 11 5 17 3 17
-5 0 -9 6 -8 19 4 16 15 19 15 24 1 4 -9 1 -15 -9 -15 -11 0 -14 -6 -10 -16 3
-8 2 -12 -4 -9 -6 3 -10 -4 -11 -17 0 -22 -1 -22 -9 -3 -7 18 -9 16 -15 -12
-4 -18 -14 -33 -21 -33 -10 0 -13 -8 -10 -26 7 -36 13 -40 21 -13 5 15 9 18
15 9 6 -9 11 -7 19 9 6 11 40 44 74 73 34 28 61 53 60 55 -2 1 0 3 3 2 4 0 11
5 15 13 7 10 9 9 9 -4 0 -10 -4 -18 -9 -18 -5 0 -14 -13 -21 -30 -7 -16 -15
-30 -19 -30 -4 0 -12 -12 -18 -27 -7 -16 -18 -36 -25 -46 -11 -15 -10 -20 5
-32 14 -10 15 -15 5 -22 -7 -4 -21 -8 -32 -8 -27 0 -46 -33 -26 -45 11 -7 11
-10 2 -10 -7 0 -10 -5 -7 -11 8 -12 45 17 45 35 0 6 9 17 20 24 11 7 20 10 20
7 0 -16 -59 -113 -66 -107 -4 4 -5 3 -2 -3 3 -5 0 -16 -8 -23 -9 -8 -14 -9
-14 -2 0 6 -5 8 -11 4 -8 -4 -8 -1 -1 12 13 24 10 75 -3 70 -5 -2 -9 -10 -9
-19 1 -9 -3 -14 -8 -11 -5 3 -21 -5 -35 -17 -13 -13 -28 -23 -31 -21 -4 2 -11
-10 -16 -27 -5 -17 -17 -33 -27 -36 -11 -4 -19 -10 -19 -14 0 -13 -63 -77 -88
-90 -19 -10 -23 -10 -21 1 5 38 -2 42 -26 14 -13 -16 -22 -32 -20 -36 3 -4
-12 -22 -32 -39 -20 -17 -32 -31 -26 -31 5 0 22 14 38 30 16 17 37 30 47 30 9
0 37 13 60 29 38 26 44 28 50 13 5 -14 7 -13 7 5 1 12 7 26 14 30 6 4 17 17
23 28 7 12 19 19 33 17 12 -2 33 6 47 17 15 12 22 21 16 21 -15 0 -22 28 -8
33 7 3 13 0 13 -6 0 -7 4 -19 7 -28 8 -19 -40 -63 -60 -55 -7 3 -15 -3 -17
-12 -3 -11 -5 -8 -6 8 -1 23 -3 23 -12 7 -6 -11 -13 -32 -16 -48 -5 -36 11
-32 62 17 20 19 41 32 46 28 9 -5 -20 -55 -51 -84 -8 -8 -22 -24 -30 -34 -15
-19 -14 -19 19 -2 48 25 82 62 75 81 -4 9 1 24 10 34 10 11 30 43 45 73 15 29
37 57 49 63 12 5 22 12 22 16 0 3 9 16 20 29 11 13 20 29 20 36 0 7 5 14 11
16 17 6 91 141 135 245 10 23 21 40 25 37 4 -2 10 9 14 26 4 16 11 30 16 30 6
0 8 4 5 8 -3 5 4 14 14 22 10 8 16 18 13 23 -3 5 0 7 8 5 8 -3 13 -11 12 -17
-2 -6 2 -11 8 -11 6 0 9 6 6 14 -3 7 2 24 11 37 11 16 12 24 4 27 -15 5 -16
69 0 78 8 5 9 1 5 -12 -7 -18 -7 -18 8 0 8 11 15 25 15 32 0 7 5 16 12 20 7 5
8 2 3 -7 -7 -12 -5 -12 6 -1 12 11 12 14 0 22 -12 7 -8 15 20 41 19 18 33 36
31 42 -3 9 37 49 103 105 16 13 35 20 45 17 11 -4 23 3 34 19 10 16 22 23 31
20 22 -9 18 4 -10 29 -23 21 -23 23 -9 42 16 19 16 19 10 -7 -3 -15 -2 -29 3
-32 5 -3 12 10 15 29 4 19 11 35 15 35 12 0 42 48 44 70 1 11 7 22 14 24 14 6
18 66 4 66 -8 0 -24 -37 -22 -52 0 -3 -6 -12 -14 -18 -8 -7 -15 -21 -15 -31 0
-24 -16 -33 -24 -12 -6 14 -9 12 -21 -11 -8 -16 -15 -35 -15 -42 0 -8 -4 -14
-9 -14 -8 0 -26 -62 -24 -86 0 -6 -6 -11 -14 -11 -9 0 -11 7 -7 20 4 11 -9 2
-31 -22 -21 -22 -41 -41 -46 -41 -10 0 1 33 15 42 5 3 11 16 13 27 1 11 19 38
38 58 19 20 35 41 35 46 0 5 11 23 25 39 23 27 26 56 4 43 -5 -4 -9 1 -9 9 0
10 6 13 16 9 12 -4 14 0 9 20 -4 15 -2 28 6 32 7 5 10 4 6 -3 -5 -6 1 -6 17 1
30 14 56 56 56 90 0 14 6 27 13 30 6 2 -5 9 -25 16 -30 10 -38 18 -38 37 0 34
-16 30 -30 -8z m39 -74 c-10 -12 -14 -12 -20 -2 -12 18 -11 31 0 23 5 -3 13 0
17 7 6 9 9 9 12 0 2 -7 -2 -19 -9 -28z m-283 -433 c-9 -10 -14 -21 -11 -24 3
-4 2 -5 -2 -2 -3 3 -12 -3 -19 -13 -7 -9 -15 -15 -18 -12 -11 11 7 49 25 55
10 4 19 11 19 16 0 6 5 7 11 4 7 -5 5 -13 -5 -24z m-125 -78 c-9 -17 -10 -17
-16 0 -4 9 -1 25 6 34 13 15 14 15 17 0 2 -9 -1 -24 -7 -34z m69 -15 c0 -19
-2 -20 -10 -8 -8 13 -10 13 -10 -1 0 -9 -9 -19 -21 -22 -29 -8 -21 24 11 40
32 16 30 17 30 -9z m-78 -34 c-2 -10 -5 -32 -5 -49 -2 -31 -26 -53 -62 -55
-11 -1 -15 -4 -8 -7 10 -3 10 -9 0 -26 -15 -27 -30 -38 -37 -28 -3 4 -16 4
-30 0 -24 -7 -24 -7 -2 -8 26 -1 32 -38 7 -47 -8 -3 -20 -24 -26 -45 -11 -35
-13 -37 -25 -21 -12 15 -14 14 -12 -13 0 -16 0 -39 -1 -49 -1 -20 -1 -20 -16
0 -8 10 -15 14 -15 7 0 -14 27 -43 41 -43 5 0 9 5 9 10 0 5 3 9 8 8 4 -2 7 1
7 5 0 5 12 15 28 23 27 15 33 25 20 38 -11 10 -12 65 -2 71 5 4 9 -1 9 -9 0
-10 6 -13 15 -10 9 4 15 0 15 -10 0 -9 -7 -16 -15 -16 -18 0 -19 -14 -4 -39
10 -14 8 -26 -9 -57 -26 -50 -36 -76 -33 -89 2 -5 0 -7 -4 -4 -3 4 -30 -19
-60 -49 -30 -31 -58 -53 -61 -49 -9 9 28 87 38 81 4 -3 5 2 2 10 -3 9 -2 16 3
16 8 0 33 42 33 55 0 2 -9 9 -21 15 -17 9 -23 8 -35 -7 -13 -17 -13 -17 -14 5
0 29 -18 20 -31 -16 -9 -24 -12 -25 -20 -10 -5 10 -16 15 -24 12 -20 -8 -19 1
1 21 14 13 19 14 26 3 7 -9 8 -6 5 10 -3 12 -2 20 1 19 8 -4 42 29 42 41 0 4
6 15 14 24 8 9 20 26 26 38 6 11 16 20 23 18 14 -3 57 23 57 35 0 4 -10 3 -22
-4 -18 -10 -20 -9 -15 6 4 9 7 21 7 26 0 5 6 9 14 9 7 0 22 16 32 36 11 20 23
44 29 55 5 10 19 19 30 21 11 2 27 17 35 35 16 34 37 39 32 7z m-67 -14 c8
-13 -5 -13 -25 0 -13 8 -13 10 2 10 9 0 20 -4 23 -10z m122 -16 c3 -8 1 -20
-6 -27 -8 -8 -11 -6 -11 9 0 15 -2 16 -9 4 -6 -8 -7 -18 -5 -22 6 -9 -10 -11
-19 -2 -7 8 22 54 34 54 6 0 12 -7 16 -16z m-27 -63 c0 -12 -20 -25 -27 -18
-7 7 6 27 18 27 5 0 9 -4 9 -9z m-62 -47 c1 -15 -3 -24 -9 -22 -6 2 -10 7 -10
11 1 4 1 14 1 22 0 26 16 16 18 -11z m28 -11 c0 -10 -15 -32 -33 -50 -19 -19
-27 -34 -20 -37 8 -3 8 -5 -1 -5 -7 -1 -16 9 -21 22 -10 27 -4 37 10 17 8 -12
10 -10 6 8 -3 12 -1 22 4 22 5 0 9 -5 9 -11 0 -14 24 11 33 34 8 22 15 22 13
0z m-226 -33 c0 -5 -5 -10 -11 -10 -5 0 -7 5 -4 10 3 6 8 10 11 10 2 0 4 -4 4
-10z m-42 -74 c-6 -6 -18 -18 -25 -26 -8 -9 -12 -11 -13 -3 0 6 7 19 16 27 8
9 12 21 8 28 -5 9 -2 8 10 -1 13 -11 14 -16 4 -25z m-99 -100 c9 -11 9 -16 0
-22 -8 -4 -9 -3 -5 4 4 7 1 12 -8 12 -9 0 -16 5 -16 10 0 14 16 12 29 -4z
m-19 -33 c0 -14 -19 -38 -25 -32 -8 8 5 39 16 39 5 0 9 -3 9 -7z m110 -53 c0
-5 -4 -10 -10 -10 -5 0 -10 5 -10 10 0 6 5 10 10 10 6 0 10 -4 10 -10z m110
-91 c0 -11 -4 -18 -8 -15 -5 3 -15 -7 -23 -21 -8 -15 -24 -37 -35 -50 -30 -32
-41 -4 -13 31 11 14 18 26 15 26 -11 0 39 48 52 49 6 1 12 -8 12 -20z m-100
-49 c0 -5 -5 -10 -11 -10 -5 0 -7 5 -4 10 3 6 8 10 11 10 2 0 4 -4 4 -10z
m-92 -236 c-7 -15 -14 -21 -16 -15 -2 7 2 18 8 26 18 22 21 18 8 -11z"/>
<path d="M3010 3559 c0 -5 5 -7 10 -4 6 3 10 8 10 11 0 2 -4 4 -10 4 -5 0 -10
-5 -10 -11z"/>
<path d="M2954 4295 c-10 -8 -14 -14 -9 -14 6 0 19 6 29 14 11 8 15 15 10 15
-6 0 -19 -7 -30 -15z"/>
<path d="M3316 4295 c7 -18 20 -19 30 -3 4 7 3 8 -4 4 -7 -4 -12 -2 -12 3 0 6
-4 11 -10 11 -5 0 -7 -7 -4 -15z"/>
<path d="M3276 4268 c3 -5 10 -6 15 -3 13 9 11 12 -6 12 -8 0 -12 -4 -9 -9z"/>
<path d="M3325 4270 c-11 -5 -15 -9 -9 -9 12 -1 15 -31 2 -31 -4 0 -8 -5 -8
-11 0 -8 5 -7 15 1 9 7 13 15 10 18 -3 3 2 14 12 24 17 19 10 22 -22 8z"/>
<path d="M2580 4249 c0 -5 5 -7 10 -4 6 3 10 8 10 11 0 2 -4 4 -10 4 -5 0 -10
-5 -10 -11z"/>
<path d="M3246 4234 c4 -17 -16 -33 -35 -27 -14 4 -14 3 -1 -6 8 -6 10 -11 4
-11 -5 0 -18 -6 -28 -13 -17 -12 -17 -14 -3 -20 9 -3 16 -3 14 1 -1 5 15 23
36 41 20 18 37 38 37 45 0 7 -4 6 -9 -3 -5 -7 -11 -9 -13 -5 -3 5 -4 4 -2 -2z"/>
<path d="M4229 4243 c-2 -27 -9 -47 -17 -52 -17 -11 -88 -175 -107 -244 -9
-37 -21 -70 -26 -72 -4 -3 -6 -12 -3 -20 4 -8 10 -12 15 -9 13 7 12 3 -11 -41
-11 -22 -20 -32 -20 -24 0 9 -7 16 -15 16 -8 0 -15 -6 -15 -14 0 -7 -4 -13
-10 -13 -5 0 -10 -6 -10 -14 0 -7 -7 -19 -15 -26 -9 -7 -13 -20 -10 -28 3 -7
-10 -32 -27 -55 -18 -23 -27 -38 -20 -34 7 5 12 3 12 -7 0 -8 -8 -13 -17 -12
-26 4 -54 -35 -40 -53 10 -12 9 -14 -5 -8 -15 5 -28 -12 -33 -43 0 -3 -15 -20
-32 -39 -18 -19 -31 -39 -30 -45 1 -6 -4 -10 -11 -8 -8 1 -11 -2 -7 -8 3 -6
11 -8 16 -5 5 4 9 -1 9 -9 0 -9 -8 -16 -17 -17 -10 0 -32 -23 -50 -51 -33 -50
-42 -75 -24 -63 5 3 13 1 16 -5 4 -6 1 -9 -7 -8 -8 2 -14 -9 -16 -27 -2 -16
-9 -36 -14 -43 -8 -9 -8 -16 0 -24 8 -8 14 -4 23 15 7 15 19 27 26 27 8 0 11
5 8 10 -3 6 -1 10 5 10 6 0 21 9 32 20 14 13 24 16 29 9 6 -11 24 18 21 33 -1
5 4 7 11 5 6 -1 11 4 10 11 -2 6 4 12 12 12 12 0 13 -4 5 -19 -5 -11 -10 -23
-10 -28 1 -4 7 3 14 17 8 14 12 28 9 33 -7 11 17 38 28 31 5 -3 9 1 9 8 0 8
18 33 40 57 22 23 40 48 40 54 0 7 4 6 10 -3 8 -12 10 -9 10 12 0 15 5 30 12
34 7 5 8 3 3 -7 -7 -12 -6 -12 7 -1 9 7 15 22 13 33 -2 11 0 17 4 14 5 -3 12
2 15 11 3 8 2 12 -4 9 -17 -10 -11 6 20 62 17 29 30 61 30 71 0 30 25 55 56
57 16 1 28 7 26 13 -1 7 4 12 12 12 11 0 37 51 41 80 0 3 4 11 8 18 8 12 2 16
-17 13 -5 -1 -4 5 3 13 7 9 18 13 25 9 6 -3 8 -3 4 2 -4 4 -3 14 3 21 6 8 9
21 5 29 -3 8 -2 15 3 15 5 0 11 14 13 30 3 17 1 30 -4 30 -4 0 -8 5 -8 10 0 6
7 10 15 10 11 0 14 11 10 53 -4 60 -13 87 -27 87 -6 0 -6 -6 1 -14 18 -21 1
-136 -20 -136 -5 0 -6 -7 -3 -15 5 -11 2 -13 -10 -9 -9 3 -16 1 -16 -5 0 -6 6
-10 13 -8 16 3 10 -38 -14 -85 -10 -20 -19 -44 -19 -53 0 -8 -5 -15 -11 -15
-6 0 -8 -9 -4 -20 4 -11 2 -20 -4 -20 -6 0 -11 -7 -11 -15 0 -8 -7 -15 -16
-15 -8 0 -13 -4 -10 -8 3 -5 -1 -9 -9 -9 -19 0 -19 12 -1 30 11 11 12 17 3 27
-9 10 -9 11 0 6 12 -7 39 31 29 41 -3 4 0 13 6 21 13 15 14 18 16 59 2 16 7
21 20 17 16 -5 16 -5 -1 6 -9 6 -21 9 -26 6 -5 -4 -7 3 -4 15 4 16 8 17 14 7
7 -10 9 -8 10 7 1 11 1 26 0 33 -1 6 2 12 8 12 10 0 9 14 -3 42 -4 9 -4 22 0
29 4 7 2 10 -7 7 -8 -3 -13 -15 -11 -26 2 -12 -2 -22 -8 -22 -7 0 -9 -7 -6
-16 3 -8 2 -12 -3 -9 -5 3 -11 -3 -14 -12 -4 -17 -5 -16 -12 1 -6 13 -4 21 3
24 7 2 12 12 12 23 0 21 36 99 46 99 3 0 2 -5 -2 -12 -5 -7 -3 -8 5 -4 7 5 10
11 7 14 -4 3 0 15 8 26 11 18 11 23 0 34 -8 7 -14 9 -15 5z m-79 -238 c0 -8
-4 -15 -10 -15 -5 0 -7 7 -4 15 4 8 8 15 10 15 2 0 4 -7 4 -15z m4 -46 c-3 -5
-10 -7 -15 -4 -5 4 -9 0 -9 -9 0 -8 6 -17 13 -19 9 -4 9 -6 -1 -6 -18 -1 -26
27 -12 44 13 16 35 10 24 -6z m39 -34 c-7 -21 -13 -19 -13 6 0 11 4 18 10 14
5 -3 7 -12 3 -20z m-76 -37 c-3 -8 -6 -5 -6 6 -1 11 2 17 5 13 3 -3 4 -12 1
-19z m-68 -155 c-6 -11 -20 -25 -30 -31 -16 -10 -15 -7 4 28 12 24 25 36 30
31 5 -5 4 -17 -4 -28z m16 -39 c-12 -12 -13 -19 -4 -30 9 -10 2 -31 -31 -91
-24 -43 -46 -80 -50 -83 -3 -3 -14 -16 -23 -29 -9 -14 -51 -63 -94 -109 -43
-46 -76 -89 -75 -96 2 -6 1 -8 -3 -4 -4 4 -14 0 -23 -8 -12 -13 -16 -13 -23
-2 -9 14 10 49 50 89 14 14 42 46 61 72 19 25 40 44 47 42 7 -2 10 2 6 11 -3
7 -1 14 5 14 6 0 21 17 33 38 13 20 27 39 31 40 5 2 6 7 3 12 -3 5 1 15 9 23
9 8 27 37 42 63 42 75 49 85 52 74 2 -5 -4 -17 -13 -26z m-65 -48 c0 -7 -9
-16 -21 -19 -20 -5 -20 -5 -3 14 20 23 24 23 24 5z"/>
<path d="M3594 4229 c-3 -5 0 -9 7 -9 11 0 9 -27 -6 -64 -6 -14 -5 -18 6 -14
8 3 14 9 15 14 0 5 3 16 6 24 16 42 16 48 -3 53 -10 3 -22 1 -25 -4z"/>
<path d="M3147 4205 c-10 -14 -14 -25 -10 -25 4 0 16 12 26 25 10 14 14 25 10
25 -4 0 -16 -12 -26 -25z"/>
<path d="M4312 4207 c-7 -8 -7 -18 -2 -27 10 -16 10 -16 14 18 3 26 2 26 -12
9z"/>
<path d="M1920 4185 c-14 -8 -20 -14 -14 -15 5 0 19 7 30 15 24 18 16 19 -16
0z"/>
<path d="M2675 4190 c3 -5 8 -10 11 -10 2 0 4 5 4 10 0 6 -5 10 -11 10 -5 0
-7 -4 -4 -10z"/>
<path d="M2852 4188 c-23 -12 -25 -30 -4 -34 7 -1 8 0 2 3 -5 2 -7 9 -4 14 3
6 12 5 22 -3 13 -11 15 -11 9 4 -3 9 -1 19 6 22 7 2 8 4 2 5 -5 0 -20 -5 -33
-11z"/>
<path d="M3280 4180 c0 -5 5 -10 11 -10 5 0 7 5 4 10 -3 6 -8 10 -11 10 -2 0
-4 -4 -4 -10z"/>
<path d="M2200 4167 c0 -8 6 -14 14 -14 8 0 12 6 9 14 -3 7 -9 13 -14 13 -5 0
-9 -6 -9 -13z"/>
<path d="M3096 4155 c-3 -8 -1 -15 4 -15 6 0 10 7 10 15 0 8 -2 15 -4 15 -2 0
-6 -7 -10 -15z"/>
<path d="M3000 4148 c0 -10 -4 -18 -10 -18 -5 0 -10 -4 -10 -10 0 -13 27 -13
35 0 3 5 1 18 -4 27 -10 17 -10 17 -11 1z"/>
<path d="M2815 4139 c-4 -6 -5 -12 -2 -15 2 -3 7 2 10 11 7 17 1 20 -8 4z"/>
<path d="M3160 4139 c0 -5 5 -7 10 -4 6 3 10 8 10 11 0 2 -4 4 -10 4 -5 0 -10
-5 -10 -11z"/>
<path d="M3070 4110 c-6 -11 -7 -20 -2 -20 6 0 12 9 15 20 3 11 3 20 1 20 -2
0 -8 -9 -14 -20z"/>
<path d="M3222 4121 c-8 -4 -14 -12 -15 -17 -1 -5 -6 -8 -10 -6 -5 1 -6 -2 -2
-8 8 -14 8 -14 33 15 22 25 19 32 -6 16z"/>
<path d="M3115 4100 c3 -5 8 -10 11 -10 2 0 4 5 4 10 0 6 -5 10 -11 10 -5 0
-7 -4 -4 -10z"/>
<path d="M3510 4090 c-11 -21 -5 -44 9 -35 8 4 12 55 5 55 -2 0 -8 -9 -14 -20z"/>
<path d="M3080 4080 c-13 -9 -13 -10 0 -10 13 0 13 -1 0 -10 -20 -13 -43 -13
-35 0 3 6 2 10 -3 10 -6 0 -13 -7 -16 -16 -3 -8 -2 -13 3 -9 5 3 11 1 13 -5 4
-12 52 11 49 24 -2 5 3 13 11 17 7 5 9 9 3 9 -5 0 -17 -5 -25 -10z"/>
<path d="M2810 4061 c-6 -12 -7 -21 -3 -21 4 0 0 -5 -9 -11 -10 -5 -22 -19
-28 -29 -8 -16 -8 -18 5 -14 8 4 15 12 15 20 0 8 7 14 16 14 10 0 14 6 11 14
-3 7 0 19 6 25 6 6 8 13 5 17 -4 3 -11 -4 -18 -15z"/>
<path d="M3141 4040 c-23 -22 -39 -40 -34 -40 4 0 1 -5 -7 -10 -13 -9 -13 -10
0 -10 8 1 30 21 49 45 18 25 38 42 44 38 6 -3 7 -1 3 5 -9 16 -6 18 -55 -28z"/>
<path d="M3772 4061 c2 -19 -4 -24 -12 -11 -8 13 -10 13 -10 -2 0 -9 -6 -18
-12 -20 -7 -3 -2 -7 10 -10 13 -4 22 -2 22 5 0 6 7 18 15 27 13 14 13 17 1 17
-8 0 -15 -3 -14 -6z"/>
<path d="M3340 4041 c0 -6 4 -13 10 -16 6 -3 7 1 4 9 -7 18 -14 21 -14 7z"/>
<path d="M2170 4017 c-14 -23 -21 -57 -11 -57 3 0 14 14 24 32 20 36 9 59 -13
25z"/>
<path d="M2615 4030 c-3 -5 -1 -10 4 -10 6 0 11 5 11 10 0 6 -2 10 -4 10 -3 0
-8 -4 -11 -10z"/>
<path d="M2584 3989 c-5 -8 -19 -22 -32 -31 -22 -15 -22 -16 -2 -21 11 -3 20
-1 20 4 0 5 5 9 11 9 5 0 7 -6 3 -12 -4 -7 0 -6 9 2 8 8 18 26 22 40 4 17 3
21 -3 11 -8 -11 -10 -11 -14 0 -4 11 -6 10 -14 -2z"/>
<path d="M3751 3984 c0 -11 3 -14 6 -6 3 7 2 16 -1 19 -3 4 -6 -2 -5 -13z"/>
<path d="M3717 3983 c-4 -6 -3 -14 3 -18 5 -3 10 -11 10 -17 0 -7 -5 -7 -14 1
-11 9 -15 8 -20 -5 -9 -24 -7 -31 8 -37 10 -4 12 0 8 15 -3 13 -1 19 5 15 6
-4 16 0 23 8 8 9 8 15 2 15 -6 0 -12 8 -14 18 -2 12 -6 13 -11 5z"/>
<path d="M3810 3968 c-10 -21 -10 -21 3 -6 8 10 18 14 22 10 5 -4 5 -1 1 6
-10 17 -14 15 -26 -10z"/>
<path d="M3055 3970 c-4 -6 -11 -8 -16 -5 -5 4 -6 -2 -2 -11 4 -11 8 -13 11
-6 2 7 10 12 18 12 8 0 14 5 14 10 0 13 -17 13 -25 0z"/>
<path d="M2469 3913 c-8 -9 -9 -14 -4 -11 15 9 43 -10 30 -19 -14 -11 -18 -50
-5 -58 7 -4 16 6 23 24 6 17 17 31 24 31 6 0 11 9 10 19 -1 19 -16 24 -28 8
-8 -11 -40 3 -33 14 9 15 -3 10 -17 -8z"/>
<path d="M2680 3890 c0 -14 -4 -19 -12 -14 -7 4 -10 3 -5 -1 4 -5 0 -16 -8
-25 -13 -15 -13 -17 1 -17 9 0 19 9 22 19 2 10 8 18 13 18 12 0 11 27 -1 35
-5 3 -10 -3 -10 -15z"/>
<path d="M3610 3869 c0 -5 5 -7 10 -4 6 3 10 8 10 11 0 2 -4 4 -10 4 -5 0 -10
-5 -10 -11z"/>
<path d="M1961 3854 c0 -11 3 -14 6 -6 3 7 2 16 -1 19 -3 4 -6 -2 -5 -13z"/>
<path d="M3664 3862 c-6 -4 -10 -19 -10 -35 0 -23 2 -25 14 -13 16 16 13 59
-4 48z"/>
<path d="M4057 3830 c3 -11 9 -17 15 -14 5 3 4 12 -3 20 -16 19 -18 18 -12 -6z"/>
<path d="M2601 3796 c-9 -11 -9 -16 0 -22 7 -4 9 -3 5 4 -3 5 0 12 6 15 7 2
10 7 7 11 -3 4 -12 0 -18 -8z"/>
<path d="M2519 3783 c-13 -15 -12 -15 9 -4 23 12 28 21 13 21 -5 0 -15 -7 -22
-17z"/>
<path d="M2945 3791 c-3 -5 -2 -12 3 -15 5 -3 9 1 9 9 0 17 -3 19 -12 6z"/>
<path d="M3607 3760 c-4 -14 -10 -19 -18 -14 -7 4 -10 3 -6 -3 4 -6 1 -15 -6
-21 -13 -11 -15 -68 -2 -80 5 -4 5 -1 1 6 -5 7 -1 12 11 13 10 0 13 3 6 6 -18
7 -16 48 2 63 8 7 15 9 15 4 0 -5 5 -1 11 9 7 12 8 22 1 29 -6 6 -11 2 -15
-12z"/>
<path d="M2475 3749 c-4 -6 -5 -12 -2 -15 2 -3 7 2 10 11 7 17 1 20 -8 4z"/>
<path d="M3800 3746 c0 -2 8 -10 18 -17 15 -13 16 -12 3 4 -13 16 -21 21 -21
13z"/>
<path d="M2425 3730 c-3 -5 -2 -10 4 -10 5 0 13 5 16 10 3 6 2 10 -4 10 -5 0
-13 -4 -16 -10z"/>
<path d="M2054 3705 c-10 -8 -14 -14 -9 -15 15 0 40 18 34 24 -3 3 -14 -1 -25
-9z"/>
<path d="M3522 3641 c-29 -40 -28 -46 4 -15 14 14 24 30 22 36 -2 5 -13 -4
-26 -21z"/>
<path d="M2015 3641 c-3 -5 -1 -12 4 -15 5 -3 11 1 15 9 6 16 -9 21 -19 6z"/>
<path d="M3274 3616 c-9 -19 -8 -25 6 -34 12 -7 17 -7 17 4 0 7 -4 11 -9 8 -5
-3 -6 6 -2 20 8 32 2 33 -12 2z"/>
<path d="M1986 3605 c-9 -9 -16 -13 -16 -9 0 3 -7 1 -15 -6 -8 -7 -15 -17 -15
-23 0 -6 7 -2 15 9 11 14 14 15 15 4 0 -11 6 -9 22 8 12 12 19 24 16 27 -3 3
-13 -1 -22 -10z"/>
<path d="M2400 3600 c-9 -6 -10 -10 -3 -10 6 0 15 5 18 10 8 12 4 12 -15 0z"/>
<path d="M3501 3568 c0 -10 -6 -17 -12 -15 -18 3 -21 -20 -4 -27 9 -3 14 -2
10 3 -3 5 0 11 6 13 6 2 9 13 6 23 -4 17 -5 17 -6 3z"/>
<path d="M2329 3543 c-13 -16 -12 -17 4 -4 16 13 21 21 13 21 -2 0 -10 -8 -17
-17z"/>
<path d="M3215 3547 c-24 -14 -31 -37 -12 -37 8 0 19 11 25 25 6 14 11 25 9
25 -1 -1 -11 -6 -22 -13z"/>
<path d="M2279 3513 c-13 -16 -12 -17 4 -4 16 13 21 21 13 21 -2 0 -10 -8 -17
-17z"/>
<path d="M3266 3522 c-3 -5 1 -9 9 -9 8 0 15 4 15 9 0 4 -4 8 -9 8 -6 0 -12
-4 -15 -8z"/>
<path d="M3360 3521 c0 -5 7 -12 16 -15 22 -9 24 -8 24 9 0 8 -9 15 -20 15
-11 0 -20 -4 -20 -9z"/>
<path d="M3450 3508 c0 -4 4 -8 9 -8 6 0 12 4 15 8 3 5 -1 9 -9 9 -8 0 -15 -4
-15 -9z"/>
<path d="M3347 3494 c-9 -9 4 -35 14 -28 5 3 9 12 9 20 0 14 -12 19 -23 8z"/>
<path d="M3447 3469 c4 -15 8 -17 14 -8 8 14 3 29 -11 29 -4 0 -6 -9 -3 -21z"/>
<path d="M3410 3358 c-12 -22 -12 -22 6 -6 10 10 15 20 12 24 -4 3 -12 -5 -18
-18z"/>
<path d="M3976 3364 c-5 -14 -4 -15 9 -4 17 14 19 20 6 20 -5 0 -12 -7 -15
-16z"/>
<path d="M3359 3333 c-13 -17 -13 -17 6 -3 11 8 22 16 24 17 2 2 0 3 -6 3 -6
0 -17 -8 -24 -17z"/>
<path d="M3358 3313 c-18 -5 -34 -34 -15 -30 13 2 41 27 36 31 -2 1 -11 1 -21
-1z"/>
<path d="M3063 3274 c-15 -16 -16 -24 -4 -24 8 0 24 30 19 35 -2 2 -9 -3 -15
-11z"/>
<path d="M3316 3262 c-3 -5 1 -9 9 -9 8 0 12 4 9 9 -3 4 -7 8 -9 8 -2 0 -6 -4
-9 -8z"/>
<path d="M3949 3251 c8 -5 10 -14 6 -22 -6 -11 -5 -11 5 -2 14 12 6 33 -13 33
-8 0 -7 -3 2 -9z"/>
<path d="M3880 3232 c0 -6 -7 -9 -15 -6 -8 4 -15 1 -15 -6 0 -6 5 -8 10 -5 6
3 10 0 10 -7 0 -8 5 -6 11 5 6 10 8 21 5 24 -3 4 -6 1 -6 -5z"/>
<path d="M3913 3223 c4 -3 -1 -11 -10 -18 -9 -7 -12 -14 -7 -18 13 -8 47 20
39 32 -3 6 -11 11 -17 11 -6 0 -8 -3 -5 -7z"/>
<path d="M2620 3199 c-13 -8 -13 -10 0 -19 27 -18 39 -9 22 17 -5 8 -12 9 -22
2z"/>
<path d="M3780 3203 c0 -5 -16 -25 -35 -46 -40 -43 -48 -69 -10 -31 14 14 25
28 25 31 0 4 10 17 22 30 12 13 16 23 10 23 -7 0 -12 -3 -12 -7z"/>
<path d="M3843 3185 c0 -8 4 -12 9 -9 5 3 6 10 3 15 -9 13 -12 11 -12 -6z"/>
<path d="M2585 3164 c-8 -9 -15 -21 -15 -27 0 -7 -5 -6 -11 3 -8 12 -10 9 -6
-13 3 -18 0 -30 -9 -34 -21 -8 -7 -22 17 -16 12 4 18 11 15 20 -3 8 -2 12 3 9
5 -3 12 1 15 10 3 8 10 12 16 9 7 -4 7 -13 0 -26 -6 -11 -7 -19 -2 -19 15 0
21 37 8 50 -8 9 -8 14 2 17 16 6 15 20 -3 27 -8 3 -21 -2 -30 -10z"/>
<path d="M3670 3165 c-7 -9 -11 -17 -9 -20 3 -2 10 5 17 15 14 24 10 26 -8 5z"/>
<path d="M3880 3170 c-8 -5 -6 -9 5 -14 18 -6 35 0 35 13 0 10 -25 10 -40 1z"/>
<path d="M2640 3144 c0 -8 5 -12 10 -9 6 3 10 10 10 16 0 5 -4 9 -10 9 -5 0
-10 -7 -10 -16z"/>
<path d="M3866 3138 c3 -4 0 -8 -5 -8 -6 0 -11 -9 -11 -21 0 -12 -8 -23 -20
-26 -23 -6 -27 -23 -6 -23 27 0 45 12 39 26 -3 8 0 14 7 14 6 0 8 5 5 10 -3 6
1 10 9 10 8 0 18 5 22 12 4 7 3 8 -4 4 -7 -4 -12 -3 -12 2 0 5 -7 9 -15 9 -8
0 -12 -4 -9 -9z"/>
<path d="M3286 3123 c-6 -14 -5 -15 5 -6 7 7 10 15 7 18 -3 3 -9 -2 -12 -12z"/>
<path d="M3081 3114 c0 -11 3 -14 6 -6 3 7 2 16 -1 19 -3 4 -6 -2 -5 -13z"/>
<path d="M3640 3120 c0 -5 5 -10 11 -10 5 0 7 5 4 10 -3 6 -8 10 -11 10 -2 0
-4 -4 -4 -10z"/>
<path d="M2490 3085 c0 -7 -6 -18 -13 -22 -8 -4 -22 -23 -32 -40 -11 -18 -23
-33 -28 -33 -4 0 -6 -4 -2 -10 3 -5 12 -7 20 -4 8 4 12 10 9 15 -3 6 0 17 7
25 10 12 14 12 20 2 6 -9 9 -8 9 6 0 14 3 16 14 7 10 -9 16 -8 25 3 10 11 8
16 -8 21 -13 4 -18 12 -14 21 5 13 7 13 14 2 7 -10 9 -9 9 5 0 9 -7 17 -15 17
-8 0 -15 -7 -15 -15z"/>
<path d="M3624 3077 c-8 -34 1 -46 14 -20 6 11 7 25 2 33 -6 10 -10 7 -16 -13z"/>
<path d="M2656 3065 c4 -8 10 -12 15 -9 11 6 2 24 -11 24 -5 0 -7 -7 -4 -15z"/>
<path d="M2684 3049 c-3 -6 -15 -9 -25 -6 -11 3 -19 1 -19 -4 0 -15 47 -10 54
6 6 17 0 20 -10 4z"/>
<path d="M2795 3050 c4 -6 11 -8 16 -5 14 9 11 15 -7 15 -8 0 -12 -5 -9 -10z"/>
<path d="M3050 3052 c0 -5 7 -13 16 -16 10 -4 14 -1 12 6 -5 15 -28 23 -28 10z"/>
<path d="M2555 3040 c-3 -5 -2 -10 4 -10 5 0 13 5 16 10 3 6 2 10 -4 10 -5 0
-13 -4 -16 -10z"/>
<path d="M3743 3035 c-3 -9 -3 -18 -1 -21 3 -3 8 4 11 16 6 23 -1 27 -10 5z"/>
<path d="M3814 3029 c0 -13 3 -15 13 -7 7 6 13 12 13 13 0 2 -6 5 -13 8 -7 3
-13 -3 -13 -14z"/>
<path d="M2715 3029 c-4 -6 -5 -12 -2 -15 2 -3 7 2 10 11 7 17 1 20 -8 4z"/>
<path d="M3580 3025 c-7 -9 -10 -18 -6 -22 3 -3 6 -1 6 6 0 7 4 10 8 7 5 -3 9
1 9 9 0 19 -2 19 -17 0z"/>
<path d="M3773 3010 c-3 -11 -9 -20 -14 -20 -5 0 -9 -7 -9 -15 0 -8 -5 -15
-11 -15 -12 0 -81 -51 -112 -82 -24 -24 -18 -23 37 8 25 14 46 32 46 39 0 7
11 16 25 19 21 5 51 49 45 65 -1 2 4 8 12 12 11 7 11 9 0 9 -8 0 -16 -9 -19
-20z"/>
<path d="M2612 3000 c-12 -12 -22 -26 -22 -32 0 -7 -5 -6 -15 2 -8 7 -15 8
-15 2 0 -11 -63 -82 -74 -82 -4 0 2 12 13 26 25 32 27 51 6 51 -9 0 -14 -6
-11 -14 3 -7 1 -13 -4 -13 -6 0 -10 7 -10 15 0 20 -17 19 -28 -1 -8 -15 -12
-15 -37 2 -28 19 -29 19 -23 -4 6 -20 -1 -27 -24 -23 -12 2 -9 -37 3 -45 7 -4
0 -18 -18 -38 -55 -60 -68 -77 -52 -71 8 3 30 24 49 47 19 23 52 57 73 76 20
19 37 42 38 51 0 14 1 14 6 1 3 -8 10 -18 16 -21 5 -4 -9 -26 -31 -50 -23 -23
-39 -46 -36 -51 3 -4 1 -8 -3 -8 -5 0 -9 -9 -9 -19 0 -11 4 -17 8 -15 4 3 8
12 8 19 0 8 16 25 35 38 19 13 32 27 28 30 -3 4 1 7 10 7 10 0 17 5 17 10 0 6
10 10 23 9 12 0 17 -3 10 -5 -6 -3 -9 -16 -7 -31 4 -23 3 -25 -11 -13 -9 7
-15 9 -14 4 4 -16 -13 -44 -23 -38 -5 3 -4 -3 4 -15 12 -20 14 -20 26 -4 7 10
22 29 33 41 11 13 21 32 22 42 0 10 6 16 13 13 6 -2 14 7 16 21 4 18 1 26 -9
26 -8 0 -11 -4 -8 -10 3 -5 -2 -10 -11 -10 -14 0 -11 6 12 29 15 16 34 26 41
24 7 -3 13 0 13 6 0 6 -5 11 -11 11 -8 0 -8 5 1 15 18 22 7 18 -18 -5z"/>
<path d="M2540 3000 c-8 -5 -12 -12 -9 -15 4 -3 12 1 19 10 14 17 11 19 -10 5z"/>
<path d="M2460 2996 c0 -2 9 -6 20 -9 11 -3 18 -1 14 4 -5 9 -34 13 -34 5z"/>
<path d="M3558 2983 c-10 -2 -18 -8 -18 -13 0 -4 9 -6 20 -3 11 3 20 9 20 14
0 5 -1 8 -2 8 -2 -1 -11 -3 -20 -6z"/>
<path d="M3682 2965 c-16 -19 -3 -19 22 0 14 11 16 15 5 15 -8 -1 -20 -7 -27
-15z"/>
<path d="M3165 2960 c3 -5 10 -10 16 -10 5 0 9 5 9 10 0 6 -7 10 -16 10 -8 0
-12 -4 -9 -10z"/>
<path d="M3615 2960 c4 -6 11 -8 16 -5 14 9 11 15 -7 15 -8 0 -12 -5 -9 -10z"/>
<path d="M3134 2923 c-3 -10 -10 -26 -15 -36 -8 -15 -7 -18 8 -15 12 2 18 14
20 36 3 35 -4 43 -13 15z"/>
<path d="M3565 2929 c-11 -17 1 -21 15 -4 8 9 8 15 2 15 -6 0 -14 -5 -17 -11z"/>
<path d="M3626 2929 c4 -7 44 0 44 7 0 2 -11 3 -24 2 -14 -1 -23 -5 -20 -9z"/>
<path d="M3503 2916 c3 -7 0 -19 -6 -25 -8 -8 -8 -11 0 -11 6 0 14 6 16 13 3
6 6 2 6 -11 1 -15 -3 -21 -11 -16 -7 5 -8 3 -4 -5 5 -7 14 -10 21 -7 17 6 27
-18 13 -32 -6 -6 -6 -12 1 -16 6 -4 11 -2 11 3 0 6 7 11 15 11 9 0 18 7 21 15
4 8 10 12 15 9 5 -3 6 2 2 11 -3 9 -9 13 -12 8 -3 -5 -13 -12 -22 -15 -19 -7
-44 36 -33 54 4 7 2 8 -4 4 -7 -4 -12 -1 -12 8 0 9 -5 16 -11 16 -6 0 -9 -6
-6 -14z"/>
<path d="M3605 2900 c3 -5 8 -10 11 -10 2 0 4 5 4 10 0 6 -5 10 -11 10 -5 0
-7 -4 -4 -10z"/>
<path d="M3570 2889 c0 -5 5 -7 10 -4 6 3 10 8 10 11 0 2 -4 4 -10 4 -5 0 -10
-5 -10 -11z"/>
<path d="M2836 2864 c-15 -14 -26 -27 -23 -30 5 -5 57 42 57 51 0 8 -4 6 -34
-21z"/>
<path d="M3087 2863 c-4 -3 -7 -11 -7 -17 0 -6 5 -5 12 2 6 6 9 14 7 17 -3 3
-9 2 -12 -2z"/>
<path d="M3461 2839 c-7 -12 -10 -24 -7 -27 3 -3 6 0 6 6 0 6 7 9 15 6 16 -7
19 4 7 23 -6 9 -11 6 -21 -8z"/>
<path d="M2845 2820 c-3 -5 -1 -10 4 -10 6 0 11 5 11 10 0 6 -2 10 -4 10 -3 0
-8 -4 -11 -10z"/>
<path d="M2756 2795 c-3 -8 -1 -15 4 -15 13 0 22 18 11 24 -5 3 -11 -1 -15 -9z"/>
<path d="M3473 2777 c-18 -12 -33 -26 -33 -30 0 -10 57 23 72 41 16 18 -3 13
-39 -11z"/>
<path d="M3374 2714 c-18 -14 -18 -15 4 -4 12 6 22 13 22 15 0 8 -5 6 -26 -11z"/>
<path d="M2540 2689 c0 -5 5 -7 10 -4 6 3 10 8 10 11 0 2 -4 4 -10 4 -5 0 -10
-5 -10 -11z"/>
<path d="M2450 2686 c0 -2 7 -7 16 -10 8 -3 12 -2 9 4 -6 10 -25 14 -25 6z"/>
<path d="M2647 2413 c-4 -3 -7 -11 -7 -17 0 -6 5 -5 12 2 6 6 9 14 7 17 -3 3
-9 2 -12 -2z"/>
<path d="M2102 4995 c0 -16 2 -22 5 -12 2 9 2 23 0 30 -3 6 -5 -1 -5 -18z"/>
<path d="M2157 4963 c-11 -11 -8 -20 7 -20 8 0 12 6 9 14 -6 15 -7 15 -16 6z"/>
<path d="M2096 4951 c-4 -5 -2 -13 4 -16 6 -4 8 -15 5 -26 -4 -11 -2 -19 4
-19 13 0 15 57 2 65 -5 3 -12 1 -15 -4z"/>
<path d="M2062 4930 c0 -14 2 -19 5 -12 2 6 2 18 0 25 -3 6 -5 1 -5 -13z"/>
<path d="M2170 4930 c-7 -18 -5 -49 3 -41 5 5 7 17 4 27 -3 11 -6 17 -7 14z"/>
<path d="M2080 4910 c0 -5 -7 -10 -15 -10 -8 0 -15 -5 -15 -10 0 -7 6 -7 20 0
18 10 28 30 15 30 -3 0 -5 -4 -5 -10z"/>
<path d="M2102 4836 c3 -14 1 -29 -3 -32 -5 -3 -9 -10 -9 -16 0 -5 9 0 19 13
11 13 15 26 10 27 -5 2 -7 8 -4 12 3 5 0 12 -6 16 -8 5 -10 -1 -7 -20z"/>
<path d="M2050 4841 c0 -5 -3 -16 -6 -25 -3 -9 -2 -16 4 -16 13 0 23 38 11 46
-5 3 -9 1 -9 -5z"/>
<path d="M2087 4763 c-4 -3 -7 -11 -7 -17 0 -6 5 -5 12 2 6 6 9 14 7 17 -3 3
-9 2 -12 -2z"/>
<path d="M2121 4734 c0 -11 3 -14 6 -6 3 7 2 16 -1 19 -3 4 -6 -2 -5 -13z"/>
<path d="M3040 2616 c0 -9 5 -16 10 -16 6 0 10 4 10 9 0 6 -4 13 -10 16 -5 3
-10 -1 -10 -9z"/>
<path d="M2985 2430 c-4 -6 -12 -7 -18 -3 -7 3 -3 -3 7 -15 11 -12 20 -22 20
-22 1 0 1 11 1 25 0 28 -1 29 -10 15z"/>
<path d="M3265 2350 c-4 -23 -5 -43 -2 -46 2 -3 7 14 11 37 4 23 5 44 2 46 -2
2 -7 -14 -11 -37z"/>
<path d="M3255 2281 c-3 -5 -1 -12 5 -16 5 -3 10 1 10 9 0 18 -6 21 -15 7z"/>
<path d="M3243 2223 c-14 -29 -8 -47 7 -23 9 13 14 50 8 50 -2 0 -9 -12 -15
-27z"/>
<path d="M3107 2226 c-3 -8 1 -22 9 -33 9 -10 13 -12 9 -5 -9 18 5 38 16 21 6
-10 9 -10 9 -2 0 20 -37 36 -43 19z"/>
<path d="M3077 2223 c-4 -3 -7 -13 -7 -22 1 -13 3 -13 11 2 11 19 8 33 -4 20z"/>
<path d="M2911 2193 c9 -10 9 -17 2 -21 -7 -4 -1 -14 16 -26 l26 -20 -19 22
c-21 25 -16 28 17 10 12 -6 47 -17 77 -23 45 -9 58 -9 68 2 18 19 4 36 -24 30
-13 -2 -24 0 -24 4 0 5 -6 6 -13 3 -7 -2 -31 3 -53 12 -21 9 -49 18 -62 20
-19 2 -21 0 -11 -13z"/>
<path d="M3216 2158 c-21 -25 -10 -45 13 -24 13 12 20 13 29 4 7 -7 12 -9 12
-5 0 4 -8 15 -19 26 -18 18 -19 18 -35 -1z"/>
<path d="M3250 2039 c0 -13 26 -40 33 -33 2 3 21 -5 41 -17 20 -12 40 -19 43
-16 3 4 -5 11 -18 17 -13 5 -41 21 -61 35 -21 14 -38 20 -38 14z"/>
<path d="M3380 2030 c-11 -21 -8 -23 27 -14 13 4 20 10 17 16 -3 5 -12 4 -20
-3 -12 -10 -13 -9 -8 5 9 23 -3 20 -16 -4z"/>
<path d="M3320 2030 c0 -5 9 -10 21 -10 11 0 17 5 14 10 -3 6 -13 10 -21 10
-8 0 -14 -4 -14 -10z"/>
<path d="M3070 2020 c0 -5 -7 -10 -15 -10 -9 0 -18 -6 -20 -12 -3 -7 -22 -14
-42 -16 -45 -3 -52 -9 -28 -25 10 -8 15 -20 12 -28 -4 -11 -6 -10 -6 2 -1 11
-12 18 -30 21 -17 2 -28 1 -25 -4 3 -4 15 -8 26 -8 12 0 18 -3 15 -6 -3 -4 -2
-15 4 -26 14 -26 3 -41 -22 -28 -14 8 -19 7 -19 -2 0 -8 -4 -7 -12 4 -7 8 -28
25 -45 37 -27 18 -36 20 -54 10 -18 -9 -24 -8 -31 5 -5 9 -13 16 -19 16 -13 0
11 -40 39 -65 12 -11 22 -27 22 -34 0 -10 3 -11 13 -2 8 6 18 7 22 3 5 -4 4 0
-1 8 -9 15 -10 20 -13 40 0 6 -6 10 -12 10 -5 0 -7 -4 -4 -10 3 -5 2 -10 -4
-10 -18 0 -23 20 -6 26 17 7 55 -22 52 -40 -1 -6 4 -10 11 -8 24 4 11 -16 -14
-22 -24 -6 -25 -8 -11 -24 9 -10 29 -18 44 -19 l28 -2 -30 13 -30 12 32 12
c18 6 32 8 30 3 -3 -10 46 -67 70 -79 27 -15 36 -48 13 -48 -11 0 -16 6 -12
15 4 10 1 12 -8 6 -8 -5 -11 -4 -7 2 3 5 -2 17 -13 25 -16 14 -19 14 -24 2 -3
-8 -11 -14 -18 -13 -10 0 -10 2 0 6 13 5 7 23 -8 23 -18 0 -2 -36 21 -47 15
-8 18 -13 9 -13 -8 -1 -4 -6 10 -11 16 -7 20 -13 13 -17 -7 -5 -9 -13 -4 -21
7 -10 11 -8 16 9 4 12 10 18 14 13 3 -5 27 -22 52 -37 41 -23 47 -24 53 -10 3
9 3 21 -1 27 -4 7 4 4 17 -6 14 -10 40 -27 57 -38 18 -12 31 -24 29 -27 -2 -4
2 -13 10 -20 10 -9 14 -10 14 -1 0 8 7 6 18 -4 10 -10 22 -14 25 -10 4 3 7 1
7 -5 0 -7 3 -11 8 -10 13 5 52 -42 52 -63 0 -14 5 -19 15 -16 8 4 17 2 21 -4
3 -6 13 -8 21 -5 8 3 11 1 8 -4 -4 -6 5 -10 20 -10 15 0 24 -4 20 -10 -4 -6
-11 -8 -16 -5 -5 4 -9 1 -9 -6 0 -7 10 -9 30 -5 31 6 43 -10 15 -20 -13 -5
-13 -10 2 -35 10 -16 21 -29 26 -29 4 0 5 -5 1 -12 -4 -7 -3 -8 4 -4 7 4 12 3
12 -3 0 -5 -5 -13 -10 -16 -6 -4 -10 -14 -8 -23 1 -10 -1 -23 -5 -29 -6 -9 -2
-13 12 -13 11 0 26 -8 33 -18 13 -19 48 -26 48 -10 0 5 -8 8 -17 6 -12 -2 -17
2 -15 12 2 8 1 12 -3 8 -15 -14 -36 21 -29 47 6 26 -10 72 -31 87 -6 5 -6 11
2 19 9 9 18 8 37 -5 15 -9 26 -14 26 -10 0 3 11 -1 25 -10 38 -25 55 -21 55
14 0 21 -4 28 -14 24 -8 -3 -17 -13 -19 -22 -3 -12 -6 -9 -11 11 -9 29 -20 34
-32 15 -5 -7 -3 -8 6 -3 8 5 11 4 6 -3 -12 -20 -33 -2 -28 24 3 19 7 22 18 13
11 -9 14 -8 14 5 0 9 -3 15 -7 15 -22 -4 -31 3 -26 20 5 20 -5 30 -37 36 -18
3 -20 0 -14 -18 11 -36 26 -46 19 -12 -6 27 -5 28 6 10 18 -27 20 -45 6 -42
-7 1 -11 -6 -9 -15 4 -24 -10 -23 -26 3 -8 12 -9 18 -3 14 16 -9 13 11 -3 24
-8 7 -13 21 -11 32 2 11 0 17 -6 14 -5 -4 -7 -11 -4 -16 4 -5 1 -9 -6 -9 -8 0
-8 -4 1 -15 7 -9 9 -19 5 -23 -4 -4 -10 -1 -12 6 -3 6 -11 12 -19 12 -9 0 -12
4 -9 10 3 5 0 7 -9 4 -9 -3 -19 3 -27 18 -11 21 -11 22 5 9 14 -12 16 -12 10
3 -3 9 -10 16 -15 16 -5 0 -8 6 -7 13 2 7 -9 13 -26 15 -21 3 -26 0 -21 -10 3
-7 1 -6 -7 3 -17 20 -48 31 -48 17 0 -6 -2 -9 -5 -6 -9 8 6 38 16 32 17 -10 9
5 -16 32 -21 22 -27 25 -40 14 -14 -11 -17 -10 -22 9 -5 18 -8 19 -22 9 -13
-10 -14 -10 -3 2 17 19 16 51 -2 44 -7 -3 -16 1 -19 9 -4 11 0 13 16 10 13 -3
18 -1 12 4 -5 4 -11 17 -12 28 -1 11 0 14 3 8 8 -19 32 -16 37 5 4 16 5 16 6
0 0 -10 8 -18 16 -18 22 0 18 -15 -7 -28 l-23 -10 23 1 c13 1 28 9 33 19 8 15
12 16 23 6 8 -7 12 -16 10 -20 -2 -3 4 -4 15 -1 10 3 22 0 25 -6 4 -6 13 -11
19 -11 9 0 8 3 -1 8 -9 6 -10 16 -4 31 9 25 9 25 51 -24 7 -9 15 -14 18 -11 7
7 -39 86 -49 86 -5 0 -7 4 -3 10 3 5 13 7 23 4 12 -4 11 -2 -3 7 -11 7 -24 18
-28 26 -4 7 -13 13 -19 13 -9 0 -9 -3 0 -12 16 -16 15 -28 -3 -28 -9 0 -15 9
-15 25 0 22 -2 24 -14 13 -8 -7 -12 -16 -9 -20 2 -4 -3 -5 -12 -2 -9 4 -14 9
-11 11 6 7 -17 32 -25 27 -3 -2 -6 3 -6 11 0 19 7 18 31 0 18 -14 21 -12 34
27 13 40 13 42 -10 60 -12 9 -33 18 -45 18 -22 0 -22 -1 -6 -20 10 -11 23 -20
29 -20 13 0 25 -35 16 -44 -12 -13 -32 -4 -68 32 -31 31 -36 33 -32 15 4 -13
2 -25 -2 -28 -12 -7 -41 5 -35 15 9 15 -27 34 -77 39 -4 1 -5 12 -2 26 2 14 2
25 -1 25 -3 0 -5 -4 -5 -10z m-64 -67 c-10 -10 -19 5 -10 18 6 11 8 11 12 0 2
-7 1 -15 -2 -18z m103 -9 c5 3 14 -1 21 -9 10 -12 10 -15 0 -15 -7 0 -19 -8
-27 -17 -8 -10 -12 -13 -9 -7 3 6 -2 20 -10 30 -15 18 -15 18 -10 -5 3 -17 2
-21 -6 -13 -6 6 -12 22 -13 37 -3 26 -3 26 21 10 14 -9 28 -13 33 -11z m-72
-6 c-3 -8 -6 -5 -6 6 -1 11 2 17 5 13 3 -3 4 -12 1 -19z m-1 -51 c18 -16 27
-34 28 -55 1 -32 16 -47 16 -16 0 8 5 12 10 9 6 -4 8 -11 5 -16 -4 -5 -1 -9 4
-9 6 0 11 -8 10 -17 0 -11 -3 -13 -6 -5 -2 6 -13 12 -24 12 -11 0 -22 7 -25
15 -4 8 -13 15 -21 15 -8 0 -11 5 -8 10 3 6 -3 10 -14 10 -11 0 -23 5 -27 12
-4 6 -3 9 2 6 5 -3 16 1 23 10 13 14 12 15 -7 10 -21 -6 -31 10 -15 25 11 11
21 8 49 -16z m104 9 c-5 -5 -10 -23 -10 -40 0 -23 3 -27 12 -18 18 18 32 14
17 -5 -11 -14 -11 -15 -1 -9 10 6 13 3 10 -10 -6 -31 -32 -27 -46 6 -11 24
-18 29 -35 25 -16 -5 -18 -4 -8 3 7 5 10 15 7 21 -9 15 7 14 22 -1 9 -9 12 -6
12 13 0 16 6 26 15 26 11 0 12 -4 5 -11z m86 -24 c-3 -5 4 -15 15 -22 21 -16
25 -30 7 -30 -16 0 -48 31 -48 47 0 7 7 13 16 13 8 0 13 -4 10 -8z m92 -78 c5
3 13 -1 16 -10 11 -28 7 -34 -21 -34 -14 0 -23 3 -20 6 3 4 0 16 -8 28 -23 31
-19 57 4 27 10 -13 23 -21 29 -17z m-315 -8 c4 -10 1 -13 -9 -9 -15 6 -19 23
-5 23 5 0 11 -7 14 -14z m234 -8 c-3 -8 -6 -5 -6 6 -1 11 2 17 5 13 3 -3 4
-12 1 -19z m-99 -23 c-3 -3 -9 2 -12 12 -6 14 -5 15 5 6 7 -7 10 -15 7 -18z
m-53 -5 c4 -6 10 -8 15 -5 8 5 30 -24 30 -39 0 -12 -28 -5 -40 9 -7 8 -16 13
-20 10 -4 -3 -10 1 -13 9 -9 23 15 37 28 16z m5 -98 c-8 -3 -21 5 -31 16 -9
12 -19 19 -22 16 -3 -3 -8 0 -13 7 -4 7 -3 10 4 5 6 -3 14 -1 18 5 5 9 15 3
32 -16 18 -21 21 -30 12 -33z m80 44 c0 -2 -9 -6 -20 -9 -11 -3 -18 -1 -14 4
5 9 34 13 34 5z m95 -77 c-3 -4 -14 -9 -25 -12 -18 -5 -21 5 -11 41 1 1 10 -3
20 -10 11 -7 18 -15 16 -19z"/>
<path d="M3530 2020 c0 -5 5 -10 11 -10 5 0 7 5 4 10 -3 6 -8 10 -11 10 -2 0
-4 -4 -4 -10z"/>
<path d="M2683 1955 c-7 -8 -26 -12 -43 -10 -22 3 -30 0 -27 -8 2 -7 11 -11
21 -9 9 2 16 -2 16 -7 0 -14 47 8 54 25 7 19 -7 24 -21 9z"/>
<path d="M2865 1960 c3 -5 8 -10 11 -10 2 0 4 5 4 10 0 6 -5 10 -11 10 -5 0
-7 -4 -4 -10z"/>
<path d="M3336 1948 c3 -4 9 -8 15 -8 5 0 9 4 9 8 0 5 -7 9 -15 9 -8 0 -12 -4
-9 -9z"/>
<path d="M2525 1920 c-3 -5 -1 -10 4 -10 6 0 11 5 11 10 0 6 -2 10 -4 10 -3 0
-8 -4 -11 -10z"/>
<path d="M3350 1910 c0 -6 7 -13 16 -17 8 -3 20 -17 26 -32 8 -20 12 -22 15
-10 3 11 11 15 24 12 14 -4 19 0 19 16 0 23 -7 26 -29 12 -9 -6 -20 -2 -32 10
-21 21 -39 25 -39 9z"/>
<path d="M3415 1830 c-3 -11 0 -29 8 -40 13 -18 16 -19 27 -5 10 12 9 20 -4
40 -20 30 -23 31 -31 5z"/>
<path d="M2727 1793 c-4 -3 -7 -11 -7 -17 0 -6 5 -5 12 2 6 6 9 14 7 17 -3 3
-9 2 -12 -2z"/>
<path d="M3646 1787 c3 -10 9 -15 12 -12 3 3 0 11 -7 18 -10 9 -11 8 -5 -6z"/>
<path d="M2825 1772 c-3 -9 -3 -13 1 -9 4 4 23 -7 41 -25 18 -17 36 -29 40
-25 3 4 1 7 -5 7 -6 0 -9 7 -5 17 4 10 2 14 -5 9 -6 -3 -16 2 -21 13 -14 26
-38 33 -46 13z"/>
<path d="M2762 1731 c13 -17 28 -30 35 -30 6 -1 -1 13 -15 29 -34 39 -51 39
-20 1z"/>
<path d="M3661 1744 c0 -11 3 -14 6 -6 3 7 2 16 -1 19 -3 4 -6 -2 -5 -13z"/>
<path d="M3478 1707 c-3 -14 0 -24 7 -24 7 0 10 10 7 24 -2 13 -6 23 -7 23 -1
0 -5 -10 -7 -23z"/>
<path d="M3200 1701 c0 -4 9 -12 19 -18 16 -10 18 -9 14 6 -4 16 -33 26 -33
12z"/>
<path d="M3270 1696 c0 -7 9 -16 20 -19 12 -3 20 -14 20 -26 0 -12 6 -21 15
-21 8 0 15 -4 15 -10 0 -5 6 -10 14 -10 8 0 17 -6 19 -12 3 -7 6 -8 6 -2 1 5
-12 23 -29 39 -16 16 -30 33 -30 38 0 11 -22 31 -38 35 -6 1 -12 -4 -12 -12z"/>
<path d="M3417 1678 c6 -22 5 -22 -14 -5 -19 16 -33 14 -33 -6 0 -5 7 -7 15
-4 8 4 17 2 20 -4 4 -5 11 -7 16 -4 10 7 11 4 14 -35 2 -14 4 -32 6 -40 4 -16
-3 -16 -36 -4 -19 8 -19 7 -2 -10 11 -12 15 -26 12 -40 -4 -13 2 -9 16 13 l22
33 19 -23 19 -24 -7 25 c-3 14 -12 32 -19 40 -11 13 -28 66 -29 94 -1 5 -6 11
-13 13 -7 3 -9 -4 -6 -19z"/>
<path d="M2556 1674 c-3 -9 1 -25 9 -37 8 -12 15 -16 15 -10 0 7 -4 14 -9 17
-5 3 -7 15 -4 26 6 24 -2 27 -11 4z"/>
<path d="M2776 1653 c9 -21 18 -44 21 -50 3 -7 11 -13 18 -13 8 0 17 -5 21
-12 5 -8 1 -9 -12 -5 -17 6 -17 5 -3 -5 17 -15 33 -47 30 -65 -3 -18 15 -24
28 -10 8 10 6 19 -8 33 -10 11 -22 38 -28 60 -6 26 -14 39 -26 38 -9 -1 -23
13 -32 32 -22 46 -29 43 -9 -3z"/>
<path d="M2853 1656 c17 -16 25 -31 21 -41 -4 -9 -3 -15 2 -13 13 3 57 -22 67
-38 4 -8 14 -14 21 -14 16 0 18 47 3 57 -6 4 -8 -4 -5 -21 3 -14 1 -26 -3 -26
-5 0 -9 9 -9 20 0 11 -4 20 -10 20 -5 0 -28 18 -52 40 -24 22 -47 40 -52 40
-5 0 3 -11 17 -24z"/>
<path d="M3540 1662 c0 -5 7 -23 15 -38 8 -16 15 -37 15 -46 0 -10 6 -18 13
-18 8 0 7 -4 -3 -10 -8 -5 -10 -10 -4 -10 6 0 17 7 24 15 10 12 10 15 -3 15
-9 0 -19 17 -26 44 -10 40 -31 72 -31 48z"/>
<path d="M3114 1636 c-4 -9 6 -25 23 -40 35 -31 38 -34 67 -68 16 -18 26 -23
29 -15 4 9 6 9 6 0 1 -6 -4 -15 -10 -18 -6 -4 -1 -15 14 -28 31 -28 41 -55 21
-59 -13 -2 -12 -6 3 -23 19 -20 34 -48 39 -73 4 -21 14 -27 14 -9 0 9 5 19 12
23 7 4 8 3 4 -4 -11 -18 0 -14 15 5 10 11 10 14 2 9 -7 -4 -13 -2 -13 3 0 6 5
11 12 11 9 0 9 3 1 11 -6 6 -9 19 -6 28 5 13 3 14 -7 4 -18 -17 -49 24 -45 60
2 15 -1 25 -6 21 -5 -3 -7 -11 -3 -17 3 -7 -4 -1 -15 13 -11 14 -19 30 -16 37
2 6 -3 17 -11 23 -8 7 -14 9 -14 5 0 -4 -10 5 -22 21 -27 37 -44 54 -33 35 5
-9 4 -12 -3 -7 -7 4 -12 11 -12 17 0 5 -9 18 -20 29 -17 17 -21 18 -26 6z
m196 -246 c0 -5 -4 -10 -10 -10 -5 0 -10 5 -10 10 0 6 5 10 10 10 6 0 10 -4
10 -10z m18 -38 c6 -18 -15 -14 -22 4 -4 10 -1 14 6 12 6 -2 14 -10 16 -16z"/>
<path d="M3470 1643 c1 -5 10 -19 21 -32 14 -18 22 -21 29 -13 6 7 7 10 4 7
-8 -5 -34 20 -34 34 0 6 -4 11 -10 11 -5 0 -10 -3 -10 -7z"/>
<path d="M2701 1619 c-1 -9 7 -23 17 -30 15 -12 16 -12 6 1 -6 8 -14 22 -17
30 -5 13 -6 12 -6 -1z"/>
<path d="M3303 1606 c0 -7 6 -13 14 -13 7 0 13 4 13 8 0 4 -6 9 -13 12 -8 3
-14 0 -14 -7z"/>
<path d="M2565 1600 c-3 -5 -1 -19 5 -30 15 -28 21 -25 10 4 -5 13 -6 27 -3
30 4 3 4 6 0 6 -3 0 -9 -4 -12 -10z"/>
<path d="M2757 1560 c3 -19 9 -39 14 -44 17 -19 16 0 -2 39 l-18 40 6 -35z"/>
<path d="M3517 1584 c-4 -4 -3 -12 1 -18 4 -6 7 -15 7 -20 0 -5 7 -11 15 -13
13 -4 13 -3 0 6 -9 6 -10 11 -3 11 6 0 9 9 6 20 -5 20 -15 25 -26 14z"/>
<path d="M3039 1578 c0 -2 -2 -11 -4 -21 -3 -15 -1 -16 11 -6 7 6 11 15 8 20
-5 9 -13 12 -15 7z"/>
<path d="M2995 1560 c-3 -6 1 -7 9 -4 18 7 21 14 7 14 -6 0 -13 -4 -16 -10z"/>
<path d="M3152 1530 c19 -33 21 -41 9 -52 -10 -10 -12 -10 -7 0 4 7 1 12 -7
12 -8 0 -20 7 -27 15 -7 8 -16 12 -21 9 -5 -3 -9 1 -9 9 0 8 -7 17 -15 21 -8
3 -15 1 -15 -5 0 -12 51 -58 65 -59 15 0 70 -53 71 -67 3 -34 5 -37 15 -20 6
9 14 15 20 12 5 -4 9 0 9 8 0 8 -11 18 -25 21 -14 4 -23 11 -20 16 3 6 0 10
-7 10 -9 0 -13 12 -12 35 1 19 -3 35 -9 35 -6 0 -7 3 -4 7 8 7 -11 33 -25 33
-5 0 2 -18 14 -40z"/>
<path d="M2732 1530 c0 -14 2 -19 5 -12 2 6 2 18 0 25 -3 6 -5 1 -5 -13z"/>
<path d="M2575 1530 c-3 -5 -1 -10 4 -10 6 0 11 5 11 10 0 6 -2 10 -4 10 -3 0
-8 -4 -11 -10z"/>
<path d="M2620 1530 c0 -5 5 -10 10 -10 6 0 10 5 10 10 0 6 -4 10 -10 10 -5 0
-10 -4 -10 -10z"/>
<path d="M3000 1536 c0 -3 14 -20 30 -38 17 -18 30 -27 30 -21 0 7 -11 24 -25
38 -25 24 -35 30 -35 21z"/>
<path d="M3260 1501 c0 -6 5 -13 10 -16 6 -3 10 1 10 9 0 9 -4 16 -10 16 -5 0
-10 -4 -10 -9z"/>
<path d="M3585 1480 c4 -19 7 -41 8 -47 1 -24 17 -13 17 12 0 14 -5 25 -11 25
-5 0 -8 4 -5 8 2 4 0 14 -6 22 -7 11 -8 5 -3 -20z"/>
<path d="M2770 1491 c0 -6 4 -12 8 -15 5 -3 9 1 9 9 0 8 -4 15 -9 15 -4 0 -8
-4 -8 -9z"/>
<path d="M2621 1473 c9 -2 22 -16 28 -30 6 -14 14 -23 17 -21 12 13 -20 58
-40 57 -15 -1 -16 -3 -5 -6z"/>
<path d="M3102 1457 c2 -12 5 -24 9 -27 3 -3 18 -22 34 -43 19 -26 31 -35 38
-28 8 8 2 20 -17 40 -15 16 -28 32 -27 35 1 14 -12 35 -25 40 -11 4 -14 0 -12
-17z"/>
<path d="M2585 1459 c-10 -15 3 -25 16 -12 7 7 7 13 1 17 -6 3 -14 1 -17 -5z"/>
<path d="M3314 1439 c-3 -6 -2 -15 3 -20 5 -5 9 -1 9 11 0 23 -2 24 -12 9z"/>
<path d="M2880 1433 c0 -4 5 -15 10 -23 8 -13 10 -13 10 2 0 9 -4 20 -10 23
-5 3 -10 3 -10 -2z"/>
<path d="M2668 1404 c-3 -2 1 -21 8 -42 7 -20 13 -51 14 -69 0 -17 4 -34 9
-38 6 -3 9 20 8 55 -1 33 -5 60 -9 60 -5 0 -8 6 -8 14 0 16 -14 29 -22 20z"/>
<path d="M2596 1372 c-3 -6 -4 -30 0 -54 4 -24 7 -59 8 -80 0 -20 4 -34 8 -32
3 2 8 -1 10 -7 2 -6 3 9 3 33 -1 24 -5 49 -9 56 -4 7 -2 20 5 28 7 8 8 14 3
13 -20 -3 -28 2 -15 10 9 6 11 14 4 26 -7 11 -13 14 -17 7z"/>
<path d="M3196 1349 c-17 -17 -17 -17 3 -12 13 3 21 1 21 -8 0 -7 3 -9 7 -6 9
9 35 -44 29 -60 -3 -7 -1 -13 4 -13 6 0 10 -6 10 -14 0 -8 4 -17 10 -21 6 -3
5 5 -1 23 -5 16 -9 33 -8 38 3 19 -2 31 -29 60 -26 29 -28 29 -46 13z"/>
<path d="M2936 1315 c4 -16 12 -34 19 -40 6 -5 10 -16 8 -22 -3 -7 3 -13 12
-13 13 0 14 4 5 20 -6 11 -15 20 -20 20 -5 0 -7 6 -4 13 2 7 -2 21 -11 32 -15
19 -15 19 -9 -10z"/>
<path d="M3361 1316 c-14 -17 -4 -26 40 -33 l29 -4 -25 25 c-30 30 -29 30 -44
12z"/>
<path d="M2648 1265 c8 -25 16 -44 18 -43 6 6 -18 88 -26 88 -4 0 -1 -20 8
-45z"/>
<path d="M3285 1281 c-3 -5 -1 -12 5 -16 5 -3 10 1 10 9 0 18 -6 21 -15 7z"/>
<path d="M3317 1253 c8 -21 50 -63 63 -63 5 0 12 -11 16 -25 3 -14 10 -22 15
-19 5 3 23 -4 39 -16 26 -19 33 -20 48 -9 9 7 14 9 10 5 -4 -5 0 -15 10 -22
23 -18 32 -17 32 1 0 8 -5 15 -11 15 -6 0 -9 7 -5 15 3 8 1 15 -4 15 -14 0
-12 27 3 33 9 4 9 6 0 6 -7 1 -10 7 -7 15 3 7 -2 16 -10 19 -11 5 -14 -2 -13
-31 1 -20 6 -40 10 -43 5 -3 -1 -9 -12 -12 -12 -3 -19 -1 -15 4 3 5 -2 9 -11
9 -25 0 -74 32 -81 52 -3 10 -15 18 -26 18 -15 0 -19 5 -15 20 3 11 1 18 -3
15 -5 -3 -11 -1 -15 5 -10 17 -25 11 -18 -7z"/>
<path d="M3380 1256 c0 -8 4 -17 9 -20 5 -4 7 3 4 14 -6 23 -13 26 -13 6z"/>
<path d="M3413 1250 c1 -11 5 -20 9 -20 4 0 8 -7 8 -15 0 -8 7 -15 15 -15 8 0
19 -9 25 -20 10 -19 30 -28 30 -12 0 4 -16 24 -35 45 -19 21 -35 42 -35 48 0
5 -4 9 -9 9 -6 0 -9 -9 -8 -20z"/>
<path d="M2690 1232 c0 -4 5 -14 10 -22 7 -11 10 -11 10 -2 0 7 5 10 10 7 6
-3 10 -2 10 3 0 5 -9 12 -20 15 -11 3 -20 2 -20 -1z"/>
<path d="M3070 1236 c0 -2 7 -9 15 -16 13 -11 14 -10 9 4 -5 14 -24 23 -24 12z"/>
<path d="M2726 1191 c-4 -5 -2 -12 3 -15 5 -4 8 -17 5 -30 -2 -14 1 -26 9 -29
11 -4 12 3 7 34 -8 44 -15 55 -24 40z"/>
<path d="M3243 1175 c-23 -22 -23 -22 -4 -40 11 -9 26 -15 33 -12 9 4 8 6 -3
6 -27 1 -31 29 -6 43 12 7 25 12 29 13 18 1 14 11 -5 12 -12 0 -32 -10 -44
-22z"/>
<path d="M2660 1182 c0 -7 5 -12 10 -12 7 0 7 -6 0 -19 -7 -14 -7 -22 2 -27 6
-4 8 -3 4 4 -3 6 1 15 9 19 14 8 13 12 -5 28 -11 10 -20 13 -20 7z"/>
<path d="M3440 1179 c0 -5 5 -7 10 -4 6 3 10 8 10 11 0 2 -4 4 -10 4 -5 0 -10
-5 -10 -11z"/>
<path d="M2626 1165 c4 -8 8 -15 10 -15 2 0 4 7 4 15 0 8 -4 15 -10 15 -5 0
-7 -7 -4 -15z"/>
<path d="M3130 1156 c0 -7 40 -14 44 -7 3 4 -6 8 -20 9 -13 1 -24 0 -24 -2z"/>
<path d="M3290 1140 c0 -5 4 -10 9 -10 6 0 13 5 16 10 3 6 -1 10 -9 10 -9 0
-16 -4 -16 -10z"/>
<path d="M3090 1129 c0 -5 5 -7 10 -4 6 3 10 8 10 11 0 2 -4 4 -10 4 -5 0 -10
-5 -10 -11z"/>
<path d="M3141 1124 c0 -11 3 -14 6 -6 3 7 2 16 -1 19 -3 4 -6 -2 -5 -13z"/>
<path d="M3050 1110 c-8 -11 -21 -20 -30 -20 -13 0 -13 -2 -1 -9 10 -7 20 -2
34 15 11 14 17 27 15 29 -2 2 -10 -4 -18 -15z"/>
<path d="M3110 1116 c0 -2 7 -9 15 -16 13 -11 14 -10 9 4 -5 14 -24 23 -24 12z"/>
<path d="M3740 1104 c0 -8 5 -12 10 -9 6 4 8 11 5 16 -9 14 -15 11 -15 -7z"/>
<path d="M2650 1098 c0 -9 5 -20 10 -23 13 -8 13 5 0 25 -8 13 -10 13 -10 -2z"/>
<path d="M2702 1090 c0 -14 2 -19 5 -12 2 6 2 18 0 25 -3 6 -5 1 -5 -13z"/>
<path d="M2744 1075 c1 -14 6 -25 11 -25 14 -1 14 28 1 40 -10 7 -13 4 -12
-15z"/>
<path d="M3165 1090 c-3 -5 -1 -10 4 -10 6 0 11 5 11 10 0 6 -2 10 -4 10 -3 0
-8 -4 -11 -10z"/>
<path d="M3261 1074 c0 -11 3 -14 6 -6 3 7 2 16 -1 19 -3 4 -6 -2 -5 -13z"/>
<path d="M3287 1070 c3 -11 7 -20 9 -20 2 0 4 9 4 20 0 11 -4 20 -9 20 -5 0
-7 -9 -4 -20z"/>
<path d="M3095 1060 c-3 -5 -1 -10 4 -10 6 0 11 5 11 10 0 6 -2 10 -4 10 -3 0
-8 -4 -11 -10z"/>
<path d="M3125 1060 c3 -5 8 -10 11 -10 2 0 4 5 4 10 0 6 -5 10 -11 10 -5 0
-7 -4 -4 -10z"/>
<path d="M2702 1035 c0 -16 2 -22 5 -12 2 9 2 23 0 30 -3 6 -5 -1 -5 -18z"/>
<path d="M3120 1033 c8 -3 18 -11 22 -17 5 -7 8 -4 8 7 0 11 -7 17 -22 16 -16
0 -18 -2 -8 -6z"/>
<path d="M2755 1010 c6 -29 11 -34 18 -16 3 8 0 20 -8 26 -12 10 -13 8 -10
-10z"/>
<path d="M3180 1021 c0 -6 4 -13 10 -16 6 -3 7 1 4 9 -7 18 -14 21 -14 7z"/>
<path d="M3125 998 c4 -13 11 -27 16 -33 5 -5 4 5 -2 23 -12 36 -24 44 -14 10z"/>
<path d="M2905 1000 c-3 -5 -2 -10 4 -10 5 0 13 5 16 10 3 6 2 10 -4 10 -5 0
-13 -4 -16 -10z"/>
<path d="M2710 991 c0 -6 4 -13 10 -16 6 -3 7 1 4 9 -7 18 -14 21 -14 7z"/>
<path d="M2870 986 c0 -8 -6 -17 -12 -19 -8 -3 -6 -6 5 -6 11 -1 17 6 17 19 0
11 -2 20 -5 20 -3 0 -5 -6 -5 -14z"/>
<path d="M3583 980 c-13 -5 -23 -12 -23 -15 0 -11 54 2 58 13 4 14 -4 14 -35
2z"/>
<path d="M2693 955 c-10 -10 -10 -14 -1 -17 11 -4 4 -41 -18 -96 -4 -8 0 -10
12 -5 13 5 16 3 12 -9 -4 -8 -2 -21 3 -29 6 -9 9 2 10 36 1 28 2 67 3 88 2 43
-3 51 -21 32z"/>
<path d="M2815 960 c3 -5 8 -10 11 -10 2 0 4 5 4 10 0 6 -5 10 -11 10 -5 0 -7
-4 -4 -10z"/>
<path d="M3060 960 c0 -5 5 -10 10 -10 6 0 10 5 10 10 0 6 -4 10 -10 10 -5 0
-10 -4 -10 -10z"/>
<path d="M2977 951 c6 -7 9 -20 6 -27 -3 -8 -3 -14 0 -14 14 0 14 30 -1 41
-14 11 -15 11 -5 0z"/>
<path d="M3520 950 c-12 -8 -11 -10 5 -10 17 0 17 -2 5 -10 -13 -8 -12 -10 3
-10 18 0 21 8 9 27 -5 8 -13 9 -22 3z"/>
<path d="M2741 945 c-1 -6 5 -17 12 -24 10 -11 10 -13 0 -7 -7 4 -13 2 -13 -3
0 -6 4 -11 8 -11 4 0 8 -12 9 -27 1 -48 3 -54 11 -49 5 3 8 15 6 28 -1 13 -3
38 -3 56 -1 18 -5 31 -10 28 -5 -4 -12 0 -14 6 -3 7 -6 8 -6 3z"/>
<path d="M2786 925 c-3 -8 -1 -15 4 -15 6 0 10 7 10 15 0 8 -2 15 -4 15 -2 0
-6 -7 -10 -15z"/>
<path d="M2950 920 c0 -5 5 -10 11 -10 5 0 7 5 4 10 -3 6 -8 10 -11 10 -2 0
-4 -4 -4 -10z"/>
<path d="M2860 908 c0 -23 19 -33 33 -18 9 10 9 11 0 6 -6 -3 -16 2 -22 11 -9
16 -10 16 -11 1z"/>
<path d="M2611 894 c0 -11 3 -14 6 -6 3 7 2 16 -1 19 -3 4 -6 -2 -5 -13z"/>
<path d="M3030 890 c0 -6 -16 -8 -36 -6 -27 4 -34 2 -26 -6 8 -8 8 -15 1 -24
-7 -8 -7 -14 1 -19 7 -4 5 -11 -4 -21 -9 -8 -12 -22 -9 -31 6 -14 7 -14 19 1
9 13 13 14 17 4 2 -7 2 10 -1 39 -4 49 -3 51 17 46 11 -3 21 -12 21 -19 0 -8
4 -14 8 -14 5 0 9 7 9 15 0 8 -5 15 -10 15 -5 0 -4 7 3 15 9 10 9 15 1 15 -6
0 -11 -5 -11 -10z"/>
<path d="M2923 867 c1 -7 -3 -11 -9 -10 -7 1 -9 -8 -6 -24 4 -20 2 -24 -9 -18
-8 5 -6 -1 4 -12 17 -20 17 -20 -8 -17 -16 1 -28 -3 -32 -12 -8 -22 7 -31 20
-13 10 14 14 14 25 3 15 -17 42 -18 42 -3 0 5 -3 8 -7 6 -10 -7 -10 54 0 71 5
7 3 12 -3 12 -6 0 -8 5 -5 10 4 6 12 7 18 4 7 -4 8 -3 4 1 -12 14 -37 15 -34
2z"/>
<path d="M2816 835 c10 -52 30 -60 39 -15 2 12 1 19 -3 16 -4 -4 -8 -12 -8
-17 -3 -23 -6 -22 -20 11 -13 33 -14 33 -8 5z"/>
<path d="M2835 760 c-3 -5 -1 -10 4 -10 6 0 11 5 11 10 0 6 -2 10 -4 10 -3 0
-8 -4 -11 -10z"/>
<path d="M5395 3780 c3 -5 8 -10 11 -10 2 0 4 5 4 10 0 6 -5 10 -11 10 -5 0
-7 -4 -4 -10z"/>
<path d="M2760 648 c0 -9 5 -20 10 -23 13 -8 13 5 0 25 -8 13 -10 13 -10 -2z"/>
</g>
</svg>
