<?xml version="1.0" standalone="no"?>
<!DOCTYPE svg PUBLIC "-//W3C//DTD SVG 20010904//EN"
 "http://www.w3.org/TR/2001/REC-SVG-20010904/DTD/svg10.dtd">
<svg version="1.0" xmlns="http://www.w3.org/2000/svg"
 width="593.000000pt" height="593.000000pt" viewBox="0 0 593.000000 593.000000"
 preserveAspectRatio="xMidYMid meet">

<g transform="translate(0.000000,593.000000) scale(0.100000,-0.100000)"
fill="#006fce" stroke="none">
<path d="M2291 5349 c-13 -5 -75 -11 -138 -14 -63 -2 -120 -8 -126 -13 -7 -5
-29 -12 -51 -15 -21 -3 -60 -17 -86 -31 -25 -13 -64 -28 -86 -32 -60 -10 -61
-11 -96 -139 -25 -91 -62 -193 -84 -231 -13 -22 -24 -50 -24 -61 0 -11 -19
-40 -42 -64 -39 -40 -41 -44 -22 -47 20 -3 21 -6 11 -35 -10 -32 -23 -65 -38
-102 -29 -69 -53 -261 -42 -340 4 -27 6 -109 4 -181 -3 -145 4 -179 69 -344
21 -52 43 -129 50 -170 11 -68 35 -139 61 -180 5 -8 35 -67 66 -130 54 -112
77 -149 155 -255 21 -27 38 -54 38 -59 0 -11 47 -55 115 -106 41 -32 60 -39
105 -42 50 -3 55 -5 57 -28 1 -14 7 -45 12 -70 6 -25 10 -68 11 -96 0 -58 21
-117 54 -154 22 -24 25 -37 52 -207 5 -31 3 -32 -47 -48 -29 -8 -72 -15 -96
-15 -49 0 -65 -19 -44 -52 7 -11 17 -64 22 -117 5 -53 15 -111 21 -130 6 -21
12 -136 13 -285 1 -160 6 -269 14 -301 7 -27 17 -102 22 -165 16 -213 17 -217
56 -241 31 -19 44 -21 136 -15 124 7 267 27 287 41 8 6 58 10 110 11 92 0 228
21 280 42 14 6 62 20 108 33 71 19 90 29 134 71 28 26 62 54 77 61 14 7 32 25
39 40 7 15 17 27 23 27 5 0 9 7 9 15 0 8 9 24 20 35 11 11 27 50 35 87 14 64
14 78 -4 203 -19 127 -41 223 -62 262 -4 9 -13 46 -19 83 -11 68 -32 135 -80
250 -28 69 -44 95 -66 110 -35 23 -45 48 -54 148 -9 86 -31 221 -66 397 -14
73 -14 75 7 93 12 9 29 17 39 17 10 0 23 7 30 14 6 8 33 23 58 32 55 20 112
60 112 78 0 7 27 41 60 77 33 35 81 96 107 134 25 39 52 74 60 78 18 11 63 83
63 100 0 8 18 33 40 57 22 24 43 55 47 70 4 14 17 46 30 71 13 26 23 56 23 67
0 11 11 34 25 50 13 16 32 51 41 78 9 27 24 58 33 69 22 27 38 62 47 105 3 19
10 40 14 45 5 6 16 30 25 55 23 61 33 334 15 394 -34 110 -44 135 -71 182 -16
29 -36 57 -45 65 -8 7 -22 26 -31 43 -22 42 -100 131 -126 144 -12 6 -48 22
-79 36 -31 14 -66 38 -77 52 -12 15 -21 23 -21 18 -1 -5 -11 3 -23 17 -25 29
-145 99 -170 99 -9 0 -40 11 -69 24 -382 174 -450 197 -634 216 -60 7 -113 16
-119 21 -12 12 -273 10 -304 -2z m114 -31 c-23 -13 -45 -34 -45 -42 0 -14 31
-4 42 13 6 10 17 17 23 14 7 -2 19 3 28 11 17 18 116 23 132 7 6 -5 53 -14
105 -20 112 -13 135 -16 175 -26 41 -10 274 -100 360 -140 39 -17 99 -44 135
-59 140 -59 190 -89 221 -128 17 -21 34 -37 37 -34 2 3 16 -4 30 -14 13 -11
33 -20 42 -20 10 0 23 -7 30 -15 7 -8 21 -15 31 -15 21 0 74 -52 115 -113 16
-23 46 -65 67 -94 34 -46 63 -106 88 -187 7 -23 5 -32 -9 -42 -16 -12 -16 -12
3 -11 19 2 20 -4 20 -153 -1 -116 -4 -161 -15 -180 -8 -14 -13 -29 -12 -34 2
-4 -4 -18 -12 -31 -8 -12 -18 -40 -22 -61 -4 -21 -19 -57 -35 -80 -15 -22 -35
-64 -44 -92 -10 -29 -21 -52 -26 -52 -10 0 -21 -23 -70 -150 -23 -59 -47 -99
-76 -130 -29 -30 -41 -51 -37 -62 3 -10 1 -18 -5 -18 -6 0 -11 -7 -11 -16 0
-8 -4 -12 -10 -9 -6 3 -7 -1 -4 -10 5 -11 0 -18 -13 -21 -11 -3 -36 -33 -56
-67 -20 -34 -65 -93 -101 -132 -36 -38 -72 -84 -81 -101 -13 -28 -66 -64 -93
-64 -5 0 -25 -11 -44 -23 -19 -13 -48 -27 -64 -31 -16 -4 -39 -17 -51 -28 -15
-14 -31 -19 -47 -16 -16 3 -26 1 -26 -7 0 -6 -13 -24 -30 -40 -22 -21 -27 -32
-19 -41 7 -9 6 -19 -3 -33 -19 -31 -42 -22 -48 20 -5 33 -35 81 -85 133 -14
15 -30 20 -52 18 -18 -2 -33 -8 -33 -13 0 -6 -7 -4 -15 4 -8 9 -20 17 -27 20
-9 3 -7 9 7 20 16 12 17 19 8 38 -9 19 -12 20 -12 7 -1 -10 -7 -18 -13 -19 -7
0 -4 -4 6 -8 18 -7 16 -9 -12 -19 -22 -8 -32 -8 -32 0 0 6 -13 8 -29 6 -28 -4
-29 -4 -14 19 8 13 22 23 29 23 8 0 14 7 14 16 0 20 57 104 76 111 8 3 14 12
14 19 0 8 12 32 26 53 23 36 31 56 33 87 1 6 12 24 26 40 31 35 52 101 58 177
1 15 8 27 15 27 10 0 10 -5 1 -22 -11 -20 -10 -22 3 -10 9 7 19 29 23 48 4 25
10 34 21 30 8 -3 14 -1 14 4 0 6 -9 10 -20 10 -13 0 -20 7 -20 20 0 11 5 20
11 20 5 0 8 4 4 10 -7 11 14 51 33 63 7 5 9 13 6 19 -4 6 -3 8 4 4 6 -3 18 2
28 11 17 17 18 17 11 1 -7 -20 -6 -21 17 -12 17 7 22 34 6 34 -5 0 -10 9 -10
20 0 11 5 20 11 20 6 0 8 -7 5 -16 -4 -9 -2 -13 5 -8 6 4 16 0 21 -7 7 -10 8
-8 3 8 -4 16 1 30 15 45 33 35 50 72 40 88 -12 19 -3 30 18 24 16 -5 16 -5 0
9 -20 16 -14 28 10 20 10 -4 14 -3 10 2 -4 4 6 32 23 63 16 30 29 60 29 66 0
6 9 18 20 26 11 8 20 22 20 32 0 10 4 18 9 18 5 0 16 16 25 35 10 20 22 33 27
29 5 -3 9 -2 8 3 -3 12 23 63 32 63 5 0 6 7 3 15 -4 8 -1 15 5 15 6 0 11 -4
11 -10 0 -5 5 -10 11 -10 5 0 8 4 4 9 -3 5 -1 12 3 15 5 3 9 19 10 36 1 37 10
53 24 44 7 -5 9 -2 6 8 -4 8 2 28 12 43 10 15 16 34 13 42 -3 7 0 20 7 28 7 8
9 15 5 15 -5 0 -1 8 8 18 15 17 17 21 17 43 0 5 4 8 8 5 11 -7 5 -115 -7 -130
-6 -7 -7 -17 -3 -21 4 -5 0 -6 -9 -2 -13 4 -18 -2 -22 -26 -2 -18 -3 -33 -2
-35 5 -6 55 45 55 57 0 6 9 20 20 31 11 11 20 29 20 40 0 11 5 20 10 20 6 0
10 9 10 21 0 11 4 18 8 15 5 -3 20 20 35 50 15 29 22 54 17 54 -6 0 -10 -7
-10 -15 0 -8 -4 -15 -10 -15 -5 0 -10 -6 -10 -13 0 -7 -9 -20 -20 -30 -11 -9
-20 -23 -20 -31 0 -18 -27 -29 -33 -13 -2 7 7 22 22 34 14 11 22 25 18 29 -4
5 -12 2 -16 -5 -5 -8 -11 -9 -15 -3 -3 5 1 12 9 16 8 3 15 12 15 20 0 8 5 16
11 18 9 3 9 10 0 26 -7 13 -16 20 -22 17 -5 -4 -6 -11 -3 -17 4 -7 2 -8 -4 -4
-8 5 -10 -2 -6 -22 4 -20 1 -31 -8 -34 -10 -4 -12 5 -11 41 2 34 1 41 -6 26
-5 -11 -10 -30 -10 -41 -1 -12 -7 -27 -15 -33 -11 -9 -13 -1 -12 44 1 46 4 55
19 55 10 0 15 5 12 10 -3 6 0 10 7 10 8 0 6 5 -5 11 -14 8 -16 14 -6 25 8 10
15 11 24 4 10 -8 15 -8 21 1 4 8 3 9 -4 5 -7 -4 -12 -1 -12 8 0 9 -4 16 -10
16 -5 0 -8 12 -6 28 2 15 1 21 -1 13 -4 -12 -6 -12 -14 0 -6 10 -9 6 -9 -13 0
-21 -4 -26 -16 -21 -13 5 -15 -1 -11 -28 2 -20 -1 -41 -10 -50 -7 -9 -16 -27
-18 -40 -3 -13 -9 -33 -14 -44 -5 -11 -14 -35 -21 -52 -15 -39 -40 -44 -40 -8
0 14 4 25 9 25 5 0 8 11 7 25 0 14 -3 25 -6 25 -6 0 -35 -87 -36 -110 -4 -59
-18 -130 -26 -130 -6 0 -8 -12 -5 -29 4 -19 1 -33 -8 -41 -8 -7 -15 -26 -15
-43 0 -19 -9 -38 -25 -53 -14 -13 -25 -28 -25 -34 0 -5 -6 -10 -12 -10 -9 0
-9 -3 -3 -8 6 -4 12 -20 13 -37 1 -23 -1 -26 -8 -15 -7 11 -10 11 -10 2 0 -7
-11 -24 -25 -37 -13 -14 -20 -25 -15 -25 16 0 12 -36 -5 -50 -8 -7 -15 -20
-15 -30 0 -10 -7 -23 -15 -30 -9 -8 -15 -8 -15 -2 0 6 6 13 13 15 8 4 7 6 -3
6 -13 1 -37 -24 -62 -62 -4 -6 -10 -8 -14 -4 -12 11 52 92 70 89 22 -4 20 7
-6 27 -25 21 -32 48 -12 48 9 0 12 -7 9 -18 -3 -9 -2 -20 3 -23 5 -3 12 7 15
23 4 16 17 41 31 56 14 15 23 31 21 36 -3 4 -1 10 5 14 6 4 8 10 5 15 -3 4 2
10 10 14 16 6 22 66 6 66 -8 0 -24 -37 -22 -52 0 -3 -6 -12 -14 -18 -8 -7 -15
-21 -15 -31 0 -24 -16 -33 -24 -12 -5 13 -12 6 -29 -28 -26 -51 -48 -119 -42
-129 2 -4 -2 -7 -10 -7 -8 0 -15 5 -15 11 0 6 -14 -4 -31 -21 -16 -18 -34 -33
-39 -33 -12 0 0 32 14 42 6 4 12 12 12 18 1 5 2 13 3 18 0 4 17 25 36 47 19
22 35 44 35 49 0 13 52 71 62 69 4 -2 8 0 9 5 0 4 2 18 5 31 l4 24 -24 -26
c-28 -31 -36 -33 -36 -12 0 9 6 12 15 9 17 -7 20 9 6 35 -7 13 -6 18 4 18 8 0
12 -4 10 -8 -3 -4 6 -2 19 4 28 13 52 50 58 87 1 14 7 28 11 31 10 7 -52 31
-62 24 -4 -2 -5 9 -3 26 2 16 0 29 -6 29 -11 0 -31 -48 -39 -95 -2 -16 -9 -34
-14 -39 -5 -6 -9 -18 -9 -28 0 -10 -5 -18 -10 -18 -6 0 -10 -6 -9 -12 3 -23
-1 -38 -9 -35 -4 1 -7 -2 -7 -8 0 -5 3 -9 7 -8 5 2 8 -2 8 -7 0 -6 -5 -10 -11
-10 -5 0 -8 -4 -4 -9 3 -5 0 -13 -6 -17 -14 -8 -31 16 -24 34 3 7 0 10 -5 7
-6 -3 -10 -13 -10 -21 0 -8 -5 -14 -11 -14 -8 0 -8 -4 -1 -12 12 -16 7 -91 -7
-96 -6 -2 -11 -9 -11 -16 0 -17 -74 -83 -94 -83 -9 0 -16 4 -16 9 0 4 4 8 9 8
5 0 14 13 21 30 7 18 17 27 24 23 6 -4 5 1 -3 10 -9 12 -10 17 -2 17 6 0 15 8
18 18 4 9 15 24 25 34 11 9 15 19 10 22 -13 8 -72 -32 -72 -49 0 -9 -11 -20
-25 -27 -13 -6 -22 -14 -20 -19 3 -4 -11 -25 -30 -46 -19 -21 -35 -44 -35 -50
0 -7 -6 -13 -14 -13 -17 0 -30 -30 -13 -30 7 0 3 -6 -8 -12 -22 -13 -54 -47
-56 -60 -1 -4 -2 -14 -3 -20 0 -7 -8 -14 -16 -14 -8 -1 -21 -2 -27 -3 -7 0
-13 -8 -13 -17 0 -8 -4 -12 -10 -9 -5 3 -7 0 -4 -8 3 -9 -3 -17 -18 -21 -19
-5 -20 -8 -8 -16 10 -6 11 -10 3 -10 -7 0 -13 -4 -13 -9 0 -11 -69 -81 -80
-81 -11 0 -21 -30 -14 -41 3 -5 10 -7 15 -4 5 4 9 1 9 -4 0 -14 -13 -14 -28 1
-7 7 -12 8 -12 4 0 -5 -6 -3 -14 3 -11 9 -15 8 -20 -5 -3 -9 -3 -21 1 -27 3
-7 3 -9 -2 -5 -5 5 -15 -2 -23 -13 -12 -17 -12 -23 -2 -29 21 -13 2 -32 -20
-20 -16 8 -18 8 -14 -5 4 -8 14 -15 23 -15 13 -1 13 -3 -4 -16 -11 -8 -20 -19
-20 -24 0 -4 -4 -12 -9 -17 -5 -5 -6 -3 -2 5 4 7 1 12 -8 12 -9 0 -16 4 -16
10 0 5 7 7 15 4 8 -4 15 -1 15 6 0 6 -8 10 -17 8 -21 -4 -30 -37 -14 -48 13
-7 4 -40 -11 -40 -5 0 -6 9 -3 20 3 11 2 20 -2 20 -15 0 -33 -23 -33 -41 0
-10 -4 -19 -9 -21 -5 -1 -2 -9 6 -17 12 -11 14 -10 11 4 -2 10 4 19 12 20 8 2
23 6 33 10 11 5 17 3 17 -5 0 -9 6 -8 18 3 10 10 22 14 25 10 12 -11 8 -23 -8
-23 -9 0 -18 -12 -22 -30 -3 -17 -9 -33 -13 -35 -5 -3 -6 5 -2 17 3 14 2 19
-6 14 -7 -4 -12 -18 -12 -32 0 -15 -6 -24 -15 -24 -8 0 -15 -5 -15 -11 0 -5 6
-7 13 -3 9 6 9 5 0 -7 -7 -9 -8 -20 -4 -28 7 -10 11 -8 16 9 5 16 9 19 15 10
6 -9 11 -7 19 9 6 11 39 43 71 71 33 27 60 52 60 55 0 3 3 5 6 4 4 0 11 5 15
13 7 10 9 9 9 -4 0 -10 -4 -18 -9 -18 -5 0 -14 -13 -21 -30 -7 -16 -16 -30
-20 -30 -5 0 -13 -12 -19 -27 -6 -16 -16 -36 -23 -46 -11 -15 -10 -20 5 -32
12 -8 14 -15 8 -20 -17 -10 -13 -25 5 -18 15 5 15 3 0 -25 -9 -17 -20 -34 -26
-37 -5 -3 -10 -15 -10 -26 0 -13 -4 -18 -12 -13 -7 4 -10 4 -6 -1 10 -10 -19
-38 -32 -30 -7 4 -7 13 1 26 5 11 7 30 3 42 -5 18 -4 20 7 10 10 -10 16 -9 31
4 21 19 23 43 6 62 -10 11 -10 13 0 7 6 -4 12 -2 12 4 0 20 -21 6 -38 -25 -20
-34 -89 -100 -105 -100 -6 0 -15 -15 -21 -32 -5 -18 -17 -35 -27 -38 -11 -4
-19 -10 -19 -14 0 -13 -63 -77 -88 -90 -19 -10 -23 -10 -21 1 4 33 0 41 -17
28 -8 -8 -19 -21 -25 -31 -8 -15 -5 -20 14 -24 17 -5 37 2 68 24 39 26 45 28
51 13 5 -14 7 -13 7 5 1 12 7 26 14 30 6 4 17 17 23 28 7 12 19 19 33 17 12
-2 33 6 47 17 15 12 22 21 16 21 -15 0 -22 28 -8 33 7 3 13 0 13 -6 0 -7 4
-19 7 -28 8 -20 -40 -63 -61 -55 -7 3 -13 1 -13 -4 0 -5 -7 -7 -15 -4 -8 4
-15 2 -16 -2 0 -5 -3 -21 -5 -36 -6 -35 11 -30 64 19 20 19 48 45 61 56 l23
22 -12 -25 c-12 -24 -69 -99 -98 -129 -18 -18 -8 -25 17 -12 38 21 70 59 64
79 -2 11 1 23 8 27 9 6 11 2 7 -13 -4 -12 -2 -22 2 -22 14 0 19 15 10 29 -11
18 51 133 78 146 12 5 22 12 22 16 0 3 9 16 20 29 11 13 20 29 20 37 0 7 5 13
11 13 6 0 9 7 5 15 -3 8 0 14 6 12 14 -3 78 109 119 210 7 17 17 29 21 27 4
-3 10 7 14 21 3 14 11 25 17 25 6 0 7 3 4 7 -4 3 -2 12 4 20 6 7 8 13 3 13 -5
0 2 7 14 16 12 8 19 20 16 26 -4 6 -1 8 7 6 8 -3 13 -11 11 -17 -1 -6 3 -11 9
-11 6 0 9 6 6 14 -3 7 2 24 10 36 11 15 12 24 5 29 -14 8 -12 70 1 78 7 4 8
-1 4 -13 -7 -18 -7 -18 8 0 8 11 15 25 15 32 0 7 5 16 12 20 7 5 8 2 3 -7 -7
-12 -5 -12 6 -1 12 11 12 14 0 21 -7 5 -10 14 -7 20 4 6 12 8 18 5 6 -4 8 -3
5 3 -3 5 5 17 18 27 14 10 22 23 19 28 -7 12 116 128 136 128 10 0 -17 -57
-31 -65 -5 -4 -7 -10 -4 -14 2 -5 -7 -19 -20 -31 -14 -13 -25 -32 -25 -43 0
-18 2 -17 19 4 11 13 23 21 27 16 9 -9 -35 -57 -52 -57 -8 0 -11 6 -7 16 5 14
3 14 -16 3 -21 -14 -28 -29 -13 -29 6 0 8 -48 4 -72 -3 -14 3 -23 13 -20 6 1
2 -4 -7 -11 -10 -8 -18 -21 -18 -30 0 -20 -22 -35 -28 -19 -6 20 -21 13 -37
-18 -16 -30 -13 -50 6 -50 6 0 7 5 3 12 -5 7 -3 8 5 3 22 -13 -4 -28 -28 -16
-17 9 -21 9 -21 -2 0 -7 -11 -20 -25 -27 -25 -13 -39 -40 -44 -82 0 -6 -4 -9
-7 -5 -15 15 -30 -19 -24 -54 4 -20 3 -44 -2 -53 -11 -19 -1 -59 13 -51 18 12
29 -6 14 -22 -9 -9 -14 -21 -11 -29 3 -8 -2 -11 -14 -9 -11 2 -22 0 -25 -6 -4
-5 -1 -9 5 -9 6 0 8 -4 5 -10 -3 -5 -2 -10 3 -10 5 0 9 -7 9 -15 0 -8 -4 -15
-9 -15 -4 0 -8 -7 -8 -15 0 -8 -9 -19 -20 -25 -23 -12 -25 -3 -9 34 7 14 16
23 22 19 5 -3 8 0 5 7 -7 23 -28 23 -28 0 0 -12 -4 -18 -10 -15 -6 4 -13 -7
-16 -24 -4 -17 -11 -31 -16 -31 -5 0 -6 -4 -3 -10 3 -5 -4 -20 -17 -32 -39
-38 -88 -105 -88 -121 0 -8 -7 -21 -17 -28 -15 -13 -15 -12 -4 9 12 23 8 26
-24 12 -11 -5 -14 -9 -7 -9 7 -1 10 -6 7 -11 -4 -6 -11 -7 -17 -4 -6 4 -8 3
-5 -3 3 -5 -1 -22 -9 -38 -8 -16 -13 -34 -10 -41 3 -7 -4 -16 -15 -19 -10 -4
-19 -11 -19 -16 0 -5 -9 -9 -20 -9 -15 0 -20 -7 -20 -28 0 -20 -7 -33 -25 -42
-20 -11 -22 -16 -13 -33 10 -20 11 -20 24 4 9 15 13 19 14 8 0 -28 -25 -52
-51 -47 -24 4 -24 4 -22 -74 1 -58 -2 -81 -12 -84 -7 -3 -11 -14 -7 -26 5 -19
6 -19 20 8 10 19 17 24 20 15 2 -7 0 -16 -5 -20 -10 -7 -11 -26 0 -37 13 -13
7 -26 -9 -20 -10 4 -14 1 -12 -6 3 -7 18 -16 34 -19 l29 -7 -28 -1 c-33 -1
-97 24 -97 38 0 6 -6 11 -14 11 -23 0 -49 86 -44 146 3 30 1 54 -3 54 -5 0 -7
16 -5 35 1 19 -1 35 -5 35 -11 0 -17 63 -8 88 8 21 7 23 -13 17 -13 -4 -27
-11 -33 -16 -5 -5 -27 -9 -50 -9 -32 0 -51 9 -97 45 -31 24 -72 65 -90 90 -18
26 -55 76 -81 112 -27 37 -75 121 -108 189 -33 68 -64 126 -69 129 -6 3 -10
15 -10 25 0 10 -9 34 -19 52 -11 18 -23 51 -27 74 -5 36 -4 42 15 47 12 3 21
0 22 -6 0 -8 2 -8 6 1 2 6 11 12 19 12 8 0 14 5 14 11 0 6 7 9 15 5 8 -3 15
-2 15 3 0 5 14 14 31 21 20 9 26 16 18 21 -7 4 -32 -5 -58 -21 -25 -16 -47
-27 -50 -25 -8 9 19 31 54 45 19 7 35 19 35 25 0 6 5 16 11 22 9 9 17 6 31
-13 11 -13 24 -22 29 -18 5 3 9 2 8 -3 -1 -4 -1 -16 0 -26 1 -15 4 -15 21 -5
11 7 22 20 25 28 3 9 18 30 34 48 17 17 28 32 26 32 -3 0 90 93 148 147 12 12
14 20 7 27 -8 8 -14 6 -20 -4 -8 -13 -10 -12 -10 3 0 9 5 17 10 17 6 0 11 15
11 33 2 30 2 30 6 5 2 -16 9 -28 14 -28 21 0 59 33 59 52 0 14 5 18 16 14 11
-4 19 3 27 24 6 16 17 30 24 30 6 0 11 9 10 19 -1 16 -5 18 -19 10 -12 -6 -26
-6 -40 1 -21 10 -21 10 -6 -3 10 -8 14 -17 10 -21 -7 -7 -8 -12 -11 -38 0 -6
-4 -8 -8 -5 -3 4 -13 2 -20 -5 -11 -9 -17 -9 -24 3 -6 10 -9 10 -9 2 0 -7 -10
-13 -22 -13 -16 0 -19 3 -11 11 6 6 9 18 6 25 -6 15 -35 20 -30 5 1 -5 -7 -17
-18 -25 l-20 -16 20 7 c17 5 17 3 -4 -15 -13 -12 -30 -22 -37 -22 -7 0 -19 -9
-27 -21 -9 -12 -18 -16 -21 -10 -8 13 11 44 35 60 16 9 19 8 19 -5 0 -8 4 -13
9 -10 5 3 7 15 4 26 -4 14 0 20 11 20 9 0 16 7 16 16 0 14 -3 14 -15 4 -8 -7
-15 -9 -15 -4 0 13 20 41 20 29 0 -5 5 -3 10 5 14 21 12 60 -2 60 -8 0 -6 5 4
10 20 12 51 2 41 -13 -4 -6 -1 -7 6 -2 10 6 12 -4 10 -39 -2 -25 0 -45 5 -45
5 0 13 -5 18 -13 6 -9 8 -5 6 12 -2 14 4 31 12 38 13 12 13 13 0 7 -8 -4 -3 3
13 15 18 14 27 31 27 50 0 15 7 33 16 41 9 7 14 22 11 36 -2 13 0 23 4 23 5 0
9 -4 9 -10 0 -5 8 -10 18 -10 11 0 13 3 5 8 -8 5 -9 13 -3 22 6 8 10 11 10 5
0 -5 7 1 15 15 13 22 14 23 15 5 1 -19 2 -18 21 4 11 13 18 29 16 35 -5 13 18
38 27 29 3 -4 6 -1 6 4 0 6 -6 14 -12 16 -7 3 -3 6 10 6 13 1 20 5 17 11 -4 6
-10 8 -15 5 -4 -3 -10 2 -14 10 -3 8 -11 15 -18 15 -15 0 -48 -35 -48 -49 0
-5 -7 -12 -15 -15 -9 -3 -15 -11 -14 -18 3 -19 -19 -68 -31 -68 -5 0 -10 8
-10 18 0 13 2 14 9 4 15 -24 19 34 4 59 -13 23 -13 23 -9 -8 3 -23 0 -33 -9
-33 -17 0 -26 -37 -15 -64 5 -13 4 -29 -1 -37 -6 -10 -9 -6 -9 14 0 17 -4 26
-11 22 -6 -4 -8 -13 -5 -20 3 -8 -4 -17 -17 -21 -35 -11 -52 -47 -19 -42 21 4
24 -33 3 -40 -10 -3 -12 0 -8 12 4 9 3 15 -2 11 -5 -3 -16 -2 -25 1 -13 5 -14
9 -5 20 7 8 9 17 5 21 -3 3 -6 1 -6 -5 0 -7 -4 -12 -8 -12 -4 0 -8 9 -8 19 0
11 4 18 7 15 4 -2 10 0 14 6 3 5 0 10 -7 10 -10 0 -10 2 1 9 8 5 15 22 17 37
4 38 8 57 15 69 3 6 6 39 7 74 0 47 5 67 16 73 9 5 16 14 16 20 0 6 -9 3 -20
-7 -11 -10 -20 -24 -20 -32 0 -7 -8 -13 -17 -13 -12 0 -14 -3 -7 -8 10 -6 20
-48 14 -62 -1 -3 -3 -16 -6 -30 -2 -14 -12 -31 -21 -37 -15 -12 -15 -13 3 -14
17 -1 17 -2 1 -6 -12 -3 -16 -11 -12 -23 3 -10 0 -22 -6 -26 -8 -5 -9 -3 -4 5
6 10 3 11 -13 2 -24 -13 -38 -31 -23 -31 5 0 12 6 14 13 4 8 6 9 6 0 1 -6 -5
-18 -12 -25 -8 -7 -13 -28 -13 -46 1 -20 -4 -32 -12 -32 -7 0 -10 -5 -7 -10 4
-6 10 -8 15 -5 5 3 11 1 14 -4 3 -5 -5 -11 -19 -13 -16 -3 -22 -1 -18 6 3 6
-4 1 -16 -11 -11 -12 -21 -26 -21 -32 0 -5 -6 -11 -12 -14 -8 -2 -9 -8 -4 -13
5 -5 11 -4 13 4 3 6 11 12 19 12 9 0 12 5 8 12 -4 7 -3 8 4 4 7 -4 12 -17 12
-29 0 -18 -2 -19 -10 -7 -6 9 -10 10 -10 3 0 -6 -10 -13 -22 -15 -17 -2 -22
-9 -20 -26 2 -12 0 -22 -5 -21 -4 1 -16 1 -27 0 -15 -1 -16 -4 -7 -15 10 -11
8 -16 -8 -21 -12 -3 -21 -10 -21 -14 0 -4 -17 -26 -38 -49 -22 -23 -38 -43
-36 -44 1 -2 -4 -9 -12 -16 -8 -7 -14 -10 -14 -8 0 3 -20 -15 -45 -40 -25 -25
-50 -42 -55 -39 -6 3 -10 -2 -10 -12 0 -9 -12 -28 -27 -40 -40 -35 -4 -29 46
8 49 35 77 43 87 26 4 -7 4 -9 0 -5 -8 7 -76 -60 -76 -74 0 -4 -9 -9 -19 -13
-10 -3 -21 -15 -24 -25 -8 -30 -37 -25 -37 5 0 14 -7 42 -15 62 -8 19 -15 37
-15 39 0 2 7 4 15 4 8 0 15 5 15 11 0 6 -9 9 -19 6 -15 -3 -22 2 -29 22 -6 14
-13 34 -17 44 -6 14 -2 17 19 17 29 0 96 25 96 36 0 3 -7 4 -15 0 -8 -3 -15
-1 -15 4 0 6 -9 1 -20 -10 -21 -21 -50 -27 -50 -11 0 8 13 16 35 20 6 2 14 9
18 17 5 8 12 12 17 9 5 -3 15 3 22 12 7 10 20 18 28 18 8 0 14 5 13 11 -1 6 9
17 22 24 14 7 25 18 26 24 0 15 59 60 59 46 0 -6 -15 -26 -33 -43 -34 -32 -65
-97 -46 -97 5 0 9 7 9 15 0 8 3 15 8 16 4 0 18 3 32 5 27 5 52 24 31 24 -7 0
-10 4 -7 9 4 5 2 11 -4 13 -5 1 18 31 51 65 34 35 65 60 70 57 5 -3 9 0 9 5 0
6 7 11 15 11 13 0 14 4 4 23 -6 12 -9 19 -5 15 11 -9 72 54 68 71 -2 8 1 24 7
35 5 12 15 40 21 64 6 23 15 42 20 42 5 0 7 6 4 14 -6 16 -34 10 -34 -6 0 -19
-61 -132 -78 -145 -10 -7 -14 -13 -11 -13 4 0 -8 -16 -27 -35 -32 -34 -64 -46
-64 -24 0 8 -5 8 -15 -1 -14 -11 -19 -7 -16 13 0 4 -5 7 -12 7 -8 0 -9 3 -1 8
6 4 16 17 23 30 7 12 16 20 20 17 5 -2 9 10 9 28 0 17 1 37 3 42 1 6 3 15 3
22 2 21 47 74 57 68 5 -4 8 -2 7 3 -2 6 45 60 105 121 59 61 104 111 101 111
-4 0 5 9 20 21 14 11 47 50 73 86 26 36 49 61 51 54 2 -6 8 -9 13 -5 5 3 9 -7
9 -21 0 -15 -4 -24 -10 -20 -5 3 -10 -1 -10 -10 0 -9 4 -14 9 -10 12 7 25 -31
16 -45 -10 -16 46 0 64 18 9 9 11 16 4 20 -6 4 -10 21 -9 37 1 24 -3 30 -19
30 -11 1 -28 6 -39 11 -15 9 -16 14 -6 30 20 31 161 149 176 148 8 -1 11 3 8
8 -4 6 2 8 12 6 14 -2 19 -12 19 -38 0 -19 5 -39 10 -43 6 -6 6 -10 -3 -14 -6
-2 -9 -9 -6 -15 9 -14 44 41 37 58 -3 8 -9 11 -14 8 -6 -3 -7 5 -3 20 10 41
10 51 -1 54 -5 1 -10 -2 -10 -7 0 -5 -3 -13 -7 -17 -5 -4 -8 -2 -8 5 0 39 229
261 269 261 12 0 12 3 3 12 -9 9 -18 9 -39 -1 -49 -22 -133 -84 -133 -98 0 -7
-5 -13 -10 -13 -11 0 -85 -73 -109 -108 -8 -12 -18 -19 -21 -17 -4 2 -23 -16
-44 -40 -20 -25 -43 -45 -51 -45 -9 0 -12 -6 -8 -17 5 -12 2 -15 -10 -10 -9 3
-17 2 -17 -3 0 -10 -47 -57 -84 -84 -14 -10 -26 -24 -26 -31 0 -7 -11 -23 -25
-36 -13 -13 -25 -28 -25 -32 0 -5 -10 -23 -22 -40 -12 -17 -17 -27 -10 -23 7
4 12 5 12 2 0 -3 -15 -12 -34 -20 -20 -8 -39 -26 -47 -44 -7 -17 -17 -28 -22
-25 -9 5 -57 -43 -57 -58 0 -5 -4 -9 -9 -9 -5 0 -25 -15 -44 -32 -18 -18 -50
-47 -70 -64 -19 -17 -44 -45 -55 -62 -10 -18 -22 -29 -25 -25 -4 3 -7 0 -7 -8
0 -8 -18 -35 -40 -59 -22 -25 -40 -50 -40 -56 0 -6 -7 -17 -15 -24 -9 -7 -13
-20 -10 -29 3 -11 0 -10 -10 3 -13 17 -15 18 -15 3 0 -9 -6 -17 -13 -17 -7 0
-17 -8 -24 -18 -6 -11 -27 -27 -47 -36 -20 -9 -34 -22 -30 -27 4 -7 10 -7 17
0 6 6 18 11 26 11 10 0 8 -7 -9 -25 -12 -13 -26 -23 -29 -20 -12 7 -34 -12
-27 -24 11 -17 35 -13 48 8 6 10 17 17 24 14 11 -4 38 30 39 49 0 3 4 10 9 15
5 5 6 3 2 -4 -5 -9 -1 -13 11 -13 11 0 24 -5 31 -12 9 -9 12 -8 12 4 0 8 7 21
15 28 12 10 15 10 15 -1 0 -9 3 -9 13 3 8 11 19 13 37 8 14 -5 20 -8 13 -9 -7
-1 -10 -8 -7 -16 4 -8 2 -15 -2 -16 -30 -2 -49 -9 -52 -18 -2 -6 -11 -11 -20
-11 -15 0 -15 -2 -2 -10 12 -8 12 -10 -5 -10 -11 0 -46 -16 -78 -35 -32 -19
-62 -35 -68 -35 -5 0 -9 -7 -9 -17 0 -15 2 -15 19 1 11 10 25 15 30 11 6 -3
18 1 27 9 19 20 34 21 34 2 0 -14 -93 -76 -115 -76 -25 0 -40 136 -27 252 5
47 4 84 -1 94 -13 23 -11 192 2 227 7 18 7 26 1 22 -16 -10 -12 7 7 27 11 12
16 32 15 52 -2 20 3 37 12 45 9 8 16 20 16 27 0 8 5 14 10 14 14 0 13 -13 -2
-28 -20 -20 -19 -48 2 -49 11 -1 20 2 20 8 0 5 6 9 14 9 16 0 14 -39 -3 -49
-5 -3 -3 -12 5 -19 14 -13 19 -5 15 21 0 4 7 15 17 25 33 35 62 76 62 89 0 7
5 13 10 13 6 0 10 5 10 11 0 16 -35 6 -36 -11 -1 -26 -16 -50 -27 -43 -5 3 -7
2 -4 -3 3 -6 2 -16 -3 -24 -7 -12 -12 -12 -22 -2 -10 10 -7 16 14 34 22 17 25
24 17 41 -8 14 -8 18 0 12 7 -4 21 5 32 19 11 15 24 24 29 21 11 -7 18 4 24
39 6 32 23 56 40 56 19 0 46 38 46 65 0 14 4 25 9 25 5 0 11 9 14 20 4 16 11
20 31 16 14 -3 26 -1 26 4 0 15 51 70 60 65 4 -3 13 10 19 28 9 23 14 28 20
19 7 -11 9 -11 14 2 4 9 14 16 22 16 9 0 24 8 33 17 20 19 25 53 8 53 -15 0
-57 -28 -74 -49 -12 -14 -13 -12 -10 13 3 34 77 94 116 95 14 1 26 9 31 23 4
13 10 17 14 11 4 -6 16 -9 27 -6 12 3 20 0 20 -6 0 -7 -4 -9 -10 -6 -5 3 -10
2 -10 -4 0 -14 -55 -42 -64 -33 -4 3 -4 -2 0 -12 5 -13 4 -17 -3 -13 -6 4 -13
-2 -16 -13 -6 -23 20 -29 29 -6 3 7 20 22 39 32 19 10 32 21 29 26 -3 4 2 5
10 2 9 -3 16 -1 16 5 0 10 83 80 118 100 14 8 14 11 -2 35 -22 35 -14 46 37
46 37 -1 39 -2 22 -12z m-95 -13 c-7 -9 -18 -14 -24 -12 -6 2 -22 -1 -36 -7
-29 -13 -50 -14 -69 -2 -9 6 -21 0 -37 -19 -13 -16 -24 -32 -24 -37 0 -4 -7
-8 -15 -8 -8 0 -15 -6 -15 -14 0 -17 -26 -40 -34 -28 -3 5 6 26 20 46 14 21
23 41 19 44 -8 8 -45 -39 -39 -49 2 -4 -2 -9 -10 -12 -11 -5 -13 3 -9 36 2 23
7 45 10 50 3 5 38 7 79 5 40 -3 71 -1 68 4 -3 5 17 8 45 7 28 -1 54 1 58 4 13
14 25 6 13 -8z m6 -40 c-15 -14 -33 -25 -40 -25 -8 0 -17 -7 -20 -16 -4 -9
-10 -14 -14 -9 -4 4 11 22 33 41 46 39 82 47 41 9z m-296 -7 c0 -30 -15 -54
-24 -39 -4 6 -13 11 -19 11 -8 0 -9 -3 -1 -8 7 -5 7 -14 -2 -31 -10 -20 -13
-21 -21 -7 -20 36 -7 -60 14 -106 l22 -48 -47 -45 c-25 -25 -50 -45 -55 -45
-4 0 -5 -5 -1 -11 4 -7 1 -10 -7 -7 -16 5 -18 31 -7 66 4 13 3 22 -2 22 -6 0
-10 -3 -11 -7 -7 -88 -22 -143 -38 -143 -8 0 -24 -37 -22 -52 1 -5 -5 -8 -12
-8 -8 0 -24 -9 -37 -20 -13 -11 -30 -20 -39 -20 -13 0 -13 2 -2 9 8 6 11 16 6
31 -5 14 -3 20 3 16 10 -6 25 32 36 91 4 27 2 33 -17 39 -12 5 -25 7 -29 6
-10 -2 -10 2 -1 24 6 16 7 16 14 -2 5 -12 8 0 9 36 0 31 9 73 20 98 10 23 19
43 19 45 -1 1 5 14 11 29 9 19 23 28 49 33 20 3 47 14 61 23 32 22 79 39 108
41 17 1 22 -4 22 -21z m60 -198 c0 -5 -4 -10 -9 -10 -6 0 -13 5 -16 10 -3 6 1
10 9 10 9 0 16 -4 16 -10z m-355 -140 c0 -8 4 -21 8 -27 10 -16 -1 -36 -14
-28 -5 4 -9 1 -9 -6 0 -7 -8 -9 -21 -6 -16 4 -18 3 -9 -8 7 -8 9 -23 5 -35 -9
-30 -23 -24 -17 8 3 19 1 24 -6 17 -6 -6 -13 -20 -15 -32 -4 -28 -17 -42 -17
-20 0 29 35 87 53 87 9 0 17 7 17 15 0 8 -4 15 -9 15 -5 0 -7 9 -4 20 6 24 38
23 38 0z m-25 -199 c-10 -20 -30 -37 -30 -27 0 6 33 46 38 46 1 0 -2 -9 -8
-19z m640 -21 c12 -7 10 -9 -8 -7 -12 0 -22 5 -22 9 0 11 12 10 30 -2z m1162
-173 c-11 -20 -19 -54 -21 -84 -1 -19 -41 -16 -41 2 0 20 39 98 54 107 17 11
20 0 8 -25z m-263 -153 c-10 -12 -14 -12 -20 -2 -12 18 -11 31 0 23 5 -3 13 0
17 7 6 9 9 9 12 0 2 -7 -2 -19 -9 -28z m-1399 -158 c0 -3 -4 -8 -10 -11 -5 -3
-10 -1 -10 4 0 6 5 11 10 11 6 0 10 -2 10 -4z m310 -40 c0 -2 -7 -7 -16 -10
-8 -3 -12 -2 -9 4 6 10 25 14 25 6z m941 -19 c-10 -9 -11 -8 -5 6 3 10 9 15
12 12 3 -3 0 -11 -7 -18z m-1171 -48 c0 -6 -4 -7 -10 -4 -5 3 -10 11 -10 16 0
6 5 7 10 4 6 -3 10 -11 10 -16z m-120 -14 c8 -11 10 -17 6 -13 -5 4 -14 4 -20
-1 -7 -6 -18 -4 -30 5 -19 14 -19 14 2 14 12 0 22 5 22 12 0 6 1 9 3 7 1 -2 9
-13 17 -24z m61 -30 c5 4 7 11 4 16 -4 5 -1 9 4 9 16 0 14 -11 -10 -49 -17
-29 -34 -35 -34 -13 0 4 -4 13 -9 21 -6 10 -5 12 2 7 8 -5 12 1 12 16 1 21 2
21 11 5 6 -9 15 -15 20 -12z m1039 -73 c0 -5 -7 -9 -15 -9 -8 0 -12 4 -9 9 3
4 9 8 15 8 5 0 9 -4 9 -8z m56 -51 c-9 -10 -14 -21 -11 -24 3 -4 2 -5 -2 -2
-3 3 -12 -3 -19 -13 -7 -9 -15 -15 -18 -12 -11 11 7 49 25 55 10 4 19 11 19
16 0 6 5 7 11 4 7 -5 5 -13 -5 -24z m-880 -6 c0 -14 -9 -28 -19 -31 -9 -3 -15
-9 -13 -13 3 -4 -1 -8 -8 -8 -10 0 -10 6 -2 24 6 12 14 23 18 23 4 0 5 7 2 15
-4 9 0 15 9 15 10 0 14 -9 13 -25z m-136 11 c0 -3 -4 -8 -10 -11 -5 -3 -10 -1
-10 4 0 6 5 11 10 11 6 0 10 -2 10 -4z m891 -83 c-9 -17 -10 -17 -16 0 -4 9
-1 25 6 34 13 15 14 15 17 0 2 -9 -1 -24 -7 -34z m-891 27 c0 -5 -7 -7 -15 -4
-8 4 -15 8 -15 10 0 2 7 4 15 4 8 0 15 -4 15 -10z m1200 0 c0 -5 -4 -10 -10
-10 -5 0 -10 5 -10 10 0 6 5 10 10 10 6 0 10 -4 10 -10z m-1230 -25 c0 -7 -54
-55 -58 -51 -7 8 31 56 44 56 8 0 14 -2 14 -5z m150 -11 c0 -9 -5 -14 -12 -12
-18 6 -21 28 -4 28 9 0 16 -7 16 -16z m837 -16 c-3 -7 -5 -2 -5 12 0 14 2 19
5 13 2 -7 2 -19 0 -25z m-907 12 c0 -5 -7 -10 -16 -10 -13 0 -14 -3 -4 -15 6
-8 10 -20 7 -27 -3 -7 -6 -4 -7 7 -1 18 -2 18 -16 -5 -10 -17 -13 -18 -9 -5 4
11 8 29 10 40 3 26 3 25 20 25 8 0 15 -4 15 -10z m890 -9 c0 -10 -9 -21 -20
-24 -22 -6 -27 12 -8 31 17 17 28 15 28 -7z m-58 -27 c-2 -10 -5 -32 -5 -49
-2 -31 -26 -53 -62 -55 -11 -1 -14 -4 -7 -7 9 -3 6 -13 -9 -35 -17 -23 -24
-27 -30 -16 -6 9 -9 2 -9 -20 0 -19 -6 -35 -15 -38 -17 -7 -39 -69 -31 -89 3
-8 1 -15 -4 -15 -6 0 -10 9 -10 19 0 11 -5 23 -11 26 -7 5 -9 -3 -6 -21 2 -16
1 -38 -4 -49 -4 -11 -8 -14 -8 -7 -1 6 -5 12 -11 12 -14 0 -1 -28 17 -35 9 -3
20 -1 23 6 4 6 10 10 14 10 3 -1 5 2 4 5 -2 3 9 12 25 20 27 15 33 25 20 38
-11 10 -12 65 -2 71 5 4 9 -1 9 -10 0 -11 5 -15 15 -11 21 8 19 -14 -2 -30
-17 -13 -17 -15 -1 -27 16 -12 15 -16 -7 -55 -13 -22 -26 -55 -30 -72 -4 -17
-9 -29 -11 -27 -3 2 -29 -21 -59 -51 -30 -31 -58 -53 -61 -49 -10 10 29 86 40
80 5 -3 7 0 4 8 -2 7 4 22 14 33 24 26 23 43 -3 56 -17 9 -23 8 -35 -7 -13
-17 -13 -17 -14 5 0 29 -17 20 -32 -16 -9 -22 -12 -24 -15 -9 -3 12 -10 16
-24 12 -23 -8 -24 -2 -3 20 14 13 19 14 26 3 7 -9 8 -6 5 10 -3 12 -2 20 1 19
10 -5 42 30 35 37 -4 3 3 14 14 23 11 10 25 28 32 41 7 12 17 22 24 20 14 -3
57 23 57 35 0 4 -10 3 -22 -4 -18 -10 -20 -9 -15 6 4 9 7 21 7 26 0 5 6 9 14
9 7 0 22 16 32 36 11 20 23 44 29 55 5 10 19 19 30 21 11 2 27 17 35 35 16 34
37 39 32 7z m-806 4 c4 -7 3 -8 -4 -4 -7 4 -12 2 -12 -5 0 -7 -3 -10 -6 -6 -6
5 3 27 11 27 2 0 7 -5 11 -12z m734 -18 c0 -5 -7 -7 -15 -4 -8 4 -15 8 -15 10
0 2 7 4 15 4 8 0 15 -4 15 -10z m125 -37 c-7 -17 -8 -17 -15 2 -7 19 -7 19
-14 -2 -4 -13 -12 -23 -17 -23 -16 0 -10 22 13 42 25 21 45 10 33 -19z m-965
-12 c0 -12 -20 -25 -27 -18 -7 7 6 27 18 27 5 0 9 -4 9 -9z m-96 -26 c-9 -14
-20 -25 -25 -25 -13 0 -11 7 8 30 25 28 37 25 17 -5z m1036 -4 c0 -12 -20 -25
-27 -18 -7 7 6 27 18 27 5 0 9 -4 9 -9z m-986 -26 c-11 -8 -14 -14 -6 -15 10
0 10 -3 0 -14 -13 -13 -32 -15 -43 -4 -7 7 43 48 58 48 6 0 2 -7 -9 -15z m924
-21 c1 -15 -3 -24 -9 -22 -6 2 -10 7 -10 11 1 4 1 14 1 22 0 26 16 16 18 -11z
m32 -36 c0 -5 -3 -7 -7 -6 -13 4 -62 -51 -50 -55 8 -2 8 -5 0 -10 -7 -4 -15 5
-22 23 -10 29 1 43 13 18 4 -7 4 -3 2 10 -2 12 0 22 5 22 5 0 9 -5 9 -11 0 -6
7 -4 15 5 8 8 15 21 15 28 0 10 3 9 10 -2 5 -8 10 -18 10 -22z m-946 7 c3 -8
1 -15 -4 -15 -6 0 -10 7 -10 15 0 8 2 15 4 15 2 0 6 -7 10 -15z m716 -15 c0
-5 -5 -10 -11 -10 -5 0 -7 5 -4 10 3 6 8 10 11 10 2 0 4 -4 4 -10z m-41 -74
c-7 -6 -19 -18 -26 -26 -19 -23 -15 3 4 27 10 12 21 19 26 16 5 -3 3 -10 -4
-17z m342 -64 c-6 -2 -9 -7 -6 -12 3 -4 -2 -10 -10 -13 -12 -5 -11 0 3 30 13
27 18 32 21 17 2 -10 -2 -20 -8 -22z m99 34 c0 -3 -4 -8 -10 -11 -5 -3 -10 -1
-10 4 0 6 5 11 10 11 6 0 10 -2 10 -4z m-81 -108 c-13 -24 -16 -23 -13 5 1 12
3 27 3 32 1 6 5 3 10 -4 6 -9 6 -22 0 -33z m-37 -50 c-7 -7 -12 -22 -12 -34 0
-23 -16 -41 -27 -30 -4 4 -1 12 5 18 7 7 12 19 12 28 0 18 21 43 29 35 2 -3
-1 -11 -7 -17z m-332 2 c0 -5 -4 -10 -10 -10 -5 0 -10 5 -10 10 0 6 5 10 10
10 6 0 10 -4 10 -10z m110 -91 c0 -11 -4 -18 -8 -15 -5 3 -15 -7 -23 -21 -8
-15 -24 -37 -35 -50 -30 -32 -41 -4 -13 31 11 14 18 26 14 26 -9 0 48 49 58
50 4 0 7 -9 7 -21z m-100 -49 c0 -5 -5 -10 -11 -10 -5 0 -7 5 -4 10 3 6 8 10
11 10 2 0 4 -4 4 -10z m190 -124 c0 -3 -4 -8 -10 -11 -5 -3 -10 -1 -10 4 0 6
5 11 10 11 6 0 10 -2 10 -4z m0 -224 c0 -19 -3 -21 -19 -12 -11 5 -31 10 -45
10 -26 0 -40 12 -29 24 4 4 26 5 50 4 37 -3 43 -6 43 -26z m41 -9 c12 -16 12
-17 -2 -6 -9 7 -19 10 -22 6 -4 -3 -7 -1 -7 5 0 17 16 15 31 -5z m105 -7 c20
-20 18 -26 -8 -26 -26 1 -61 24 -51 33 11 12 44 8 59 -7z m-286 1 c0 -2 -9
-12 -20 -22 -24 -21 -27 -14 -4 9 15 15 24 20 24 13z m26 -32 c-3 -9 -11 -13
-16 -10 -8 5 -7 11 1 21 14 18 24 11 15 -11z m217 -17 c14 -1 24 -5 21 -9 -2
-4 10 -19 27 -33 17 -15 29 -29 26 -32 -6 -7 -47 18 -47 28 0 5 -6 8 -13 8 -8
0 -22 9 -31 19 -10 11 -24 17 -32 14 -10 -4 -12 0 -8 11 5 12 10 14 19 6 6 -5
24 -11 38 -12z m-112 -2 c-8 -10 -9 -16 -1 -21 5 -3 10 -15 10 -26 0 -19 11
-25 23 -13 3 3 -3 15 -13 27 -24 25 -21 30 13 22 18 -5 24 -12 21 -23 -4 -13
-2 -13 10 2 11 13 16 15 16 6 0 -7 3 -10 7 -7 4 4 19 -5 35 -20 15 -15 28 -23
28 -19 0 4 16 -14 36 -39 35 -46 35 -47 16 -65 -20 -19 -45 -13 -40 10 2 7 -3
15 -11 18 -8 3 -11 0 -7 -7 4 -6 3 -11 -2 -11 -16 0 -22 13 -11 27 7 8 -10 4
-42 -9 -38 -16 -54 -19 -57 -10 -7 22 -21 12 -30 -20 -10 -39 4 -85 33 -111
20 -18 20 -18 -2 -12 -16 4 -23 2 -23 -7 0 -13 -43 -38 -66 -38 -7 0 -15 -6
-17 -12 -3 -8 -6 -6 -6 5 -1 9 -5 17 -11 17 -5 0 -10 6 -10 14 0 8 -11 17 -25
20 -14 4 -25 12 -25 18 0 7 -7 2 -16 -10 -9 -13 -13 -26 -10 -29 3 -4 6 -1 6
5 0 7 3 12 8 12 9 0 8 -72 -2 -88 -4 -7 -13 -12 -20 -12 -15 0 -39 47 -31 61
4 5 2 9 -4 9 -7 0 -6 10 0 30 6 17 18 30 26 30 8 0 11 5 8 10 -3 6 -3 16 1 22
11 18 12 48 2 48 -4 0 -8 -7 -8 -17 0 -9 -3 -13 -6 -10 -11 11 18 67 35 67 14
0 14 2 1 11 -13 9 -13 10 0 6 8 -2 14 -13 12 -23 -3 -22 49 34 74 79 21 39 69
97 81 97 3 0 0 -6 -6 -14z m183 1 c11 -8 17 -19 15 -26 -3 -9 -11 -7 -27 7
-35 30 -25 46 12 19z m-266 -15 c-2 -10 -11 -16 -21 -14 -10 2 -17 -3 -17 -12
0 -9 -11 -23 -25 -32 -14 -9 -25 -24 -25 -34 0 -10 -7 -20 -15 -24 -8 -3 -15
-15 -15 -26 0 -11 -3 -20 -7 -20 -10 0 -32 -48 -29 -63 1 -7 -2 -2 -8 11 -5
12 -13 22 -18 22 -4 0 -8 10 -7 23 0 21 1 21 10 -3 8 -20 12 -22 19 -10 5 8
10 23 10 33 0 10 5 15 10 12 6 -3 11 -1 11 4 3 26 4 30 12 37 4 4 7 16 7 26 0
10 4 18 9 18 8 0 24 37 22 52 0 4 6 5 14 2 8 -4 15 -2 15 3 0 5 12 10 26 11
19 1 25 -2 22 -16z m492 -17 c8 5 36 -122 28 -130 -8 -8 -50 84 -43 95 3 5 -1
10 -9 10 -22 0 -30 19 -15 36 11 14 13 14 21 -1 5 -8 13 -13 18 -10z m-622
-35 c5 -13 3 -13 -12 -1 -15 12 -16 12 -9 -5 6 -16 5 -17 -9 -4 -9 8 -14 19
-11 23 8 13 36 4 41 -13z m109 -15 c0 -8 -4 -12 -9 -9 -5 4 -8 -2 -6 -12 2
-13 -4 -19 -19 -20 -12 -1 -20 3 -17 8 3 4 10 6 15 3 5 -4 9 0 9 7 0 8 5 19
12 26 15 15 15 15 15 -3z m333 -41 c0 -8 -4 -14 -10 -14 -5 0 -10 4 -10 9 0 5
-3 18 -7 28 -6 16 -5 16 10 4 9 -7 17 -20 17 -27z m162 -24 c11 -16 21 -63 28
-125 6 -55 17 -130 25 -166 18 -82 19 -124 3 -136 -8 -5 -60 -8 -121 -5 -95 4
-108 6 -103 21 5 14 5 14 -6 1 -7 -8 -22 -17 -33 -18 -11 -2 -21 -8 -23 -13
-2 -5 -9 -9 -15 -9 -7 1 -2 9 10 19 12 10 18 23 14 30 -10 15 -41 3 -41 -15 0
-8 -7 -14 -15 -14 -8 0 -24 -5 -34 -12 -14 -9 -28 -8 -61 6 -30 12 -40 13 -33
4 8 -9 7 -17 -3 -26 -8 -7 -14 -9 -14 -5 0 5 -12 10 -27 11 -46 4 -122 76
-138 130 -5 19 -3 22 20 22 22 0 26 4 21 17 -4 10 -4 14 0 10 4 -4 16 0 26 9
14 14 20 14 33 4 13 -10 15 -9 15 8 0 14 6 19 18 18 9 -2 20 2 24 8 5 7 8 6 8
-4 0 -13 1 -13 10 0 7 11 10 7 10 -17 0 -17 5 -35 12 -39 7 -5 8 -3 3 6 -6 10
-4 12 8 7 19 -7 25 8 21 50 -2 18 1 35 7 39 7 4 9 -1 7 -12 -4 -21 42 -47 67
-37 9 3 23 -1 32 -8 9 -8 14 -9 10 -3 -4 6 8 19 28 30 37 20 42 28 24 40 -8 5
-6 10 5 16 15 8 15 12 -1 41 -22 42 -23 50 -7 65 8 7 14 11 14 10 0 -2 7 -21
15 -43 8 -22 14 -31 15 -20 0 39 28 -18 34 -71 4 -29 3 -44 -3 -36 -6 10 -11
4 -16 -20 -5 -18 -9 -40 -10 -48 -1 -8 -9 -30 -18 -47 -14 -27 -15 -33 -3 -33
26 0 60 104 60 190 1 30 6 61 13 68 20 21 27 83 13 106 -8 12 -9 21 -3 23 6 2
19 10 29 18 17 12 20 11 24 -3 3 -9 13 -28 22 -42z m-646 8 c-19 -26 -20 -20
-5 19 6 15 13 22 16 16 2 -7 -3 -23 -11 -35z m374 -70 c0 -11 -49 23 -50 35 0
4 11 0 25 -9 14 -9 25 -20 25 -26z m196 6 c-4 -9 -9 -15 -11 -12 -3 3 -3 13 1
22 4 9 9 15 11 12 3 -3 3 -13 -1 -22z m-611 -32 c-5 -14 -7 -14 -15 -2 -5 9
-4 20 3 28 14 17 22 0 12 -26z m764 -74 c5 -29 12 -80 15 -113 l6 -60 -14 50
c-14 51 -29 175 -22 175 3 0 9 -24 15 -52z m-722 -44 c-3 -4 0 -16 8 -28 21
-30 19 -43 -10 -48 -21 -4 -25 -1 -25 18 0 12 -6 24 -12 27 -9 3 -7 10 7 21
19 15 45 23 32 10z m-138 -138 c-1 -22 -3 -32 -6 -21 -2 11 -8 32 -13 47 -7
21 -6 26 6 21 9 -3 14 -19 13 -47z m197 -13 c16 -30 39 -61 52 -69 33 -21 18
-33 -54 -44 -32 -4 -76 -11 -96 -15 -35 -7 -37 -5 -43 21 -4 16 -11 39 -16 52
-5 13 -9 40 -9 62 0 38 1 39 38 42 95 9 97 8 128 -49z m-165 -125 c6 -12 6
-18 -1 -18 -14 0 -30 45 -29 78 1 25 2 24 11 -8 5 -19 14 -43 19 -52z m704 19
c66 -3 125 -6 130 -7 6 -2 18 0 27 4 17 8 67 -20 68 -37 0 -5 7 -15 15 -23 8
-9 15 -26 15 -40 0 -13 5 -24 10 -24 6 0 10 -17 10 -37 0 -28 3 -34 10 -23 8
12 10 12 10 -5 0 -21 20 -82 32 -101 4 -6 10 -33 13 -59 3 -26 12 -63 19 -84
28 -77 36 -109 41 -161 3 -30 10 -66 16 -80 5 -14 11 -49 12 -77 2 -29 6 -55
10 -59 12 -12 8 -36 -4 -28 -8 5 -10 -2 -6 -22 3 -16 0 -38 -5 -48 -6 -11 -11
-29 -12 -41 -1 -14 -9 -21 -28 -23 -16 -2 -28 -8 -28 -14 0 -5 7 -7 16 -4 10
4 13 2 8 -7 -13 -22 -37 -47 -46 -47 -14 0 -6 52 11 73 12 15 12 17 -2 17 -12
0 -15 8 -12 31 3 18 7 34 10 37 2 3 1 10 -4 16 -12 16 -20 56 -11 56 4 0 7 18
6 40 -1 22 2 40 6 40 7 0 10 -24 11 -87 0 -13 4 -23 9 -23 6 0 8 7 5 15 -4 8
-2 17 4 21 7 4 6 10 0 18 -6 7 -13 46 -15 87 -5 77 -12 109 -26 109 -14 0 -21
-37 -16 -82 3 -24 3 -37 -1 -29 -5 11 -7 11 -15 0 -7 -10 -8 -8 -3 6 11 28 8
57 -5 65 -8 5 -7 9 4 13 9 4 16 13 16 22 0 8 6 15 14 15 7 0 16 9 19 20 3 11
1 20 -4 20 -5 0 -9 12 -9 26 0 14 -4 23 -8 20 -5 -3 -6 8 -4 25 3 18 0 29 -8
29 -8 0 -11 12 -8 34 2 19 0 32 -4 29 -5 -2 -6 6 -3 19 4 16 -1 30 -16 46 -12
14 -21 37 -22 58 -1 19 -5 34 -10 34 -5 0 -6 7 -3 16 3 8 2 12 -4 9 -10 -6
-14 7 -11 34 2 7 -2 10 -8 7 -5 -4 -15 10 -22 29 -7 19 -17 35 -22 35 -5 0 -6
7 -3 15 3 10 -1 18 -12 21 -9 3 -25 10 -34 15 -10 5 -19 5 -22 0 -3 -5 3 -11
13 -14 21 -5 54 -64 41 -72 -5 -3 -14 3 -19 14 -13 24 -46 38 -37 16 3 -8 2
-15 -3 -15 -12 0 -47 41 -41 48 3 4 -4 8 -15 9 l-20 3 20 -9 c11 -5 16 -10 11
-10 -5 -1 -2 -8 5 -18 13 -15 12 -15 -8 -4 -13 6 -23 8 -23 4 0 -4 -5 -1 -10
7 -7 12 -9 10 -7 -8 1 -14 6 -21 14 -18 7 3 13 1 13 -4 0 -5 7 -7 15 -4 9 4
23 -3 34 -15 20 -23 31 -18 31 13 0 16 6 12 27 -19 14 -22 30 -42 33 -45 4 -3
10 -26 14 -52 4 -27 12 -48 18 -48 5 0 8 7 4 15 -3 8 -1 15 4 15 14 0 12 -22
-5 -44 -12 -16 -12 -22 -3 -27 7 -5 13 -14 13 -21 2 -41 18 -129 25 -133 4 -3
13 2 20 10 10 12 10 15 0 15 -8 0 -11 3 -7 6 3 3 11 3 17 -1 8 -5 3 -17 -16
-36 -15 -16 -22 -29 -15 -29 8 0 10 -7 6 -20 -3 -11 -3 -25 1 -32 12 -18 12
-48 1 -55 -5 -3 -4 -8 2 -13 14 -8 21 -139 9 -146 -4 -3 -5 -23 -2 -45 4 -26
3 -39 -5 -39 -14 0 -12 -6 -17 65 -2 36 0 55 5 47 6 -10 10 -8 14 8 5 18 2 21
-13 17 -11 -3 -21 0 -24 7 -3 6 -4 -9 -1 -34 4 -38 3 -42 -7 -25 -15 25 -48
61 -48 52 0 -4 12 -30 26 -57 14 -27 24 -57 22 -67 -2 -10 2 -22 8 -28 14 -12
27 -92 16 -99 -4 -2 -14 9 -21 26 -10 22 -16 27 -22 17 -13 -21 -11 -29 6 -23
22 9 18 -9 -5 -24 -17 -11 -23 -10 -37 4 -16 15 -19 14 -41 -12 -13 -16 -21
-23 -18 -16 4 6 2 12 -3 12 -6 0 -11 -6 -12 -12 0 -10 -2 -10 -6 0 -7 17 -23
15 -23 -3 0 -8 9 -20 20 -27 11 -7 20 -18 20 -25 0 -7 5 -13 10 -13 7 0 7 6 1
19 -8 15 -5 20 17 31 15 7 37 14 49 16 13 1 32 5 43 9 27 9 50 -6 24 -16 -15
-6 -16 -8 -3 -8 12 -1 18 -13 21 -42 2 -22 0 -43 -4 -45 -5 -3 -6 -9 -3 -14 3
-4 -11 -6 -30 -3 -21 3 -35 0 -35 -6 0 -6 -9 -11 -21 -11 -11 0 -18 -4 -14 -9
3 -5 22 -8 42 -6 l37 3 -24 -18 c-31 -24 -50 -31 -170 -64 -139 -38 -170 -42
-170 -22 0 9 5 16 12 16 6 0 8 3 5 6 -4 4 -14 1 -23 -7 -13 -11 -15 -11 -12 3
1 9 -1 16 -7 15 -5 -1 -10 -14 -9 -29 1 -26 -14 -41 -17 -18 -1 6 -2 16 -3 23
-1 6 -9 11 -18 9 -9 -1 -19 2 -23 8 -5 9 15 15 38 11 5 -1 6 3 3 8 -11 17 38
21 52 4 11 -15 12 -15 12 -1 0 21 34 32 57 19 10 -6 14 -11 8 -11 -5 0 0 -7
13 -15 16 -12 27 -13 41 -5 11 5 27 10 36 10 18 0 50 28 42 36 -3 3 -14 1 -26
-5 -14 -8 -22 -8 -26 -1 -4 6 -15 8 -26 5 -10 -4 -19 -2 -19 3 0 6 12 9 26 7
35 -3 96 14 89 25 -3 5 -1 11 5 15 5 3 10 -1 10 -10 0 -9 5 -13 10 -10 17 11
11 35 -10 35 -10 0 -24 8 -30 18 -11 16 -11 15 -5 -2 3 -11 0 -23 -7 -28 -18
-11 -40 -10 -33 2 3 6 1 10 -4 10 -6 0 -11 9 -11 20 0 25 -30 27 -31 3 -1 -10
-1 -21 0 -25 0 -5 -6 -8 -15 -8 -8 0 -13 4 -9 9 3 5 1 12 -5 16 -15 9 -12 35
4 35 7 0 19 7 26 15 7 8 10 15 7 15 -3 0 -13 3 -21 6 -12 5 -15 2 -10 -10 3
-9 1 -16 -5 -16 -6 0 -11 9 -11 21 0 11 -4 18 -10 14 -5 -3 -7 -12 -3 -20 3
-10 -1 -15 -13 -15 -16 0 -15 -2 4 -20 26 -25 27 -30 6 -30 -8 0 -12 4 -9 10
3 6 -1 7 -10 4 -10 -4 -13 -13 -10 -25 5 -14 1 -19 -13 -19 -10 0 -25 -11 -32
-25 -14 -27 -37 -34 -37 -11 0 8 6 12 12 9 7 -2 15 2 18 10 4 11 -4 14 -34 12
-21 -1 -39 2 -39 6 0 5 4 9 9 9 5 0 17 3 27 7 13 5 15 3 9 -8 -6 -11 -5 -12 5
-2 16 15 22 43 9 43 -5 0 -9 -5 -9 -11 0 -8 -5 -8 -15 1 -10 9 -15 9 -15 1 0
-6 -9 -11 -21 -11 -15 0 -19 -4 -14 -19 5 -16 1 -19 -19 -17 -14 2 -23 -1 -20
-5 3 -5 12 -9 20 -9 8 0 13 -4 9 -10 -3 -5 -11 -7 -18 -4 -7 2 -21 -2 -32 -11
-16 -12 -17 -16 -6 -24 9 -6 10 -11 2 -15 -6 -4 -11 -12 -11 -17 0 -5 12 1 27
15 27 25 79 43 91 32 3 -4 -4 -9 -16 -13 -12 -3 -22 -9 -22 -14 0 -5 -8 -9
-17 -10 -16 0 -16 -1 -2 -7 9 -4 15 -14 14 -23 -2 -10 4 -16 12 -15 9 0 18 -5
20 -11 6 -16 -73 -18 -82 -3 -4 6 -11 8 -16 5 -5 -4 -9 -1 -9 6 0 10 -3 10
-12 1 -7 -7 -20 -12 -29 -12 -9 0 -22 -6 -28 -14 -6 -7 -42 -16 -84 -20 -102
-10 -112 -11 -125 -20 -7 -4 -12 -3 -12 3 0 5 5 13 11 17 16 10 -7 29 -35 29
-25 1 -25 -19 0 -29 16 -6 19 -26 3 -26 -5 0 -7 5 -4 10 3 6 1 10 -4 10 -17 0
-26 -4 -24 -11 1 -4 -21 -7 -49 -8 -28 0 -48 2 -45 6 4 3 1 13 -6 21 -10 13
-9 14 12 3 15 -8 21 -9 17 -2 -9 14 9 14 36 0 15 -8 23 -8 32 2 8 9 7 11 -7 6
-11 -4 -20 -1 -23 8 -4 10 -12 12 -30 5 -14 -6 -24 -6 -24 0 0 4 8 11 18 13
13 4 11 5 -5 6 -13 0 -23 -3 -23 -9 0 -5 -7 -10 -16 -10 -8 0 -12 -4 -9 -10 3
-5 0 -10 -8 -10 -16 0 -22 37 -37 210 -5 58 -15 155 -24 215 -11 81 -14 152
-9 270 5 129 3 175 -10 235 -10 41 -21 117 -26 168 -6 52 -15 100 -22 108 -9
12 -5 14 28 14 22 0 62 7 89 15 27 8 66 15 86 15 20 0 49 4 63 10 41 16 170
25 161 12 -3 -6 -2 -13 4 -17 5 -3 10 -1 10 6 0 8 7 5 20 -6 15 -14 23 -15 33
-6 8 6 17 8 20 4 4 -3 7 -1 7 5 0 6 -10 18 -22 27 -21 14 -23 14 -29 -2 -4
-12 -8 -13 -13 -4 -9 14 10 41 30 41 7 0 19 -6 26 -14 15 -15 81 -13 86 3 2 5
11 7 22 4 20 -5 34 -40 19 -49 -5 -3 -9 -11 -9 -17 0 -7 5 -4 11 6 6 10 22 17
39 17 17 0 30 5 30 11 0 6 7 8 16 5 11 -4 18 1 21 14 4 15 9 18 18 10 11 -9
12 -6 7 12 -4 19 -3 21 9 11 8 -7 64 -13 134 -16z m260 -369 c-5 -23 -15 -37
-16 -22 0 5 -2 19 -3 31 -2 13 2 19 10 16 7 -2 11 -14 9 -25z m30 -182 c0 -19
-2 -33 -6 -30 -4 2 -7 20 -7 40 0 45 11 36 13 -10z m45 -109 c0 -5 -4 -5 -10
-2 -5 3 -10 14 -10 23 0 15 2 15 10 2 5 -8 10 -19 10 -23z m-32 -194 c-2 -17
-8 -27 -16 -25 -8 1 -11 -2 -7 -8 11 -18 14 -70 4 -70 -6 0 -7 -4 -4 -10 3 -5
-1 -10 -10 -10 -9 0 -13 5 -10 10 3 6 3 16 -2 23 -16 25 -11 66 8 72 11 4 19
15 19 26 0 10 5 19 11 19 6 0 9 -12 7 -27z m-162 -150 c-10 -10 -19 5 -10 18
6 11 8 11 12 0 2 -7 1 -15 -2 -18z m152 -1 c2 -7 -3 -12 -10 -12 -8 0 -15 7
-15 15 0 18 19 15 25 -3z m19 -37 c-8 -19 -44 -20 -44 0 0 18 23 20 30 3 3 -7
6 -4 6 6 1 11 4 17 7 13 4 -3 4 -13 1 -22z m-21 -50 c-3 -9 -11 -13 -16 -10
-8 5 -7 11 1 21 14 18 24 11 15 -11z m-366 -59 c0 -8 -31 -36 -41 -36 -5 0 -9
9 -9 20 0 15 7 20 25 20 14 0 25 -2 25 -4z m90 -45 c0 -11 -31 -24 -39 -16 -3
3 1 10 9 15 19 12 30 12 30 1z"/>
<path d="M2930 5184 c0 -12 -4 -13 -21 -4 -18 10 -20 9 -17 -12 2 -13 9 -22
17 -20 11 2 12 0 3 -11 -6 -7 -9 -25 -6 -40 3 -22 1 -27 -16 -27 -11 0 -20 -4
-20 -10 0 -5 5 -10 11 -10 6 0 9 -7 6 -15 -4 -8 -1 -17 4 -21 6 -4 1 -16 -13
-32 -13 -14 -16 -21 -8 -16 8 5 24 9 35 9 11 0 26 4 34 9 10 7 12 3 6 -15 -4
-13 -14 -29 -21 -37 -8 -7 -12 -17 -9 -22 3 -4 -2 -10 -10 -14 -8 -3 -15 -15
-15 -26 0 -13 -4 -18 -11 -15 -6 4 -13 -2 -16 -14 -4 -15 -12 -20 -29 -18 -30
4 -33 7 -36 44 -1 18 -6 29 -10 27 -4 -3 -8 0 -8 7 0 7 -3 10 -6 6 -3 -3 -2
-12 2 -19 11 -18 13 -59 2 -52 -4 3 -8 10 -8 15 0 6 -7 17 -15 25 -20 20 -19
4 1 -25 9 -13 30 -29 46 -36 l30 -12 -23 -23 c-13 -13 -19 -20 -12 -16 6 3 14
2 18 -4 3 -5 -2 -10 -12 -11 -23 -1 -54 -7 -58 -11 -2 -2 -5 -21 -7 -43 -2
-29 1 -39 10 -37 8 1 11 -2 7 -8 -3 -6 -10 -8 -15 -5 -12 8 -26 -17 -25 -47 1
-19 -2 -24 -10 -18 -15 12 -25 3 -18 -16 3 -9 -1 -14 -12 -14 -15 0 -16 6 -10
38 4 20 8 61 8 90 0 28 5 52 10 52 5 0 4 7 -3 15 -10 12 -10 19 -2 27 19 19
14 30 -10 26 -18 -2 -23 -10 -23 -33 0 -16 -4 -33 -10 -37 -6 -5 -5 -8 3 -8 7
0 10 -5 6 -11 -4 -7 -8 -26 -10 -43 -1 -17 0 -25 3 -18 2 6 8 10 13 7 11 -7 1
-45 -12 -45 -5 0 -6 5 -3 10 3 6 2 10 -4 10 -5 0 -9 -9 -8 -19 0 -11 5 -17 9
-15 4 3 8 -2 8 -10 0 -9 -4 -16 -10 -16 -5 0 -10 -9 -10 -20 0 -10 -8 -24 -17
-29 -10 -6 -12 -11 -5 -11 6 0 12 -5 12 -11 0 -5 -4 -8 -9 -5 -12 8 -22 -20
-15 -39 4 -8 1 -15 -5 -15 -5 0 -24 -13 -40 -29 -16 -16 -33 -26 -37 -23 -4 4
-5 0 -1 -9 6 -17 -25 -50 -52 -54 -9 -1 -18 -10 -19 -21 -5 -24 -17 -37 -37
-40 -22 -3 -18 13 4 19 15 4 20 13 19 38 0 19 -4 39 -9 45 -5 7 -3 11 6 11 8
0 15 -4 15 -9 0 -4 4 -8 9 -8 5 0 7 8 5 18 -3 9 2 26 10 37 9 11 16 15 16 8 0
-6 -4 -15 -10 -18 -5 -3 -10 -11 -10 -16 0 -6 4 -8 9 -5 5 4 7 -4 4 -16 -4
-17 -3 -20 5 -13 6 6 13 19 15 30 1 11 7 26 11 34 6 10 5 12 -2 7 -7 -4 -12
-2 -12 3 0 6 6 11 14 11 19 0 23 7 31 53 6 32 5 36 -9 31 -12 -5 -16 0 -16 17
0 19 2 21 10 9 8 -12 10 -8 11 15 1 17 3 36 3 43 1 8 9 18 18 23 11 6 16 21
14 49 -1 36 1 40 24 40 19 0 22 2 10 9 -8 6 -18 7 -22 5 -4 -3 -8 15 -8 40 0
76 -23 54 -37 -34 -6 -44 -22 -62 -19 -23 1 19 -3 30 -11 30 -8 0 -13 -12 -13
-31 1 -17 0 -39 -2 -48 -2 -9 2 -17 7 -17 6 0 9 7 9 15 -1 8 5 14 12 14 12 0
12 -4 4 -20 -6 -10 -17 -23 -24 -27 -12 -7 -20 -41 -25 -105 -1 -5 -9 -8 -18
-8 -15 0 -16 -2 -3 -10 13 -9 8 -14 -12 -12 -3 1 -9 -5 -12 -13 -3 -9 0 -12
10 -8 12 4 15 0 12 -17 -1 -13 -9 -25 -16 -26 -7 -1 -8 0 -2 3 16 8 12 23 -5
17 -8 -4 -15 -15 -15 -25 0 -10 -4 -19 -9 -19 -5 0 -7 -9 -4 -20 3 -11 0 -26
-6 -34 -8 -9 -8 -16 -2 -20 5 -4 11 2 13 11 3 17 4 17 10 1 4 -10 -3 -31 -18
-53 -14 -22 -22 -44 -19 -55 3 -11 -1 -20 -11 -24 -11 -4 -15 -14 -12 -31 4
-18 0 -26 -13 -30 -11 -4 -19 -11 -19 -17 0 -7 4 -7 13 1 8 6 17 8 20 5 3 -4
12 6 19 20 10 23 9 29 -3 37 -10 6 -5 9 17 9 28 0 34 5 48 40 17 42 25 47 43
29 8 -8 13 -6 17 9 4 11 19 33 34 49 15 17 45 50 67 76 21 25 42 44 46 41 4
-2 10 8 13 21 4 16 11 23 18 19 8 -5 9 2 4 22 -5 21 -4 25 3 14 8 -12 13 -11
34 8 21 20 37 21 37 1 0 -4 -12 -22 -26 -41 l-26 -33 31 33 c30 32 41 62 21
62 -5 0 -10 5 -10 11 0 5 5 7 10 4 6 -3 14 4 19 17 11 28 149 178 164 178 6 0
7 -3 4 -7 -4 -3 -2 -12 4 -20 9 -9 8 -13 0 -13 -6 0 -11 -7 -11 -15 0 -20 10
-19 26 2 9 13 9 22 2 30 -6 7 -7 13 -2 13 5 0 2 5 -6 10 -13 9 -13 12 3 24 9
7 17 17 17 22 0 5 32 40 70 78 39 38 70 71 70 73 0 2 -11 -4 -25 -13 -24 -16
-25 -16 -18 1 3 10 22 34 42 53 20 19 29 32 21 28 -8 -4 -4 2 9 13 13 12 29
21 36 21 18 0 27 40 10 46 -24 9 -80 0 -78 -13 3 -14 -35 -26 -87 -27 -27 -1
-35 -5 -34 -18 1 -10 -2 -15 -7 -12 -5 3 -9 1 -9 -3 0 -5 -9 -14 -20 -20 -16
-11 -18 -10 -14 2 4 8 1 15 -6 15 -6 0 -8 5 -3 13 4 6 6 20 4 30 -1 10 4 26
12 35 24 27 31 68 13 75 -10 4 -16 1 -16 -9z m10 -315 c0 -6 -4 -7 -10 -4 -5
3 -10 -1 -10 -9 0 -9 -4 -16 -10 -16 -14 0 -12 38 3 43 15 5 27 -1 27 -14z m0
-34 c0 -8 -4 -15 -10 -15 -5 0 -7 7 -4 15 4 8 8 15 10 15 2 0 4 -7 4 -15z
m-44 -18 c14 17 15 16 8 -7 -7 -26 -21 -40 -41 -40 -8 0 -8 7 0 31 8 21 13 26
15 14 3 -15 5 -15 18 2z m-219 -33 c-3 -3 -12 -4 -19 -1 -8 3 -5 6 6 6 11 1
17 -2 13 -5z m-177 -314 c0 -5 -5 -10 -11 -10 -5 0 -7 5 -4 10 3 6 8 10 11 10
2 0 4 -4 4 -10z"/>
<path d="M2829 5180 c-1 -5 -2 -16 -3 -22 -1 -7 -4 -15 -8 -18 -3 -3 -8 -14
-10 -25 -2 -16 2 -19 21 -17 32 3 61 30 54 48 -8 22 -23 17 -24 -8 -1 -17 -2
-19 -6 -5 -2 9 -9 17 -14 17 -6 0 -7 9 -4 20 3 11 4 20 1 20 -3 0 -7 -4 -7
-10z"/>
<path d="M2999 5168 c-7 -24 -7 -58 1 -63 6 -4 10 8 10 29 0 20 -2 36 -5 36
-3 0 -5 -1 -6 -2z"/>
<path d="M3053 5153 c4 -6 0 -16 -8 -23 -18 -15 -20 -33 -3 -28 17 6 29 46 16
54 -6 4 -8 3 -5 -3z"/>
<path d="M2700 5126 c0 -2 8 -10 18 -17 15 -13 16 -12 3 4 -13 16 -21 21 -21
13z"/>
<path d="M2809 5044 c-5 -14 -9 -35 -9 -47 0 -20 0 -20 16 -1 8 10 13 13 9 7
-4 -8 1 -13 12 -13 16 1 16 3 -4 19 -15 12 -18 22 -12 32 8 12 10 12 19 -1 6
-10 10 -11 10 -2 0 6 1 15 3 19 1 3 -6 7 -16 9 -11 1 -22 -7 -28 -22z"/>
<path d="M3237 5045 c-4 -8 -3 -16 1 -19 4 -3 9 4 9 15 2 23 -3 25 -10 4z"/>
<path d="M2664 5029 c-3 -6 -1 -16 5 -22 8 -8 11 -5 11 11 0 24 -5 28 -16 11z"/>
<path d="M2610 5020 c0 -6 6 -10 13 -10 6 -1 1 -10 -12 -21 -13 -11 -21 -23
-17 -27 8 -7 46 33 46 48 0 4 -7 10 -15 14 -8 3 -15 1 -15 -4z"/>
<path d="M2697 4983 c-10 -9 -9 -23 1 -23 5 0 9 7 9 15 0 17 -1 18 -10 8z"/>
<path d="M2776 4967 c3 -10 9 -15 12 -12 3 3 0 11 -7 18 -10 9 -11 8 -5 -6z"/>
<path d="M3239 4952 c-3 -20 -2 -29 4 -23 5 5 7 19 5 32 -3 20 -5 19 -9 -9z"/>
<path d="M2872 4940 c-7 -11 -8 -20 -3 -20 9 0 24 30 18 36 -1 2 -8 -6 -15
-16z"/>
<path d="M3420 4901 c0 -5 9 -7 20 -4 11 3 20 7 20 9 0 2 -9 4 -20 4 -11 0
-20 -4 -20 -9z"/>
<path d="M2677 4893 c-10 -3 -16 -11 -14 -18 3 -7 0 -18 -6 -24 -6 -6 -7 -14
-3 -18 4 -5 13 0 20 10 7 9 18 17 24 17 6 0 10 9 9 20 -1 11 -4 19 -7 19 -3
-1 -13 -3 -23 -6z"/>
<path d="M2390 4826 c0 -8 4 -17 8 -20 4 -2 8 4 8 15 0 10 -4 19 -8 19 -4 0
-8 -6 -8 -14z"/>
<path d="M3505 4831 c-3 -5 -1 -12 4 -15 5 -3 11 1 15 9 6 16 -9 21 -19 6z"/>
<path d="M2670 4820 c0 -5 5 -10 11 -10 5 0 7 5 4 10 -3 6 -8 10 -11 10 -2 0
-4 -4 -4 -10z"/>
<path d="M3346 4822 c-3 -5 1 -9 9 -9 8 0 12 4 9 9 -3 4 -7 8 -9 8 -2 0 -6 -4
-9 -8z"/>
<path d="M3665 4820 c3 -5 -3 -10 -15 -10 -15 0 -19 -4 -13 -12 4 -7 8 -26 8
-43 0 -16 5 -30 10 -30 6 0 15 -3 20 -7 6 -4 17 -2 25 3 12 8 12 12 3 16 -7 2
-13 15 -13 28 0 13 6 26 13 28 7 3 5 6 -5 6 -10 1 -18 8 -18 16 0 8 -5 15 -11
15 -5 0 -7 -4 -4 -10z"/>
<path d="M3484 4812 c4 -7 3 -12 -3 -12 -5 0 -13 -10 -17 -22 -4 -13 -10 -25
-13 -28 -4 -3 -17 -24 -29 -48 l-22 -43 22 6 c13 4 30 14 38 22 13 12 13 13
-4 7 -17 -6 -17 -5 -5 17 7 13 14 27 15 32 1 4 3 10 4 15 1 4 2 10 1 15 0 4 3
7 8 7 14 0 21 29 9 36 -7 4 -8 3 -4 -4z"/>
<path d="M2352 4778 c1 -46 6 -51 33 -34 21 14 23 14 18 -3 -2 -10 2 -25 11
-33 8 -9 12 -18 9 -22 -4 -3 -1 -6 5 -6 13 0 16 13 5 24 -4 4 -7 23 -7 44 -1
44 -30 58 -45 20 -10 -23 -10 -23 -10 4 -1 15 -5 29 -10 33 -5 3 -9 -9 -9 -27z"/>
<path d="M2750 4791 c-14 -27 -13 -30 9 -28 16 1 18 4 8 16 -9 12 -9 13 1 7 7
-4 12 -1 12 8 0 22 -17 20 -30 -3z"/>
<path d="M3219 4808 c-6 -27 -5 -39 4 -45 7 -3 9 -3 5 2 -4 4 -3 14 3 21 7 8
7 14 -1 19 -5 3 -10 5 -11 3z"/>
<path d="M3712 4776 c-8 -18 -7 -22 8 -22 10 0 16 4 14 8 -3 4 0 8 5 8 16 0
13 17 -3 23 -8 3 -18 -4 -24 -17z"/>
<path d="M3047 4720 c-3 -11 -2 -20 3 -20 12 0 21 28 11 35 -5 2 -11 -4 -14
-15z"/>
<path d="M3170 4710 c0 -5 5 -10 10 -10 6 0 10 5 10 10 0 6 -4 10 -10 10 -5 0
-10 -4 -10 -10z"/>
<path d="M2894 4699 c-3 -6 2 -18 12 -27 17 -16 17 -16 5 0 -7 9 -10 22 -6 28
3 5 4 10 1 10 -3 0 -8 -5 -12 -11z"/>
<path d="M2389 4697 c-5 -24 -3 -33 6 -39 7 -5 6 -11 -3 -16 -12 -8 -7 -42 7
-42 9 0 8 86 -1 96 -5 4 -9 4 -9 1z"/>
<path d="M3032 4665 c-17 -37 -14 -45 4 -12 9 16 14 31 11 33 -2 2 -9 -7 -15
-21z"/>
<path d="M2579 4673 c-1 -7 -3 -17 -4 -23 -1 -5 -3 -17 -4 -26 -1 -10 -7 -14
-16 -10 -11 4 -15 -1 -15 -17 0 -12 -3 -32 -6 -44 -5 -16 -2 -23 8 -23 10 0
15 10 16 28 0 16 9 45 20 64 13 23 17 40 11 49 -6 10 -9 11 -10 2z"/>
<path d="M2840 4643 c-19 -20 -30 -34 -23 -30 6 4 13 1 16 -5 3 -7 10 2 17 19
7 18 15 31 19 28 4 -2 8 2 8 10 0 8 -1 15 -1 15 -1 0 -17 -17 -36 -37z"/>
<path d="M2237 4663 c-4 -3 -7 -11 -7 -17 0 -6 5 -5 12 2 6 6 9 14 7 17 -3 3
-9 2 -12 -2z"/>
<path d="M2962 4630 c-13 -16 -21 -30 -19 -30 2 0 16 14 30 30 15 17 23 30 19
30 -5 0 -18 -13 -30 -30z"/>
<path d="M2423 4628 c2 -7 -4 -23 -15 -34 -10 -12 -20 -37 -21 -56 -1 -20 -8
-42 -14 -49 -17 -21 -28 -89 -14 -89 6 0 11 7 11 15 0 8 9 24 20 35 11 11 18
20 16 20 -3 0 2 16 10 36 13 31 13 36 1 31 -7 -3 -14 1 -14 9 0 7 3 11 7 9 4
-2 12 13 19 34 14 47 14 51 0 51 -6 0 -9 -6 -6 -12z"/>
<path d="M3380 4629 c0 -5 5 -7 10 -4 6 3 10 8 10 11 0 2 -4 4 -10 4 -5 0 -10
-5 -10 -11z"/>
<path d="M2180 4588 c-21 -26 -28 -39 -17 -35 9 3 17 2 17 -2 0 -5 -5 -11 -12
-13 -7 -3 -9 -11 -3 -24 7 -17 8 -18 12 -1 3 9 9 14 14 11 7 -4 8 7 4 28 -5
25 -2 38 15 56 11 12 17 22 12 22 -5 0 -24 -19 -42 -42z"/>
<path d="M2242 4602 c-5 -16 -6 -35 -2 -42 6 -9 11 -2 15 24 9 46 1 57 -13 18z"/>
<path d="M2355 4610 c6 -10 1 -12 -23 -7 -17 4 -34 2 -37 -3 -4 -6 1 -7 11 -3
12 4 15 3 10 -6 -5 -8 0 -10 18 -7 18 3 26 0 26 -10 0 -8 -4 -14 -10 -14 -5 0
-10 -9 -10 -21 0 -11 -4 -18 -9 -15 -12 8 -41 -4 -41 -16 0 -5 4 -6 10 -3 6 4
7 -2 2 -17 -10 -28 -10 -58 1 -58 4 0 13 0 20 0 18 0 39 57 23 63 -7 3 -5 10
7 18 22 18 29 100 8 107 -9 3 -11 0 -6 -8z"/>
<path d="M2863 4605 c0 -8 4 -15 8 -15 4 0 9 7 13 15 3 9 0 15 -8 15 -7 0 -13
-7 -13 -15z"/>
<path d="M3368 4603 c7 -3 16 -2 19 1 4 3 -2 6 -13 5 -11 0 -14 -3 -6 -6z"/>
<path d="M2926 4592 c7 -11 -70 -93 -83 -88 -8 3 -21 -11 -34 -37 -12 -23 -26
-45 -32 -48 -5 -4 -6 -12 -3 -18 4 -6 0 -11 -9 -11 -9 0 -13 -5 -10 -11 4 -6
-1 -17 -11 -25 -14 -10 -15 -13 -3 -9 17 6 51 49 62 78 4 11 12 15 19 11 7 -4
10 -3 5 1 -4 5 1 18 10 29 18 20 17 20 -2 6 -19 -14 -19 -14 -6 3 7 9 19 17
25 17 6 1 20 13 31 27 11 14 28 34 39 45 10 12 14 23 9 28 -6 4 -9 5 -7 2z"/>
<path d="M2846 4551 c-14 -27 -12 -41 5 -41 4 0 9 16 11 35 2 19 3 35 1 35 -1
0 -9 -13 -17 -29z"/>
<path d="M2285 4560 c-3 -5 -1 -10 4 -10 6 0 11 5 11 10 0 6 -2 10 -4 10 -3 0
-8 -4 -11 -10z"/>
<path d="M3325 4561 c-3 -5 0 -13 6 -17 7 -4 9 -3 5 4 -3 5 0 13 6 15 9 4 10
6 1 6 -6 1 -14 -3 -18 -8z"/>
<path d="M3102 4548 c4 -8 2 -20 -4 -26 -6 -6 -6 -12 1 -16 19 -12 31 27 13
44 -14 13 -15 12 -10 -2z"/>
<path d="M2232 4531 c-11 -7 -11 -9 0 -14 9 -3 15 1 15 9 0 8 -1 14 -1 14 -1
0 -7 -4 -14 -9z"/>
<path d="M2237 4493 c-10 -9 -9 -23 1 -23 5 0 9 7 9 15 0 17 -1 18 -10 8z"/>
<path d="M3277 4480 c-21 -24 -21 -30 -3 -30 7 0 16 11 18 25 6 30 7 30 -15 5z"/>
<path d="M3080 4475 c-7 -9 -11 -17 -9 -20 3 -2 10 5 17 15 14 24 10 26 -8 5z"/>
<path d="M1765 4459 c-4 -6 -5 -12 -2 -15 2 -3 7 2 10 11 7 17 1 20 -8 4z"/>
<path d="M2645 4440 c-3 -6 1 -7 9 -4 18 7 21 14 7 14 -6 0 -13 -4 -16 -10z"/>
<path d="M3018 4432 c-4 -14 -2 -20 5 -15 6 4 8 0 4 -10 -3 -9 -1 -19 5 -23 7
-4 8 -3 4 4 -4 7 -2 12 3 12 6 0 11 7 11 16 0 8 -4 13 -9 9 -5 -3 -11 3 -13
12 -3 15 -5 14 -10 -5z"/>
<path d="M2900 4425 c-7 -9 -11 -17 -9 -20 3 -2 10 5 17 15 14 24 10 26 -8 5z"/>
<path d="M2976 4418 c3 -5 10 -6 15 -3 13 9 11 12 -6 12 -8 0 -12 -4 -9 -9z"/>
<path d="M2025 4390 c7 -11 -86 -110 -103 -110 -15 0 -22 -28 -9 -33 8 -3 6
-10 -6 -25 -11 -12 -14 -22 -8 -26 11 -7 44 35 39 50 -3 11 24 54 34 54 3 0
20 14 37 31 25 24 34 29 45 20 10 -9 16 -9 21 -1 4 6 1 9 -6 8 -6 -2 -14 3
-17 11 -3 10 0 11 9 5 12 -7 12 -5 0 9 -14 18 -46 24 -36 7z"/>
<path d="M3929 4393 c-2 -27 -9 -47 -17 -52 -15 -10 -88 -172 -101 -223 -6
-25 -16 -59 -23 -75 -6 -15 -12 -32 -13 -38 0 -5 -6 -9 -12 -8 -6 1 -9 -6 -6
-17 3 -11 9 -17 14 -14 5 3 7 9 4 14 -3 4 2 10 10 14 19 7 19 8 -5 -39 -11
-22 -20 -32 -20 -24 0 9 -7 16 -15 16 -8 0 -15 -6 -15 -14 0 -7 -4 -13 -10
-13 -5 0 -10 -6 -10 -14 0 -7 -7 -19 -15 -26 -9 -7 -14 -19 -11 -26 3 -7 -9
-31 -25 -54 -17 -23 -26 -39 -20 -36 6 4 11 0 11 -9 0 -9 -4 -14 -9 -11 -5 4
-12 0 -14 -6 -4 -10 -6 -10 -6 1 -1 8 -8 4 -20 -10 -15 -18 -17 -27 -8 -37 9
-11 7 -13 -9 -10 -14 2 -20 -4 -22 -21 -2 -13 -19 -40 -38 -59 -19 -19 -32
-37 -29 -40 3 -3 -1 -12 -8 -20 -9 -13 -9 -14 1 -8 7 4 12 1 12 -8 0 -9 -8
-16 -17 -17 -19 0 -86 -95 -80 -112 3 -11 17 2 82 78 22 26 52 60 68 77 15 17
27 35 27 41 0 5 7 7 14 4 10 -4 13 -1 9 9 -3 7 -1 14 5 14 6 0 21 17 33 38 13
20 27 39 31 40 5 2 6 7 3 12 -3 5 1 14 8 22 7 7 31 44 52 82 21 38 41 64 43
58 2 -7 -4 -19 -13 -28 -12 -12 -13 -19 -4 -30 9 -10 2 -30 -31 -89 -47 -88
-47 -87 -162 -215 -48 -54 -85 -100 -83 -104 3 -3 2 -4 -1 -1 -4 2 -14 -3 -22
-12 -11 -10 -17 -12 -20 -4 -7 22 -42 -8 -42 -37 0 -16 -5 -33 -12 -40 -9 -9
-9 -15 -1 -23 8 -8 15 -5 24 12 13 26 34 49 44 49 3 0 16 9 27 20 14 13 24 16
29 9 6 -11 24 18 20 34 -1 5 3 6 9 2 5 -3 10 1 10 9 0 9 7 16 15 16 12 0 13
-4 5 -19 -5 -11 -10 -23 -10 -28 1 -4 7 3 14 17 8 14 12 28 9 33 -7 11 17 38
28 31 5 -3 9 1 9 8 0 8 18 33 40 57 22 23 40 48 40 54 0 7 4 6 10 -3 8 -12 10
-9 10 12 0 15 5 30 12 34 7 5 8 3 3 -7 -7 -12 -6 -12 7 -1 9 7 15 22 13 33 -2
11 0 17 4 14 5 -3 12 2 15 11 3 8 2 12 -4 9 -17 -10 -11 6 20 62 17 29 30 61
30 71 0 28 24 55 52 56 14 1 32 9 41 17 17 17 50 89 40 89 -3 0 0 7 7 15 12
14 7 20 -14 16 -5 -1 -4 5 3 13 7 9 18 13 25 9 6 -3 8 -3 4 2 -4 4 -3 14 3 21
6 8 9 21 5 29 -3 8 -2 15 3 15 5 0 11 14 13 30 3 17 1 30 -4 30 -4 0 -8 5 -8
10 0 6 6 9 13 8 15 -4 18 52 5 105 -8 33 -28 53 -28 27 0 -5 4 -10 9 -10 10 0
7 -71 -4 -107 -4 -13 -11 -23 -16 -23 -5 0 -6 -7 -3 -15 5 -11 2 -13 -10 -9
-9 3 -16 1 -16 -5 0 -6 6 -10 13 -8 16 3 10 -38 -14 -85 -10 -20 -19 -44 -19
-53 0 -8 -5 -15 -11 -15 -6 0 -8 -9 -4 -20 4 -11 2 -20 -4 -20 -6 0 -11 -7
-11 -15 0 -8 -7 -15 -16 -15 -8 0 -13 -4 -10 -8 3 -5 -1 -9 -9 -9 -19 0 -19
12 -1 30 11 11 12 17 3 27 -9 10 -9 11 0 6 13 -7 37 29 28 44 -3 5 -1 11 4 14
5 4 12 24 16 46 4 22 10 38 13 36 4 -2 6 16 5 40 -1 24 1 44 5 44 4 0 8 9 9
20 1 11 -3 20 -9 20 -6 0 -8 9 -5 21 3 13 1 19 -6 16 -7 -3 -11 -10 -9 -17 1
-7 -2 -18 -9 -26 -6 -7 -7 -19 -3 -25 4 -8 3 -9 -4 -5 -7 4 -12 1 -12 -8 0 -9
-4 -16 -10 -16 -14 0 -13 37 1 42 6 2 12 13 13 23 2 25 33 95 41 95 3 0 3 -4
0 -10 -4 -6 1 -7 11 -3 12 4 14 8 5 11 -9 3 -9 9 2 26 12 18 12 23 1 34 -8 7
-14 9 -15 5z m-79 -238 c0 -8 -4 -15 -10 -15 -5 0 -7 7 -4 15 4 8 8 15 10 15
2 0 4 -7 4 -15z m57 -7 c2 -17 0 -19 -7 -8 -5 8 -6 18 -4 22 8 12 10 10 11
-14z m-59 -34 c-1 -5 -9 -9 -16 -10 -10 -2 -11 1 -1 12 12 14 24 13 17 -2z
m46 -20 c-3 -35 -14 -44 -14 -12 0 21 7 38 15 38 1 0 1 -12 -1 -26z m-44 -26
c0 -6 -6 -5 -15 2 -8 7 -15 14 -15 16 0 2 7 1 15 -2 8 -4 15 -11 15 -16z m-33
-30 c-3 -8 -6 -5 -6 6 -1 11 2 17 5 13 3 -3 4 -12 1 -19z m-68 -155 c-6 -11
-20 -25 -30 -31 -16 -10 -15 -7 4 28 12 24 25 36 30 31 5 -5 4 -17 -4 -28z
m-49 -87 c0 -7 -9 -16 -21 -19 -20 -5 -20 -5 -3 14 20 23 24 23 24 5z"/>
<path d="M2943 4385 c8 -10 -20 -45 -37 -45 -6 0 -19 -7 -29 -14 -17 -13 -16
-14 2 -19 11 -3 19 -2 18 2 -1 4 13 20 32 37 27 24 31 33 20 39 -8 5 -11 4 -6
0z"/>
<path d="M3294 4379 c-3 -5 0 -9 7 -9 11 0 9 -27 -6 -64 -6 -14 -5 -18 6 -14
8 3 14 9 15 14 0 5 3 16 7 24 14 33 12 53 -5 55 -10 2 -20 -1 -24 -6z"/>
<path d="M2847 4355 c-10 -14 -14 -25 -10 -25 4 0 16 12 26 25 10 14 14 25 10
25 -4 0 -16 -12 -26 -25z"/>
<path d="M4012 4357 c-7 -8 -7 -18 -2 -27 6 -8 10 -13 11 -10 0 3 2 15 5 28 4
25 1 28 -14 9z"/>
<path d="M2994 4352 c3 -5 0 -12 -6 -15 -7 -2 -10 -7 -7 -11 3 -4 12 0 18 8 9
11 9 16 0 22 -7 4 -9 3 -5 -4z"/>
<path d="M3512 4348 c-5 -7 -8 -24 -6 -37 3 -13 -2 -31 -9 -40 -26 -30 -29
-41 -12 -41 9 0 14 4 11 8 -3 5 9 23 25 42 17 18 23 30 15 27 -8 -3 -18 -2
-21 3 -4 6 -2 10 4 10 6 0 8 7 5 15 -4 8 -1 15 4 15 6 0 13 -8 15 -17 4 -14 5
-12 6 5 1 24 -20 30 -37 10z"/>
<path d="M2430 4342 c0 -5 7 -9 15 -9 8 0 12 4 9 9 -3 4 -9 8 -15 8 -5 0 -9
-4 -9 -8z"/>
<path d="M2550 4334 c-14 -8 -18 -13 -9 -10 9 2 22 -1 28 -7 8 -8 11 -8 11 1
0 7 8 12 18 12 14 0 15 2 2 10 -19 12 -20 12 -50 -6z"/>
<path d="M1615 4330 c-3 -6 1 -7 9 -4 18 7 21 14 7 14 -6 0 -13 -4 -16 -10z"/>
<path d="M1900 4317 c0 -8 6 -14 14 -14 8 0 12 6 9 14 -3 7 -9 13 -14 13 -5 0
-9 -6 -9 -13z"/>
<path d="M2700 4298 c0 -10 -4 -18 -10 -18 -5 0 -10 -4 -10 -10 0 -15 24 -12
46 6 10 8 14 13 7 10 -6 -4 -16 2 -22 11 -10 17 -10 17 -11 1z"/>
<path d="M2793 4298 c-23 -30 -24 -41 -2 -21 12 12 20 25 17 28 -3 3 -10 0
-15 -7z"/>
<path d="M2921 4271 c-7 -5 -9 -11 -5 -14 5 -3 15 1 22 9 14 16 5 18 -17 5z"/>
<path d="M2800 4242 c-8 -9 -14 -20 -12 -24 1 -5 -2 -8 -6 -8 -5 0 -17 -7 -28
-15 -18 -14 -18 -14 3 -8 22 5 53 33 37 33 -4 0 1 6 12 14 10 8 17 17 14 19
-3 3 -12 -2 -20 -11z"/>
<path d="M2756 4234 c-5 -14 -4 -15 9 -4 17 14 19 20 6 20 -5 0 -12 -7 -15
-16z"/>
<path d="M2515 4220 c-3 -5 -1 -10 4 -10 6 0 11 5 11 10 0 6 -2 10 -4 10 -3 0
-8 -4 -11 -10z"/>
<path d="M2726 4203 c-6 -14 -5 -15 5 -6 7 7 10 15 7 18 -3 3 -9 -2 -12 -12z"/>
<path d="M2841 4185 c-13 -19 -28 -32 -34 -28 -5 3 -7 1 -3 -5 3 -6 -2 -13
-11 -15 -15 -4 -15 -5 2 -5 13 -1 32 15 53 43 18 25 29 45 25 45 -4 0 -19 -16
-32 -35z"/>
<path d="M3470 4202 c0 -12 3 -12 15 -2 8 7 15 13 15 15 0 1 -7 2 -15 2 -8 0
-15 -7 -15 -15z"/>
<path d="M3450 4198 c0 -9 -6 -18 -12 -20 -7 -3 -2 -7 10 -10 24 -7 29 6 12
32 -8 13 -10 13 -10 -2z"/>
<path d="M1873 4168 c-29 -61 -21 -81 10 -26 10 17 14 35 9 40 -5 5 -13 -2
-19 -14z"/>
<path d="M2315 4180 c-3 -5 -1 -10 4 -10 6 0 11 5 11 10 0 6 -2 10 -4 10 -3 0
-8 -4 -11 -10z"/>
<path d="M2481 4166 c-8 -10 -9 -16 -1 -21 5 -3 10 1 10 9 0 8 8 17 18 19 14
4 14 5 1 6 -9 0 -22 -5 -28 -13z"/>
<path d="M2284 4139 c-5 -8 -19 -22 -32 -31 -22 -15 -22 -16 -2 -21 11 -3 20
-1 20 4 0 5 5 9 11 9 5 0 7 -6 3 -12 -4 -7 1 -5 11 4 15 13 16 22 8 40 -8 19
-11 20 -19 7z"/>
<path d="M3451 4134 c0 -11 3 -14 6 -6 3 7 2 16 -1 19 -3 4 -6 -2 -5 -13z"/>
<path d="M3418 4134 c-4 -4 -2 -14 5 -22 10 -13 9 -15 -5 -10 -10 4 -19 1 -22
-8 -10 -25 -7 -41 8 -41 8 0 11 8 8 20 -3 13 -1 18 5 14 6 -4 16 0 23 8 8 9 8
15 2 15 -6 0 -12 7 -14 16 -2 9 -6 12 -10 8z"/>
<path d="M2760 4120 c0 -7 -7 -10 -14 -7 -10 4 -13 1 -9 -9 4 -12 8 -12 22 -2
9 7 17 13 19 14 2 1 -1 5 -7 9 -6 3 -11 1 -11 -5z"/>
<path d="M2383 4048 c3 -10 1 -21 -6 -25 -7 -5 -18 -16 -25 -25 -11 -14 -11
-16 3 -14 23 3 49 56 34 70 -9 8 -10 7 -6 -6z"/>
<path d="M3310 4019 c0 -5 5 -7 10 -4 6 3 10 8 10 11 0 2 -4 4 -10 4 -5 0 -10
-5 -10 -11z"/>
<path d="M1661 4004 c0 -11 3 -14 6 -6 3 7 2 16 -1 19 -3 4 -6 -2 -5 -13z"/>
<path d="M3362 4012 c-6 -5 -11 -20 -10 -35 2 -23 4 -25 16 -13 17 17 12 59
-6 48z"/>
<path d="M2302 3950 c-9 -15 -9 -21 1 -26 6 -4 9 -4 5 1 -4 4 -3 14 4 22 6 7
9 15 7 18 -3 2 -10 -4 -17 -15z"/>
<path d="M2230 3939 c0 -5 5 -7 10 -4 6 3 10 8 10 11 0 2 -4 4 -10 4 -5 0 -10
-5 -10 -11z"/>
<path d="M3307 3910 c-4 -14 -10 -19 -18 -14 -7 4 -10 3 -6 -3 4 -6 1 -15 -6
-21 -13 -11 -15 -68 -2 -80 5 -4 5 -1 1 6 -5 7 -1 12 11 13 10 0 13 3 6 6 -18
7 -16 48 2 63 8 7 15 9 15 4 0 -5 5 -1 11 9 7 12 8 22 1 29 -6 6 -11 2 -15
-12z"/>
<path d="M2125 3880 c-3 -5 -2 -10 4 -10 5 0 13 5 16 10 3 6 2 10 -4 10 -5 0
-13 -4 -16 -10z"/>
<path d="M1691 3863 c-1 -6 -9 -13 -18 -15 -11 -2 -14 -6 -8 -10 16 -10 38 7
32 23 -3 9 -6 9 -6 2z"/>
<path d="M1754 3855 c-17 -13 -17 -14 -2 -15 9 0 20 5 23 11 11 17 0 20 -21 4z"/>
<path d="M1685 3820 c-3 -5 -28 -20 -56 -31 -27 -12 -49 -25 -49 -30 0 -12 8
-11 38 5 15 8 35 17 44 20 9 3 22 14 28 25 11 21 7 30 -5 11z"/>
<path d="M3222 3791 c-12 -17 -22 -33 -22 -38 0 -4 6 1 13 12 10 12 16 14 21
7 4 -7 13 -12 19 -12 7 0 4 5 -7 11 -14 9 -15 13 -6 19 7 4 11 13 9 19 -3 7
-14 -1 -27 -18z"/>
<path d="M1715 3791 c-6 -11 9 -23 19 -14 9 9 7 23 -3 23 -6 0 -12 -4 -16 -9z"/>
<path d="M2974 3766 c-9 -19 -8 -25 6 -34 12 -7 17 -7 17 4 0 7 -4 11 -9 8 -5
-3 -6 6 -2 20 8 32 2 33 -12 2z"/>
<path d="M3470 3779 c0 -5 5 -7 10 -4 6 3 10 8 10 11 0 2 -4 4 -10 4 -5 0 -10
-5 -10 -11z"/>
<path d="M1686 3755 c-9 -9 -16 -13 -16 -9 0 3 -7 1 -15 -6 -8 -7 -15 -17 -15
-23 0 -6 7 -2 15 9 11 14 14 15 15 4 0 -11 6 -9 22 8 12 12 19 24 16 27 -3 3
-13 -1 -22 -10z"/>
<path d="M3201 3718 c0 -10 -7 -17 -13 -15 -7 1 -13 -7 -13 -18 -1 -11 -6 -19
-13 -17 -7 1 -12 -2 -12 -8 0 -5 3 -10 8 -10 11 1 47 30 36 30 -5 0 -3 4 4 9
8 5 12 17 9 27 -4 17 -5 17 -6 2z"/>
<path d="M2915 3697 c-24 -14 -31 -37 -12 -37 8 0 19 11 25 25 6 14 11 25 9
25 -1 -1 -11 -6 -22 -13z"/>
<path d="M2965 3670 c-3 -6 1 -7 9 -4 18 7 21 14 7 14 -6 0 -13 -4 -16 -10z"/>
<path d="M3062 3668 c7 -19 38 -22 38 -4 0 10 -9 16 -21 16 -12 0 -19 -5 -17
-12z"/>
<path d="M3047 3644 c-9 -9 4 -35 14 -28 5 3 9 12 9 20 0 14 -12 19 -23 8z"/>
<path d="M3140 3633 c0 -5 4 -14 9 -21 7 -11 9 -11 14 1 3 8 3 18 0 21 -9 8
-23 7 -23 -1z"/>
<path d="M3110 3511 c-6 -12 -7 -21 -1 -21 10 0 24 30 17 37 -2 3 -9 -5 -16
-16z"/>
<path d="M3676 3514 c-5 -14 -4 -15 9 -4 17 14 19 20 6 20 -5 0 -12 -7 -15
-16z"/>
<path d="M3059 3483 c-13 -17 -13 -17 6 -3 11 8 22 16 24 17 2 2 0 3 -6 3 -6
0 -17 -8 -24 -17z"/>
<path d="M3058 3463 c-18 -5 -33 -33 -17 -33 11 0 44 29 38 34 -2 1 -11 1 -21
-1z"/>
<path d="M2761 3423 c-7 -8 -10 -17 -7 -20 9 -9 29 13 25 25 -2 6 -10 3 -18
-5z"/>
<path d="M3016 3412 c-3 -5 1 -9 9 -9 8 0 12 4 9 9 -3 4 -7 8 -9 8 -2 0 -6 -4
-9 -8z"/>
<path d="M3652 3384 c-6 -7 -20 -10 -29 -7 -11 4 -14 3 -9 -5 4 -7 2 -12 -5
-12 -6 0 -9 -8 -6 -20 3 -10 2 -19 -2 -18 -3 0 -13 0 -21 -1 -12 -1 -12 -4 3
-12 20 -12 39 -3 35 16 -2 7 10 25 27 39 16 14 27 27 25 30 -3 2 -11 -2 -18
-10z"/>
<path d="M3580 3382 c0 -6 -7 -9 -15 -6 -8 4 -15 1 -15 -6 0 -6 5 -8 10 -5 6
3 10 0 10 -7 0 -8 5 -6 11 5 6 10 8 21 5 24 -3 4 -6 1 -6 -5z"/>
<path d="M2301 3331 c-17 -17 -31 -37 -31 -44 0 -8 -4 -7 -11 3 -8 12 -10 9
-6 -13 3 -18 0 -30 -9 -34 -21 -8 -7 -22 17 -16 11 3 18 11 16 18 -5 12 27 38
37 28 3 -3 1 -14 -5 -24 -6 -11 -6 -19 0 -19 15 0 22 32 9 47 -9 11 -9 16 3
24 12 8 12 10 -1 20 -12 8 -10 9 8 4 23 -7 27 1 13 24 -7 11 -15 7 -40 -18z"/>
<path d="M3480 3353 c0 -5 -16 -25 -35 -46 -40 -44 -47 -68 -10 -33 14 13 25
27 25 32 0 4 10 18 22 31 12 13 16 23 10 23 -7 0 -12 -3 -12 -7z"/>
<path d="M3543 3335 c0 -8 4 -12 9 -9 5 3 6 10 3 15 -9 13 -12 11 -12 -6z"/>
<path d="M3370 3315 c-7 -9 -11 -17 -9 -20 3 -2 10 5 17 15 14 24 10 26 -8 5z"/>
<path d="M2340 3294 c0 -8 5 -12 10 -9 6 3 10 10 10 16 0 5 -4 9 -10 9 -5 0
-10 -7 -10 -16z"/>
<path d="M3566 3288 c3 -4 0 -8 -5 -8 -6 0 -11 -9 -11 -21 0 -12 -8 -23 -20
-26 -23 -6 -27 -23 -6 -23 27 0 45 12 39 26 -3 8 0 14 7 14 6 0 8 5 5 10 -3 6
1 10 9 10 8 0 18 5 22 12 4 7 3 8 -4 4 -7 -4 -12 -3 -12 2 0 5 -7 9 -15 9 -8
0 -12 -4 -9 -9z"/>
<path d="M2981 3267 c-13 -21 -12 -21 5 -5 10 10 16 20 13 22 -3 3 -11 -5 -18
-17z"/>
<path d="M2781 3264 c0 -11 3 -14 6 -6 3 7 2 16 -1 19 -3 4 -6 -2 -5 -13z"/>
<path d="M3340 3270 c0 -5 5 -10 11 -10 5 0 7 5 4 10 -3 6 -8 10 -11 10 -2 0
-4 -4 -4 -10z"/>
<path d="M2190 3235 c0 -7 -6 -18 -13 -22 -8 -4 -22 -22 -32 -40 -10 -18 -22
-30 -27 -27 -4 3 -8 -2 -8 -10 0 -18 8 -20 29 -7 7 5 11 13 8 17 -3 5 1 14 8
21 11 10 15 10 18 0 3 -7 6 -4 6 7 1 14 4 16 15 7 10 -9 16 -8 25 3 10 11 8
16 -8 21 -13 4 -18 12 -14 21 5 13 7 13 14 2 7 -10 9 -9 9 5 0 9 -7 17 -15 17
-8 0 -15 -7 -15 -15z"/>
<path d="M3327 3236 c-16 -40 -7 -49 19 -21 14 15 22 30 19 33 -3 4 -10 0 -14
-7 -7 -11 -9 -11 -13 0 -3 9 -6 8 -11 -5z"/>
<path d="M2356 3215 c4 -8 10 -12 15 -9 11 6 2 24 -11 24 -5 0 -7 -7 -4 -15z"/>
<path d="M2384 3199 c-3 -6 -15 -9 -25 -6 -11 3 -19 1 -19 -4 0 -15 47 -10 54
6 6 17 0 20 -10 4z"/>
<path d="M2255 3190 c-3 -5 -2 -10 4 -10 5 0 13 5 16 10 3 6 2 10 -4 10 -5 0
-13 -4 -16 -10z"/>
<path d="M3443 3185 c-3 -9 -3 -18 -1 -21 3 -3 8 4 11 16 6 23 -1 27 -10 5z"/>
<path d="M2415 3179 c-4 -6 -5 -12 -2 -15 2 -3 7 2 10 11 7 17 1 20 -8 4z"/>
<path d="M3516 3174 c-5 -14 -4 -15 9 -4 17 14 19 20 6 20 -5 0 -12 -7 -15
-16z"/>
<path d="M3473 3160 c-3 -11 -9 -20 -14 -20 -5 0 -9 -7 -9 -15 0 -8 -5 -15
-11 -15 -6 0 -30 -14 -53 -32 -44 -34 -80 -68 -72 -68 14 0 96 56 96 65 0 6
14 16 30 22 17 6 30 18 30 27 0 9 5 16 11 16 6 0 9 6 6 14 -3 8 -1 17 6 20 8
3 8 5 -1 5 -8 1 -16 -8 -19 -19z"/>
<path d="M2313 3153 c-13 -8 -23 -22 -23 -30 0 -13 -3 -13 -15 -3 -8 7 -15 8
-15 2 0 -11 -63 -82 -74 -82 -4 0 2 12 13 26 25 32 27 51 6 51 -9 0 -14 -6
-11 -14 3 -7 1 -13 -4 -13 -6 0 -10 7 -10 15 0 18 -16 20 -26 3 -4 -7 -3 -8 4
-4 7 4 12 1 12 -8 0 -8 6 -16 12 -18 8 -3 -4 -21 -30 -47 -26 -26 -44 -53 -46
-71 -2 -16 1 -27 5 -24 5 3 9 10 9 16 0 13 68 78 81 78 5 0 9 5 9 10 0 6 10
10 23 9 12 0 17 -3 10 -5 -6 -3 -9 -16 -7 -31 4 -23 3 -25 -11 -13 -9 7 -15 9
-14 4 4 -16 -13 -44 -23 -38 -5 3 -4 -3 4 -15 12 -20 14 -20 26 -4 7 10 22 29
33 41 11 13 21 32 22 42 0 10 6 16 13 13 6 -2 14 7 16 21 4 18 1 26 -9 26 -8
0 -11 -4 -8 -10 3 -5 -2 -10 -11 -10 -14 0 -11 6 12 29 15 16 34 27 40 24 8
-3 11 5 10 21 0 14 -1 26 -1 25 0 0 -10 -7 -22 -16z"/>
<path d="M2240 3150 c-8 -5 -12 -12 -9 -15 4 -3 12 1 19 10 14 17 11 19 -10 5z"/>
<path d="M3258 3133 c-10 -2 -18 -8 -18 -13 0 -4 9 -6 20 -3 11 3 20 9 20 14
0 5 -1 8 -2 8 -2 -1 -11 -3 -20 -6z"/>
<path d="M3386 3114 c-6 -15 -4 -15 11 -3 10 7 20 15 22 16 2 2 -3 3 -11 3 -9
0 -19 -7 -22 -16z"/>
<path d="M2093 3101 c5 -21 -18 -38 -27 -18 -2 7 -5 0 -5 -15 -1 -15 4 -30 10
-34 6 -3 7 -9 2 -13 -14 -10 -86 -101 -80 -101 4 0 19 13 34 29 15 16 51 53
80 82 l51 54 -35 18 c-35 18 -35 18 -30 -2z"/>
<path d="M2865 3110 c3 -5 10 -10 16 -10 5 0 9 5 9 10 0 6 -7 10 -16 10 -8 0
-12 -4 -9 -10z"/>
<path d="M3315 3110 c4 -6 11 -8 16 -5 14 9 11 15 -7 15 -8 0 -12 -5 -9 -10z"/>
<path d="M3270 3085 c-7 -9 -10 -18 -7 -21 3 -3 10 4 17 15 13 25 8 27 -10 6z"/>
<path d="M3326 3079 c5 -9 31 -6 40 4 4 4 -4 6 -19 5 -14 -1 -24 -5 -21 -9z"/>
<path d="M2830 3060 c0 -11 -11 -27 -25 -36 -14 -9 -25 -21 -25 -27 0 -5 8 -3
18 5 9 8 24 18 33 21 17 6 24 57 8 57 -5 0 -9 -9 -9 -20z"/>
<path d="M3203 3066 c3 -7 0 -19 -6 -25 -8 -8 -8 -11 0 -11 6 0 14 6 16 13 3
6 6 2 6 -11 1 -13 -3 -21 -7 -18 -5 3 -9 -1 -9 -9 0 -10 5 -11 18 -5 20 11 34
-11 17 -28 -6 -6 -6 -12 1 -16 6 -4 11 -2 11 3 0 6 7 11 15 11 9 0 18 7 21 15
4 8 10 12 15 9 5 -3 6 2 3 10 -5 13 -8 14 -28 1 -21 -14 -24 -13 -34 11 -7 14
-9 30 -6 36 4 7 2 8 -4 4 -7 -4 -12 -1 -12 8 0 9 -5 16 -11 16 -6 0 -9 -6 -6
-14z"/>
<path d="M2542 3023 c-35 -38 -38 -55 -5 -26 17 16 49 63 41 63 -2 0 -18 -17
-36 -37z"/>
<path d="M3270 3039 c0 -5 5 -7 10 -4 6 3 10 8 10 11 0 2 -4 4 -10 4 -5 0 -10
-5 -10 -11z"/>
<path d="M3161 2989 c-7 -12 -10 -24 -7 -27 3 -3 6 0 6 6 0 6 7 9 15 6 16 -7
19 4 7 23 -6 9 -11 6 -21 -8z"/>
<path d="M2545 2970 c3 -5 8 -10 11 -10 2 0 4 5 4 10 0 6 -5 10 -11 10 -5 0
-7 -4 -4 -10z"/>
<path d="M3167 2923 c-20 -14 -35 -28 -32 -31 5 -5 85 45 85 53 0 10 -16 3
-53 -22z"/>
<path d="M3074 2864 c-18 -14 -18 -15 4 -4 12 6 22 13 22 15 0 8 -5 6 -26 -11z"/>
<path d="M2110 2840 c-19 -16 -30 -30 -24 -30 5 0 23 14 39 30 36 38 30 38
-15 0z"/>
<path d="M2240 2839 c0 -5 5 -7 10 -4 6 3 10 8 10 11 0 2 -4 4 -10 4 -5 0 -10
-5 -10 -11z"/>
<path d="M2150 2836 c0 -2 7 -7 16 -10 8 -3 12 -2 9 4 -6 10 -25 14 -25 6z"/>
<path d="M2347 2563 c-4 -3 -7 -11 -7 -17 0 -6 5 -5 12 2 6 6 9 14 7 17 -3 3
-9 2 -12 -2z"/>
<path d="M1802 5145 c0 -16 2 -22 5 -12 2 9 2 23 0 30 -3 6 -5 -1 -5 -18z"/>
<path d="M1857 5113 c-10 -10 -8 -25 2 -19 5 4 8 -9 7 -29 -2 -19 1 -32 5 -29
11 7 11 55 1 72 -5 7 -11 9 -15 5z"/>
<path d="M1796 5101 c-4 -5 -2 -13 4 -16 6 -4 8 -15 5 -26 -4 -11 -2 -19 4
-19 13 0 15 57 2 65 -5 3 -12 1 -15 -4z"/>
<path d="M1757 5066 c-7 -45 -6 -49 8 -32 6 6 8 25 5 41 -6 30 -6 30 -13 -9z"/>
<path d="M1802 4986 c3 -14 1 -29 -3 -32 -5 -3 -9 -10 -9 -16 0 -5 9 0 19 13
11 13 15 26 10 27 -5 2 -7 8 -4 12 3 5 0 12 -6 16 -8 5 -10 -1 -7 -20z"/>
<path d="M1750 4991 c0 -5 -3 -16 -6 -25 -3 -9 -2 -16 4 -16 13 0 23 38 11 46
-5 3 -9 1 -9 -5z"/>
<path d="M1787 4913 c-4 -3 -7 -11 -7 -17 0 -6 5 -5 12 2 6 6 9 14 7 17 -3 3
-9 2 -12 -2z"/>
<path d="M1821 4884 c0 -11 3 -14 6 -6 3 7 2 16 -1 19 -3 4 -6 -2 -5 -13z"/>
<path d="M2710 3709 c0 -5 5 -7 10 -4 6 3 10 8 10 11 0 2 -4 4 -10 4 -5 0 -10
-5 -10 -11z"/>
<path d="M2668 3643 c7 -3 16 -2 19 1 4 3 -2 6 -13 5 -11 0 -14 -3 -6 -6z"/>
<path d="M2555 2640 c-3 -5 -1 -10 4 -10 6 0 11 5 11 10 0 6 -2 10 -4 10 -3 0
-8 -4 -11 -10z"/>
<path d="M2680 2560 c0 -5 5 -10 11 -10 5 0 7 5 4 10 -3 6 -8 10 -11 10 -2 0
-4 -4 -4 -10z"/>
<path d="M2971 2524 c0 -11 3 -14 6 -6 3 7 2 16 -1 19 -3 4 -6 -2 -5 -13z"/>
<path d="M2958 2459 c-2 -22 0 -43 4 -45 4 -3 8 15 8 40 0 57 -7 60 -12 5z"/>
<path d="M2946 2383 c-3 -10 -9 -24 -12 -30 -3 -7 -1 -13 4 -13 5 0 13 12 16
26 8 30 2 44 -8 17z"/>
<path d="M2807 2376 c-3 -8 0 -22 7 -31 11 -15 12 -14 11 8 0 31 -10 43 -18
23z"/>
<path d="M2777 2373 c-12 -11 -8 -30 7 -30 8 0 11 8 8 19 -5 20 -6 21 -15 11z"/>
<path d="M2611 2343 c10 -11 10 -16 1 -22 -7 -4 -4 -11 11 -20 20 -13 21 -13
8 2 -17 21 -9 21 27 3 46 -24 126 -35 141 -19 17 19 3 36 -25 30 -13 -2 -24 0
-24 4 0 5 -6 6 -13 3 -7 -2 -31 3 -53 12 -21 9 -49 18 -62 20 -19 2 -21 0 -11
-13z"/>
<path d="M2691 2357 c2 -1 13 -9 24 -17 19 -14 19 -14 6 3 -7 9 -18 17 -24 17
-6 0 -8 -1 -6 -3z"/>
<path d="M2916 2308 c-21 -25 -10 -45 13 -24 13 12 20 13 29 4 7 -7 12 -9 12
-5 0 4 -8 15 -19 26 -18 18 -19 18 -35 -1z"/>
<path d="M2665 2270 c3 -5 8 -10 11 -10 2 0 4 5 4 10 0 6 -5 10 -11 10 -5 0
-7 -4 -4 -10z"/>
<path d="M2950 2189 c0 -13 26 -40 33 -33 2 3 21 -5 41 -17 20 -12 39 -19 42
-17 2 3 -23 21 -56 41 -33 20 -60 32 -60 26z"/>
<path d="M3080 2180 c-11 -21 -8 -23 27 -14 13 4 20 10 17 16 -3 5 -12 4 -20
-3 -12 -10 -13 -9 -8 5 9 23 -3 20 -16 -4z"/>
<path d="M3020 2182 c0 -10 38 -13 44 -3 3 3 -6 8 -20 9 -13 1 -24 -2 -24 -6z"/>
<path d="M3140 2170 c0 -5 5 -10 11 -10 5 0 7 5 4 10 -3 6 -8 10 -11 10 -2 0
-4 -4 -4 -10z"/>
<path d="M3230 2170 c0 -5 5 -10 11 -10 5 0 7 5 4 10 -3 6 -8 10 -11 10 -2 0
-4 -4 -4 -10z"/>
<path d="M2753 2160 c-13 -5 -23 -15 -23 -21 0 -8 -4 -8 -15 1 -10 9 -15 9
-15 1 0 -6 -11 -11 -25 -11 -27 0 -34 -15 -10 -24 8 -3 14 -13 14 -23 -1 -17
-2 -17 -6 0 -2 9 -8 17 -11 18 -41 5 -50 4 -46 -3 3 -4 11 -8 18 -8 15 0 39
-47 31 -61 -4 -5 -14 -5 -26 1 -13 7 -19 7 -19 0 0 -5 -9 -1 -19 9 -40 40 -68
53 -89 42 -15 -8 -23 -7 -32 4 -20 24 -29 17 -17 -10 7 -14 15 -25 20 -25 4 0
7 -7 7 -16 0 -8 5 -12 10 -9 6 3 14 -4 18 -16 6 -15 11 -19 16 -11 4 7 13 9
19 5 9 -5 9 -3 0 8 -11 14 -13 19 -13 39 0 6 -5 10 -11 10 -5 0 -7 -4 -4 -10
3 -5 2 -10 -4 -10 -18 0 -23 20 -6 26 17 7 55 -22 52 -40 -1 -6 4 -10 11 -8
24 4 12 -16 -13 -22 -24 -6 -25 -8 -9 -23 9 -10 29 -19 43 -20 25 -3 25 -2 -4
10 l-30 13 32 12 c18 6 32 8 30 3 -3 -10 46 -67 70 -79 27 -15 36 -48 13 -48
-10 0 -16 5 -14 11 3 6 -6 20 -20 32 -20 17 -26 19 -30 7 -3 -8 -10 -14 -15
-14 -6 0 -8 7 -5 15 4 8 2 15 -4 15 -25 0 10 -62 43 -74 16 -6 17 -9 5 -16
-12 -8 -12 -10 2 -15 10 -4 22 -4 27 0 6 3 31 -6 55 -20 38 -22 44 -24 50 -9
3 9 3 21 -1 27 -4 7 4 4 17 -6 14 -10 40 -27 57 -38 18 -12 31 -24 29 -27 -2
-4 2 -13 10 -20 10 -9 14 -9 14 -1 0 8 4 8 15 -1 15 -12 21 -3 16 24 -1 5 5 6
14 3 21 -9 19 -2 -10 29 -20 21 -28 24 -39 15 -16 -13 -32 1 -21 19 9 14 -8
12 -25 -2 -13 -11 -13 -11 -2 2 17 20 16 54 -2 47 -8 -3 -17 0 -20 8 -3 9 0
12 9 9 10 -4 13 1 10 23 -2 15 -2 22 1 16 8 -19 34 -16 35 5 0 14 2 14 9 -3 8
-18 9 -18 10 5 2 25 2 25 10 -3 5 -16 6 -36 3 -44 -4 -11 -2 -14 5 -9 7 4 12
14 12 22 0 8 5 14 10 14 6 0 10 -4 10 -9 0 -5 13 -14 29 -19 25 -9 29 -8 24 4
-3 8 -14 14 -24 14 -10 0 -18 3 -17 8 1 4 -4 20 -11 36 -6 16 -9 31 -7 34 3 3
8 -3 12 -12 3 -9 15 -16 25 -16 12 0 21 -10 25 -26 4 -16 9 -22 14 -14 7 12
12 8 49 -35 7 -9 15 -14 18 -12 7 8 -26 67 -38 67 -6 0 -7 5 -4 10 3 6 1 10
-5 10 -6 0 -9 4 -5 10 3 5 13 7 23 4 12 -4 11 -2 -3 7 -11 6 -28 21 -37 33
-10 11 -18 16 -18 9 0 -6 5 -15 10 -18 15 -9 12 -25 -5 -25 -9 0 -15 9 -15 25
0 22 -2 24 -14 13 -8 -7 -12 -16 -9 -20 2 -4 -3 -5 -12 -2 -9 4 -14 9 -11 11
7 7 -18 32 -27 26 -4 -2 -7 -1 -6 4 4 21 -2 44 -10 39 -5 -3 -8 2 -7 11 0 10
-7 19 -18 21 -11 2 -16 0 -12 -6 3 -6 2 -13 -3 -16 -12 -8 -42 4 -36 14 9 15
-27 34 -77 39 -4 1 -5 10 -3 21 2 11 3 20 2 19 -1 0 -12 -4 -24 -9z m-47 -57
c-10 -10 -19 5 -10 18 6 11 8 11 12 0 2 -7 1 -15 -2 -18z m32 -8 c-3 -3 -9 2
-12 12 -6 14 -5 15 5 6 7 -7 10 -15 7 -18z m71 -1 c5 3 14 -1 21 -9 10 -12 10
-15 0 -15 -7 0 -19 -8 -27 -17 -8 -10 -12 -13 -9 -7 3 6 -2 20 -10 30 -15 18
-15 18 -10 -5 3 -17 2 -21 -6 -13 -6 6 -12 22 -13 37 -3 26 -3 26 21 10 14 -9
28 -13 33 -11z m-75 -56 c14 -13 28 -36 32 -52 6 -25 4 -28 -10 -23 -10 4 -22
7 -27 7 -6 0 -7 5 -4 10 3 6 -3 10 -14 10 -11 0 -23 5 -27 12 -4 7 -3 8 4 4 7
-4 12 -1 12 9 0 9 -4 13 -10 10 -11 -7 -14 18 -3 28 11 11 21 8 47 -15z m106
8 c-5 -5 -10 -23 -10 -39 0 -25 2 -28 15 -17 13 11 14 10 9 -5 -5 -13 -4 -16
4 -11 7 4 12 1 12 -7 0 -12 -30 -34 -34 -25 -1 2 -8 15 -16 31 -10 21 -19 26
-34 21 -15 -4 -17 -3 -7 4 7 5 10 15 7 21 -4 6 -1 11 8 11 8 0 17 -6 19 -12 3
-7 6 -1 6 13 1 16 7 26 16 26 11 0 12 -4 5 -11z m88 -22 c-4 -3 3 -15 15 -27
26 -26 5 -37 -24 -11 -23 21 -25 44 -2 44 9 0 14 -3 11 -6z m-118 -93 c-1 -14
-2 -13 -11 1 -5 9 -15 16 -22 14 -6 -1 -9 -1 -4 1 4 3 7 12 7 21 1 15 3 14 15
-2 8 -11 15 -27 15 -35z m-107 5 c4 -10 1 -13 -9 -9 -15 6 -19 23 -5 23 5 0
11 -7 14 -14z m82 -36 c3 -5 12 -7 20 -3 8 3 15 1 15 -5 0 -6 3 -17 6 -26 4
-11 1 -16 -11 -16 -9 0 -13 4 -10 10 3 6 -1 7 -9 4 -9 -3 -16 -1 -16 6 0 6 -4
9 -9 6 -10 -7 -23 19 -14 28 9 9 21 7 28 -4z m-100 -18 c-3 -3 -11 0 -18 7 -9
10 -8 11 6 5 10 -3 15 -9 12 -12z m106 -64 c13 -24 -5 -24 -30 1 -11 11 -22
17 -24 15 -3 -3 -8 0 -13 7 -4 7 -3 10 4 5 6 -3 14 -2 17 4 8 13 31 -3 46 -32z
m79 28 c0 -2 -9 -6 -20 -9 -11 -3 -18 -1 -14 4 5 9 34 13 34 5z m95 -77 c-3
-4 -14 -9 -26 -12 -15 -4 -19 -2 -15 10 3 8 6 19 6 24 0 5 9 4 19 -3 11 -7 18
-15 16 -19z"/>
<path d="M2965 2105 c38 -38 39 -56 2 -50 -21 4 -21 4 3 -17 24 -19 25 -19 28
-2 2 11 8 23 13 29 26 27 -11 75 -59 75 -23 0 -22 -2 13 -35z"/>
<path d="M2383 2105 c-7 -8 -26 -12 -43 -10 -22 3 -30 0 -27 -8 2 -7 11 -11
21 -9 9 2 16 -2 16 -7 0 -14 47 8 54 25 7 19 -7 24 -21 9z"/>
<path d="M2565 2110 c-3 -5 -1 -10 4 -10 6 0 11 5 11 10 0 6 -2 10 -4 10 -3 0
-8 -4 -11 -10z"/>
<path d="M3036 2098 c3 -4 9 -8 15 -8 5 0 9 4 9 8 0 5 -7 9 -15 9 -8 0 -12 -4
-9 -9z"/>
<path d="M2225 2070 c-3 -5 -1 -10 4 -10 6 0 11 5 11 10 0 6 -2 10 -4 10 -3 0
-8 -4 -11 -10z"/>
<path d="M3050 2060 c0 -6 7 -13 16 -17 8 -3 20 -17 26 -32 8 -20 12 -22 15
-10 3 11 11 15 24 12 14 -4 19 0 19 15 0 15 -6 20 -20 19 -11 -1 -20 -5 -20
-9 0 -4 -9 1 -20 12 -22 22 -40 26 -40 10z"/>
<path d="M3116 1982 c-4 -12 -2 -31 4 -42 9 -17 14 -19 26 -9 18 15 18 22 -5
50 l-18 23 -7 -22z"/>
<path d="M3346 1937 c3 -10 9 -15 12 -12 3 3 0 11 -7 18 -10 9 -11 8 -5 -6z"/>
<path d="M2420 1929 c0 -5 5 -7 10 -4 6 3 10 8 10 11 0 2 -4 4 -10 4 -5 0 -10
-5 -10 -11z"/>
<path d="M2525 1922 c-3 -9 -3 -13 1 -10 3 4 18 -4 32 -17 25 -23 42 -25 42
-4 0 6 -4 8 -9 4 -6 -3 -15 3 -20 14 -14 26 -38 33 -46 13z"/>
<path d="M2462 1881 c13 -17 28 -30 35 -30 6 -1 -1 13 -15 29 -34 39 -51 39
-20 1z"/>
<path d="M3206 1895 c-3 -8 -1 -15 5 -15 5 0 14 -12 20 -26 8 -23 11 -25 22
-12 7 9 19 18 27 22 10 4 9 5 -5 5 -37 -2 -45 1 -45 15 0 21 -17 29 -24 11z"/>
<path d="M3361 1894 c0 -11 3 -14 6 -6 3 7 2 16 -1 19 -3 4 -6 -2 -5 -13z"/>
<path d="M3178 1857 c-3 -14 0 -24 7 -24 7 0 10 10 7 24 -2 13 -6 23 -7 23 -1
0 -5 -10 -7 -23z"/>
<path d="M2995 1860 c-4 -6 -11 -8 -16 -5 -5 4 -9 0 -9 -8 0 -8 9 -17 20 -20
12 -3 20 -14 20 -26 0 -12 6 -21 15 -21 8 0 15 -4 15 -10 0 -5 6 -10 14 -10 8
0 17 -6 19 -12 4 -9 6 -9 6 -1 1 6 -12 23 -29 36 -16 14 -30 33 -30 41 0 9 -5
16 -11 16 -6 0 -9 7 -5 15 6 17 0 20 -9 5z"/>
<path d="M2900 1851 c0 -4 9 -12 19 -18 16 -10 18 -9 14 6 -4 16 -33 26 -33
12z"/>
<path d="M3117 1828 c6 -22 5 -22 -14 -5 -19 16 -33 14 -33 -6 0 -5 7 -7 15
-4 8 4 17 2 20 -4 4 -5 11 -7 16 -4 10 7 11 4 14 -35 2 -14 4 -32 6 -40 4 -15
-1 -16 -36 -5 -19 6 -19 6 -2 -5 14 -9 17 -19 13 -38 -6 -25 -5 -25 15 7 l22
33 19 -23 19 -24 -7 25 c-3 14 -12 32 -19 40 -11 13 -28 66 -29 94 -1 5 -6 11
-13 13 -7 3 -9 -4 -6 -19z"/>
<path d="M2256 1824 c-9 -24 -7 -31 10 -38 10 -4 13 -2 7 7 -4 6 -6 20 -5 30
4 21 -4 22 -12 1z"/>
<path d="M2471 1810 c6 -16 15 -30 19 -30 5 0 2 14 -6 30 -9 17 -17 30 -19 30
-2 0 1 -13 6 -30z"/>
<path d="M2551 1808 c14 -13 23 -31 21 -42 -2 -11 0 -16 6 -12 6 4 26 -7 45
-24 19 -16 39 -30 45 -30 13 0 12 49 -1 57 -6 4 -8 -4 -5 -20 3 -15 1 -24 -3
-21 -5 3 -9 12 -9 20 0 8 -4 14 -10 14 -5 0 -28 18 -52 40 -24 22 -47 40 -52
40 -5 0 2 -10 15 -22z"/>
<path d="M3240 1812 c0 -5 7 -23 15 -38 8 -16 15 -37 15 -46 0 -10 6 -18 13
-18 8 0 7 -4 -3 -10 -8 -5 -10 -10 -4 -10 6 0 17 7 24 15 10 12 10 15 -3 15
-9 0 -19 17 -26 44 -10 40 -31 72 -31 48z"/>
<path d="M2814 1785 c-4 -10 4 -23 21 -37 15 -12 31 -26 36 -32 43 -51 58 -64
62 -53 4 9 6 9 6 0 1 -6 -4 -15 -10 -18 -6 -4 -1 -15 14 -28 31 -28 41 -55 21
-59 -13 -2 -12 -6 3 -23 19 -20 34 -48 39 -73 4 -21 14 -27 14 -9 0 9 5 19 12
23 7 4 8 3 4 -4 -11 -18 0 -14 15 5 10 11 10 14 2 9 -7 -4 -13 -2 -13 3 0 6 5
11 12 11 9 0 9 3 1 11 -6 6 -9 19 -5 28 5 13 3 14 -9 4 -12 -10 -18 -8 -29 10
-8 12 -15 31 -15 42 0 11 -6 20 -14 20 -8 0 -16 6 -19 14 -3 8 0 11 7 7 6 -4
11 0 11 9 0 11 -5 15 -16 11 -9 -3 -12 -2 -9 5 4 6 -2 13 -14 16 -12 3 -21 8
-21 12 -1 3 -12 20 -26 36 -15 17 -23 24 -19 16 6 -9 4 -12 -3 -7 -7 4 -12 11
-12 17 0 5 -9 18 -20 29 -18 18 -21 18 -26 5z m191 -245 c3 -5 1 -10 -4 -10
-6 0 -11 5 -11 10 0 6 2 10 4 10 3 0 8 -4 11 -10z m23 -38 c6 -18 -15 -14 -22
4 -4 10 -1 14 6 12 6 -2 14 -10 16 -16z"/>
<path d="M3170 1793 c1 -5 10 -19 21 -32 14 -18 22 -21 29 -13 6 7 7 10 4 7
-8 -5 -34 20 -34 34 0 6 -4 11 -10 11 -5 0 -10 -3 -10 -7z"/>
<path d="M2401 1769 c-1 -9 7 -23 17 -30 15 -12 16 -12 6 1 -6 8 -14 22 -17
30 -5 13 -6 12 -6 -1z"/>
<path d="M2503 1774 c-15 -7 -5 -34 12 -34 8 0 17 -5 21 -12 5 -8 1 -9 -12 -5
-17 6 -17 5 -3 -5 16 -13 31 -44 33 -65 1 -7 6 -13 11 -13 9 0 10 7 6 41 0 5
-5 7 -11 4 -6 -3 -10 4 -10 18 0 13 -3 27 -7 31 -4 4 -8 15 -8 23 0 18 -13 24
-32 17z"/>
<path d="M2270 1720 c6 -11 12 -20 14 -20 2 0 2 9 -1 20 -3 11 -9 20 -15 20
-5 0 -4 -9 2 -20z"/>
<path d="M2456 1710 c3 -19 10 -39 15 -44 17 -19 16 0 -2 39 l-19 40 6 -35z"/>
<path d="M2970 1732 c0 -11 20 -38 20 -28 0 14 48 -41 52 -60 2 -10 10 -18 18
-20 47 -9 110 -42 68 -35 -5 0 -8 -4 -8 -10 0 -7 11 -9 30 -5 31 6 41 -7 15
-21 -9 -5 -11 -13 -6 -22 5 -7 14 -10 20 -7 6 4 9 12 6 17 -8 13 12 11 38 -3
12 -7 29 -13 37 -14 8 -2 16 -8 18 -13 2 -6 15 -11 28 -11 20 0 24 5 24 30 0
21 -4 28 -14 24 -8 -3 -17 -13 -19 -22 -3 -12 -6 -9 -11 11 -9 29 -20 34 -32
15 -5 -7 -3 -8 6 -3 8 5 11 4 6 -3 -12 -20 -33 -2 -28 23 2 15 9 22 18 18 8
-3 14 0 14 7 0 6 -4 8 -10 5 -5 -3 -10 -1 -10 6 0 8 -3 9 -13 0 -8 -6 -17 -8
-20 -4 -4 3 -7 -3 -7 -15 0 -28 -11 -28 -28 -1 -8 12 -9 18 -3 14 16 -9 13 11
-3 24 -8 7 -13 21 -11 32 2 11 0 17 -6 14 -5 -4 -7 -10 -4 -15 3 -4 -1 -11 -7
-13 -10 -4 -10 -6 0 -6 14 -1 17 -31 2 -31 -5 0 -10 5 -10 10 0 6 -7 10 -16
10 -8 0 -12 4 -9 10 3 5 0 7 -9 4 -9 -3 -19 3 -27 18 -11 21 -11 22 5 9 14
-12 16 -12 10 3 -3 9 -10 16 -15 16 -5 0 -8 6 -6 13 1 7 -10 13 -27 15 -21 3
-26 0 -21 -10 3 -7 1 -6 -7 3 -15 17 -48 32 -48 21z"/>
<path d="M3217 1733 c-8 -7 11 -33 23 -33 5 0 6 9 3 20 -5 20 -15 25 -26 13z"/>
<path d="M2739 1727 c0 -1 -2 -10 -4 -20 -3 -15 -1 -16 13 -5 9 7 18 13 20 14
2 1 -4 4 -13 7 -8 4 -15 5 -16 4z"/>
<path d="M2695 1710 c-3 -6 1 -7 9 -4 18 7 21 14 7 14 -6 0 -13 -4 -16 -10z"/>
<path d="M2852 1680 c19 -33 21 -41 9 -52 -10 -10 -12 -10 -7 0 4 7 1 12 -7
12 -8 0 -20 7 -27 15 -7 8 -16 12 -21 9 -5 -3 -9 1 -9 9 0 8 -7 17 -15 21 -21
8 -19 -20 3 -30 9 -4 20 -7 24 -6 4 1 5 -15 4 -36 -2 -20 -1 -39 3 -42 4 -3
20 -22 36 -43 19 -26 31 -35 38 -28 8 8 2 20 -17 40 -15 16 -27 33 -27 38 1 4
-6 16 -14 26 -25 28 6 21 40 -10 17 -16 29 -36 27 -45 -2 -10 2 -18 8 -18 6 0
9 4 6 9 -4 5 3 7 14 4 14 -4 20 0 20 11 0 9 -7 16 -15 16 -9 0 -18 7 -21 15
-4 8 -11 15 -18 15 -7 0 -11 14 -10 35 1 19 -2 35 -8 35 -5 0 -6 5 -2 12 4 7
3 8 -4 4 -7 -4 -12 -1 -12 8 0 9 -5 16 -10 16 -6 0 0 -18 12 -40z"/>
<path d="M2320 1686 c0 -9 5 -16 10 -16 6 0 10 4 10 9 0 6 -4 13 -10 16 -5 3
-10 -1 -10 -9z"/>
<path d="M2432 1680 c0 -14 2 -19 5 -12 2 6 2 18 0 25 -3 6 -5 1 -5 -13z"/>
<path d="M2275 1680 c-3 -5 -1 -10 4 -10 6 0 11 5 11 10 0 6 -2 10 -4 10 -3 0
-8 -4 -11 -10z"/>
<path d="M2712 1665 c6 -14 13 -23 16 -20 3 2 11 -3 18 -13 8 -10 14 -12 14
-5 0 11 -45 63 -55 63 -3 0 1 -11 7 -25z"/>
<path d="M3260 1670 c-9 -6 -10 -10 -3 -10 6 0 15 5 18 10 8 12 4 12 -15 0z"/>
<path d="M3186 1647 c11 -36 26 -46 20 -12 l-6 30 14 -30 c12 -26 15 -28 22
-12 8 22 -4 36 -35 42 -19 3 -21 1 -15 -18z"/>
<path d="M2275 1650 c-3 -5 -1 -10 4 -10 6 0 11 5 11 10 0 6 -2 10 -4 10 -3 0
-8 -4 -11 -10z"/>
<path d="M2334 1653 c3 -6 -2 -16 -11 -22 -15 -9 -16 -10 -2 -11 9 0 21 -12
28 -26 6 -15 14 -24 17 -21 3 3 -2 19 -10 36 -9 17 -16 33 -15 37 0 3 -3 9 -7
12 -4 4 -4 2 0 -5z"/>
<path d="M3280 1645 c1 -11 7 -33 16 -50 l14 -30 -5 39 c-5 42 -25 75 -25 41z"/>
<path d="M2476 1623 c4 -16 11 -35 15 -43 6 -9 7 -4 2 15 -3 16 -6 35 -6 42 0
7 -4 13 -9 13 -5 0 -5 -12 -2 -27z"/>
<path d="M2289 1623 c-5 -32 -6 -66 -2 -55 3 6 8 10 12 8 4 -3 5 8 3 25 -4 27
-11 38 -13 22z"/>
<path d="M3014 1589 c-3 -6 -2 -15 3 -20 5 -5 9 -1 9 11 0 23 -2 24 -12 9z"/>
<path d="M2580 1583 c0 -4 5 -15 10 -23 8 -13 10 -13 10 2 0 9 -4 20 -10 23
-5 3 -10 3 -10 -2z"/>
<path d="M2368 1554 c-3 -2 1 -21 8 -42 7 -20 13 -51 14 -69 0 -17 4 -34 9
-38 6 -3 9 20 8 55 -1 33 -5 60 -9 60 -5 0 -8 6 -8 14 0 16 -14 29 -22 20z"/>
<path d="M2280 1539 c0 -5 5 -7 10 -4 6 3 10 8 10 11 0 2 -4 4 -10 4 -5 0 -10
-5 -10 -11z"/>
<path d="M2295 1518 c-10 -25 -3 -39 14 -29 10 6 11 13 3 27 -10 18 -11 18
-17 2z"/>
<path d="M2617 1509 c7 -7 15 -10 18 -7 3 3 -2 9 -12 12 -14 6 -15 5 -6 -5z"/>
<path d="M2896 1499 c-17 -17 -17 -17 3 -12 13 3 21 1 21 -8 0 -7 3 -9 7 -6 9
9 35 -44 29 -60 -3 -7 -1 -13 4 -13 6 0 10 -6 10 -14 0 -8 4 -17 10 -21 6 -3
5 5 -1 23 -5 16 -9 33 -8 38 3 19 -2 31 -29 60 -26 29 -28 29 -46 13z"/>
<path d="M3075 1510 c3 -5 8 -10 11 -10 2 0 4 5 4 10 0 6 -5 10 -11 10 -5 0
-7 -4 -4 -10z"/>
<path d="M3180 1505 c0 -8 5 -15 11 -15 5 0 7 -5 3 -12 -4 -6 -3 -8 4 -5 12 8
4 47 -9 47 -5 0 -9 -7 -9 -15z"/>
<path d="M2636 1465 c4 -16 12 -34 19 -40 6 -5 10 -16 8 -22 -3 -7 3 -13 12
-13 13 0 14 4 5 20 -6 11 -15 20 -20 20 -5 0 -7 6 -4 13 2 7 -2 21 -11 32 -15
19 -15 19 -9 -10z"/>
<path d="M2308 1469 c-13 -7 -15 -16 -9 -32 4 -12 7 -36 6 -54 0 -17 2 -30 6
-27 4 2 9 -1 11 -7 2 -6 3 9 3 33 -1 24 -5 49 -9 56 -4 7 -2 19 4 27 14 17 12
18 -12 4z"/>
<path d="M3061 1466 c-15 -17 -3 -26 42 -32 26 -4 29 -3 14 6 -9 6 -21 9 -26
6 -5 -4 -7 3 -4 14 6 23 -9 27 -26 6z"/>
<path d="M3200 1455 c-7 -8 -10 -21 -7 -29 3 -7 0 -19 -6 -25 -8 -8 -5 -11 10
-11 12 0 29 -10 37 -21 l15 -22 -2 22 c-1 11 -9 24 -19 27 -15 4 -17 12 -12
40 7 37 3 42 -16 19z"/>
<path d="M2336 1445 c4 -8 8 -15 10 -15 2 0 4 7 4 15 0 8 -4 15 -10 15 -5 0
-7 -7 -4 -15z"/>
<path d="M2985 1430 c-4 -7 1 -13 14 -17 12 -3 21 -11 21 -17 0 -14 45 -56 59
-56 5 0 14 -12 19 -27 8 -24 11 -25 17 -10 5 12 1 23 -14 36 -11 10 -18 21
-14 25 3 3 -4 6 -16 6 -18 0 -22 4 -18 20 3 10 2 19 -2 18 -10 -2 -45 15 -52
25 -4 5 -10 4 -14 -3z"/>
<path d="M2351 1410 c0 -8 4 -22 9 -30 12 -18 12 -2 0 25 -6 13 -9 15 -9 5z"/>
<path d="M3080 1406 c0 -8 4 -17 9 -20 5 -4 7 3 4 14 -6 23 -13 26 -13 6z"/>
<path d="M3113 1400 c1 -11 5 -20 9 -20 4 0 8 -7 8 -15 0 -8 7 -15 15 -15 9 0
20 -11 27 -25 6 -13 15 -22 19 -19 15 9 11 17 -26 57 -19 21 -35 42 -35 48 0
5 -4 9 -9 9 -6 0 -9 -9 -8 -20z"/>
<path d="M2391 1385 c0 -5 4 -17 9 -25 7 -11 10 -11 10 -2 0 7 5 10 10 7 6 -3
10 -1 10 5 0 7 -6 10 -14 7 -8 -3 -17 -1 -20 6 -2 7 -5 8 -5 2z"/>
<path d="M2770 1386 c0 -2 7 -9 15 -16 13 -11 14 -10 9 4 -5 14 -24 23 -24 12z"/>
<path d="M3203 1354 c0 -29 14 -41 30 -25 8 8 8 11 -1 11 -6 0 -9 6 -6 14 3 7
-1 16 -9 19 -10 4 -14 -2 -14 -19z"/>
<path d="M3265 1360 c3 -5 8 -10 11 -10 2 0 4 5 4 10 0 6 -5 10 -11 10 -5 0
-7 -4 -4 -10z"/>
<path d="M2426 1342 c-3 -6 -2 -13 3 -16 5 -4 8 -18 5 -31 -2 -14 0 -25 6 -25
5 0 10 12 10 28 0 32 -15 59 -24 44z"/>
<path d="M2960 1334 c0 -14 3 -14 15 -4 12 10 15 10 15 -4 0 -9 4 -16 8 -16 4
0 8 9 8 20 0 14 -7 20 -23 20 -15 0 -23 -6 -23 -16z"/>
<path d="M2360 1330 c0 -5 5 -10 10 -10 7 0 7 -6 0 -19 -7 -14 -7 -22 2 -27 7
-4 8 -3 4 5 -4 6 1 14 12 19 19 7 19 8 -4 25 -13 10 -24 13 -24 7z"/>
<path d="M3140 1329 c0 -5 5 -7 10 -4 6 3 10 8 10 11 0 2 -4 4 -10 4 -5 0 -10
-5 -10 -11z"/>
<path d="M2326 1315 c4 -8 8 -15 10 -15 2 0 4 7 4 15 0 8 -4 15 -10 15 -5 0
-7 -7 -4 -15z"/>
<path d="M2932 1293 c26 -28 32 -29 19 -4 -6 10 -8 21 -5 24 4 3 -3 5 -15 4
l-21 -1 22 -23z"/>
<path d="M2856 1298 c3 -5 10 -6 15 -3 13 9 11 12 -6 12 -8 0 -12 -4 -9 -9z"/>
<path d="M3135 1300 c-5 -8 44 -44 51 -37 3 2 2 11 -1 20 -7 17 -42 29 -50 17z"/>
<path d="M3210 1300 c12 -8 12 -10 -5 -10 -17 0 -17 -2 -5 -10 8 -5 11 -10 6
-10 -11 0 25 -29 37 -30 4 0 7 7 7 15 0 8 -5 15 -11 15 -6 0 -9 6 -6 14 3 8
-1 17 -9 20 -24 9 -31 7 -14 -4z"/>
<path d="M2800 1290 c-8 -5 -12 -12 -9 -15 4 -3 12 1 19 10 14 17 11 19 -10 5z"/>
<path d="M2990 1291 c0 -5 6 -13 13 -19 10 -8 13 -6 13 9 0 10 -6 19 -13 19
-7 0 -13 -4 -13 -9z"/>
<path d="M2841 1274 c0 -11 3 -14 6 -6 3 7 2 16 -1 19 -3 4 -6 -2 -5 -13z"/>
<path d="M2810 1266 c0 -2 7 -9 15 -16 13 -11 14 -10 9 4 -5 14 -24 23 -24 12z"/>
<path d="M2350 1248 c0 -9 5 -20 10 -23 13 -8 13 5 0 25 -8 13 -10 13 -10 -2z"/>
<path d="M2402 1240 c0 -14 2 -19 5 -12 2 6 2 18 0 25 -3 6 -5 1 -5 -13z"/>
<path d="M2727 1245 c-16 -11 -16 -13 -2 -19 9 -3 14 -2 10 3 -3 5 1 11 7 14
7 2 11 7 8 10 -3 3 -13 0 -23 -8z"/>
<path d="M3440 1249 c0 -5 5 -7 10 -4 6 3 10 8 10 11 0 2 -4 4 -10 4 -5 0 -10
-5 -10 -11z"/>
<path d="M2446 1218 c2 -18 6 -42 8 -53 3 -11 5 -24 5 -30 1 -5 5 -3 11 5 5 9
5 19 -1 26 -5 7 -8 23 -5 37 2 15 -1 31 -9 37 -10 9 -12 4 -9 -22z"/>
<path d="M2865 1240 c-3 -5 -1 -10 4 -10 6 0 11 5 11 10 0 6 -2 10 -4 10 -3 0
-8 -4 -11 -10z"/>
<path d="M2961 1224 c0 -11 3 -14 6 -6 3 7 2 16 -1 19 -3 4 -6 -2 -5 -13z"/>
<path d="M2980 1231 c0 -6 5 -13 10 -16 6 -3 10 1 10 9 0 9 -4 16 -10 16 -5 0
-10 -4 -10 -9z"/>
<path d="M2825 1210 c3 -5 8 -10 11 -10 2 0 4 5 4 10 0 6 -5 10 -11 10 -5 0
-7 -4 -4 -10z"/>
<path d="M2402 1185 c0 -16 2 -22 5 -12 2 9 2 23 0 30 -3 6 -5 -1 -5 -18z"/>
<path d="M2823 1184 c9 -3 17 -10 17 -15 0 -6 -5 -7 -11 -3 -8 4 -9 -1 -4 -17
12 -40 20 -40 20 -1 0 29 -4 37 -20 39 -16 1 -16 1 -2 -3z"/>
<path d="M3079 1180 c-1 -3 -1 -9 0 -14 1 -5 -4 -13 -11 -18 -8 -6 -1 -8 21
-4 21 4 40 1 50 -6 14 -11 14 -11 4 3 -7 9 -9 20 -5 24 4 5 1 5 -5 1 -8 -4
-13 -2 -13 6 0 13 -39 20 -41 8z"/>
<path d="M2883 1165 c0 -8 7 -15 15 -15 12 0 12 3 2 15 -7 8 -13 15 -15 15 -1
0 -2 -7 -2 -15z"/>
<path d="M2600 1145 c-19 -23 -8 -25 14 -4 11 11 15 19 9 19 -6 0 -16 -7 -23
-15z"/>
<path d="M2410 1141 c0 -6 4 -13 10 -16 6 -3 7 1 4 9 -7 18 -14 21 -14 7z"/>
<path d="M2570 1136 c0 -8 -6 -17 -12 -19 -8 -3 -6 -6 5 -6 11 -1 17 6 17 19
0 11 -2 20 -5 20 -3 0 -5 -6 -5 -14z"/>
<path d="M3283 1130 c-13 -5 -23 -12 -23 -15 0 -11 54 2 58 13 4 14 -4 14 -35
2z"/>
<path d="M2393 1105 c-10 -11 -10 -14 0 -18 9 -3 7 -17 -6 -56 -10 -29 -16
-55 -13 -59 3 -3 6 0 6 6 0 7 5 12 11 12 6 0 9 -6 6 -13 -3 -8 -1 -20 4 -28 6
-9 9 2 10 36 1 28 2 67 3 88 2 43 -3 51 -21 32z"/>
<path d="M2515 1110 c3 -5 8 -10 11 -10 2 0 4 5 4 10 0 6 -5 10 -11 10 -5 0
-7 -4 -4 -10z"/>
<path d="M2760 1110 c0 -5 5 -10 10 -10 6 0 10 5 10 10 0 6 -4 10 -10 10 -5 0
-10 -4 -10 -10z"/>
<path d="M3220 1100 c-13 -8 -12 -10 3 -10 9 0 17 5 17 10 0 12 -1 12 -20 0z"/>
<path d="M2441 1095 c-1 -6 5 -17 12 -24 8 -10 8 -12 0 -7 -6 3 -14 2 -18 -4
-3 -5 0 -10 8 -10 18 0 15 -52 -4 -77 -13 -17 -13 -17 5 -3 11 8 22 13 25 10
3 -3 5 4 5 15 -1 11 -2 37 -2 58 -1 21 -6 36 -11 33 -5 -4 -12 0 -14 6 -3 7
-6 8 -6 3z"/>
<path d="M2683 1079 c-2 -23 3 -25 10 -4 4 8 3 16 -1 19 -4 3 -9 -4 -9 -15z"/>
<path d="M2650 1070 c0 -5 5 -10 11 -10 5 0 7 5 4 10 -3 6 -8 10 -11 10 -2 0
-4 -4 -4 -10z"/>
<path d="M2560 1058 c0 -23 19 -33 33 -18 9 10 9 11 0 6 -6 -3 -16 2 -22 11
-9 16 -10 16 -11 1z"/>
<path d="M2311 1044 c0 -11 3 -14 6 -6 3 7 2 16 -1 19 -3 4 -6 -2 -5 -13z"/>
<path d="M2730 1040 c0 -6 -16 -8 -36 -6 -27 4 -34 2 -26 -6 8 -8 8 -15 1 -24
-7 -8 -7 -14 1 -19 7 -4 5 -11 -4 -21 -9 -8 -12 -22 -9 -31 6 -14 7 -14 19 1
9 13 13 14 18 4 3 -7 3 -1 0 15 -4 16 -2 27 5 27 6 0 11 5 11 11 0 5 -4 7 -10
4 -5 -3 -10 3 -10 13 0 15 5 19 20 15 12 -3 20 -14 20 -26 0 -11 3 -17 7 -13
11 11 12 36 1 36 -6 0 -5 6 2 15 9 10 9 15 1 15 -6 0 -11 -5 -11 -10z"/>
<path d="M3165 1031 c-3 -5 -1 -12 5 -16 5 -3 10 1 10 9 0 18 -6 21 -15 7z"/>
<path d="M2640 1020 c0 -5 5 -10 11 -10 5 0 7 5 4 10 -3 6 -8 10 -11 10 -2 0
-4 -4 -4 -10z"/>
<path d="M2516 985 c10 -52 30 -60 39 -15 2 12 1 19 -3 16 -4 -4 -8 -12 -8
-17 -3 -23 -6 -22 -20 11 -13 33 -14 33 -8 5z"/>
<path d="M2608 982 c4 -19 2 -23 -9 -17 -8 5 -6 -1 4 -12 17 -20 17 -20 -8
-17 -16 1 -28 -3 -32 -12 -8 -22 7 -31 20 -13 11 14 14 15 26 2 10 -11 15 -12
21 -3 6 9 9 9 14 -1 3 -8 3 -3 0 10 -11 44 -11 56 -1 69 5 6 6 12 1 13 -5 0
-16 2 -25 4 -12 2 -15 -3 -11 -23z"/>
<path d="M2785 960 c3 -5 8 -10 11 -10 2 0 4 5 4 10 0 6 -5 10 -11 10 -5 0 -7
-4 -4 -10z"/>
<path d="M2532 908 c-7 -7 -12 -16 -12 -21 0 -5 7 -1 16 8 9 9 14 18 12 20 -2
3 -10 -1 -16 -7z"/>
<path d="M2460 798 c0 -9 5 -20 10 -23 13 -8 13 5 0 25 -8 13 -10 13 -10 -2z"/>
</g>
</svg>
